<svg xmlns="http://www.w3.org/2000/svg" xmlns:xlink="http://www.w3.org/1999/xlink" width="512" zoomAndPan="magnify" viewBox="0 0 384 383.999986" height="512" preserveAspectRatio="xMidYMid meet" version="1.0"><defs><clipPath id="430b1e06dd"><path d="M 337 74 L 378.609375 74 L 378.609375 288 L 337 288 Z M 337 74 " clip-rule="nonzero"/></clipPath><clipPath id="eaaf48c409"><path d="M 59 323 L 294 323 L 294 378.609375 L 59 378.609375 Z M 59 323 " clip-rule="nonzero"/></clipPath><clipPath id="dbc9e8a827"><path d="M 5.109375 5.109375 L 295 5.109375 L 295 288 L 5.109375 288 Z M 5.109375 5.109375 " clip-rule="nonzero"/></clipPath></defs><rect x="-38.4" width="460.8" fill="#ffffff" y="-38.399999" height="460.799983" fill-opacity="1"/><rect x="-38.4" width="460.8" fill="#ffffff" y="-38.399999" height="460.799983" fill-opacity="1"/><g clip-path="url(#430b1e06dd)"><path fill="#fa4238" d="M 378.890625 192 C 378.890625 166.773438 373.949219 142.296875 364.199219 119.253906 C 357.378906 103.128906 348.417969 88.203125 337.480469 74.675781 C 337.5 78.574219 337.617188 82.582031 337.753906 86.710938 C 359.210938 116.328125 371.875 152.710938 371.875 192 C 371.875 220.964844 364.992188 248.351562 352.777344 272.613281 L 352.777344 287.339844 C 357.070312 280.105469 360.894531 272.566406 364.199219 264.742188 C 373.945312 241.699219 378.890625 217.222656 378.890625 191.996094 Z M 378.890625 192 " fill-opacity="1" fill-rule="nonzero"/></g><g clip-path="url(#eaaf48c409)"><path fill="#fa4238" d="M 192 371.875 C 145.886719 371.875 103.78125 354.433594 71.910156 325.804688 C 70.035156 325.535156 68.160156 325.238281 66.308594 324.914062 C 63.953125 324.5 61.542969 324.03125 59.128906 323.414062 C 59.367188 323.660156 59.601562 323.90625 59.847656 324.152344 C 77.007812 341.3125 96.996094 354.789062 119.253906 364.199219 C 142.296875 373.945312 166.773438 378.890625 192 378.890625 C 217.226562 378.890625 241.703125 373.949219 264.746094 364.199219 C 274.964844 359.878906 284.6875 354.695312 293.898438 348.695312 L 280.335938 348.648438 C 254.226562 363.429688 224.082031 371.871094 192 371.871094 Z M 192 371.875 " fill-opacity="1" fill-rule="nonzero"/></g><g clip-path="url(#dbc9e8a827)"><path fill="#fa4238" d="M 31.300781 272.761719 C 19.039062 248.460938 12.125 221.027344 12.125 192 C 12.125 92.816406 92.816406 12.125 192 12.125 C 224.347656 12.125 254.730469 20.710938 280.984375 35.71875 C 285.023438 35.621094 289.097656 35.542969 293.109375 35.542969 C 293.507812 35.542969 293.886719 35.542969 294.277344 35.542969 C 284.960938 29.441406 275.101562 24.167969 264.746094 19.789062 C 241.703125 10.050781 217.226562 5.109375 192 5.109375 C 166.773438 5.109375 142.296875 10.050781 119.253906 19.800781 C 96.996094 29.214844 77.007812 42.6875 59.847656 59.847656 C 42.6875 77.007812 29.210938 96.996094 19.800781 119.253906 C 10.050781 142.296875 5.109375 166.773438 5.109375 192 C 5.109375 217.226562 10.050781 241.703125 19.800781 264.746094 C 23.15625 272.679688 27.035156 280.3125 31.402344 287.644531 C 31.171875 282.871094 31.164062 277.609375 31.300781 272.761719 Z M 31.300781 272.761719 " fill-opacity="1" fill-rule="nonzero"/></g><path fill="#fa4238" d="M 300.082031 335.695312 L 311.453125 335.734375 C 315.839844 332.082031 320.078125 328.222656 324.152344 324.152344 C 324.613281 323.691406 325.0625 323.214844 325.523438 322.746094 L 315.40625 322.746094 C 310.546875 327.335938 305.425781 331.660156 300.082031 335.695312 Z M 300.082031 335.695312 " fill-opacity="1" fill-rule="nonzero"/><path fill="#fa4238" d="M 300.082031 335.695312 C 293.800781 340.429688 287.207031 344.757812 280.335938 348.652344 L 293.898438 348.703125 C 299.992188 344.734375 305.847656 340.410156 311.460938 335.738281 L 300.085938 335.699219 Z M 300.082031 335.695312 " fill-opacity="1" fill-rule="nonzero"/><path fill="#fa4238" d="M 215.96875 137.359375 L 215.96875 149.136719 C 215.96875 149.40625 215.117188 149.9375 214.703125 149.910156 L 183.902344 149.886719 L 183.902344 322.746094 L 325.949219 322.746094 L 326.703125 321.996094 L 326.703125 149.886719 L 246.539062 149.378906 L 259.285156 137.832031 C 281.664062 136.738281 304.425781 137.65625 326.945312 137.367188 C 334.289062 137.980469 339.09375 141.449219 339.75 149.113281 L 339.75 322.515625 C 339.183594 330.734375 335.335938 335.132812 326.972656 335.789062 L 181.652344 335.265625 C 176.371094 334.738281 171.476562 331.621094 170.875 326 C 169.367188 311.867188 170.378906 294.835938 170.355469 280.382812 C 170.285156 238.691406 171.285156 196.960938 170.902344 155.117188 C 170.855469 150.148438 169.195312 145.753906 173.121094 141.355469 C 174.472656 139.835938 178.738281 137.355469 180.644531 137.355469 L 215.96875 137.355469 Z M 215.96875 137.359375 " fill-opacity="1" fill-rule="nonzero"/><path fill="#fa4238" d="M 191.417969 71.722656 L 191.417969 82.746094 C 168.246094 82.796875 145.699219 88.03125 125.445312 99.195312 C 90.414062 118.496094 65.449219 154.542969 61.652344 194.734375 C 60.75 204.289062 61.566406 213.65625 62.160156 223.191406 L 56.382812 228.050781 C 55.320312 228.226562 55.796875 227.875 55.589844 227.363281 C 45.578125 202.242188 47.292969 172.09375 58.054688 147.546875 C 80.242188 96.957031 136.523438 65.625 191.421875 71.726562 Z M 191.417969 71.722656 " fill-opacity="1" fill-rule="nonzero"/><path fill="#fa4238" d="M 162.359375 235.566406 C 160.132812 235.246094 156.355469 233.71875 154.210938 234.144531 C 152.933594 234.398438 149.871094 237.003906 148.339844 237.832031 C 131.027344 247.128906 115.132812 247.136719 97.886719 237.65625 C 94 235.515625 94.335938 233.652344 89.015625 234.128906 C 73.191406 235.535156 57.25 250.230469 56.117188 266.359375 C 55.703125 272.191406 55.304688 288.070312 56.257812 293.320312 C 57.421875 299.753906 71.117188 300.921875 76.492188 301.644531 C 96.636719 304.34375 117.308594 304.28125 137.535156 303.691406 C 145.828125 303.453125 154.089844 303.636719 162.359375 302.710938 L 162.359375 312.984375 C 162.359375 313.117188 161.847656 314.171875 161.496094 314.238281 C 145.238281 315.308594 128.816406 316.175781 112.484375 315.757812 C 98.101562 315.394531 82.765625 314.574219 68.558594 312.085938 C 58.480469 310.320312 48.554688 307.644531 45.484375 296.578125 C 43.71875 290.214844 44.039062 267.402344 45.238281 260.503906 C 49.007812 238.828125 74.554688 219.953125 96.421875 223.09375 C 99.25 223.5 101.828125 226.617188 104.398438 228.144531 C 115.128906 234.519531 128.796875 235.085938 139.964844 229.472656 C 143.511719 227.6875 146.539062 223.9375 150.300781 223.273438 C 153.828125 222.652344 159.410156 222.769531 162.351562 224.804688 L 162.351562 235.574219 Z M 162.359375 235.566406 " fill-opacity="1" fill-rule="nonzero"/><path fill="#fa4238" d="M 213.714844 129.34375 C 207.796875 128.507812 201.691406 121.921875 200.992188 116.011719 C 202.066406 98.949219 199.375 79.746094 200.917969 62.933594 C 201.648438 54.949219 208.632812 49.535156 216.285156 48.742188 C 229.574219 47.351562 243.984375 49.125 257.292969 49.203125 C 273.699219 49.292969 293.492188 47.761719 309.414062 49.1875 C 317.339844 49.898438 324.027344 55.863281 324.722656 63.941406 C 323.703125 80.558594 326.015625 98.648438 324.722656 115.082031 C 324.074219 123.277344 318.621094 129.363281 310.363281 130.285156 L 257.9375 130.472656 L 231.261719 153.90625 C 229.007812 155.671875 223.792969 155.132812 223.101562 152.042969 C 222.308594 145.402344 223.78125 137.566406 223.019531 131.078125 C 222.933594 130.347656 222.960938 129.789062 222.242188 129.347656 C 219.566406 129.082031 216.304688 129.714844 213.726562 129.347656 Z M 315.007812 58.863281 C 313.96875 57.824219 311.449219 56.648438 309.941406 56.660156 C 279.253906 57.648438 247.367188 54.582031 216.804688 55.875 C 212.246094 56.070312 208.496094 58.089844 207.953125 62.949219 C 206.859375 72.707031 208.273438 85.101562 208.472656 94.996094 C 208.609375 101.550781 207.835938 109.246094 208.429688 115.585938 C 208.753906 119.078125 211.378906 121.628906 214.835938 122.203125 C 217.625 122.667969 228.609375 121.671875 229.765625 122.808594 C 231.515625 124.542969 229.894531 137.703125 230.503906 141.109375 C 230.636719 141.835938 230.90625 142.429688 231.757812 142.386719 L 252.800781 123.828125 L 255.421875 122.4375 C 270.910156 121.910156 286.476562 122.523438 301.882812 122.84375 C 307.945312 122.96875 316.429688 123.71875 317.210938 115.585938 C 318.792969 99.136719 315.96875 80.160156 317.195312 63.441406 C 317.035156 62.144531 315.921875 59.773438 315.011719 58.863281 Z M 315.007812 58.863281 " fill-opacity="1" fill-rule="nonzero"/><path fill="#fa4238" d="M 117.640625 136.984375 C 178.304688 129.378906 171.851562 235.371094 115.742188 222.804688 C 76.082031 213.921875 76.699219 142.117188 117.640625 136.984375 Z M 123.667969 148.019531 C 87.164062 148.375 90.777344 214.976562 126.050781 212.035156 C 157.242188 209.429688 157.265625 147.691406 123.667969 148.019531 Z M 123.667969 148.019531 " fill-opacity="1" fill-rule="nonzero"/><path fill="#fa4238" d="M 203.308594 237.183594 L 309.925781 237.554688 C 316.007812 238.265625 315.042969 249.25 307.925781 248.105469 L 202.152344 247.625 C 197.578125 245.835938 198.308594 237.886719 203.308594 237.183594 Z M 203.308594 237.183594 " fill-opacity="1" fill-rule="nonzero"/><path fill="#fa4238" d="M 212.355469 258.757812 C 231.492188 257.972656 251.632812 258.722656 270.808594 259.136719 C 274.542969 259.214844 289.890625 258.464844 291.898438 259.589844 C 294.828125 261.234375 294.660156 270.308594 289.878906 270.148438 L 203.734375 270.09375 C 197.359375 269.1875 197.796875 259.917969 202.71875 259.144531 C 205.15625 258.765625 209.566406 258.875 212.355469 258.765625 Z M 212.355469 258.757812 " fill-opacity="1" fill-rule="nonzero"/><path fill="#fa4238" d="M 202.296875 283.773438 L 272.808594 283.695312 C 277.738281 284.476562 277.417969 295.035156 271.335938 294.6875 L 204.195312 294.6875 C 198.324219 294.503906 196.933594 285.855469 202.296875 283.773438 Z M 202.296875 283.773438 " fill-opacity="1" fill-rule="nonzero"/><path fill="#fa4238" d="M 215.640625 207.832031 C 209.90625 202.808594 204.507812 191.171875 198.503906 185.636719 C 196.21875 183.207031 203.789062 178.445312 205.429688 179.183594 L 218.726562 195.976562 C 220.628906 193.734375 222.640625 191.503906 224.472656 189.207031 C 229.914062 182.40625 236.664062 170.515625 242.328125 164.976562 C 245.828125 161.5625 249.582031 165.1875 251.007812 168.679688 L 224.1875 206.960938 C 222.066406 210.363281 218.5 210.34375 215.644531 207.835938 Z M 215.640625 207.832031 " fill-opacity="1" fill-rule="nonzero"/><path fill="#fa4238" d="M 318.03125 184.3125 C 317.109375 185.457031 312.085938 185.96875 310.425781 186.003906 C 305.175781 186.105469 299.734375 185.625 294.363281 185.980469 C 283.777344 184.113281 271.429688 186.628906 260.988281 185.679688 C 256.878906 185.3125 256.601562 181.5625 257.035156 178.175781 C 257.421875 175.191406 259.675781 174.695312 262.320312 174.441406 C 278.515625 172.917969 296.980469 175.566406 313.414062 174.441406 C 318.503906 173.554688 320.289062 181.511719 318.027344 184.3125 Z M 318.03125 184.3125 " fill-opacity="1" fill-rule="nonzero"/><path fill="#fa4238" d="M 260.429688 195.097656 L 298.355469 195.011719 C 304.054688 195.882812 304.050781 204.09375 298.355469 204.96875 C 287.34375 206.648438 272.289062 203.804688 260.84375 204.96875 C 255.332031 204.125 255.125 196.046875 260.429688 195.097656 Z M 260.429688 195.097656 " fill-opacity="1" fill-rule="nonzero"/><path fill="#fa4238" d="M 264.820312 113.8125 C 262.929688 113.269531 262.191406 105.828125 260.539062 104.566406 C 257.511719 102.246094 243.867188 105.074219 239.570312 104.347656 C 238.691406 107.507812 237.9375 111.304688 235.761719 113.816406 L 225.742188 113.816406 C 225.195312 113.816406 224.742188 112.351562 225.1875 111.792969 C 231.355469 97.273438 235.335938 80.949219 241.644531 66.585938 C 242.335938 65.015625 242.320312 63.910156 244.25 63.679688 C 246.308594 63.4375 254.433594 63.367188 256.292969 63.722656 C 257.15625 63.886719 257.59375 64.28125 257.984375 65.039062 C 263.082031 79.503906 269.375 93.988281 274.101562 108.546875 C 274.398438 109.453125 276.3125 113.816406 274.84375 113.816406 L 264.820312 113.816406 Z M 250.984375 75.792969 L 249.574219 75.757812 C 249.050781 78.378906 242.691406 93.613281 243.246094 94.761719 C 243.433594 95.140625 243.964844 95.542969 244.382812 95.667969 C 246.03125 96.15625 257.101562 96.125 257.511719 94.476562 Z M 250.984375 75.792969 " fill-opacity="1" fill-rule="nonzero"/><path fill="#fa4238" d="M 282.359375 63.707031 L 292.378906 63.707031 L 293.132812 64.457031 L 293.132812 113.058594 L 292.378906 113.8125 L 282.359375 113.8125 L 281.605469 113.058594 L 281.605469 64.457031 Z M 282.359375 63.707031 " fill-opacity="1" fill-rule="nonzero"/></svg>