<svg xmlns="http://www.w3.org/2000/svg" xmlns:xlink="http://www.w3.org/1999/xlink" width="512" zoomAndPan="magnify" viewBox="0 0 384 383.999986" height="512" preserveAspectRatio="xMidYMid meet" version="1.0"><defs><clipPath id="13be36033e"><path d="M 79 70 L 380.632812 70 L 380.632812 380.632812 L 79 380.632812 Z M 79 70 " clip-rule="nonzero"/></clipPath><clipPath id="62e12c5a26"><path d="M 3.382812 3.382812 L 320 3.382812 L 320 323 L 3.382812 323 Z M 3.382812 3.382812 " clip-rule="nonzero"/></clipPath></defs><rect x="-38.4" width="460.8" fill="#ffffff" y="-38.399999" height="460.799983" fill-opacity="1"/><rect x="-38.4" width="460.8" fill="#ffffff" y="-38.399999" height="460.799983" fill-opacity="1"/><g clip-path="url(#13be36033e)"><path fill="#fa4238" d="M 365.78125 118.578125 C 358.34375 100.984375 348.378906 84.808594 336.089844 70.296875 C 336.3125 71.367188 336.480469 72.480469 336.574219 73.628906 C 336.835938 76.707031 336.960938 79.808594 337.003906 82.90625 C 359.921875 113.296875 373.527344 151.085938 373.527344 191.996094 C 373.527344 292.089844 292.089844 373.527344 191.996094 373.527344 C 156.597656 373.527344 123.53125 363.34375 95.578125 345.746094 L 91.050781 345.730469 L 90.503906 345.730469 C 90.503906 345.730469 89.957031 345.691406 89.957031 345.691406 C 86.496094 345.433594 83.109375 344.75 79.875 343.6875 C 91.824219 352.542969 104.765625 359.941406 118.578125 365.78125 C 141.832031 375.617188 166.535156 380.609375 191.996094 380.609375 C 217.457031 380.609375 242.15625 375.621094 265.414062 365.78125 C 287.875 356.28125 308.046875 342.683594 325.363281 325.363281 C 342.683594 308.046875 356.285156 287.875 365.78125 265.414062 C 375.617188 242.15625 380.609375 217.457031 380.609375 191.996094 C 380.609375 166.535156 375.621094 141.832031 365.78125 118.578125 Z M 365.78125 118.578125 " fill-opacity="1" fill-rule="nonzero"/></g><g clip-path="url(#62e12c5a26)"><path fill="#fa4238" d="M 52.917969 310.433594 L 52.917969 308.539062 C 26.429688 276.988281 10.460938 236.320312 10.460938 191.996094 C 10.460938 91.898438 91.898438 10.460938 191.996094 10.460938 C 235.867188 10.460938 276.15625 26.105469 307.574219 52.109375 C 310.453125 52.132812 313.050781 52.253906 315.472656 52.464844 C 316.929688 52.597656 318.324219 52.832031 319.660156 53.160156 C 303.667969 38.425781 285.453125 26.675781 265.414062 18.203125 C 242.15625 8.367188 217.457031 3.382812 191.996094 3.382812 C 166.535156 3.382812 141.832031 8.367188 118.578125 18.207031 C 96.117188 27.710938 75.945312 41.304688 58.625 58.625 C 41.304688 75.945312 27.703125 96.117188 18.207031 118.578125 C 8.367188 141.832031 3.382812 166.535156 3.382812 191.996094 C 3.382812 217.457031 8.367188 242.15625 18.207031 265.414062 C 27.269531 286.828125 40.0625 306.160156 56.25 322.925781 C 54.574219 319.277344 53.476562 315.347656 53.019531 311.277344 L 52.921875 310.433594 Z M 52.917969 310.433594 " fill-opacity="1" fill-rule="nonzero"/></g><path fill="#fa4238" d="M 117.660156 74.175781 L 117.660156 89.597656 C 117.660156 89.765625 116.996094 90.367188 117.15625 90.863281 L 92.632812 90.863281 C 92.160156 90.863281 89.4375 91.785156 88.804688 92.089844 C 85.445312 93.730469 84.5625 97.257812 84.269531 100.703125 L 84.269531 304.015625 C 84.855469 310.777344 88.511719 313.859375 95.140625 314.382812 C 111.878906 315.695312 131.636719 314.199219 148.78125 314.339844 C 186.117188 314.648438 223.625 315.191406 261.039062 314.886719 C 264.992188 314.503906 267.601562 312.898438 268.886719 309.082031 C 269.09375 308.464844 269.867188 305.386719 269.867188 305.007812 L 269.867188 249.128906 L 286.046875 249.128906 L 286.046875 311.578125 C 286.046875 321.148438 272.847656 331.335938 263.566406 331.066406 L 91.097656 330.5625 C 79.359375 329.675781 69.441406 321.5625 68.089844 309.578125 L 68.117188 95.671875 C 68.449219 85.730469 79.675781 74.167969 89.597656 74.167969 L 117.660156 74.167969 Z M 117.660156 74.175781 " fill-opacity="1" fill-rule="nonzero"/><path fill="#fa4238" d="M 189.460938 66.59375 C 196.359375 67.089844 204.160156 65.917969 210.945312 66.59375 C 215.078125 67.007812 217.398438 68.59375 217.800781 72.890625 C 218.199219 77.183594 218.410156 90.160156 217.753906 94.125 C 217.445312 95.988281 215.792969 97.902344 214.007812 98.46875 C 186.300781 99.609375 158.332031 98.609375 130.53125 98.972656 C 128.492188 99.082031 125.90625 97.679688 125.117188 95.792969 C 123.769531 92.570312 123.863281 77.945312 124.210938 73.90625 C 124.433594 71.308594 124.9375 68.804688 127.417969 67.503906 C 131.703125 65.253906 151.347656 67.503906 152.492188 66.539062 C 153.089844 61.089844 154.144531 56.222656 158.160156 52.234375 C 170.503906 39.988281 190.304688 49.808594 189.457031 66.59375 Z M 168.59375 52.546875 C 166.753906 52.925781 163.773438 55.207031 162.667969 56.734375 C 159.148438 61.582031 162.007812 71.867188 159.414062 73.710938 C 157.726562 74.90625 144.503906 73.851562 141.148438 74.15625 C 136.851562 74.542969 136.867188 77.082031 137.429688 80.957031 C 137.816406 83.636719 138.5625 84.082031 141.148438 84.3125 C 160.117188 86.027344 181.628906 82.964844 200.863281 84.3125 C 205.890625 84.914062 206.050781 75.59375 202.132812 74.402344 C 198.128906 73.183594 184.378906 75.328125 182.09375 73.710938 C 179.574219 71.925781 181.601562 65.238281 181.316406 62.351562 C 180.699219 56.164062 174.816406 51.261719 168.59375 52.550781 Z M 168.59375 52.546875 " fill-opacity="1" fill-rule="nonzero"/><path fill="#fa4238" d="M 281.496094 184.914062 L 299.949219 185.429688 C 307.175781 186.355469 314.007812 189.980469 318.417969 195.789062 C 319.953125 197.816406 321.308594 202.691406 322.207031 203.625 C 323.246094 204.695312 325.429688 204.152344 326.738281 206.171875 C 328.816406 209.375 329.714844 225.855469 322.480469 224.886719 C 322.609375 235.59375 313.621094 242.804688 303.515625 243.59375 C 287.089844 244.871094 269.027344 242.601562 252.425781 243.566406 C 245.617188 242.890625 237.460938 237.203125 234.722656 230.929688 C 234.222656 229.777344 233.609375 226.359375 233.347656 225.984375 C 232.898438 225.34375 229.640625 224.933594 228.539062 222.449219 C 227.4375 219.96875 227.351562 207.777344 229.179688 205.664062 C 230.191406 204.488281 232.257812 204.515625 233.195312 203.609375 C 234.136719 202.703125 235.628906 197.867188 237.089844 195.875 C 246.378906 183.195312 255.90625 186.453125 269.132812 185.441406 C 279.011719 184.6875 269.863281 181.804688 269.953125 176.5625 C 270.125 166.496094 287.3125 166.929688 284.925781 178.484375 C 284.34375 181.300781 281.152344 182.078125 281.503906 184.914062 Z M 264.703125 192.648438 C 252.933594 193.199219 241.570312 195.320312 240.09375 209.5 C 237.984375 229.726562 244.027344 236.847656 264.074219 236.511719 C 276.105469 236.3125 291.449219 237.066406 303.007812 236.007812 C 311.15625 235.265625 315.128906 229.109375 315.816406 221.511719 C 317.308594 205.0625 312.722656 193.765625 294.894531 192.503906 C 285.78125 191.859375 273.929688 192.21875 264.703125 192.648438 Z M 264.703125 192.648438 " fill-opacity="1" fill-rule="nonzero"/><path fill="#fa4238" d="M 237.863281 55.570312 C 245.214844 55.636719 252.679688 55.117188 260.027344 55.445312 C 262.015625 55.535156 266.929688 55.722656 268.496094 56.078125 C 272.253906 56.925781 276.488281 67.070312 279.238281 67.585938 C 290.503906 68.363281 303.027344 66.59375 314.132812 67.582031 C 318.761719 67.992188 321.070312 70.332031 321.460938 74.917969 C 322.714844 89.632812 320.46875 106.070312 321.464844 120.972656 C 321.339844 124.996094 317.214844 127.0625 313.628906 127.296875 C 292.273438 126.328125 270.6875 128.820312 249.367188 127.800781 C 246.839844 127.679688 241.503906 127.402344 239.324219 126.71875 C 236.207031 125.738281 235.230469 123.554688 234.957031 120.46875 C 233.246094 101.136719 236.296875 79.335938 234.957031 59.742188 C 234.867188 57.753906 235.957031 56.121094 237.867188 55.578125 Z M 313.859375 74.679688 L 275.175781 74.679688 L 265.472656 63.144531 L 242.554688 62.542969 L 242.777344 119.71875 C 243.425781 120.644531 252.058594 120.09375 253.953125 120.175781 C 268.636719 120.78125 283.210938 119.941406 297.953125 120.175781 C 300.789062 120.21875 312.09375 121.71875 313.738281 120.078125 L 314.238281 118.835938 L 313.855469 74.683594 Z M 313.859375 74.679688 " fill-opacity="1" fill-rule="nonzero"/><path fill="#fa4238" d="M 107.941406 121.847656 C 114.082031 121.105469 126.304688 121.203125 132.574219 121.71875 C 135.234375 121.933594 138.414062 122.164062 138.425781 125.5 C 138.429688 127.992188 136.195312 128.964844 134.054688 129.25 C 129.296875 129.890625 121.449219 129.410156 116.382812 129.316406 C 111.316406 129.226562 106.503906 126.34375 106.015625 133.574219 C 105.578125 140.09375 105.464844 150.945312 106.015625 157.386719 C 106.09375 158.265625 106.128906 159.503906 106.785156 160.15625 C 108.101562 161.460938 132.3125 160.265625 136.023438 160.546875 C 139.273438 159.585938 135.457031 149.132812 138.925781 146.769531 C 140.625 145.609375 142.941406 145.765625 144.203125 147.515625 C 145.964844 149.964844 144.4375 152.152344 144.453125 154.351562 C 144.46875 156.4375 145.183594 157.734375 144.839844 160.269531 C 144.058594 166.078125 139.507812 168.171875 134.074219 168.253906 C 126.355469 168.363281 118.070312 168.335938 110.328125 168.273438 C 105.183594 168.234375 99.613281 166.136719 98.960938 160.394531 C 97.855469 150.707031 99.761719 138.984375 98.992188 129.074219 C 100.261719 124.390625 103.28125 122.421875 107.953125 121.855469 Z M 107.941406 121.847656 " fill-opacity="1" fill-rule="nonzero"/><path fill="#fa4238" d="M 106.660156 280.359375 L 136.019531 280.890625 C 136.847656 280.613281 137.214844 280.035156 137.367188 279.207031 C 138.097656 275.324219 135.214844 265.320312 142.144531 266.351562 C 144.445312 266.691406 144.800781 268.042969 144.988281 270.09375 C 145.558594 276.4375 145.964844 287.175781 137.636719 288.070312 C 131.171875 288.765625 112.601562 288.890625 106.332031 288.027344 C 102.609375 287.515625 99.515625 284.421875 98.996094 280.695312 C 98.148438 274.515625 98.269531 256.261719 98.953125 249.894531 C 99.414062 245.574219 103.074219 242.53125 107.296875 242.054688 C 113.519531 241.359375 127.78125 241.460938 134.121094 242.035156 C 139.316406 242.503906 139.71875 248.175781 136.011719 249.027344 C 127.511719 250.066406 117.039062 248.027344 108.789062 249.109375 C 106.523438 249.40625 106.1875 250.871094 106.007812 252.902344 C 105.441406 259.273438 105.527344 270.777344 106.011719 277.214844 C 106.09375 278.296875 106.253906 279.359375 106.660156 280.359375 Z M 106.660156 280.359375 " fill-opacity="1" fill-rule="nonzero"/><path fill="#fa4238" d="M 138.519531 206.789062 C 139.859375 205.558594 143.03125 205.679688 144.261719 207.113281 C 145.984375 209.132812 144.417969 211.828125 144.421875 213.992188 C 144.421875 216.363281 145.195312 217.597656 144.742188 220.335938 C 143.890625 225.496094 140.5625 227.546875 135.632812 227.914062 C 128.195312 228.464844 115.160156 228.550781 107.78125 227.914062 C 103.242188 227.519531 100.160156 225.582031 98.984375 221.035156 C 99.625 211.128906 98.015625 199.949219 98.933594 190.199219 C 99.398438 185.234375 102.972656 182.367188 107.808594 181.882812 C 113.859375 181.273438 128.113281 181.203125 134.097656 181.875 C 139.539062 182.488281 139.75 188.269531 135.582031 188.925781 C 128.078125 190.105469 117.703125 188.222656 109.804688 188.9375 C 106.613281 189.222656 106.269531 190.152344 106.015625 193.238281 C 105.511719 199.351562 105.457031 210.976562 106.015625 217.046875 C 106.148438 218.492188 106.21875 219.707031 107.679688 220.4375 L 136.265625 220.4375 C 140.054688 217.617188 135.578125 209.511719 138.53125 206.785156 Z M 138.519531 206.789062 " fill-opacity="1" fill-rule="nonzero"/><path fill="#fa4238" d="M 158.488281 257.851562 L 235.738281 257.730469 C 241.386719 257.886719 242.707031 264.253906 236.761719 265.332031 L 158.359375 265.332031 C 153.417969 264.816406 153.832031 258.589844 158.488281 257.851562 Z M 158.488281 257.851562 " fill-opacity="1" fill-rule="nonzero"/><path fill="#fa4238" d="M 155.71875 140.039062 C 156.316406 139.402344 158.402344 138.863281 159.355469 138.871094 L 225.632812 138.886719 C 230.273438 139.171875 231.0625 146.085938 226.136719 146.488281 L 158.359375 146.488281 C 155 146.863281 154.019531 141.847656 155.71875 140.039062 Z M 155.71875 140.039062 " fill-opacity="1" fill-rule="nonzero"/><path fill="#fa4238" d="M 216.773438 104.515625 C 216.78125 107.277344 214.152344 109.445312 211.464844 109.570312 L 126.511719 109.570312 C 121.035156 109.074219 116.707031 103.671875 119.433594 98.457031 C 120.65625 100.25 124.316406 104.515625 126.511719 104.515625 Z M 216.773438 104.515625 " fill-opacity="1" fill-rule="nonzero"/><path fill="#fa4238" d="M 158.949219 198.246094 C 175.460938 197.558594 192.375 198.640625 208.933594 198.613281 C 211.929688 198.613281 219.972656 196.53125 219.65625 202.28125 C 219.335938 208.03125 208.535156 205.683594 204.910156 205.621094 C 197.832031 205.507812 190.628906 205.683594 183.671875 205.621094 C 176.128906 205.550781 166.003906 206.503906 158.863281 205.65625 C 152.835938 204.945312 153.914062 198.453125 158.953125 198.238281 Z M 158.949219 198.246094 " fill-opacity="1" fill-rule="nonzero"/><path fill="#fa4238" d="M 157.984375 272.011719 L 207.933594 271.878906 C 212.296875 272.304688 212.796875 278.417969 207.933594 278.980469 C 192.628906 280.738281 174.019531 277.628906 158.359375 278.980469 C 154.171875 278.8125 153.5625 272.453125 157.984375 272.011719 Z M 157.984375 272.011719 " fill-opacity="1" fill-rule="nonzero"/><path fill="#fa4238" d="M 145.335938 185.507812 C 147.996094 184.957031 151.441406 187.917969 150.28125 190.460938 C 142.796875 196.570312 136.214844 203.796875 128.792969 209.949219 C 127.09375 211.355469 124.109375 214.371094 122.027344 214.230469 C 118.140625 213.972656 113.898438 206.441406 110.84375 204.121094 C 109.550781 201.269531 111.816406 198.261719 114.832031 198.570312 C 117.777344 198.871094 121.648438 205.632812 122.460938 205.632812 L 145.332031 185.503906 Z M 145.335938 185.507812 " fill-opacity="1" fill-rule="nonzero"/><path fill="#fa4238" d="M 145.332031 245.695312 C 147.867188 244.628906 151.375 248.25 150.28125 250.636719 L 128.285156 270.632812 C 125.652344 272.378906 123.496094 275.675781 120 273.84375 C 119.125 273.382812 111.285156 264.953125 110.96875 264.171875 C 109.75 261.21875 111.71875 258.417969 114.835938 258.742188 C 117.691406 259.035156 121.878906 265.816406 122.464844 265.8125 Z M 145.332031 245.695312 " fill-opacity="1" fill-rule="nonzero"/><path fill="#fa4238" d="M 144.820312 125.859375 C 147.121094 125.328125 150.050781 126.636719 150.449219 129.152344 C 150.808594 131.417969 146.964844 133.207031 145.46875 134.589844 C 139.421875 140.1875 133.113281 146.636719 126.773438 151.800781 C 118.773438 158.300781 116.28125 148.320312 110.851562 143.945312 C 110.078125 141.910156 110.773438 139.695312 112.832031 138.859375 C 117.15625 137.105469 119.433594 143.429688 122.464844 145.382812 C 125.894531 142.460938 129.484375 139.628906 132.84375 136.628906 C 134.960938 134.742188 142.984375 126.285156 144.828125 125.859375 Z M 144.820312 125.859375 " fill-opacity="1" fill-rule="nonzero"/><path fill="#fa4238" d="M 157.46875 212.332031 L 203.894531 212.210938 C 208.394531 212.363281 208.863281 218.75 204.414062 219.324219 L 157.84375 219.324219 C 153.96875 218.832031 153.714844 213.160156 157.472656 212.328125 Z M 157.46875 212.332031 " fill-opacity="1" fill-rule="nonzero"/><path fill="#fa4238" d="M 156.957031 153.164062 L 204.394531 153.046875 C 209.191406 153.605469 208.882812 159.515625 203.371094 160.136719 C 189.722656 161.671875 173.324219 158.996094 159.378906 160.136719 C 155.171875 159.972656 152.925781 155.636719 156.957031 153.164062 Z M 156.957031 153.164062 " fill-opacity="1" fill-rule="nonzero"/><path fill="#fa4238" d="M 223.347656 73.667969 C 225.289062 73.324219 227.847656 74.578125 228.296875 76.554688 C 228.910156 79.25 228.730469 91.503906 228.429688 94.679688 C 228.019531 98.96875 225.308594 100.460938 221.324219 100.96875 C 220.832031 100.515625 223.339844 97.773438 223.339844 97.183594 L 223.339844 73.667969 Z M 223.347656 73.667969 " fill-opacity="1" fill-rule="nonzero"/><path fill="#fa4238" d="M 276.058594 138.273438 C 275.003906 137.226562 275.292969 133.265625 276.011719 131.890625 C 283.203125 129.644531 282.625 141.382812 276.058594 138.273438 Z M 276.058594 138.273438 " fill-opacity="1" fill-rule="nonzero"/><path fill="#fa4238" d="M 244.417969 177.890625 C 246.101562 177.617188 248.234375 178.777344 248.128906 180.570312 C 247.988281 183.007812 246.03125 185.429688 243.335938 184.90625 C 239.648438 184.183594 242.742188 179.460938 244.417969 177.890625 Z M 244.417969 177.890625 " fill-opacity="1" fill-rule="nonzero"/><path fill="#fa4238" d="M 276.796875 144.058594 C 280.996094 142.792969 280.90625 146.054688 280.511719 149.292969 C 280.269531 151.277344 279.160156 151.394531 277.21875 151.027344 C 274.652344 150.535156 275.152344 146.515625 275.890625 144.667969 C 276.132812 144.382812 276.4375 144.175781 276.800781 144.0625 Z M 276.796875 144.058594 " fill-opacity="1" fill-rule="nonzero"/><path fill="#fa4238" d="M 280.414062 163.097656 C 279.316406 163.761719 276.648438 164.015625 275.894531 162.832031 C 275.015625 159.90625 274.570312 156.117188 278.722656 156.558594 C 281.75 156.875 280.183594 160.71875 280.410156 163.097656 Z M 280.414062 163.097656 " fill-opacity="1" fill-rule="nonzero"/><path fill="#fa4238" d="M 256.058594 172.121094 C 255.71875 172.527344 252.4375 174.75 251.996094 174.710938 C 245.726562 174.179688 253.773438 163.597656 256.351562 169.898438 C 256.710938 170.777344 256.691406 171.363281 256.050781 172.121094 Z M 256.058594 172.121094 " fill-opacity="1" fill-rule="nonzero"/><path fill="#fa4238" d="M 262.605469 164.757812 C 265.796875 164.28125 270.675781 165.199219 268.109375 169.25 C 265.167969 170.535156 260.371094 169.183594 262 165.160156 Z M 262.605469 164.757812 " fill-opacity="1" fill-rule="nonzero"/><path fill="#fa4238" d="M 258.636719 197.199219 C 266.070312 196.433594 295.015625 196.03125 301.230469 197.800781 C 304.625 198.765625 308.050781 201.40625 309.582031 204.617188 C 311.019531 207.628906 311.636719 217.023438 311.351562 220.582031 C 310.785156 227.691406 306.984375 231.289062 299.949219 231.933594 C 290.574219 232.785156 279.964844 232.070312 270.652344 231.960938 C 261.441406 231.855469 246.425781 234.394531 244.71875 221.949219 C 243.058594 209.828125 244.613281 198.640625 258.640625 197.199219 Z M 259.632812 204.742188 C 248.640625 206.332031 250.839844 222.996094 261.972656 221.792969 C 273.382812 220.558594 270.96875 203.097656 259.632812 204.742188 Z M 301.042969 219.125 C 308.390625 211.148438 296.496094 199.8125 288.824219 206.652344 C 279.828125 214.675781 293.171875 227.664062 301.042969 219.125 Z M 301.042969 219.125 " fill-opacity="1" fill-rule="nonzero"/><path fill="#fa4238" d="M 248.125 115.132812 C 247.796875 105.546875 247.007812 95.109375 247.597656 85.53125 C 247.667969 84.40625 248.179688 79.863281 248.625 79.480469 L 307.558594 79.195312 L 308.21875 79.3125 C 308.292969 79.675781 308.808594 80.3125 308.808594 80.496094 L 308.808594 115.132812 Z M 248.125 115.132812 " fill-opacity="1" fill-rule="nonzero"/></svg>