<svg xmlns="http://www.w3.org/2000/svg" xmlns:xlink="http://www.w3.org/1999/xlink" width="512" zoomAndPan="magnify" viewBox="0 0 384 383.999986" height="512" preserveAspectRatio="xMidYMid meet" version="1.0"><defs><clipPath id="ec3cd4fd65"><path d="M 5.484375 5.484375 L 378.234375 5.484375 L 378.234375 378.234375 L 5.484375 378.234375 Z M 5.484375 5.484375 " clip-rule="nonzero"/></clipPath></defs><rect x="-38.4" width="460.8" fill="#ffffff" y="-38.399999" height="460.799983" fill-opacity="1"/><rect x="-38.4" width="460.8" fill="#ffffff" y="-38.399999" height="460.799983" fill-opacity="1"/><path fill="#fa4238" d="M 129.816406 213.289062 C 139 207.050781 143.839844 196.933594 143.851562 186.59375 C 143.851562 185.878906 143.832031 185.167969 143.78125 184.453125 C 143.757812 184.0625 143.722656 183.667969 143.679688 183.277344 C 143.613281 182.597656 143.527344 181.925781 143.417969 181.246094 C 143.300781 180.535156 143.164062 179.828125 143 179.125 C 142.832031 178.421875 142.648438 177.71875 142.441406 177.019531 C 140.550781 170.734375 136.738281 164.800781 130.886719 160.09375 C 130.484375 159.773438 130.085938 159.46875 129.683594 159.171875 C 129.558594 159.082031 129.433594 158.992188 129.308594 158.902344 C 129.023438 158.695312 128.734375 158.492188 128.445312 158.292969 C 128.300781 158.199219 128.164062 158.097656 128.019531 158.007812 C 127.722656 157.816406 127.429688 157.628906 127.136719 157.445312 C 127.003906 157.367188 126.878906 157.285156 126.75 157.207031 C 126.332031 156.957031 125.914062 156.710938 125.488281 156.476562 C 125.441406 156.449219 125.382812 156.421875 125.328125 156.394531 C 124.957031 156.1875 124.578125 155.996094 124.199219 155.804688 C 124.046875 155.730469 123.898438 155.660156 123.75 155.585938 C 123.460938 155.445312 123.171875 155.3125 122.875 155.179688 C 122.710938 155.105469 122.550781 155.035156 122.386719 154.96875 C 122.089844 154.835938 121.789062 154.710938 121.484375 154.59375 C 121.339844 154.53125 121.195312 154.472656 121.050781 154.417969 C 120.617188 154.253906 120.183594 154.089844 119.746094 153.941406 C 119.644531 153.90625 119.539062 153.875 119.433594 153.839844 C 119.089844 153.726562 118.742188 153.617188 118.394531 153.511719 C 118.222656 153.460938 118.054688 153.410156 117.890625 153.367188 C 117.601562 153.285156 117.3125 153.207031 117.023438 153.132812 C 116.847656 153.085938 116.671875 153.042969 116.492188 152.996094 C 116.183594 152.921875 115.875 152.851562 115.566406 152.789062 C 115.414062 152.757812 115.269531 152.722656 115.121094 152.691406 C 114.679688 152.601562 114.230469 152.519531 113.78125 152.449219 C 113.660156 152.429688 113.546875 152.414062 113.425781 152.394531 C 113.082031 152.339844 112.738281 152.289062 112.394531 152.25 C 112.222656 152.230469 112.058594 152.210938 111.890625 152.1875 C 111.585938 152.15625 111.28125 152.125 110.984375 152.097656 C 110.816406 152.085938 110.648438 152.070312 110.480469 152.058594 C 110.140625 152.035156 109.800781 152.015625 109.460938 152 C 109.335938 151.996094 109.21875 151.984375 109.09375 151.980469 C 108.632812 151.964844 108.175781 151.953125 107.714844 151.953125 C 107.625 151.953125 107.535156 151.953125 107.445312 151.953125 C 107.03125 151.953125 106.625 151.964844 106.210938 151.980469 C 106.070312 151.984375 105.929688 151.988281 105.792969 152 C 105.378906 152.019531 104.964844 152.042969 104.554688 152.078125 C 104.46875 152.085938 104.386719 152.089844 104.300781 152.097656 C 103.804688 152.144531 103.3125 152.195312 102.824219 152.257812 C 102.71875 152.273438 102.613281 152.289062 102.511719 152.304688 C 102.109375 152.359375 101.710938 152.417969 101.3125 152.484375 C 101.191406 152.503906 101.070312 152.523438 100.949219 152.542969 C 99.964844 152.71875 98.992188 152.925781 98.027344 153.175781 C 97.921875 153.203125 97.816406 153.230469 97.710938 153.261719 C 97.3125 153.367188 96.914062 153.480469 96.519531 153.601562 C 96.425781 153.628906 96.335938 153.65625 96.242188 153.683594 C 95.757812 153.835938 95.273438 153.996094 94.800781 154.164062 C 94.78125 154.167969 94.765625 154.179688 94.746094 154.183594 C 94.296875 154.34375 93.851562 154.511719 93.410156 154.6875 C 93.308594 154.726562 93.210938 154.765625 93.109375 154.808594 C 92.699219 154.972656 92.292969 155.148438 91.894531 155.324219 C 91.839844 155.351562 91.789062 155.371094 91.734375 155.394531 C 91.269531 155.605469 90.816406 155.824219 90.363281 156.054688 C 90.300781 156.085938 90.242188 156.117188 90.183594 156.148438 C 89.792969 156.347656 89.410156 156.554688 89.03125 156.761719 C 88.941406 156.8125 88.851562 156.863281 88.761719 156.910156 C 87.886719 157.40625 87.039062 157.933594 86.210938 158.496094 C 86.136719 158.550781 86.058594 158.601562 85.984375 158.65625 C 85.640625 158.898438 85.296875 159.140625 84.957031 159.394531 C 84.882812 159.449219 84.804688 159.503906 84.726562 159.566406 C 83.933594 160.167969 83.160156 160.800781 82.417969 161.46875 C 82.335938 161.542969 82.257812 161.613281 82.171875 161.6875 C 81.859375 161.980469 81.550781 162.273438 81.246094 162.570312 C 81.191406 162.625 81.136719 162.675781 81.082031 162.730469 C 80.726562 163.085938 80.378906 163.449219 80.039062 163.820312 C 79.988281 163.867188 79.945312 163.921875 79.898438 163.976562 C 79.609375 164.292969 79.332031 164.617188 79.054688 164.945312 C 78.980469 165.035156 78.902344 165.125 78.828125 165.21875 C 78.53125 165.574219 78.25 165.9375 77.96875 166.308594 C 77.949219 166.335938 77.925781 166.363281 77.90625 166.390625 C 77.605469 166.789062 77.3125 167.199219 77.03125 167.613281 C 76.96875 167.703125 76.90625 167.796875 76.847656 167.894531 C 76.621094 168.226562 76.410156 168.566406 76.195312 168.910156 C 76.128906 169.015625 76.0625 169.113281 76.003906 169.21875 C 75.746094 169.652344 75.492188 170.085938 75.25 170.535156 C 75.25 170.542969 75.246094 170.550781 75.242188 170.554688 C 75.007812 170.988281 74.789062 171.429688 74.574219 171.871094 C 74.511719 171.992188 74.457031 172.117188 74.398438 172.242188 C 74.230469 172.605469 74.066406 172.976562 73.90625 173.34375 C 73.859375 173.449219 73.808594 173.558594 73.765625 173.664062 C 73.570312 174.132812 73.386719 174.605469 73.210938 175.089844 C 73.183594 175.179688 73.152344 175.269531 73.117188 175.359375 C 72.976562 175.757812 72.84375 176.160156 72.71875 176.570312 C 72.671875 176.714844 72.628906 176.859375 72.589844 177.003906 C 72.464844 177.421875 72.347656 177.84375 72.246094 178.269531 C 72.222656 178.359375 72.199219 178.445312 72.175781 178.53125 C 72.050781 179.039062 71.941406 179.550781 71.835938 180.070312 C 71.808594 180.207031 71.785156 180.34375 71.761719 180.480469 C 71.6875 180.882812 71.621094 181.289062 71.554688 181.703125 C 71.53125 181.855469 71.511719 182.011719 71.488281 182.171875 C 71.417969 182.703125 71.351562 183.242188 71.300781 183.785156 C 71.300781 183.785156 71.300781 183.796875 71.300781 183.800781 C 70.28125 195.242188 71.78125 207.789062 75.136719 220.445312 C 75.664062 222.445312 76.242188 224.445312 76.863281 226.445312 C 77.066406 227.113281 77.28125 227.777344 77.496094 228.445312 C 78.578125 231.773438 79.773438 235.101562 81.078125 238.402344 C 81.601562 239.722656 82.136719 241.039062 82.691406 242.347656 C 83.804688 244.96875 84.976562 247.570312 86.207031 250.140625 C 95.453125 269.421875 107.992188 287.015625 121.15625 299 C 121.15625 299 121.160156 299 121.164062 299.003906 C 121.804688 299.582031 122.457031 300.160156 123.121094 300.734375 C 123.214844 300.820312 123.316406 300.902344 123.410156 300.988281 C 124.042969 301.535156 124.691406 302.082031 125.351562 302.617188 C 125.472656 302.722656 125.597656 302.824219 125.722656 302.929688 C 126.382812 303.464844 127.050781 304 127.730469 304.527344 C 127.839844 304.617188 127.953125 304.703125 128.066406 304.792969 C 128.777344 305.34375 129.492188 305.890625 130.226562 306.433594 C 130.257812 306.457031 130.292969 306.480469 130.320312 306.503906 C 131.039062 307.039062 131.769531 307.5625 132.507812 308.085938 C 132.617188 308.160156 132.71875 308.238281 132.832031 308.3125 C 133.554688 308.824219 134.292969 309.332031 135.035156 309.835938 C 135.183594 309.933594 135.328125 310.035156 135.476562 310.132812 C 136.214844 310.628906 136.960938 311.121094 137.710938 311.605469 C 137.851562 311.695312 137.996094 311.785156 138.136719 311.875 C 138.917969 312.375 139.707031 312.871094 140.5 313.359375 C 140.566406 313.402344 140.628906 313.441406 140.699219 313.480469 C 141.472656 313.953125 142.253906 314.421875 143.046875 314.886719 C 143.167969 314.957031 143.28125 315.027344 143.402344 315.097656 C 144.195312 315.558594 145 316.019531 145.8125 316.46875 C 145.980469 316.5625 146.144531 316.65625 146.316406 316.75 C 147.113281 317.195312 147.914062 317.632812 148.726562 318.0625 C 148.894531 318.152344 149.0625 318.238281 149.226562 318.328125 C 150.058594 318.765625 150.898438 319.207031 151.746094 319.632812 C 151.84375 319.683594 151.945312 319.734375 152.042969 319.785156 C 152.859375 320.191406 153.679688 320.597656 154.503906 320.996094 C 154.628906 321.054688 154.753906 321.121094 154.878906 321.179688 C 155.726562 321.589844 156.578125 321.988281 157.433594 322.378906 C 157.621094 322.460938 157.804688 322.546875 157.988281 322.632812 C 158.832031 323.015625 159.679688 323.390625 160.527344 323.761719 C 160.710938 323.84375 160.894531 323.921875 161.082031 324.003906 C 161.953125 324.375 162.828125 324.75 163.707031 325.109375 C 163.832031 325.160156 163.953125 325.210938 164.078125 325.257812 C 164.929688 325.609375 165.785156 325.949219 166.644531 326.28125 C 166.761719 326.328125 166.878906 326.371094 166.996094 326.421875 C 167.886719 326.765625 168.78125 327.101562 169.679688 327.429688 C 169.863281 327.5 170.046875 327.5625 170.230469 327.632812 C 171.109375 327.953125 171.992188 328.261719 172.871094 328.5625 C 173.058594 328.625 173.25 328.691406 173.445312 328.753906 C 174.339844 329.058594 175.242188 329.355469 176.144531 329.644531 C 176.28125 329.6875 176.414062 329.726562 176.550781 329.769531 C 177.4375 330.046875 178.324219 330.316406 179.21875 330.582031 C 179.3125 330.609375 179.40625 330.640625 179.503906 330.664062 C 180.425781 330.933594 181.351562 331.195312 182.28125 331.449219 C 182.453125 331.5 182.632812 331.542969 182.808594 331.59375 C 183.710938 331.832031 184.609375 332.066406 185.511719 332.289062 C 185.695312 332.335938 185.886719 332.378906 186.070312 332.425781 C 186.984375 332.648438 187.902344 332.863281 188.8125 333.0625 C 188.949219 333.09375 189.085938 333.125 189.222656 333.152344 C 190.144531 333.351562 191.0625 333.546875 191.980469 333.730469 C 192.039062 333.742188 192.105469 333.757812 192.164062 333.773438 C 193.105469 333.957031 194.050781 334.125 194.992188 334.289062 C 195.152344 334.320312 195.3125 334.34375 195.46875 334.375 C 196.378906 334.53125 197.285156 334.675781 198.191406 334.804688 C 198.367188 334.828125 198.546875 334.855469 198.722656 334.878906 C 199.632812 335.007812 200.546875 335.128906 201.460938 335.238281 C 201.59375 335.253906 201.730469 335.269531 201.863281 335.28125 C 202.804688 335.394531 203.742188 335.492188 204.675781 335.578125 C 204.695312 335.578125 204.722656 335.578125 204.746094 335.582031 C 205.6875 335.667969 206.632812 335.738281 207.570312 335.796875 C 207.707031 335.808594 207.851562 335.816406 207.992188 335.828125 C 208.890625 335.882812 209.78125 335.921875 210.675781 335.953125 C 210.839844 335.957031 211.007812 335.960938 211.175781 335.964844 C 212.066406 335.992188 212.953125 336.007812 213.835938 336.007812 C 214.113281 336.007812 214.390625 336.007812 214.664062 336.007812 C 214.929688 336.007812 215.195312 336.007812 215.457031 336 C 215.757812 336 216.0625 335.984375 216.359375 335.980469 C 216.625 335.976562 216.882812 335.972656 217.148438 335.960938 C 217.449219 335.953125 217.742188 335.9375 218.035156 335.921875 C 218.300781 335.910156 218.566406 335.902344 218.828125 335.886719 C 219.125 335.871094 219.414062 335.851562 219.707031 335.832031 C 219.972656 335.816406 220.230469 335.800781 220.496094 335.78125 C 220.789062 335.761719 221.082031 335.730469 221.378906 335.710938 C 221.636719 335.691406 221.890625 335.671875 222.144531 335.648438 C 222.453125 335.617188 222.765625 335.582031 223.066406 335.550781 C 223.300781 335.527344 223.542969 335.507812 223.777344 335.476562 C 224.128906 335.4375 224.480469 335.394531 224.828125 335.347656 C 225.019531 335.324219 225.207031 335.304688 225.398438 335.277344 C 225.933594 335.203125 226.46875 335.128906 227.003906 335.042969 C 228.453125 334.8125 229.871094 334.515625 231.257812 334.152344 C 233.105469 333.667969 234.890625 333.070312 236.617188 332.359375 C 237.046875 332.1875 237.476562 332 237.898438 331.8125 C 244.660156 328.785156 250.359375 324.128906 254.628906 318.507812 C 255.164062 317.804688 255.675781 317.085938 256.160156 316.359375 C 256.40625 315.992188 256.644531 315.625 256.875 315.25 C 257.574219 314.132812 258.214844 312.988281 258.804688 311.816406 C 259.390625 310.644531 259.925781 309.445312 260.40625 308.230469 C 261.675781 304.984375 262.539062 301.589844 262.941406 298.140625 C 263.042969 297.277344 263.117188 296.410156 263.164062 295.542969 C 263.625 286.417969 260.867188 277.007812 254.070312 268.847656 C 254.070312 268.847656 254.0625 268.835938 254.0625 268.832031 C 253.777344 268.492188 253.492188 268.164062 253.203125 267.835938 C 253.109375 267.730469 253.019531 267.632812 252.925781 267.527344 C 252.714844 267.296875 252.503906 267.066406 252.292969 266.847656 C 252.1875 266.738281 252.085938 266.632812 251.980469 266.523438 C 251.757812 266.289062 251.527344 266.066406 251.296875 265.835938 C 251.21875 265.757812 251.140625 265.675781 251.054688 265.597656 C 250.746094 265.296875 250.429688 265.003906 250.113281 264.71875 C 250.050781 264.664062 249.992188 264.613281 249.933594 264.558594 C 249.671875 264.324219 249.410156 264.09375 249.144531 263.871094 C 249.039062 263.785156 248.941406 263.703125 248.835938 263.617188 C 248.601562 263.421875 248.367188 263.234375 248.128906 263.046875 C 248.023438 262.96875 247.921875 262.886719 247.824219 262.808594 C 247.535156 262.585938 247.246094 262.371094 246.957031 262.15625 C 246.910156 262.121094 246.867188 262.089844 246.820312 262.054688 C 246.480469 261.8125 246.132812 261.570312 245.789062 261.335938 C 245.703125 261.28125 245.625 261.226562 245.539062 261.171875 C 245.273438 261 245.003906 260.824219 244.734375 260.65625 C 244.632812 260.589844 244.523438 260.519531 244.417969 260.453125 C 244.152344 260.296875 243.886719 260.136719 243.617188 259.980469 C 243.527344 259.925781 243.441406 259.875 243.34375 259.820312 C 242.625 259.417969 241.902344 259.035156 241.171875 258.679688 C 241.070312 258.632812 240.976562 258.585938 240.875 258.539062 C 240.601562 258.410156 240.328125 258.285156 240.046875 258.160156 C 239.945312 258.109375 239.832031 258.066406 239.722656 258.019531 C 239.425781 257.890625 239.121094 257.765625 238.816406 257.640625 C 238.746094 257.613281 238.675781 257.582031 238.605469 257.558594 C 238.226562 257.40625 237.847656 257.269531 237.46875 257.128906 C 237.410156 257.109375 237.351562 257.089844 237.285156 257.0625 C 236.972656 256.953125 236.652344 256.84375 236.332031 256.746094 C 236.222656 256.710938 236.113281 256.675781 236 256.640625 C 235.71875 256.550781 235.433594 256.46875 235.15625 256.390625 C 235.046875 256.359375 234.941406 256.324219 234.832031 256.300781 C 234.484375 256.207031 234.128906 256.109375 233.78125 256.027344 C 233.75 256.019531 233.71875 256.011719 233.691406 256 C 233.304688 255.90625 232.917969 255.820312 232.527344 255.742188 C 232.429688 255.722656 232.328125 255.703125 232.230469 255.683594 C 231.941406 255.621094 231.652344 255.566406 231.367188 255.519531 C 231.242188 255.496094 231.121094 255.472656 230.996094 255.453125 C 230.714844 255.402344 230.429688 255.363281 230.140625 255.316406 C 230.035156 255.304688 229.925781 255.289062 229.820312 255.273438 C 229.429688 255.222656 229.046875 255.171875 228.660156 255.132812 C 228.617188 255.132812 228.578125 255.128906 228.535156 255.125 C 228.191406 255.089844 227.839844 255.058594 227.496094 255.035156 C 227.375 255.023438 227.253906 255.019531 227.132812 255.007812 C 226.859375 254.996094 226.582031 254.980469 226.316406 254.964844 C 226.183594 254.960938 226.054688 254.953125 225.929688 254.949219 C 225.632812 254.9375 225.332031 254.933594 225.03125 254.929688 C 224.941406 254.929688 224.851562 254.929688 224.761719 254.929688 C 224.648438 254.929688 224.527344 254.929688 224.414062 254.929688 C 224.050781 254.929688 223.679688 254.9375 223.316406 254.949219 C 223.152344 254.953125 222.988281 254.964844 222.824219 254.972656 C 222.507812 254.988281 222.191406 255.007812 221.875 255.027344 C 221.707031 255.042969 221.53125 255.054688 221.363281 255.070312 C 221.039062 255.097656 220.714844 255.128906 220.394531 255.164062 C 220.242188 255.179688 220.085938 255.199219 219.9375 255.214844 C 219.511719 255.261719 219.09375 255.324219 218.675781 255.386719 C 218.625 255.398438 218.574219 255.402344 218.523438 255.40625 C 218.054688 255.484375 217.585938 255.566406 217.117188 255.664062 C 216.988281 255.6875 216.859375 255.71875 216.730469 255.746094 C 216.390625 255.816406 216.054688 255.890625 215.71875 255.972656 C 215.558594 256.011719 215.402344 256.046875 215.242188 256.085938 C 214.929688 256.167969 214.613281 256.246094 214.304688 256.335938 C 214.152344 256.378906 213.996094 256.421875 213.84375 256.464844 C 213.503906 256.566406 213.164062 256.667969 212.828125 256.773438 C 212.710938 256.8125 212.59375 256.847656 212.476562 256.882812 C 212.015625 257.035156 211.5625 257.195312 211.109375 257.363281 C 211.078125 257.371094 211.050781 257.386719 211.019531 257.398438 C 210.605469 257.550781 210.191406 257.71875 209.777344 257.886719 C 209.648438 257.941406 209.523438 257.996094 209.394531 258.050781 C 209.078125 258.1875 208.765625 258.324219 208.453125 258.46875 C 208.3125 258.535156 208.167969 258.601562 208.027344 258.667969 C 207.71875 258.8125 207.414062 258.964844 207.113281 259.117188 C 206.984375 259.183594 206.855469 259.25 206.730469 259.3125 C 206.371094 259.503906 206.011719 259.695312 205.660156 259.894531 C 205.59375 259.929688 205.535156 259.964844 205.46875 260 C 205.046875 260.242188 204.625 260.496094 204.210938 260.753906 C 204.136719 260.800781 204.066406 260.847656 203.992188 260.894531 C 203.660156 261.101562 203.328125 261.316406 203 261.542969 C 202.882812 261.621094 202.761719 261.707031 202.640625 261.792969 C 202.363281 261.984375 202.078125 262.183594 201.804688 262.390625 C 201.679688 262.480469 201.554688 262.574219 201.433594 262.664062 C 201.152344 262.878906 200.871094 263.097656 200.59375 263.324219 C 200.492188 263.402344 200.386719 263.480469 200.289062 263.566406 C 199.535156 264.183594 198.800781 264.832031 198.089844 265.511719 C 198 265.597656 197.910156 265.6875 197.824219 265.777344 C 197.566406 266.03125 197.304688 266.289062 197.050781 266.554688 C 196.941406 266.667969 196.832031 266.785156 196.722656 266.898438 C 196.488281 267.148438 196.257812 267.402344 196.027344 267.65625 C 195.925781 267.777344 195.820312 267.890625 195.714844 268.015625 C 195.46875 268.300781 195.226562 268.589844 194.988281 268.882812 C 194.910156 268.972656 194.835938 269.066406 194.761719 269.15625 C 194.453125 269.546875 194.144531 269.945312 193.851562 270.347656 C 193.816406 270.398438 193.78125 270.453125 193.738281 270.503906 C 193.484375 270.859375 193.238281 271.210938 192.992188 271.574219 C 192.902344 271.707031 192.816406 271.839844 192.734375 271.976562 C 192.542969 272.265625 192.355469 272.558594 192.175781 272.855469 C 192.078125 273.007812 191.988281 273.160156 191.898438 273.316406 C 191.726562 273.609375 191.550781 273.910156 191.382812 274.214844 C 191.296875 274.363281 191.214844 274.507812 191.136719 274.65625 C 190.9375 275.023438 190.746094 275.390625 190.5625 275.765625 C 190.519531 275.855469 190.472656 275.9375 190.429688 276.023438 C 190.203125 276.488281 189.984375 276.957031 189.777344 277.433594 C 189.722656 277.566406 189.664062 277.695312 189.609375 277.824219 C 189.460938 278.179688 189.3125 278.53125 189.171875 278.890625 C 189.101562 279.066406 189.039062 279.246094 188.972656 279.421875 C 188.851562 279.746094 188.734375 280.074219 188.617188 280.402344 C 188.554688 280.585938 188.488281 280.773438 188.429688 280.960938 C 188.3125 281.308594 188.203125 281.660156 188.101562 282.011719 C 188.050781 282.183594 187.996094 282.347656 187.949219 282.515625 C 187.804688 283.03125 187.667969 283.550781 187.535156 284.078125 C 187.535156 284.085938 187.535156 284.09375 187.53125 284.101562 C 185.832031 283.695312 184.140625 283.210938 182.46875 282.675781 C 181.929688 282.503906 181.394531 282.328125 180.855469 282.144531 C 179.773438 281.769531 178.695312 281.375 177.628906 280.957031 C 176.695312 280.585938 175.773438 280.191406 174.851562 279.789062 C 173.859375 279.351562 172.863281 278.902344 171.886719 278.421875 C 171.257812 278.113281 170.636719 277.800781 170.011719 277.480469 C 168.769531 276.835938 167.539062 276.160156 166.328125 275.449219 C 155.394531 269.085938 145.667969 260.332031 137.941406 250.546875 C 136.65625 248.914062 135.421875 247.253906 134.246094 245.574219 C 133.886719 245.058594 133.527344 244.535156 133.175781 244.007812 C 127.832031 236.097656 122.964844 226.859375 121.25 217.550781 C 122.839844 217.023438 124.351562 216.40625 125.785156 215.703125 C 127.214844 215 128.5625 214.210938 129.828125 213.355469 Z M 129.816406 213.289062 " fill-opacity="1" fill-rule="nonzero"/><path fill="#fa4238" d="M 155.816406 135.589844 C 155.875 136.457031 155.945312 137.328125 156.035156 138.195312 C 156.042969 138.28125 156.050781 138.367188 156.058594 138.449219 C 156.148438 139.3125 156.253906 140.175781 156.367188 141.039062 C 156.429688 141.492188 156.496094 141.945312 156.566406 142.398438 C 156.921875 144.667969 157.375 146.929688 157.933594 149.183594 C 158.160156 150.085938 158.398438 150.984375 158.65625 151.878906 C 158.785156 152.328125 158.917969 152.777344 159.054688 153.226562 C 159.332031 154.125 159.625 155.015625 159.929688 155.90625 C 162.859375 164.363281 167.347656 172.589844 173.554688 180.265625 C 174.097656 180.9375 174.648438 181.601562 175.214844 182.25 C 175.394531 182.460938 175.578125 182.664062 175.761719 182.867188 C 176.144531 183.308594 176.53125 183.742188 176.925781 184.171875 C 177.144531 184.410156 177.375 184.648438 177.597656 184.882812 C 177.957031 185.265625 178.316406 185.652344 178.679688 186.027344 C 178.917969 186.273438 179.167969 186.515625 179.414062 186.757812 C 179.765625 187.113281 180.125 187.464844 180.484375 187.816406 C 180.738281 188.058594 180.992188 188.300781 181.253906 188.539062 C 181.613281 188.878906 181.972656 189.210938 182.335938 189.542969 C 182.59375 189.777344 182.859375 190.011719 183.117188 190.238281 C 183.488281 190.5625 183.855469 190.886719 184.230469 191.203125 C 184.496094 191.425781 184.757812 191.652344 185.027344 191.871094 C 185.40625 192.183594 185.785156 192.492188 186.171875 192.800781 C 186.433594 193.011719 186.699219 193.226562 186.96875 193.429688 C 187.363281 193.738281 187.761719 194.042969 188.164062 194.34375 C 188.425781 194.539062 188.683594 194.734375 188.941406 194.925781 C 189.363281 195.234375 189.789062 195.535156 190.214844 195.835938 C 190.457031 196.007812 190.707031 196.183594 190.953125 196.351562 C 191.417969 196.671875 191.878906 196.976562 192.347656 197.285156 C 192.566406 197.429688 192.78125 197.574219 192.996094 197.714844 C 193.550781 198.070312 194.109375 198.417969 194.671875 198.757812 C 194.808594 198.835938 194.9375 198.925781 195.070312 199.007812 C 196.488281 199.859375 197.925781 200.660156 199.378906 201.425781 C 199.535156 201.503906 199.6875 201.578125 199.84375 201.660156 C 200.414062 201.953125 200.980469 202.238281 201.554688 202.515625 C 201.777344 202.625 202.007812 202.730469 202.234375 202.835938 C 202.738281 203.074219 203.246094 203.316406 203.753906 203.542969 C 204.011719 203.660156 204.273438 203.773438 204.53125 203.886719 C 205.011719 204.097656 205.492188 204.308594 205.972656 204.507812 C 206.253906 204.621094 206.53125 204.734375 206.804688 204.847656 C 207.273438 205.035156 207.742188 205.21875 208.21875 205.40625 C 208.507812 205.515625 208.796875 205.625 209.085938 205.730469 C 209.554688 205.902344 210.023438 206.074219 210.492188 206.238281 C 210.785156 206.34375 211.078125 206.441406 211.375 206.542969 C 211.84375 206.699219 212.316406 206.855469 212.785156 207.003906 C 213.078125 207.101562 213.378906 207.195312 213.675781 207.285156 C 214.15625 207.429688 214.628906 207.570312 215.113281 207.707031 C 215.40625 207.792969 215.703125 207.878906 215.996094 207.957031 C 216.488281 208.09375 216.984375 208.222656 217.476562 208.347656 C 217.757812 208.417969 218.042969 208.492188 218.320312 208.5625 C 218.84375 208.691406 219.367188 208.808594 219.894531 208.929688 C 220.152344 208.988281 220.40625 209.050781 220.660156 209.105469 C 221.261719 209.234375 221.871094 209.355469 222.472656 209.472656 C 222.648438 209.507812 222.828125 209.546875 223.003906 209.578125 C 223.796875 209.726562 224.589844 209.863281 225.386719 209.992188 C 225.421875 209.996094 225.457031 210.003906 225.492188 210.007812 C 226.246094 210.128906 226.992188 210.230469 227.746094 210.332031 C 228 210.367188 228.25 210.390625 228.503906 210.421875 C 229.039062 210.484375 229.574219 210.550781 230.109375 210.605469 C 230.417969 210.636719 230.722656 210.660156 231.03125 210.691406 C 231.515625 210.734375 231.996094 210.78125 232.476562 210.816406 C 232.808594 210.839844 233.140625 210.859375 233.46875 210.878906 C 233.933594 210.910156 234.394531 210.941406 234.855469 210.960938 C 235.199219 210.976562 235.539062 210.988281 235.882812 211 C 236.332031 211.015625 236.785156 211.03125 237.234375 211.039062 C 237.585938 211.042969 237.933594 211.050781 238.28125 211.054688 C 238.703125 211.054688 239.117188 211.054688 239.535156 211.054688 C 240.011719 211.054688 240.492188 211.042969 240.964844 211.035156 C 241.34375 211.023438 241.722656 211.015625 242.109375 211.003906 C 242.589844 210.988281 243.074219 210.964844 243.558594 210.941406 C 243.933594 210.921875 244.300781 210.898438 244.675781 210.875 C 245.167969 210.839844 245.667969 210.800781 246.164062 210.761719 C 246.519531 210.730469 246.875 210.707031 247.234375 210.671875 C 247.753906 210.621094 248.277344 210.5625 248.796875 210.5 C 249.125 210.460938 249.453125 210.429688 249.78125 210.386719 C 250.359375 210.3125 250.941406 210.230469 251.511719 210.148438 C 251.78125 210.105469 252.050781 210.070312 252.320312 210.03125 C 253.132812 209.90625 253.953125 209.769531 254.757812 209.617188 C 254.789062 209.613281 254.816406 209.609375 254.84375 209.601562 C 255.695312 209.445312 256.546875 209.273438 257.386719 209.089844 C 257.578125 209.050781 257.761719 209 257.953125 208.960938 C 258.597656 208.816406 259.246094 208.664062 259.890625 208.507812 C 260.160156 208.4375 260.429688 208.363281 260.703125 208.292969 C 261.261719 208.148438 261.820312 207.996094 262.378906 207.84375 C 262.679688 207.757812 262.976562 207.667969 263.277344 207.578125 C 263.800781 207.425781 264.324219 207.269531 264.847656 207.105469 C 265.15625 207.003906 265.472656 206.902344 265.78125 206.800781 C 266.285156 206.636719 266.792969 206.464844 267.292969 206.292969 C 267.605469 206.183594 267.925781 206.066406 268.238281 205.953125 C 268.734375 205.773438 269.226562 205.589844 269.714844 205.398438 C 270.03125 205.28125 270.34375 205.15625 270.65625 205.03125 C 271.148438 204.835938 271.628906 204.636719 272.113281 204.433594 C 272.421875 204.300781 272.734375 204.167969 273.042969 204.03125 C 273.523438 203.824219 274.007812 203.605469 274.492188 203.378906 C 274.792969 203.238281 275.097656 203.105469 275.394531 202.960938 C 275.882812 202.730469 276.371094 202.492188 276.855469 202.246094 C 277.144531 202.101562 277.429688 201.964844 277.714844 201.820312 C 278.214844 201.566406 278.707031 201.300781 279.199219 201.03125 C 279.464844 200.886719 279.734375 200.746094 280 200.597656 C 280.523438 200.308594 281.035156 200.007812 281.554688 199.710938 C 281.785156 199.574219 282.019531 199.445312 282.246094 199.304688 C 282.832031 198.957031 283.410156 198.597656 283.988281 198.226562 C 284.140625 198.128906 284.300781 198.039062 284.457031 197.9375 C 285.933594 196.992188 287.378906 195.996094 288.796875 194.941406 C 288.929688 194.84375 289.066406 194.738281 289.199219 194.632812 C 289.757812 194.214844 290.316406 193.785156 290.871094 193.351562 C 291.089844 193.175781 291.304688 192.996094 291.519531 192.824219 C 291.980469 192.449219 292.441406 192.074219 292.894531 191.6875 C 293.144531 191.476562 293.382812 191.257812 293.632812 191.046875 C 294.046875 190.683594 294.464844 190.320312 294.875 189.949219 C 295.132812 189.714844 295.386719 189.472656 295.648438 189.230469 C 296.035156 188.867188 296.421875 188.503906 296.804688 188.136719 C 297.070312 187.878906 297.328125 187.621094 297.585938 187.363281 C 297.957031 186.992188 298.320312 186.625 298.679688 186.25 C 298.9375 185.976562 299.199219 185.703125 299.457031 185.425781 C 299.804688 185.054688 300.15625 184.667969 300.5 184.285156 C 300.757812 184 301.011719 183.710938 301.265625 183.417969 C 301.605469 183.027344 301.941406 182.632812 302.269531 182.242188 C 302.519531 181.941406 302.769531 181.648438 303.011719 181.34375 C 303.34375 180.9375 303.660156 180.53125 303.984375 180.117188 C 304.222656 179.8125 304.464844 179.503906 304.699219 179.195312 C 305.015625 178.769531 305.332031 178.339844 305.644531 177.90625 C 305.871094 177.597656 306.101562 177.289062 306.320312 176.972656 C 306.636719 176.519531 306.949219 176.058594 307.261719 175.597656 C 307.464844 175.292969 307.675781 174.996094 307.875 174.683594 C 308.210938 174.171875 308.539062 173.648438 308.863281 173.125 C 309.027344 172.855469 309.195312 172.597656 309.359375 172.328125 C 309.835938 171.542969 310.296875 170.75 310.746094 169.949219 C 310.757812 169.929688 310.765625 169.914062 310.777344 169.894531 C 311.265625 169.019531 311.730469 168.148438 312.183594 167.269531 C 312.324219 166.996094 312.453125 166.722656 312.585938 166.453125 C 312.890625 165.847656 313.195312 165.246094 313.480469 164.636719 C 313.640625 164.296875 313.785156 163.953125 313.9375 163.613281 C 314.183594 163.070312 314.433594 162.53125 314.667969 161.988281 C 314.828125 161.621094 314.972656 161.25 315.121094 160.882812 C 315.335938 160.363281 315.550781 159.847656 315.75 159.332031 C 315.898438 158.945312 316.035156 158.558594 316.179688 158.167969 C 316.363281 157.664062 316.550781 157.160156 316.726562 156.65625 C 316.863281 156.265625 316.984375 155.863281 317.117188 155.472656 C 317.28125 154.972656 317.445312 154.472656 317.597656 153.976562 C 317.722656 153.574219 317.832031 153.171875 317.949219 152.769531 C 318.09375 152.273438 318.238281 151.78125 318.371094 151.28125 C 318.480469 150.878906 318.578125 150.472656 318.679688 150.070312 C 318.804688 149.578125 318.929688 149.082031 319.046875 148.589844 C 319.140625 148.183594 319.226562 147.777344 319.308594 147.367188 C 319.414062 146.875 319.523438 146.378906 319.617188 145.890625 C 319.699219 145.480469 319.769531 145.074219 319.839844 144.664062 C 319.929688 144.171875 320.011719 143.683594 320.09375 143.1875 C 320.15625 142.777344 320.210938 142.371094 320.273438 141.960938 C 320.34375 141.46875 320.410156 140.980469 320.472656 140.484375 C 320.523438 140.078125 320.5625 139.671875 320.605469 139.261719 C 320.65625 138.769531 320.710938 138.28125 320.757812 137.789062 C 320.792969 137.382812 320.820312 136.972656 320.851562 136.570312 C 320.886719 136.078125 320.921875 135.582031 320.945312 135.09375 C 320.964844 134.691406 320.980469 134.285156 320.996094 133.886719 C 321.015625 133.394531 321.03125 132.898438 321.039062 132.40625 C 321.046875 132.007812 321.050781 131.609375 321.050781 131.210938 C 321.050781 130.714844 321.050781 130.222656 321.046875 129.726562 C 321.039062 129.335938 321.027344 128.933594 321.015625 128.542969 C 321 128.046875 320.980469 127.550781 320.957031 127.054688 C 320.9375 126.660156 320.910156 126.273438 320.886719 125.878906 C 320.855469 125.386719 320.820312 124.886719 320.777344 124.390625 C 320.746094 124.003906 320.707031 123.621094 320.671875 123.230469 C 320.621094 122.730469 320.570312 122.238281 320.511719 121.746094 C 320.46875 121.367188 320.417969 120.980469 320.367188 120.601562 C 320.300781 120.105469 320.234375 119.605469 320.15625 119.113281 C 320.101562 118.738281 320.042969 118.363281 319.976562 117.988281 C 319.894531 117.492188 319.808594 116.992188 319.71875 116.492188 C 319.648438 116.125 319.578125 115.761719 319.507812 115.390625 C 319.410156 114.890625 319.304688 114.394531 319.195312 113.894531 C 319.117188 113.535156 319.035156 113.171875 318.949219 112.8125 C 318.835938 112.3125 318.710938 111.816406 318.585938 111.316406 C 318.496094 110.960938 318.40625 110.613281 318.3125 110.257812 C 318.179688 109.757812 318.039062 109.257812 317.894531 108.757812 C 317.792969 108.414062 317.695312 108.070312 317.59375 107.730469 C 317.445312 107.226562 317.285156 106.730469 317.125 106.230469 C 317.015625 105.894531 316.910156 105.5625 316.796875 105.226562 C 316.628906 104.722656 316.453125 104.21875 316.273438 103.722656 C 316.160156 103.398438 316.042969 103.074219 315.925781 102.75 C 315.734375 102.246094 315.539062 101.742188 315.339844 101.238281 C 315.214844 100.925781 315.097656 100.609375 314.964844 100.300781 C 314.757812 99.792969 314.542969 99.289062 314.328125 98.785156 C 314.199219 98.484375 314.070312 98.179688 313.9375 97.886719 C 313.710938 97.378906 313.476562 96.871094 313.242188 96.359375 C 313.105469 96.078125 312.976562 95.789062 312.835938 95.503906 C 312.585938 94.988281 312.328125 94.476562 312.074219 93.96875 C 311.933594 93.699219 311.804688 93.425781 311.660156 93.160156 C 311.390625 92.640625 311.105469 92.121094 310.828125 91.609375 C 310.6875 91.355469 310.554688 91.101562 310.414062 90.851562 C 310.117188 90.320312 309.808594 89.804688 309.503906 89.28125 C 309.367188 89.046875 309.238281 88.8125 309.089844 88.578125 C 308.769531 88.039062 308.433594 87.507812 308.097656 86.980469 C 307.964844 86.769531 307.835938 86.558594 307.699219 86.347656 C 307.347656 85.792969 306.976562 85.25 306.613281 84.707031 C 306.488281 84.523438 306.367188 84.335938 306.246094 84.160156 C 305.851562 83.585938 305.445312 83.019531 305.039062 82.457031 C 304.933594 82.308594 304.828125 82.160156 304.71875 82.015625 C 304.273438 81.410156 303.816406 80.8125 303.355469 80.21875 C 303.28125 80.117188 303.207031 80.019531 303.128906 79.917969 C 302.609375 79.261719 302.085938 78.609375 301.546875 77.964844 C 301.523438 77.933594 301.496094 77.90625 301.472656 77.875 C 298.066406 73.789062 294.277344 70.015625 290.148438 66.621094 C 290.085938 66.570312 290.023438 66.519531 289.957031 66.46875 C 289.332031 65.960938 288.710938 65.460938 288.070312 64.96875 C 287.953125 64.875 287.824219 64.785156 287.703125 64.6875 C 287.125 64.246094 286.542969 63.8125 285.949219 63.382812 C 285.78125 63.261719 285.613281 63.148438 285.445312 63.027344 C 284.890625 62.636719 284.332031 62.242188 283.769531 61.863281 C 283.570312 61.726562 283.371094 61.597656 283.167969 61.46875 C 282.632812 61.109375 282.085938 60.753906 281.542969 60.410156 C 281.316406 60.265625 281.085938 60.132812 280.855469 59.992188 C 280.328125 59.667969 279.796875 59.34375 279.265625 59.027344 C 279.015625 58.882812 278.761719 58.738281 278.507812 58.601562 C 277.988281 58.300781 277.464844 58.007812 276.9375 57.722656 C 276.667969 57.578125 276.394531 57.433594 276.117188 57.292969 C 275.601562 57.019531 275.085938 56.75 274.5625 56.484375 C 274.273438 56.339844 273.984375 56.203125 273.691406 56.0625 C 273.175781 55.8125 272.664062 55.5625 272.144531 55.324219 C 271.839844 55.183594 271.53125 55.050781 271.222656 54.910156 C 270.710938 54.679688 270.199219 54.457031 269.679688 54.238281 C 269.355469 54.101562 269.03125 53.972656 268.707031 53.839844 C 268.199219 53.632812 267.691406 53.425781 267.171875 53.230469 C 266.832031 53.101562 266.492188 52.976562 266.15625 52.851562 C 265.644531 52.664062 265.136719 52.480469 264.625 52.300781 C 264.273438 52.183594 263.921875 52.0625 263.566406 51.949219 C 263.058594 51.777344 262.550781 51.613281 262.035156 51.460938 C 261.671875 51.347656 261.300781 51.238281 260.9375 51.136719 C 260.429688 50.984375 259.921875 50.839844 259.40625 50.699219 C 259.027344 50.597656 258.648438 50.5 258.269531 50.402344 C 257.761719 50.273438 257.253906 50.148438 256.746094 50.027344 C 256.355469 49.9375 255.960938 49.847656 255.566406 49.761719 C 255.058594 49.652344 254.550781 49.542969 254.042969 49.445312 C 253.636719 49.363281 253.234375 49.289062 252.828125 49.214844 C 252.320312 49.121094 251.8125 49.035156 251.304688 48.949219 C 250.890625 48.882812 250.472656 48.820312 250.058594 48.757812 C 249.546875 48.679688 249.042969 48.613281 248.53125 48.546875 C 248.105469 48.492188 247.679688 48.441406 247.25 48.390625 C 246.746094 48.335938 246.238281 48.28125 245.726562 48.238281 C 245.289062 48.199219 244.851562 48.15625 244.410156 48.121094 C 243.90625 48.082031 243.40625 48.054688 242.894531 48.023438 C 242.445312 48 242 47.972656 241.542969 47.953125 C 241.039062 47.933594 240.535156 47.917969 240.035156 47.902344 C 239.574219 47.894531 239.109375 47.882812 238.648438 47.878906 C 238.058594 47.878906 237.464844 47.878906 236.871094 47.882812 C 236.585938 47.882812 236.296875 47.886719 236.015625 47.894531 C 235.109375 47.914062 234.207031 47.949219 233.300781 48 C 233.300781 48 233.296875 48 233.289062 48 C 227.910156 48.300781 222.734375 49.101562 217.777344 50.335938 C 217.199219 50.480469 216.621094 50.632812 216.042969 50.785156 C 214.820312 51.121094 213.617188 51.480469 212.425781 51.863281 C 211.8125 52.0625 211.203125 52.265625 210.601562 52.476562 C 207.753906 53.472656 204.996094 54.617188 202.332031 55.898438 C 200.535156 56.761719 198.78125 57.6875 197.070312 58.675781 C 196.621094 58.933594 196.179688 59.195312 195.734375 59.464844 C 192.8125 61.222656 190.019531 63.160156 187.371094 65.242188 C 187.222656 65.359375 187.078125 65.476562 186.929688 65.59375 C 186.339844 66.0625 185.761719 66.535156 185.191406 67.019531 C 185.085938 67.109375 184.984375 67.191406 184.882812 67.28125 C 182.855469 69.019531 180.914062 70.847656 179.070312 72.757812 C 178.441406 73.410156 177.820312 74.074219 177.21875 74.742188 C 176.773438 75.230469 176.339844 75.730469 175.910156 76.234375 C 175.59375 76.601562 175.277344 76.976562 174.964844 77.355469 C 174.601562 77.796875 174.242188 78.234375 173.886719 78.675781 C 172.710938 80.160156 171.578125 81.679688 170.507812 83.230469 C 169.992188 83.972656 169.492188 84.722656 169.003906 85.476562 C 168.761719 85.855469 168.519531 86.234375 168.28125 86.617188 C 167.808594 87.378906 167.34375 88.152344 166.890625 88.929688 C 165.761719 90.875 164.714844 92.867188 163.75 94.894531 C 163.359375 95.707031 162.992188 96.519531 162.625 97.34375 C 162.269531 98.167969 161.917969 98.996094 161.585938 99.828125 C 161.085938 101.078125 160.613281 102.339844 160.171875 103.613281 C 159.441406 105.730469 158.792969 107.886719 158.234375 110.058594 C 158.125 110.492188 158.015625 110.933594 157.910156 111.367188 C 157.59375 112.679688 157.3125 113.996094 157.0625 115.320312 C 156.8125 116.648438 156.59375 117.980469 156.40625 119.316406 C 155.914062 122.882812 155.660156 126.492188 155.65625 130.113281 L 155.65625 130.121094 C 155.65625 131.015625 155.664062 131.90625 155.695312 132.800781 C 155.695312 132.832031 155.695312 132.859375 155.695312 132.890625 C 155.726562 133.777344 155.769531 134.671875 155.828125 135.558594 Z M 165.632812 129.539062 C 165.632812 128.921875 165.648438 128.300781 165.667969 127.679688 C 165.679688 127.414062 165.6875 127.148438 165.699219 126.886719 C 165.722656 126.308594 165.757812 125.722656 165.792969 125.136719 C 165.808594 124.890625 165.824219 124.648438 165.84375 124.398438 C 165.910156 123.578125 165.976562 122.761719 166.066406 121.933594 C 167.113281 112.398438 170.285156 103.152344 175.078125 94.785156 C 175.332031 94.347656 175.585938 93.90625 175.851562 93.472656 C 176.375 92.601562 176.914062 91.742188 177.472656 90.890625 C 178.863281 88.765625 180.363281 86.707031 181.964844 84.726562 C 182.605469 83.933594 183.257812 83.15625 183.929688 82.386719 C 185.265625 80.855469 186.667969 79.378906 188.121094 77.960938 C 188.136719 77.945312 188.15625 77.925781 188.167969 77.910156 C 188.882812 77.214844 189.605469 76.535156 190.347656 75.863281 C 191.410156 74.90625 192.503906 73.980469 193.617188 73.085938 C 194.183594 72.628906 194.757812 72.183594 195.339844 71.742188 C 196.855469 70.59375 198.414062 69.5 200.011719 68.472656 C 200.707031 68.03125 201.40625 67.601562 202.113281 67.179688 C 202.945312 66.679688 203.789062 66.199219 204.640625 65.742188 C 206.175781 64.910156 207.742188 64.128906 209.335938 63.417969 C 210.257812 63.003906 211.183594 62.613281 212.125 62.242188 C 217.757812 60.011719 223.691406 58.546875 229.796875 57.992188 C 229.796875 57.992188 229.800781 57.992188 229.804688 57.992188 C 230.433594 57.9375 231.058594 57.886719 231.679688 57.84375 C 231.898438 57.828125 232.113281 57.816406 232.332031 57.800781 C 232.738281 57.777344 233.144531 57.753906 233.546875 57.734375 C 233.800781 57.722656 234.054688 57.710938 234.308594 57.703125 C 234.671875 57.6875 235.035156 57.671875 235.394531 57.664062 C 235.660156 57.65625 235.925781 57.652344 236.183594 57.648438 C 236.53125 57.644531 236.882812 57.636719 237.226562 57.636719 C 237.289062 57.636719 237.355469 57.636719 237.414062 57.636719 C 237.664062 57.636719 237.910156 57.644531 238.152344 57.648438 C 238.417969 57.648438 238.683594 57.648438 238.945312 57.65625 C 239.265625 57.664062 239.578125 57.671875 239.894531 57.683594 C 240.152344 57.691406 240.40625 57.699219 240.660156 57.707031 C 240.980469 57.722656 241.300781 57.738281 241.621094 57.757812 C 241.867188 57.773438 242.117188 57.78125 242.367188 57.796875 C 242.691406 57.816406 243.015625 57.84375 243.339844 57.867188 C 243.578125 57.886719 243.820312 57.902344 244.054688 57.921875 C 244.390625 57.953125 244.730469 57.988281 245.070312 58.015625 C 245.289062 58.035156 245.507812 58.058594 245.722656 58.082031 C 246.097656 58.121094 246.472656 58.167969 246.839844 58.210938 C 247.019531 58.230469 247.199219 58.25 247.375 58.277344 C 247.921875 58.347656 248.460938 58.421875 249.003906 58.503906 C 249.128906 58.527344 249.25 58.546875 249.375 58.566406 C 249.792969 58.628906 250.207031 58.695312 250.621094 58.769531 C 250.835938 58.808594 251.050781 58.851562 251.265625 58.890625 C 251.582031 58.949219 251.902344 59.003906 252.214844 59.070312 C 252.457031 59.113281 252.691406 59.167969 252.929688 59.21875 C 253.21875 59.277344 253.507812 59.339844 253.796875 59.398438 C 254.046875 59.453125 254.289062 59.511719 254.535156 59.566406 C 254.808594 59.632812 255.082031 59.691406 255.359375 59.757812 C 255.609375 59.816406 255.855469 59.882812 256.105469 59.945312 C 256.371094 60.015625 256.640625 60.082031 256.902344 60.152344 C 257.160156 60.222656 257.40625 60.289062 257.65625 60.359375 C 257.917969 60.429688 258.171875 60.503906 258.429688 60.574219 C 258.683594 60.648438 258.933594 60.726562 259.1875 60.804688 C 259.4375 60.878906 259.691406 60.953125 259.941406 61.035156 C 260.195312 61.113281 260.445312 61.199219 260.699219 61.277344 C 260.945312 61.359375 261.1875 61.4375 261.433594 61.519531 C 261.6875 61.601562 261.9375 61.691406 262.183594 61.78125 C 262.425781 61.867188 262.664062 61.953125 262.898438 62.035156 C 263.152344 62.125 263.402344 62.222656 263.652344 62.316406 C 263.886719 62.40625 264.113281 62.488281 264.347656 62.578125 C 264.597656 62.679688 264.847656 62.78125 265.101562 62.878906 C 265.332031 62.96875 265.554688 63.0625 265.78125 63.152344 C 266.03125 63.257812 266.28125 63.363281 266.527344 63.46875 C 266.753906 63.5625 266.972656 63.65625 267.191406 63.757812 C 267.441406 63.867188 267.691406 63.976562 267.933594 64.089844 C 268.148438 64.191406 268.367188 64.285156 268.582031 64.390625 C 268.832031 64.503906 269.078125 64.625 269.328125 64.738281 C 269.535156 64.839844 269.746094 64.945312 269.960938 65.046875 C 270.210938 65.167969 270.453125 65.292969 270.699219 65.417969 C 270.902344 65.523438 271.105469 65.625 271.3125 65.730469 C 271.554688 65.859375 271.804688 65.992188 272.050781 66.121094 C 272.25 66.226562 272.449219 66.335938 272.644531 66.445312 C 272.886719 66.578125 273.132812 66.714844 273.375 66.855469 C 273.570312 66.964844 273.757812 67.074219 273.953125 67.183594 C 274.199219 67.324219 274.441406 67.46875 274.683594 67.605469 C 274.871094 67.714844 275.054688 67.832031 275.246094 67.945312 C 275.488281 68.089844 275.730469 68.238281 275.972656 68.390625 C 276.152344 68.503906 276.332031 68.613281 276.511719 68.730469 C 276.757812 68.882812 277 69.039062 277.242188 69.199219 C 277.414062 69.3125 277.585938 69.421875 277.753906 69.535156 C 278 69.699219 278.242188 69.859375 278.480469 70.023438 C 278.648438 70.140625 278.8125 70.253906 278.976562 70.363281 C 279.21875 70.535156 279.464844 70.703125 279.710938 70.878906 C 279.863281 70.988281 280.019531 71.101562 280.171875 71.21875 C 280.421875 71.398438 280.667969 71.578125 280.910156 71.753906 C 281.054688 71.867188 281.199219 71.976562 281.34375 72.085938 C 281.59375 72.273438 281.84375 72.464844 282.09375 72.660156 C 282.226562 72.761719 282.355469 72.867188 282.488281 72.972656 C 282.746094 73.175781 283 73.375 283.253906 73.585938 C 283.371094 73.679688 283.484375 73.777344 283.597656 73.871094 C 283.867188 74.089844 284.132812 74.308594 284.398438 74.535156 C 284.488281 74.613281 284.578125 74.6875 284.671875 74.769531 C 284.957031 75.011719 285.238281 75.257812 285.519531 75.5 C 285.570312 75.546875 285.617188 75.589844 285.667969 75.636719 C 288.117188 77.808594 290.40625 80.144531 292.523438 82.605469 C 292.566406 82.652344 292.601562 82.691406 292.640625 82.738281 C 292.898438 83.042969 293.160156 83.34375 293.414062 83.65625 C 293.46875 83.71875 293.523438 83.789062 293.578125 83.855469 C 293.820312 84.148438 294.054688 84.449219 294.296875 84.742188 C 294.359375 84.820312 294.429688 84.90625 294.496094 84.984375 C 294.722656 85.273438 294.949219 85.5625 295.167969 85.855469 C 295.242188 85.949219 295.3125 86.042969 295.386719 86.136719 C 295.601562 86.421875 295.816406 86.710938 296.03125 86.996094 C 296.105469 87.101562 296.1875 87.199219 296.261719 87.304688 C 296.46875 87.589844 296.675781 87.875 296.875 88.164062 C 296.949219 88.273438 297.027344 88.378906 297.101562 88.488281 C 297.304688 88.769531 297.503906 89.058594 297.695312 89.347656 C 297.773438 89.460938 297.847656 89.570312 297.921875 89.683594 C 298.117188 89.972656 298.304688 90.261719 298.496094 90.550781 C 298.570312 90.667969 298.644531 90.78125 298.71875 90.894531 C 298.902344 91.183594 299.089844 91.472656 299.273438 91.761719 C 299.347656 91.882812 299.421875 92.003906 299.496094 92.121094 C 299.675781 92.410156 299.851562 92.707031 300.03125 92.996094 C 300.105469 93.113281 300.175781 93.238281 300.25 93.359375 C 300.425781 93.652344 300.59375 93.949219 300.765625 94.242188 C 300.832031 94.363281 300.902344 94.484375 300.972656 94.605469 C 301.144531 94.90625 301.308594 95.203125 301.472656 95.503906 C 301.535156 95.628906 301.605469 95.746094 301.671875 95.871094 C 301.835938 96.171875 301.996094 96.476562 302.15625 96.78125 C 302.21875 96.898438 302.285156 97.023438 302.34375 97.144531 C 302.503906 97.453125 302.660156 97.757812 302.8125 98.066406 C 302.875 98.1875 302.933594 98.304688 302.992188 98.425781 C 303.148438 98.738281 303.300781 99.050781 303.453125 99.363281 C 303.507812 99.484375 303.5625 99.597656 303.621094 99.71875 C 303.769531 100.035156 303.921875 100.351562 304.066406 100.667969 C 304.121094 100.785156 304.167969 100.902344 304.226562 101.019531 C 304.371094 101.34375 304.515625 101.667969 304.652344 101.992188 C 304.703125 102.101562 304.75 102.214844 304.796875 102.324219 C 304.9375 102.660156 305.082031 102.988281 305.21875 103.324219 C 305.261719 103.425781 305.300781 103.539062 305.347656 103.640625 C 305.488281 103.980469 305.621094 104.324219 305.753906 104.667969 C 305.796875 104.765625 305.832031 104.863281 305.867188 104.957031 C 306 105.3125 306.132812 105.660156 306.265625 106.015625 C 306.292969 106.101562 306.328125 106.191406 306.359375 106.273438 C 306.492188 106.640625 306.625 107.007812 306.753906 107.378906 C 306.777344 107.445312 306.796875 107.515625 306.824219 107.585938 C 306.957031 107.96875 307.085938 108.359375 307.210938 108.75 C 307.226562 108.792969 307.242188 108.839844 307.257812 108.882812 C 307.390625 109.296875 307.519531 109.710938 307.644531 110.125 C 307.644531 110.136719 307.644531 110.140625 307.652344 110.148438 C 308.882812 114.199219 309.773438 118.34375 310.3125 122.527344 C 310.3125 122.5625 310.324219 122.597656 310.328125 122.632812 C 310.378906 123.035156 310.429688 123.445312 310.472656 123.855469 C 310.484375 123.921875 310.488281 123.992188 310.5 124.0625 C 310.539062 124.449219 310.578125 124.828125 310.613281 125.210938 C 310.621094 125.304688 310.632812 125.398438 310.636719 125.496094 C 310.667969 125.859375 310.699219 126.226562 310.722656 126.589844 C 310.734375 126.707031 310.742188 126.816406 310.746094 126.929688 C 310.773438 127.285156 310.792969 127.640625 310.8125 127.988281 C 310.816406 128.113281 310.828125 128.238281 310.832031 128.363281 C 310.847656 128.707031 310.863281 129.050781 310.871094 129.394531 C 310.871094 129.527344 310.882812 129.664062 310.886719 129.796875 C 310.898438 130.132812 310.902344 130.472656 310.90625 130.804688 C 310.90625 130.949219 310.90625 131.089844 310.910156 131.234375 C 310.910156 131.5625 310.910156 131.894531 310.910156 132.222656 C 310.910156 132.371094 310.910156 132.519531 310.910156 132.671875 C 310.910156 132.996094 310.902344 133.320312 310.890625 133.644531 C 310.890625 133.796875 310.882812 133.953125 310.878906 134.105469 C 310.867188 134.425781 310.851562 134.75 310.835938 135.070312 C 310.832031 135.230469 310.824219 135.382812 310.8125 135.542969 C 310.796875 135.863281 310.777344 136.175781 310.757812 136.496094 C 310.746094 136.65625 310.738281 136.820312 310.722656 136.980469 C 310.699219 137.292969 310.671875 137.609375 310.648438 137.917969 C 310.632812 138.082031 310.617188 138.246094 310.601562 138.410156 C 310.574219 138.71875 310.542969 139.027344 310.507812 139.34375 C 310.488281 139.507812 310.472656 139.675781 310.453125 139.84375 C 310.417969 140.152344 310.382812 140.460938 310.34375 140.769531 C 310.324219 140.9375 310.296875 141.101562 310.277344 141.273438 C 310.238281 141.582031 310.195312 141.886719 310.148438 142.195312 C 310.125 142.359375 310.097656 142.53125 310.074219 142.695312 C 310.023438 143 309.980469 143.308594 309.925781 143.613281 C 309.894531 143.78125 309.863281 143.945312 309.835938 144.117188 C 309.78125 144.417969 309.726562 144.722656 309.664062 145.027344 C 309.636719 145.199219 309.601562 145.363281 309.566406 145.53125 C 309.503906 145.835938 309.441406 146.140625 309.375 146.445312 C 309.339844 146.609375 309.300781 146.773438 309.265625 146.9375 C 309.195312 147.242188 309.132812 147.546875 309.058594 147.851562 C 309.015625 148.015625 308.976562 148.179688 308.9375 148.34375 C 308.863281 148.648438 308.789062 148.953125 308.710938 149.253906 C 308.671875 149.410156 308.628906 149.570312 308.582031 149.730469 C 308.503906 150.035156 308.417969 150.34375 308.332031 150.648438 C 308.289062 150.804688 308.242188 150.957031 308.199219 151.113281 C 308.109375 151.421875 308.019531 151.730469 307.925781 152.039062 C 307.878906 152.183594 307.835938 152.328125 307.789062 152.472656 C 307.691406 152.792969 307.589844 153.105469 307.484375 153.425781 C 307.441406 153.554688 307.394531 153.683594 307.355469 153.816406 C 307.246094 154.144531 307.132812 154.472656 307.015625 154.800781 C 306.980469 154.902344 306.941406 155 306.90625 155.105469 C 306.777344 155.464844 306.648438 155.820312 306.511719 156.175781 C 306.511719 156.183594 306.503906 156.195312 306.503906 156.203125 C 305.871094 157.875 305.15625 159.523438 304.378906 161.15625 C 304.324219 161.277344 304.269531 161.390625 304.210938 161.511719 C 304.070312 161.792969 303.925781 162.078125 303.785156 162.363281 C 303.707031 162.523438 303.632812 162.675781 303.546875 162.835938 C 303.410156 163.101562 303.273438 163.359375 303.132812 163.625 C 303.039062 163.796875 302.949219 163.976562 302.851562 164.152344 C 302.71875 164.402344 302.578125 164.652344 302.4375 164.902344 C 302.335938 165.085938 302.230469 165.273438 302.125 165.460938 C 301.984375 165.699219 301.847656 165.9375 301.703125 166.183594 C 301.585938 166.371094 301.476562 166.566406 301.363281 166.757812 C 301.222656 166.992188 301.078125 167.226562 300.929688 167.453125 C 300.808594 167.648438 300.6875 167.84375 300.5625 168.039062 C 300.417969 168.265625 300.269531 168.492188 300.125 168.714844 C 299.996094 168.910156 299.871094 169.109375 299.742188 169.304688 C 299.59375 169.527344 299.441406 169.75 299.289062 169.96875 C 299.152344 170.167969 299.019531 170.363281 298.878906 170.5625 C 298.722656 170.777344 298.570312 170.996094 298.414062 171.210938 C 298.269531 171.410156 298.125 171.609375 297.980469 171.804688 C 297.828125 172.011719 297.667969 172.226562 297.507812 172.4375 C 297.359375 172.636719 297.207031 172.835938 297.054688 173.03125 C 296.894531 173.238281 296.730469 173.445312 296.566406 173.648438 C 296.40625 173.847656 296.25 174.046875 296.089844 174.242188 C 295.925781 174.445312 295.757812 174.644531 295.59375 174.851562 C 295.429688 175.050781 295.261719 175.242188 295.097656 175.4375 C 294.929688 175.636719 294.753906 175.835938 294.585938 176.035156 C 294.414062 176.230469 294.242188 176.425781 294.070312 176.621094 C 293.898438 176.816406 293.722656 177.015625 293.542969 177.207031 C 293.363281 177.402344 293.1875 177.597656 293.007812 177.785156 C 292.828125 177.980469 292.648438 178.171875 292.464844 178.359375 C 292.28125 178.554688 292.097656 178.746094 291.90625 178.9375 C 291.722656 179.128906 291.539062 179.3125 291.351562 179.503906 C 291.164062 179.691406 290.96875 179.886719 290.769531 180.074219 C 290.582031 180.261719 290.390625 180.445312 290.203125 180.625 C 290.003906 180.8125 289.800781 181.003906 289.597656 181.1875 C 289.402344 181.367188 289.210938 181.546875 289.015625 181.726562 C 288.808594 181.917969 288.601562 182.101562 288.390625 182.285156 C 288.191406 182.460938 287.996094 182.632812 287.796875 182.808594 C 287.582031 182.992188 287.367188 183.179688 287.148438 183.363281 C 286.949219 183.53125 286.746094 183.707031 286.542969 183.875 C 286.316406 184.058594 286.09375 184.246094 285.867188 184.429688 C 285.664062 184.59375 285.460938 184.761719 285.253906 184.929688 C 285.023438 185.113281 284.789062 185.292969 284.554688 185.472656 C 284.347656 185.632812 284.136719 185.796875 283.929688 185.957031 C 283.6875 186.136719 283.449219 186.316406 283.203125 186.492188 C 282.992188 186.652344 282.78125 186.808594 282.566406 186.96875 C 282.316406 187.148438 282.0625 187.328125 281.808594 187.507812 C 281.59375 187.65625 281.382812 187.8125 281.171875 187.957031 C 280.910156 188.132812 280.648438 188.3125 280.382812 188.488281 C 280.167969 188.632812 279.953125 188.777344 279.738281 188.921875 C 279.464844 189.101562 279.183594 189.28125 278.90625 189.460938 C 278.695312 189.597656 278.488281 189.734375 278.273438 189.863281 C 277.972656 190.054688 277.667969 190.234375 277.371094 190.417969 C 277.171875 190.542969 276.972656 190.667969 276.765625 190.789062 C 276.425781 190.992188 276.082031 191.1875 275.746094 191.386719 C 275.570312 191.484375 275.398438 191.589844 275.226562 191.691406 C 274.707031 191.984375 274.179688 192.277344 273.644531 192.566406 C 272.898438 192.972656 272.144531 193.359375 271.386719 193.738281 C 271.136719 193.863281 270.886719 193.980469 270.636719 194.097656 C 270.128906 194.347656 269.621094 194.59375 269.113281 194.828125 C 268.816406 194.960938 268.519531 195.089844 268.222656 195.222656 C 267.753906 195.425781 267.285156 195.628906 266.816406 195.828125 C 266.503906 195.960938 266.195312 196.082031 265.878906 196.214844 C 265.421875 196.398438 264.960938 196.578125 264.503906 196.753906 C 264.191406 196.871094 263.871094 196.992188 263.554688 197.105469 C 263.09375 197.277344 262.628906 197.433594 262.164062 197.59375 C 261.855469 197.699219 261.542969 197.804688 261.234375 197.910156 C 260.75 198.070312 260.261719 198.214844 259.777344 198.363281 C 259.488281 198.449219 259.199219 198.542969 258.910156 198.621094 C 258.355469 198.78125 257.796875 198.929688 257.238281 199.074219 C 257.019531 199.136719 256.800781 199.195312 256.578125 199.25 C 255.800781 199.445312 255.027344 199.628906 254.25 199.800781 C 254.105469 199.828125 253.960938 199.855469 253.816406 199.890625 C 253.183594 200.023438 252.550781 200.148438 251.921875 200.261719 C 251.648438 200.3125 251.367188 200.359375 251.09375 200.402344 C 250.589844 200.488281 250.085938 200.570312 249.582031 200.648438 C 249.273438 200.691406 248.964844 200.730469 248.65625 200.777344 C 248.183594 200.839844 247.707031 200.902344 247.238281 200.957031 C 246.921875 200.992188 246.601562 201.027344 246.277344 201.054688 C 245.8125 201.101562 245.347656 201.144531 244.886719 201.179688 C 244.566406 201.207031 244.246094 201.230469 243.921875 201.253906 C 243.453125 201.285156 242.984375 201.308594 242.515625 201.335938 C 242.207031 201.351562 241.898438 201.363281 241.589844 201.375 C 241.089844 201.390625 240.597656 201.398438 240.097656 201.410156 C 239.820312 201.410156 239.539062 201.417969 239.261719 201.425781 C 239.191406 201.425781 239.121094 201.425781 239.050781 201.425781 C 238.386719 201.425781 237.722656 201.414062 237.0625 201.394531 C 236.929688 201.394531 236.808594 201.386719 236.683594 201.378906 C 236.070312 201.359375 235.457031 201.328125 234.84375 201.296875 C 234.601562 201.28125 234.363281 201.265625 234.128906 201.25 C 233.609375 201.214844 233.089844 201.175781 232.574219 201.125 C 232.339844 201.105469 232.097656 201.085938 231.863281 201.0625 C 231.246094 201 230.628906 200.929688 230.015625 200.851562 C 229.898438 200.835938 229.785156 200.828125 229.675781 200.8125 C 228.953125 200.714844 228.230469 200.613281 227.507812 200.496094 C 227.300781 200.460938 227.097656 200.425781 226.894531 200.390625 C 226.371094 200.304688 225.84375 200.207031 225.320312 200.109375 C 225.082031 200.0625 224.839844 200.011719 224.597656 199.96875 C 224.074219 199.863281 223.554688 199.753906 223.039062 199.632812 C 222.832031 199.589844 222.632812 199.542969 222.429688 199.5 C 221.722656 199.335938 221.019531 199.160156 220.320312 198.976562 C 220.207031 198.945312 220.097656 198.910156 219.980469 198.882812 C 219.386719 198.722656 218.800781 198.558594 218.210938 198.382812 C 217.984375 198.316406 217.757812 198.25 217.53125 198.179688 C 217.042969 198.027344 216.554688 197.875 216.070312 197.714844 C 215.847656 197.640625 215.617188 197.566406 215.394531 197.488281 C 214.828125 197.300781 214.265625 197.101562 213.707031 196.898438 C 213.582031 196.851562 213.457031 196.808594 213.332031 196.761719 C 212.660156 196.511719 211.988281 196.25 211.320312 195.980469 C 211.128906 195.90625 210.941406 195.824219 210.753906 195.746094 C 210.265625 195.546875 209.78125 195.335938 209.300781 195.125 C 209.074219 195.027344 208.851562 194.925781 208.625 194.828125 C 208.152344 194.613281 207.679688 194.394531 207.210938 194.175781 C 207.015625 194.085938 206.824219 193.996094 206.632812 193.898438 C 205.984375 193.585938 205.34375 193.265625 204.707031 192.933594 C 204.613281 192.882812 204.511719 192.828125 204.417969 192.777344 C 203.875 192.492188 203.335938 192.199219 202.796875 191.898438 C 202.585938 191.785156 202.382812 191.664062 202.179688 191.550781 C 201.738281 191.300781 201.304688 191.046875 200.871094 190.789062 C 200.660156 190.664062 200.457031 190.539062 200.246094 190.414062 C 199.753906 190.109375 199.261719 189.804688 198.777344 189.492188 C 198.65625 189.410156 198.53125 189.335938 198.414062 189.257812 C 197.8125 188.867188 197.214844 188.46875 196.628906 188.058594 C 196.460938 187.945312 196.296875 187.824219 196.128906 187.710938 C 195.699219 187.40625 195.269531 187.101562 194.847656 186.792969 C 194.648438 186.648438 194.449219 186.5 194.253906 186.347656 C 193.84375 186.039062 193.4375 185.730469 193.03125 185.410156 C 192.855469 185.277344 192.6875 185.144531 192.519531 185.007812 C 191.960938 184.5625 191.40625 184.109375 190.859375 183.648438 C 190.78125 183.582031 190.714844 183.523438 190.636719 183.457031 C 190.164062 183.054688 189.691406 182.640625 189.226562 182.226562 C 189.050781 182.066406 188.878906 181.90625 188.703125 181.75 C 188.335938 181.414062 187.964844 181.066406 187.601562 180.722656 C 187.425781 180.554688 187.246094 180.390625 187.078125 180.21875 C 186.667969 179.820312 186.265625 179.421875 185.867188 179.015625 C 185.757812 178.902344 185.644531 178.792969 185.542969 178.683594 C 185.042969 178.171875 184.554688 177.652344 184.070312 177.125 C 183.9375 176.980469 183.804688 176.828125 183.671875 176.679688 C 183.316406 176.285156 182.96875 175.890625 182.621094 175.488281 C 182.460938 175.296875 182.296875 175.113281 182.136719 174.925781 C 181.804688 174.535156 181.480469 174.140625 181.15625 173.742188 C 181.019531 173.566406 180.878906 173.398438 180.738281 173.222656 C 180.289062 172.660156 179.851562 172.09375 179.421875 171.519531 C 179.378906 171.453125 179.328125 171.390625 179.28125 171.328125 C 178.898438 170.808594 178.523438 170.285156 178.15625 169.757812 C 178.019531 169.5625 177.890625 169.367188 177.757812 169.179688 C 177.472656 168.761719 177.1875 168.339844 176.914062 167.917969 C 176.78125 167.714844 176.644531 167.507812 176.515625 167.304688 C 176.210938 166.824219 175.910156 166.34375 175.617188 165.859375 C 175.53125 165.71875 175.449219 165.582031 175.363281 165.445312 C 174.996094 164.824219 174.636719 164.199219 174.285156 163.5625 C 174.191406 163.394531 174.101562 163.226562 174.011719 163.054688 C 173.753906 162.582031 173.5 162.101562 173.25 161.621094 C 173.132812 161.398438 173.023438 161.175781 172.914062 160.957031 C 172.683594 160.492188 172.457031 160.023438 172.238281 159.554688 C 172.140625 159.351562 172.042969 159.152344 171.949219 158.945312 C 171.644531 158.28125 171.34375 157.613281 171.058594 156.941406 C 171.039062 156.886719 171.019531 156.835938 170.996094 156.78125 C 170.730469 156.152344 170.480469 155.527344 170.238281 154.886719 C 170.152344 154.667969 170.074219 154.449219 169.992188 154.234375 C 169.808594 153.746094 169.632812 153.25 169.457031 152.757812 C 169.378906 152.523438 169.300781 152.292969 169.21875 152.058594 C 169.035156 151.511719 168.859375 150.953125 168.6875 150.398438 C 168.636719 150.238281 168.585938 150.078125 168.535156 149.921875 C 168.320312 149.207031 168.121094 148.488281 167.933594 147.765625 C 167.882812 147.585938 167.84375 147.402344 167.796875 147.21875 C 167.660156 146.664062 167.523438 146.109375 167.394531 145.550781 C 167.339844 145.308594 167.285156 145.0625 167.230469 144.820312 C 167.113281 144.289062 167.003906 143.757812 166.90625 143.222656 C 166.859375 143 166.816406 142.773438 166.777344 142.542969 C 166.640625 141.796875 166.511719 141.042969 166.402344 140.28125 C 166.402344 140.253906 166.398438 140.230469 166.390625 140.210938 C 166.28125 139.476562 166.191406 138.734375 166.109375 137.992188 C 166.082031 137.757812 166.058594 137.519531 166.03125 137.285156 C 165.976562 136.730469 165.921875 136.179688 165.882812 135.621094 C 165.863281 135.367188 165.84375 135.113281 165.824219 134.855469 C 165.785156 134.246094 165.75 133.632812 165.722656 133.019531 C 165.71875 132.839844 165.703125 132.660156 165.699219 132.480469 C 165.675781 131.691406 165.660156 130.898438 165.652344 130.101562 C 165.652344 129.917969 165.652344 129.726562 165.660156 129.542969 Z M 165.632812 129.539062 " fill-opacity="1" fill-rule="nonzero"/><path fill="#fa4238" d="M 70.804688 250.601562 L 69.097656 250.3125 C 68.160156 250.375 67.21875 250.425781 66.269531 250.464844 C 65.980469 250.480469 65.6875 250.484375 65.390625 250.5 C 64.714844 250.527344 64.03125 250.546875 63.347656 250.5625 C 63.039062 250.566406 62.730469 250.574219 62.414062 250.582031 C 61.65625 250.59375 60.894531 250.601562 60.132812 250.605469 C 59.933594 250.605469 59.738281 250.605469 59.539062 250.605469 C 59.484375 250.605469 59.433594 250.605469 59.378906 250.605469 C 59.09375 250.605469 58.808594 250.601562 58.527344 250.601562 C 57.6875 250.601562 56.851562 250.589844 56.007812 250.582031 C 55.5625 250.574219 55.121094 250.566406 54.675781 250.554688 C 53.941406 250.539062 53.203125 250.527344 52.464844 250.507812 C 51.988281 250.496094 51.515625 250.480469 51.035156 250.464844 C 50.308594 250.445312 49.578125 250.421875 48.851562 250.394531 C 48.363281 250.382812 47.867188 250.367188 47.378906 250.347656 C 46.515625 250.316406 45.652344 250.285156 44.785156 250.257812 C 43.902344 250.226562 43.015625 250.191406 42.132812 250.160156 C 41.628906 250.140625 41.125 250.125 40.628906 250.105469 C 39.441406 250.066406 38.257812 250.027344 37.078125 249.996094 C 37.015625 249.996094 36.957031 249.996094 36.898438 249.996094 C 35.800781 249.96875 34.707031 249.941406 33.621094 249.925781 C 33.25 249.921875 32.882812 249.917969 32.515625 249.914062 C 31.730469 249.902344 30.949219 249.890625 30.164062 249.890625 C 29.601562 249.890625 29.042969 249.890625 28.484375 249.898438 C 28.046875 249.898438 27.613281 249.898438 27.179688 249.90625 C 26.570312 249.917969 25.964844 249.933594 25.363281 249.949219 C 24.957031 249.957031 24.550781 249.96875 24.144531 249.976562 C 23.8125 249.988281 23.484375 250.007812 23.148438 250.023438 C 22.820312 250.039062 22.484375 250.050781 22.15625 250.066406 C 21.816406 250.082031 21.476562 250.097656 21.144531 250.117188 C 20.152344 250.175781 19.164062 250.242188 18.1875 250.328125 C 17.070312 250.421875 16.003906 250.65625 15.015625 251.003906 C 9.398438 252.984375 6.144531 258.722656 8.613281 264.921875 C 8.804688 265.417969 9.226562 266.023438 9.769531 266.667969 C 9.902344 266.828125 10.046875 266.992188 10.203125 267.152344 C 10.507812 267.476562 10.835938 267.804688 11.179688 268.125 C 12.730469 269.554688 14.585938 270.789062 15.714844 270.789062 L 83.285156 270.789062 C 79.078125 264.191406 75.699219 256.621094 70.808594 250.601562 Z M 70.804688 250.601562 " fill-opacity="1" fill-rule="nonzero"/><path fill="#fa4238" d="M 109.710938 302.203125 L 91.523438 281.71875 L 48.101562 281.738281 C 46.457031 281.785156 44.941406 282.191406 43.609375 282.878906 C 43.390625 282.996094 43.171875 283.113281 42.960938 283.246094 C 42.539062 283.503906 42.136719 283.789062 41.757812 284.101562 C 41.191406 284.570312 40.675781 285.089844 40.21875 285.660156 C 40.1875 285.695312 40.164062 285.734375 40.132812 285.773438 C 39.863281 286.117188 39.609375 286.476562 39.386719 286.84375 C 39.136719 287.257812 38.910156 287.6875 38.71875 288.128906 C 38.230469 289.230469 37.929688 290.410156 37.839844 291.609375 C 37.804688 292.085938 37.800781 292.570312 37.839844 293.054688 C 37.875 293.539062 37.945312 294.023438 38.050781 294.5 C 38.152344 294.980469 38.296875 295.453125 38.484375 295.921875 C 38.757812 296.621094 39.125 297.308594 39.585938 297.960938 C 39.890625 298.394531 40.238281 298.820312 40.632812 299.226562 C 40.6875 299.28125 40.753906 299.347656 40.820312 299.414062 C 41.175781 299.730469 41.703125 300.128906 42.296875 300.523438 C 42.652344 300.757812 43.03125 300.992188 43.40625 301.210938 C 44.277344 301.714844 45.128906 302.121094 45.640625 302.210938 L 109.722656 302.210938 Z M 109.710938 302.203125 " fill-opacity="1" fill-rule="nonzero"/><path fill="#fa4238" d="M 177.359375 125.464844 C 177.695312 125.425781 178.03125 125.390625 178.355469 125.375 C 178.371094 125.375 178.390625 125.375 178.40625 125.375 C 178.621094 125.363281 178.835938 125.359375 179.039062 125.359375 C 179.113281 125.359375 179.179688 125.363281 179.253906 125.371094 C 179.378906 125.371094 179.496094 125.375 179.617188 125.386719 C 179.8125 125.394531 180 125.410156 180.191406 125.425781 C 180.304688 125.433594 180.421875 125.449219 180.535156 125.464844 C 180.722656 125.488281 180.902344 125.519531 181.082031 125.554688 C 181.179688 125.574219 181.277344 125.589844 181.371094 125.609375 C 181.59375 125.660156 181.804688 125.714844 182.015625 125.777344 C 182.0625 125.792969 182.105469 125.804688 182.144531 125.8125 C 182.390625 125.894531 182.621094 125.976562 182.839844 126.074219 C 182.917969 126.109375 182.992188 126.148438 183.066406 126.183594 C 183.207031 126.246094 183.347656 126.316406 183.476562 126.386719 C 183.5625 126.433594 183.640625 126.480469 183.722656 126.53125 C 183.835938 126.601562 183.945312 126.671875 184.054688 126.75 C 184.128906 126.804688 184.207031 126.859375 184.28125 126.914062 C 184.378906 126.996094 184.480469 127.074219 184.570312 127.160156 C 184.632812 127.21875 184.699219 127.273438 184.761719 127.335938 C 184.859375 127.429688 184.949219 127.523438 185.03125 127.617188 C 185.082031 127.671875 185.132812 127.722656 185.175781 127.777344 C 185.300781 127.929688 185.417969 128.082031 185.515625 128.242188 C 185.546875 128.292969 185.570312 128.34375 185.601562 128.386719 C 185.671875 128.5 185.742188 128.621094 185.800781 128.742188 C 185.835938 128.8125 185.859375 128.878906 185.890625 128.949219 C 185.9375 129.054688 185.980469 129.15625 186.015625 129.257812 C 186.039062 129.335938 186.066406 129.410156 186.085938 129.484375 C 186.113281 129.589844 186.140625 129.695312 186.164062 129.796875 C 186.179688 129.871094 186.195312 129.949219 186.210938 130.023438 C 186.230469 130.132812 186.238281 130.242188 186.25 130.351562 C 186.253906 130.421875 186.265625 130.492188 186.265625 130.5625 C 186.269531 130.695312 186.265625 130.835938 186.257812 130.96875 C 186.257812 131.015625 186.257812 131.054688 186.257812 131.101562 C 186.246094 131.28125 186.214844 131.453125 186.179688 131.628906 C 186.171875 131.683594 186.148438 131.742188 186.136719 131.796875 C 186.105469 131.917969 186.070312 132.039062 186.03125 132.15625 C 186.003906 132.222656 185.980469 132.292969 185.949219 132.355469 C 185.90625 132.460938 185.859375 132.570312 185.804688 132.675781 C 185.769531 132.742188 185.734375 132.808594 185.703125 132.875 C 185.640625 132.980469 185.578125 133.078125 185.511719 133.179688 C 185.472656 133.238281 185.433594 133.300781 185.386719 133.359375 C 185.308594 133.46875 185.21875 133.574219 185.128906 133.679688 C 185.085938 133.722656 185.046875 133.773438 185.007812 133.816406 C 184.867188 133.960938 184.71875 134.105469 184.558594 134.242188 C 184.539062 134.261719 184.507812 134.277344 184.488281 134.296875 C 184.34375 134.410156 184.195312 134.519531 184.035156 134.625 C 183.972656 134.664062 183.90625 134.707031 183.839844 134.746094 C 183.710938 134.824219 183.582031 134.898438 183.441406 134.96875 C 183.363281 135.007812 183.28125 135.050781 183.199219 135.085938 C 183.058594 135.148438 182.914062 135.207031 182.769531 135.265625 C 182.679688 135.296875 182.589844 135.332031 182.5 135.363281 C 182.339844 135.417969 182.175781 135.46875 182.007812 135.511719 C 181.917969 135.539062 181.828125 135.5625 181.730469 135.589844 C 181.523438 135.636719 181.296875 135.683594 181.074219 135.71875 C 181.011719 135.726562 180.957031 135.742188 180.898438 135.746094 C 180.609375 135.792969 180.308594 135.824219 179.996094 135.84375 C 179.910156 135.847656 179.820312 135.847656 179.730469 135.851562 C 179.546875 135.863281 179.363281 135.871094 179.167969 135.871094 C 179.105469 135.871094 179.039062 135.871094 178.972656 135.871094 C 178.917969 135.871094 178.859375 135.871094 178.804688 135.871094 C 178.484375 135.863281 178.152344 135.847656 177.8125 135.8125 C 177.765625 135.8125 177.71875 135.800781 177.667969 135.796875 C 177.304688 135.761719 176.929688 135.710938 176.546875 135.648438 C 177.976562 163.625 200.539062 184.359375 226.832031 189.949219 C 229.0625 190.425781 231.316406 190.789062 233.585938 191.039062 C 233.863281 190.59375 234.042969 190.109375 234.160156 189.601562 C 234.214844 189.347656 234.257812 189.085938 234.285156 188.816406 C 234.308594 188.546875 234.328125 188.28125 234.332031 188.011719 C 234.339844 187.734375 234.339844 187.460938 234.332031 187.183594 C 234.324219 186.769531 234.304688 186.347656 234.289062 185.9375 C 234.257812 185.109375 234.238281 184.300781 234.339844 183.558594 C 234.351562 183.433594 234.375 183.3125 234.398438 183.191406 C 234.585938 182.230469 235.023438 181.402344 235.949219 180.824219 C 236.183594 180.679688 236.441406 180.550781 236.742188 180.433594 C 237.042969 180.320312 237.375 180.226562 237.746094 180.152344 C 238.039062 180.089844 238.3125 180.050781 238.582031 180.015625 C 238.652344 180.007812 238.71875 180 238.785156 179.996094 C 239.039062 179.972656 239.289062 179.957031 239.523438 179.957031 C 239.523438 179.957031 239.535156 179.957031 239.539062 179.957031 C 239.558594 179.957031 239.578125 179.957031 239.597656 179.957031 C 239.75 179.957031 239.898438 179.960938 240.039062 179.976562 C 240.097656 179.976562 240.152344 179.992188 240.207031 179.996094 C 240.308594 180.007812 240.40625 180.015625 240.503906 180.035156 C 240.566406 180.046875 240.625 180.0625 240.6875 180.070312 C 240.769531 180.085938 240.855469 180.105469 240.9375 180.125 C 240.996094 180.140625 241.0625 180.160156 241.121094 180.179688 C 241.195312 180.207031 241.269531 180.226562 241.339844 180.253906 C 241.398438 180.277344 241.460938 180.300781 241.515625 180.324219 C 241.578125 180.355469 241.648438 180.386719 241.710938 180.414062 C 241.765625 180.441406 241.820312 180.46875 241.875 180.5 C 241.933594 180.535156 241.992188 180.570312 242.054688 180.605469 C 242.101562 180.632812 242.15625 180.667969 242.207031 180.703125 C 242.261719 180.746094 242.316406 180.785156 242.367188 180.824219 C 242.414062 180.859375 242.460938 180.898438 242.507812 180.933594 C 242.558594 180.980469 242.605469 181.023438 242.65625 181.070312 C 242.703125 181.109375 242.742188 181.148438 242.785156 181.191406 C 242.835938 181.242188 242.882812 181.296875 242.925781 181.347656 C 242.960938 181.394531 243 181.433594 243.035156 181.476562 C 243.109375 181.570312 243.183594 181.671875 243.25 181.773438 C 243.285156 181.820312 243.316406 181.875 243.34375 181.925781 C 243.378906 181.980469 243.414062 182.039062 243.449219 182.101562 C 243.480469 182.160156 243.507812 182.21875 243.542969 182.28125 C 243.574219 182.335938 243.605469 182.394531 243.628906 182.449219 C 243.660156 182.515625 243.683594 182.574219 243.714844 182.640625 C 243.738281 182.699219 243.761719 182.757812 243.789062 182.820312 C 243.8125 182.882812 243.839844 182.953125 243.863281 183.019531 C 243.882812 183.078125 243.910156 183.144531 243.929688 183.203125 C 243.953125 183.273438 243.972656 183.34375 243.992188 183.414062 C 244.011719 183.476562 244.027344 183.542969 244.046875 183.605469 C 244.066406 183.675781 244.085938 183.75 244.101562 183.828125 C 244.117188 183.890625 244.132812 183.960938 244.148438 184.027344 C 244.164062 184.101562 244.183594 184.175781 244.199219 184.25 C 244.210938 184.316406 244.222656 184.382812 244.238281 184.453125 C 244.253906 184.53125 244.265625 184.609375 244.277344 184.6875 C 244.289062 184.757812 244.296875 184.828125 244.308594 184.898438 C 244.316406 184.976562 244.332031 185.054688 244.34375 185.132812 C 244.351562 185.203125 244.355469 185.277344 244.367188 185.347656 C 244.382812 185.507812 244.398438 185.667969 244.410156 185.832031 C 244.417969 185.894531 244.421875 185.964844 244.425781 186.03125 C 244.433594 186.113281 244.4375 186.199219 244.441406 186.28125 C 244.441406 186.355469 244.453125 186.425781 244.453125 186.5 C 244.453125 186.582031 244.457031 186.667969 244.460938 186.75 C 244.460938 186.824219 244.460938 186.898438 244.464844 186.972656 C 244.464844 187.058594 244.464844 187.140625 244.464844 187.226562 C 244.464844 187.300781 244.464844 187.375 244.464844 187.453125 C 244.464844 187.535156 244.464844 187.621094 244.464844 187.707031 C 244.464844 187.78125 244.464844 187.855469 244.464844 187.933594 C 244.464844 188.019531 244.464844 188.101562 244.464844 188.183594 C 244.464844 188.257812 244.464844 188.339844 244.460938 188.414062 C 244.460938 188.492188 244.460938 188.578125 244.457031 188.660156 C 244.457031 188.738281 244.453125 188.8125 244.445312 188.894531 C 244.445312 188.972656 244.441406 189.058594 244.4375 189.136719 C 244.4375 189.210938 244.433594 189.285156 244.425781 189.363281 C 244.425781 189.445312 244.417969 189.527344 244.417969 189.609375 C 244.417969 189.679688 244.40625 189.75 244.40625 189.820312 C 244.40625 189.910156 244.398438 189.996094 244.390625 190.085938 C 244.390625 190.09375 244.390625 190.101562 244.390625 190.109375 C 244.382812 190.25 244.378906 190.382812 244.367188 190.523438 C 246.347656 190.394531 248.316406 190.148438 250.265625 189.808594 C 250.761719 189.726562 251.25 189.632812 251.738281 189.53125 C 252.492188 189.375 253.242188 189.210938 253.992188 189.027344 C 254.964844 188.789062 255.925781 188.527344 256.882812 188.238281 C 258.015625 187.902344 259.132812 187.53125 260.246094 187.121094 C 262.199219 186.410156 264.121094 185.597656 265.996094 184.683594 C 266.015625 184.675781 266.039062 184.664062 266.058594 184.652344 C 267.898438 183.757812 269.699219 182.769531 271.445312 181.695312 C 271.730469 181.523438 272.015625 181.347656 272.292969 181.167969 C 272.789062 180.855469 273.269531 180.539062 273.753906 180.210938 C 274.304688 179.839844 274.847656 179.460938 275.386719 179.078125 C 278.214844 177.042969 280.875 174.78125 283.328125 172.3125 C 283.335938 172.304688 283.339844 172.300781 283.34375 172.296875 C 287.105469 168.515625 290.386719 164.273438 293.023438 159.675781 C 293.464844 158.90625 293.886719 158.132812 294.289062 157.347656 C 294.695312 156.5625 295.082031 155.765625 295.449219 154.960938 C 295.632812 154.5625 295.8125 154.160156 295.984375 153.75 C 296.335938 152.9375 296.664062 152.121094 296.972656 151.292969 C 297.28125 150.464844 297.570312 149.625 297.839844 148.785156 C 298.246094 147.515625 298.597656 146.238281 298.902344 144.945312 C 299.617188 141.921875 300.066406 138.816406 300.21875 135.652344 C 299.855469 135.722656 299.507812 135.773438 299.167969 135.8125 C 299.101562 135.824219 299.035156 135.828125 298.96875 135.835938 C 298.644531 135.871094 298.324219 135.898438 298.015625 135.90625 C 297.957031 135.90625 297.902344 135.90625 297.847656 135.90625 C 297.730469 135.90625 297.613281 135.917969 297.496094 135.917969 C 297.382812 135.917969 297.269531 135.90625 297.152344 135.90625 C 297.039062 135.90625 296.917969 135.902344 296.808594 135.898438 C 296.601562 135.886719 296.398438 135.863281 296.199219 135.84375 C 296.109375 135.832031 296.015625 135.828125 295.929688 135.8125 C 295.652344 135.773438 295.378906 135.722656 295.125 135.664062 C 295.109375 135.664062 295.089844 135.652344 295.074219 135.648438 C 294.835938 135.589844 294.605469 135.523438 294.378906 135.449219 C 294.300781 135.421875 294.226562 135.386719 294.152344 135.363281 C 293.996094 135.304688 293.847656 135.242188 293.703125 135.179688 C 293.621094 135.144531 293.542969 135.105469 293.464844 135.0625 C 293.332031 135 293.203125 134.929688 293.082031 134.859375 C 293.007812 134.816406 292.933594 134.769531 292.863281 134.726562 C 292.746094 134.652344 292.636719 134.566406 292.527344 134.484375 C 292.464844 134.441406 292.402344 134.394531 292.339844 134.347656 C 292.222656 134.246094 292.113281 134.148438 292 134.042969 C 291.960938 134.007812 291.921875 133.972656 291.886719 133.933594 C 291.746094 133.789062 291.617188 133.636719 291.5 133.484375 C 291.472656 133.453125 291.453125 133.417969 291.429688 133.382812 C 291.339844 133.257812 291.253906 133.132812 291.175781 133.003906 C 291.140625 132.949219 291.113281 132.890625 291.078125 132.832031 C 291.019531 132.71875 290.964844 132.609375 290.914062 132.5 C 290.882812 132.4375 290.859375 132.371094 290.835938 132.304688 C 290.796875 132.195312 290.753906 132.085938 290.71875 131.972656 C 290.699219 131.90625 290.679688 131.84375 290.664062 131.777344 C 290.636719 131.660156 290.617188 131.539062 290.59375 131.417969 C 290.585938 131.359375 290.574219 131.304688 290.566406 131.246094 C 290.546875 131.089844 290.535156 130.933594 290.535156 130.78125 C 290.535156 130.753906 290.535156 130.730469 290.535156 130.707031 C 290.535156 130.527344 290.546875 130.34375 290.570312 130.164062 C 290.574219 130.117188 290.585938 130.074219 290.59375 130.027344 C 290.617188 129.894531 290.640625 129.761719 290.675781 129.628906 C 290.691406 129.570312 290.710938 129.507812 290.730469 129.449219 C 290.765625 129.335938 290.804688 129.21875 290.84375 129.105469 C 290.871094 129.039062 290.894531 128.980469 290.925781 128.914062 C 290.972656 128.800781 291.03125 128.691406 291.089844 128.582031 C 291.117188 128.523438 291.148438 128.460938 291.183594 128.40625 C 291.253906 128.292969 291.328125 128.175781 291.414062 128.0625 C 291.449219 128.019531 291.472656 127.96875 291.507812 127.921875 C 291.746094 127.609375 292.03125 127.316406 292.359375 127.050781 C 292.410156 127.011719 292.464844 126.976562 292.515625 126.9375 C 292.636719 126.847656 292.761719 126.757812 292.890625 126.671875 C 292.953125 126.625 293.023438 126.585938 293.09375 126.546875 C 293.21875 126.472656 293.347656 126.402344 293.484375 126.332031 C 293.558594 126.292969 293.636719 126.253906 293.71875 126.21875 C 293.855469 126.152344 294.007812 126.09375 294.15625 126.03125 C 294.234375 126.003906 294.316406 125.96875 294.402344 125.9375 C 294.574219 125.878906 294.765625 125.824219 294.949219 125.773438 C 295.015625 125.753906 295.078125 125.734375 295.148438 125.71875 C 295.40625 125.652344 295.683594 125.605469 295.964844 125.558594 C 296.019531 125.550781 296.074219 125.550781 296.132812 125.539062 C 296.367188 125.507812 296.601562 125.484375 296.847656 125.46875 C 296.953125 125.464844 297.0625 125.460938 297.167969 125.460938 C 297.308594 125.460938 297.441406 125.445312 297.585938 125.445312 C 297.675781 125.445312 297.765625 125.445312 297.855469 125.449219 C 297.917969 125.449219 297.976562 125.449219 298.035156 125.449219 C 298.34375 125.460938 298.660156 125.480469 298.988281 125.515625 C 299.046875 125.519531 299.101562 125.53125 299.164062 125.535156 C 299.507812 125.574219 299.859375 125.621094 300.230469 125.6875 C 299.027344 114.800781 295.339844 104.695312 289.667969 96.085938 C 289.175781 95.339844 288.664062 94.601562 288.140625 93.878906 C 287.617188 93.15625 287.078125 92.4375 286.53125 91.738281 C 285.976562 91.035156 285.414062 90.347656 284.835938 89.667969 C 283.09375 87.640625 281.230469 85.722656 279.25 83.933594 C 278.59375 83.335938 277.914062 82.757812 277.230469 82.1875 C 276.203125 81.335938 275.144531 80.519531 274.058594 79.734375 C 272.972656 78.953125 271.863281 78.203125 270.722656 77.484375 C 269.753906 76.878906 268.761719 76.300781 267.761719 75.746094 C 267.394531 75.546875 267.03125 75.347656 266.664062 75.15625 C 265.871094 74.738281 265.0625 74.339844 264.246094 73.953125 C 263.796875 73.746094 263.347656 73.542969 262.894531 73.339844 C 262.292969 73.078125 261.691406 72.816406 261.082031 72.574219 C 260.390625 72.292969 259.691406 72.03125 258.984375 71.777344 C 258.71875 71.679688 258.449219 71.585938 258.1875 71.492188 C 257.53125 71.265625 256.867188 71.050781 256.199219 70.84375 C 255.964844 70.773438 255.730469 70.703125 255.496094 70.632812 C 254.738281 70.410156 253.972656 70.195312 253.199219 70 C 251.46875 69.5625 249.703125 69.199219 247.902344 68.902344 C 247.753906 68.878906 247.601562 68.851562 247.453125 68.832031 C 246.113281 68.625 244.75 68.453125 243.375 68.328125 L 243.375 75.5625 C 243.375 75.65625 243.359375 75.753906 243.335938 75.855469 C 243.324219 75.890625 243.308594 75.917969 243.292969 75.953125 C 243.269531 76.019531 243.25 76.085938 243.214844 76.148438 C 243.195312 76.1875 243.164062 76.230469 243.140625 76.269531 C 243.105469 76.328125 243.074219 76.382812 243.03125 76.445312 C 243 76.488281 242.960938 76.527344 242.921875 76.574219 C 242.875 76.628906 242.835938 76.683594 242.785156 76.734375 C 242.746094 76.777344 242.695312 76.816406 242.652344 76.863281 C 242.597656 76.914062 242.546875 76.96875 242.492188 77.015625 C 242.441406 77.0625 242.386719 77.101562 242.332031 77.148438 C 242.273438 77.195312 242.210938 77.246094 242.152344 77.292969 C 242.097656 77.332031 242.039062 77.375 241.976562 77.414062 C 241.914062 77.460938 241.847656 77.503906 241.777344 77.550781 C 241.71875 77.589844 241.652344 77.628906 241.589844 77.671875 C 241.519531 77.714844 241.449219 77.753906 241.378906 77.800781 C 241.316406 77.839844 241.246094 77.875 241.179688 77.910156 C 241.105469 77.949219 241.035156 77.988281 240.960938 78.03125 C 240.890625 78.0625 240.828125 78.09375 240.757812 78.128906 C 240.683594 78.164062 240.605469 78.199219 240.53125 78.234375 C 240.460938 78.265625 240.390625 78.292969 240.328125 78.320312 C 240.253906 78.347656 240.179688 78.382812 240.101562 78.414062 C 240.035156 78.4375 239.96875 78.464844 239.898438 78.488281 C 239.824219 78.511719 239.75 78.542969 239.679688 78.566406 C 239.613281 78.585938 239.550781 78.609375 239.480469 78.628906 C 239.410156 78.648438 239.335938 78.671875 239.265625 78.6875 C 239.199219 78.703125 239.140625 78.71875 239.082031 78.734375 C 239.011719 78.746094 238.945312 78.761719 238.875 78.777344 C 238.816406 78.789062 238.761719 78.796875 238.703125 78.808594 C 238.636719 78.816406 238.578125 78.828125 238.515625 78.832031 C 238.460938 78.835938 238.414062 78.835938 238.363281 78.84375 C 238.324219 78.84375 238.277344 78.851562 238.238281 78.851562 C 238.207031 78.851562 238.179688 78.851562 238.148438 78.851562 C 238.070312 78.851562 237.984375 78.835938 237.894531 78.820312 C 236.882812 78.664062 235.210938 77.855469 234.21875 76.9375 C 233.925781 76.667969 233.691406 76.382812 233.546875 76.109375 C 233.449219 75.925781 233.402344 75.746094 233.402344 75.570312 L 233.402344 68.339844 C 232.4375 68.394531 231.484375 68.46875 230.539062 68.570312 C 228.644531 68.769531 226.773438 69.054688 224.929688 69.425781 C 224.003906 69.613281 223.09375 69.820312 222.191406 70.046875 C 221.28125 70.273438 220.386719 70.519531 219.496094 70.789062 C 218.609375 71.058594 217.726562 71.347656 216.855469 71.652344 C 215.546875 72.113281 214.261719 72.617188 212.996094 73.167969 C 212.152344 73.53125 211.320312 73.914062 210.492188 74.320312 C 192.363281 83.15625 179.183594 100.773438 176.457031 121.425781 C 176.269531 122.832031 176.132812 124.253906 176.046875 125.6875 C 176.414062 125.613281 176.769531 125.558594 177.117188 125.515625 C 177.203125 125.503906 177.285156 125.496094 177.367188 125.484375 Z M 206.164062 127.089844 C 206.335938 126.890625 206.527344 126.695312 206.726562 126.515625 C 207.03125 126.242188 207.371094 125.992188 207.734375 125.769531 C 208.710938 125.175781 209.882812 124.769531 211.175781 124.652344 C 211.683594 124.601562 212.195312 124.566406 212.710938 124.53125 C 212.878906 124.523438 213.042969 124.515625 213.214844 124.507812 C 213.5625 124.488281 213.917969 124.472656 214.269531 124.457031 C 214.46875 124.453125 214.664062 124.445312 214.863281 124.441406 C 215.195312 124.433594 215.527344 124.425781 215.863281 124.421875 C 216.066406 124.421875 216.265625 124.421875 216.46875 124.417969 C 216.59375 124.417969 216.71875 124.417969 216.847656 124.417969 C 217.015625 124.417969 217.183594 124.417969 217.347656 124.417969 C 217.667969 124.417969 217.984375 124.417969 218.308594 124.425781 C 218.578125 124.425781 218.855469 124.4375 219.128906 124.441406 C 219.453125 124.449219 219.777344 124.457031 220.101562 124.46875 C 220.375 124.476562 220.648438 124.480469 220.917969 124.492188 C 221.253906 124.503906 221.585938 124.511719 221.925781 124.527344 C 222.210938 124.535156 222.496094 124.546875 222.777344 124.558594 C 223.171875 124.570312 223.570312 124.585938 223.964844 124.601562 C 224.394531 124.617188 224.824219 124.636719 225.253906 124.652344 C 225.554688 124.660156 225.867188 124.675781 226.167969 124.6875 C 226.503906 124.695312 226.84375 124.710938 227.175781 124.722656 C 227.445312 124.730469 227.722656 124.742188 227.988281 124.746094 C 228.335938 124.757812 228.683594 124.761719 229.027344 124.769531 C 229.28125 124.777344 229.535156 124.78125 229.789062 124.785156 C 230.160156 124.792969 230.527344 124.796875 230.898438 124.796875 C 231.121094 124.796875 231.351562 124.800781 231.574219 124.796875 C 231.898438 124.796875 232.222656 124.792969 232.542969 124.785156 C 232.796875 124.785156 233.050781 124.785156 233.304688 124.777344 C 233.648438 124.765625 233.988281 124.757812 234.328125 124.742188 C 234.558594 124.730469 234.792969 124.726562 235.023438 124.714844 C 235.40625 124.695312 235.789062 124.671875 236.171875 124.640625 C 236.359375 124.625 236.542969 124.621094 236.722656 124.605469 C 237.285156 124.5625 237.84375 124.507812 238.402344 124.441406 L 261.976562 101.664062 L 267.820312 96.015625 C 267.980469 95.914062 268.144531 95.816406 268.304688 95.726562 C 268.359375 95.699219 268.410156 95.671875 268.464844 95.648438 C 268.574219 95.589844 268.6875 95.535156 268.796875 95.484375 C 268.859375 95.457031 268.917969 95.433594 268.976562 95.410156 C 269.082031 95.363281 269.1875 95.324219 269.296875 95.285156 C 269.355469 95.265625 269.417969 95.242188 269.476562 95.222656 C 269.585938 95.1875 269.699219 95.152344 269.808594 95.128906 C 269.859375 95.113281 269.910156 95.097656 269.964844 95.089844 C 270.121094 95.054688 270.269531 95.023438 270.421875 95 C 270.433594 95 270.4375 95 270.449219 95 C 270.609375 94.976562 270.765625 94.960938 270.921875 94.949219 C 270.972656 94.949219 271.015625 94.949219 271.066406 94.945312 C 271.148438 94.945312 271.222656 94.933594 271.300781 94.933594 C 271.332031 94.933594 271.359375 94.933594 271.394531 94.933594 C 271.445312 94.933594 271.5 94.933594 271.550781 94.941406 C 271.65625 94.941406 271.753906 94.949219 271.859375 94.960938 C 271.910156 94.964844 271.960938 94.96875 272.007812 94.976562 C 272.128906 94.988281 272.242188 95.007812 272.359375 95.03125 C 272.386719 95.035156 272.414062 95.039062 272.441406 95.042969 C 272.582031 95.074219 272.722656 95.109375 272.863281 95.148438 C 272.90625 95.160156 272.945312 95.175781 272.988281 95.1875 C 273.082031 95.21875 273.175781 95.253906 273.269531 95.289062 C 273.320312 95.308594 273.371094 95.328125 273.414062 95.347656 C 273.503906 95.382812 273.589844 95.421875 273.675781 95.464844 C 273.71875 95.484375 273.765625 95.503906 273.808594 95.527344 C 273.917969 95.582031 274.023438 95.644531 274.128906 95.707031 C 274.144531 95.71875 274.164062 95.726562 274.179688 95.738281 C 274.296875 95.808594 274.40625 95.886719 274.523438 95.96875 C 274.5625 95.996094 274.601562 96.027344 274.636719 96.058594 C 274.710938 96.113281 274.78125 96.171875 274.851562 96.230469 C 274.890625 96.265625 274.929688 96.300781 274.972656 96.335938 C 275.042969 96.394531 275.105469 96.460938 275.171875 96.53125 C 275.207031 96.566406 275.242188 96.59375 275.269531 96.628906 C 275.367188 96.730469 275.457031 96.828125 275.539062 96.933594 C 275.554688 96.953125 275.570312 96.972656 275.585938 96.996094 C 275.65625 97.085938 275.722656 97.175781 275.789062 97.269531 C 275.820312 97.308594 275.84375 97.351562 275.875 97.394531 C 275.925781 97.46875 275.96875 97.546875 276.019531 97.628906 C 276.042969 97.671875 276.070312 97.71875 276.09375 97.761719 C 276.136719 97.847656 276.183594 97.9375 276.222656 98.023438 C 276.242188 98.0625 276.261719 98.097656 276.277344 98.136719 C 276.332031 98.261719 276.382812 98.390625 276.425781 98.519531 C 276.4375 98.550781 276.449219 98.585938 276.457031 98.621094 C 276.492188 98.71875 276.523438 98.824219 276.546875 98.929688 C 276.558594 98.980469 276.570312 99.027344 276.582031 99.078125 C 276.601562 99.171875 276.621094 99.261719 276.636719 99.359375 C 276.648438 99.40625 276.652344 99.457031 276.660156 99.511719 C 276.675781 99.621094 276.6875 99.730469 276.691406 99.84375 C 276.691406 99.875 276.695312 99.910156 276.703125 99.953125 C 276.707031 100.097656 276.707031 100.242188 276.703125 100.390625 C 276.703125 100.429688 276.695312 100.46875 276.691406 100.511719 C 276.6875 100.621094 276.675781 100.730469 276.660156 100.84375 C 276.65625 100.898438 276.648438 100.949219 276.636719 101.003906 C 276.621094 101.109375 276.601562 101.214844 276.578125 101.316406 C 276.566406 101.367188 276.558594 101.421875 276.542969 101.472656 C 276.511719 101.601562 276.472656 101.730469 276.433594 101.863281 C 276.421875 101.886719 276.417969 101.910156 276.414062 101.9375 C 276.363281 102.089844 276.296875 102.246094 276.234375 102.398438 C 276.214844 102.445312 276.191406 102.488281 276.167969 102.535156 C 276.117188 102.648438 276.0625 102.757812 276.003906 102.875 C 275.972656 102.929688 275.945312 102.984375 275.914062 103.039062 C 275.855469 103.148438 275.785156 103.257812 275.714844 103.367188 C 275.683594 103.417969 275.65625 103.46875 275.621094 103.511719 C 275.515625 103.667969 275.40625 103.820312 275.285156 103.976562 C 272.269531 106.539062 269.40625 109.289062 266.609375 112.109375 C 266.050781 112.671875 265.492188 113.242188 264.9375 113.816406 C 263.824219 114.957031 262.722656 116.105469 261.625 117.257812 C 259.421875 119.554688 257.226562 121.863281 254.992188 124.117188 C 253.875 125.246094 252.75 126.355469 251.601562 127.453125 C 250.460938 128.546875 249.300781 129.617188 248.117188 130.664062 C 247.980469 130.785156 247.847656 130.90625 247.714844 131.03125 C 247.035156 131.644531 246.316406 132.316406 245.5625 132.941406 C 244.960938 133.4375 244.335938 133.914062 243.695312 134.304688 C 243.046875 134.699219 242.378906 135.015625 241.6875 135.199219 C 241.34375 135.292969 240.992188 135.347656 240.636719 135.375 C 238.425781 135.503906 236.113281 135.5625 233.773438 135.59375 C 232.214844 135.613281 230.644531 135.617188 229.082031 135.621094 C 226.738281 135.628906 224.417969 135.628906 222.195312 135.664062 C 222.039062 135.664062 221.875 135.667969 221.707031 135.671875 C 221.660156 135.671875 221.613281 135.671875 221.566406 135.671875 C 221.40625 135.671875 221.242188 135.683594 221.066406 135.6875 C 221.027344 135.6875 220.984375 135.6875 220.945312 135.6875 C 220.742188 135.691406 220.539062 135.699219 220.328125 135.707031 C 219.894531 135.722656 219.4375 135.734375 218.953125 135.746094 C 218.898438 135.746094 218.839844 135.746094 218.785156 135.746094 C 218.550781 135.753906 218.316406 135.757812 218.074219 135.761719 C 218.066406 135.761719 218.054688 135.761719 218.046875 135.761719 C 217.800781 135.761719 217.550781 135.773438 217.304688 135.773438 C 217.242188 135.773438 217.183594 135.773438 217.128906 135.773438 C 216.890625 135.773438 216.644531 135.773438 216.398438 135.773438 C 216.386719 135.773438 216.371094 135.773438 216.355469 135.773438 C 216.355469 135.773438 216.34375 135.773438 216.34375 135.773438 C 216.121094 135.773438 215.902344 135.773438 215.675781 135.773438 C 215.617188 135.773438 215.558594 135.773438 215.492188 135.773438 C 215.328125 135.773438 215.164062 135.773438 215 135.761719 C 214.925781 135.761719 214.84375 135.761719 214.769531 135.757812 C 214.613281 135.757812 214.457031 135.746094 214.300781 135.742188 C 214.226562 135.742188 214.15625 135.742188 214.082031 135.734375 C 213.878906 135.722656 213.671875 135.71875 213.46875 135.707031 C 213.449219 135.707031 213.429688 135.707031 213.410156 135.707031 C 213.183594 135.699219 212.964844 135.683594 212.746094 135.667969 C 212.683594 135.667969 212.625 135.65625 212.566406 135.652344 C 212.40625 135.644531 212.246094 135.628906 212.089844 135.613281 C 212.015625 135.609375 211.945312 135.597656 211.871094 135.59375 C 211.722656 135.578125 211.574219 135.5625 211.429688 135.542969 C 211.363281 135.53125 211.296875 135.527344 211.234375 135.519531 C 211.039062 135.492188 210.84375 135.46875 210.65625 135.4375 C 210.644531 135.4375 210.636719 135.4375 210.621094 135.4375 C 210.421875 135.410156 210.222656 135.375 210.03125 135.339844 C 209.976562 135.328125 209.921875 135.320312 209.871094 135.308594 C 209.738281 135.285156 209.601562 135.253906 209.46875 135.222656 C 209.410156 135.207031 209.34375 135.195312 209.285156 135.179688 C 209.160156 135.148438 209.035156 135.121094 208.914062 135.085938 C 208.859375 135.070312 208.804688 135.054688 208.753906 135.039062 C 208.597656 134.996094 208.4375 134.945312 208.285156 134.890625 C 208.28125 134.890625 208.273438 134.890625 208.265625 134.886719 C 208.113281 134.828125 207.96875 134.769531 207.824219 134.710938 C 207.777344 134.691406 207.738281 134.671875 207.699219 134.652344 C 207.601562 134.605469 207.507812 134.5625 207.417969 134.511719 C 207.375 134.484375 207.328125 134.460938 207.289062 134.4375 C 207.203125 134.386719 207.125 134.335938 207.046875 134.28125 C 207.011719 134.257812 206.976562 134.230469 206.941406 134.207031 C 206.835938 134.125 206.734375 134.046875 206.652344 133.960938 C 204.316406 131.664062 204.535156 128.980469 206.1875 127.074219 Z M 206.164062 127.089844 " fill-opacity="1" fill-rule="nonzero"/><g clip-path="url(#ec3cd4fd65)"><path fill="#fa4238" d="M 363.847656 119.394531 C 354.453125 97.183594 341.007812 77.242188 323.878906 60.113281 C 306.746094 42.988281 286.804688 29.535156 264.59375 20.140625 C 241.597656 10.417969 217.171875 5.484375 191.996094 5.484375 C 166.816406 5.484375 142.390625 10.417969 119.394531 20.140625 C 97.183594 29.535156 77.242188 42.980469 60.109375 60.113281 C 42.984375 77.242188 29.535156 97.183594 20.140625 119.394531 C 10.417969 142.390625 5.484375 166.816406 5.484375 191.996094 C 5.484375 209.570312 7.894531 226.777344 12.652344 243.390625 C 14.195312 242.867188 15.824219 242.515625 17.5 242.371094 C 18.515625 242.28125 19.5625 242.210938 20.636719 242.148438 C 15.96875 226.230469 13.464844 209.398438 13.464844 191.996094 C 13.464844 93.554688 93.554688 13.464844 191.996094 13.464844 C 290.4375 13.464844 370.523438 93.554688 370.523438 191.996094 C 370.523438 290.4375 290.4375 370.527344 191.996094 370.527344 C 138.835938 370.527344 91.03125 347.171875 58.296875 310.183594 L 47.699219 310.183594 C 51.59375 314.925781 55.726562 319.496094 60.109375 323.878906 C 77.242188 341.003906 97.183594 354.453125 119.394531 363.847656 C 142.390625 373.574219 166.816406 378.503906 191.996094 378.503906 C 217.171875 378.503906 241.597656 373.574219 264.59375 363.847656 C 286.804688 354.453125 306.746094 341.007812 323.878906 323.878906 C 341.003906 306.75 354.453125 286.804688 363.847656 264.59375 C 373.574219 241.597656 378.503906 217.171875 378.503906 191.996094 C 378.503906 166.816406 373.574219 142.390625 363.847656 119.394531 Z M 363.847656 119.394531 " fill-opacity="1" fill-rule="nonzero"/></g></svg>