<svg xmlns="http://www.w3.org/2000/svg" xmlns:xlink="http://www.w3.org/1999/xlink" width="512" zoomAndPan="magnify" viewBox="0 0 384 383.999986" height="512" preserveAspectRatio="xMidYMid meet" version="1.0"><defs><clipPath id="3996cf7b01"><path d="M 4.734375 4.734375 L 378.984375 4.734375 L 378.984375 378.984375 L 4.734375 378.984375 Z M 4.734375 4.734375 " clip-rule="nonzero"/></clipPath></defs><rect x="-38.4" width="460.8" fill="#ffffff" y="-38.399999" height="460.799983" fill-opacity="1"/><rect x="-38.4" width="460.8" fill="#ffffff" y="-38.399999" height="460.799983" fill-opacity="1"/><path fill="#fa4238" d="M 213.558594 97.261719 C 214.058594 97.402344 214.707031 98.460938 214.824219 99.058594 C 215.574219 102.988281 214.910156 109.980469 215.347656 114.351562 C 215.429688 115.183594 215.703125 116.933594 216.371094 117.40625 C 217.105469 117.929688 222.84375 119.0625 224.410156 119.574219 C 232.375 122.171875 239.578125 125.652344 246.824219 129.832031 L 260.773438 117.914062 C 261.304688 117.566406 261.84375 117.625 262.421875 117.738281 C 264.210938 118.097656 279.25 133.925781 281.925781 136.554688 C 283.828125 138.433594 287.90625 140.097656 286.40625 143.550781 C 285.113281 146.515625 275.152344 153.421875 275.074219 156.183594 C 280.34375 165.929688 285.574219 175.707031 287.925781 186.683594 L 289.046875 188.113281 C 295.503906 189.597656 303.222656 187.363281 309.480469 189.621094 C 309.757812 190.351562 310.035156 191.210938 310.066406 191.988281 C 310.417969 200.316406 310.371094 213.25 309.769531 221.523438 C 309.703125 222.378906 309.636719 223.203125 309.289062 224 C 307.960938 225.855469 292.417969 223.933594 289.542969 225.28125 C 287.242188 230.605469 286.199219 236.371094 284.105469 241.78125 C 283.011719 244.609375 278.914062 251.6875 278.703125 253.78125 C 278.644531 254.351562 278.644531 254.773438 279.097656 255.195312 L 292.9375 267.910156 L 293.148438 270.726562 L 269.449219 294.945312 C 267.59375 295.496094 259.421875 287.585938 257.429688 286.0625 C 256.578125 285.414062 253.609375 282.996094 252.851562 282.996094 C 242.523438 290.257812 231.144531 295.390625 219.144531 299.285156 L 218.386719 301.082031 C 217.558594 307.390625 218.808594 316.03125 217.871094 321.996094 C 217.71875 322.933594 217.335938 323.691406 216.625 324.324219 L 185.246094 324.324219 L 185.246094 256.964844 C 211.003906 261.292969 237.421875 244.867188 243.066406 219.113281 C 250.820312 183.746094 220.125 154.1875 185.246094 160.527344 L 185.246094 97.257812 L 213.5625 97.257812 Z M 213.558594 97.261719 " fill-opacity="1" fill-rule="nonzero"/><path fill="#fa4238" d="M 330.148438 204.925781 C 329.117188 204.730469 329.316406 203.84375 329.136719 203.140625 C 328.195312 199.457031 328.167969 194.539062 327.4375 190.546875 C 307.746094 82.796875 159.367188 32.722656 91.148438 128.445312 C 70.660156 157.191406 63.09375 192.699219 70.675781 227.386719 C 71.386719 230.640625 76.085938 245.363281 74.964844 247.222656 C 72.203125 248.503906 70.019531 244.183594 68.6875 242.140625 C 40.410156 198.765625 54.496094 137.921875 87.765625 101.59375 C 133.457031 51.703125 203.570312 47.542969 259.691406 82.769531 C 300.902344 108.640625 334.117188 154.226562 330.144531 204.9375 Z M 330.148438 204.925781 " fill-opacity="1" fill-rule="nonzero"/><path fill="#fa4238" d="M 195.957031 237.070312 L 165.34375 237.070312 L 165.34375 250.339844 L 109.21875 250.339844 C 105.808594 262.429688 87.363281 262.820312 83.175781 251.125 C 77.867188 236.300781 97.40625 225.566406 106.933594 237.574219 C 107.992188 238.90625 108.550781 241.398438 109.980469 241.667969 L 155.421875 241.691406 L 157.179688 240.902344 L 157.179688 228.90625 L 194.6875 228.90625 C 194.863281 228.90625 195.253906 228 195.964844 229.164062 L 195.964844 237.070312 Z M 94.261719 240.757812 C 88.710938 242.039062 88.820312 251.519531 95.710938 251.890625 C 104.671875 252.378906 103.8125 238.558594 94.261719 240.757812 Z M 94.261719 240.757812 " fill-opacity="1" fill-rule="nonzero"/><path fill="#fa4238" d="M 158.707031 163.085938 L 158.707031 174.058594 L 159.449219 174.703125 C 160.277344 174.417969 161.128906 174.207031 162.019531 174.265625 C 170.957031 174.871094 180.082031 175.125 189.089844 174.847656 C 191.242188 174.777344 194.121094 173.308594 195.957031 175.082031 L 195.957031 182.988281 L 150.542969 182.988281 L 150.542969 171.761719 L 110.488281 171.761719 C 106.6875 182.523438 92.679688 185.859375 85.472656 176.367188 C 75.410156 163.109375 94.925781 145.320312 108.1875 160.789062 C 109.035156 161.78125 109.050781 163.417969 110.484375 163.601562 L 158.703125 163.085938 Z M 95.828125 162.675781 C 86.648438 163.941406 91.648438 177.984375 99.695312 173.214844 C 105.367188 169.851562 101.636719 161.875 95.828125 162.675781 Z M 95.828125 162.675781 " fill-opacity="1" fill-rule="nonzero"/><path fill="#fa4238" d="M 217.894531 202.375 L 217.894531 211.050781 L 134.976562 211.050781 C 131.253906 218.828125 121.738281 222.4375 114.136719 217.601562 C 104.703125 211.605469 106.597656 197.300781 117.019531 193.605469 C 125.542969 190.578125 131.597656 195.109375 135.484375 202.375 Z M 125.878906 210.367188 C 131.460938 205.042969 122.828125 196.785156 117.609375 202.347656 C 112.390625 207.914062 120.578125 215.429688 125.878906 210.367188 Z M 125.878906 210.367188 " fill-opacity="1" fill-rule="nonzero"/><path fill="#fa4238" d="M 176.058594 134.511719 L 176.058594 142.417969 L 174.296875 143.207031 L 134.46875 143.183594 C 132.136719 144.964844 131.589844 147.839844 128.773438 149.734375 C 117.039062 157.625 101.824219 146.179688 108.1875 132.71875 C 113.433594 121.621094 130.046875 123.078125 133.960938 134.511719 Z M 124.855469 134.683594 C 119.5625 129.386719 111.113281 136.90625 116.136719 142.632812 C 121.207031 148.410156 130.394531 140.222656 124.855469 134.683594 Z M 124.855469 134.683594 " fill-opacity="1" fill-rule="nonzero"/><path fill="#fa4238" d="M 176.058594 274.832031 L 176.058594 282.996094 L 136 282.996094 C 132.785156 288.105469 130.382812 292.40625 123.703125 293.144531 C 102.820312 295.441406 103.140625 263.191406 124.734375 266.199219 C 130.023438 266.9375 132.53125 271.046875 135.492188 274.828125 L 176.058594 274.828125 Z M 121.339844 273.90625 C 112.105469 274.941406 116.40625 289.132812 124.875 284.625 C 130.480469 281.644531 127.449219 273.214844 121.339844 273.90625 Z M 121.339844 273.90625 " fill-opacity="1" fill-rule="nonzero"/><g clip-path="url(#3996cf7b01)"><path fill="#fa4238" d="M 192 379.265625 C 166.722656 379.265625 142.195312 374.3125 119.105469 364.542969 C 96.804688 355.113281 76.78125 341.609375 59.578125 324.414062 C 42.382812 307.21875 28.878906 287.191406 19.449219 264.886719 C 9.683594 241.804688 4.734375 217.277344 4.734375 192 C 4.734375 166.722656 9.683594 142.195312 19.453125 119.105469 C 28.886719 96.804688 42.390625 76.78125 59.585938 59.578125 C 76.78125 42.382812 96.808594 28.878906 119.109375 19.449219 C 142.195312 9.683594 166.722656 4.734375 192 4.734375 C 217.277344 4.734375 241.804688 9.683594 264.894531 19.453125 C 287.195312 28.886719 307.21875 42.390625 324.417969 59.585938 C 341.613281 76.78125 355.117188 96.808594 364.550781 119.109375 C 374.320312 142.199219 379.269531 166.726562 379.269531 192.003906 C 379.269531 217.28125 374.320312 241.808594 364.550781 264.898438 C 355.117188 287.199219 341.613281 307.222656 324.417969 324.425781 C 307.222656 341.621094 287.195312 355.121094 264.894531 364.554688 C 241.804688 374.324219 217.277344 379.273438 192 379.273438 Z M 192 12.894531 C 93.246094 12.894531 12.894531 93.246094 12.894531 192 C 12.894531 290.753906 93.238281 371.101562 192 371.101562 C 290.757812 371.101562 371.101562 290.757812 371.101562 192 C 371.101562 93.238281 290.753906 12.894531 192 12.894531 Z M 192 12.894531 " fill-opacity="1" fill-rule="nonzero"/></g></svg>