<svg xmlns="http://www.w3.org/2000/svg" xmlns:xlink="http://www.w3.org/1999/xlink" width="512" zoomAndPan="magnify" viewBox="0 0 384 383.999986" height="512" preserveAspectRatio="xMidYMid meet" version="1.0"><defs><clipPath id="851200745d"><path d="M 4.066406 11.851562 L 294 11.851562 L 294 341 L 4.066406 341 Z M 4.066406 11.851562 " clip-rule="nonzero"/></clipPath><clipPath id="7f54fdd8e3"><path d="M 292 90 L 379.816406 90 L 379.816406 343 L 292 343 Z M 292 90 " clip-rule="nonzero"/></clipPath><clipPath id="061e71e01d"><path d="M 121 356 L 260 356 L 260 371.851562 L 121 371.851562 Z M 121 356 " clip-rule="nonzero"/></clipPath></defs><rect x="-38.4" width="460.8" fill="#ffffff" y="-38.399999" height="460.799983" fill-opacity="1"/><rect x="-38.4" width="460.8" fill="#ffffff" y="-38.399999" height="460.799983" fill-opacity="1"/><path fill="#fa4238" d="M 273.144531 86.257812 C 273.097656 86.34375 272.097656 86.652344 271.683594 87.058594 C 270.703125 88.007812 266.25 92.980469 265.445312 92.855469 C 207.976562 50.6875 124.234375 66.1875 85.519531 125.757812 C 39.757812 196.164062 80.359375 284.777344 158.804688 305.550781 C 244.667969 328.285156 332.898438 256.898438 314.601562 166.5 C 311.128906 149.351562 303.054688 132.980469 292.675781 119.058594 L 299.625 111.933594 C 301.390625 111.0625 304.628906 116.289062 305.605469 117.636719 C 347.21875 174.949219 329.890625 254.457031 273.671875 294.621094 C 266.425781 299.792969 258.050781 304.765625 249.875 308.128906 C 249.664062 308.898438 250.078125 308.972656 250.371094 309.402344 C 251.167969 310.542969 253.554688 312.960938 254.6875 314.226562 C 265.449219 326.273438 276.855469 337.769531 287.429688 350.003906 C 291.652344 358.375 282.613281 365.855469 274.996094 360.402344 L 232.792969 314.828125 C 205.171875 323.230469 175.605469 322.761719 148.101562 314.160156 L 105.734375 360.160156 C 98.523438 366.125 88.890625 358.355469 93.109375 350.074219 L 131.605469 307.117188 C 98.167969 291.898438 71.128906 261.566406 60.414062 226.292969 C 35.054688 142.78125 100.136719 61.988281 184.652344 57.90625 C 212.488281 56.558594 246.773438 65.164062 269.3125 81.847656 C 270.359375 82.621094 273.992188 84.804688 273.144531 86.257812 Z M 273.144531 86.257812 " fill-opacity="1" fill-rule="nonzero"/><path fill="#fa4238" d="M 320.925781 65.507812 C 329.667969 64.535156 339.394531 64.382812 347.324219 68.800781 C 348.316406 69.355469 351.113281 70.625 350.292969 72.046875 L 316.347656 103.339844 L 298.03125 99.257812 L 217.117188 177.707031 C 217.6875 182.167969 219.28125 185.753906 218.847656 190.566406 C 216.6875 214.457031 182.027344 220.179688 172.128906 197.820312 C 162.820312 176.808594 184.929688 156.933594 205.21875 166.28125 L 286.328125 87.246094 C 286.589844 86.800781 285.035156 78.863281 284.746094 77.589844 C 284.320312 75.742188 281.878906 69.710938 282.597656 68.5625 L 317.128906 36.59375 C 324.113281 44.617188 323.390625 55.832031 320.9375 65.511719 Z M 320.925781 65.507812 " fill-opacity="1" fill-rule="nonzero"/><path fill="#fa4238" d="M 246.820312 111.203125 C 247.019531 111.941406 246.621094 112.046875 246.328125 112.472656 C 245.753906 113.304688 239.050781 119.328125 238.539062 119.246094 C 195.222656 90.496094 135.425781 107.761719 114.257812 155.003906 C 83.015625 224.71875 156.535156 293.746094 225.484375 264.199219 C 271.820312 244.347656 290.828125 189.046875 264.222656 145.441406 L 272.441406 137.582031 C 278.570312 147.003906 283.285156 157.488281 285.667969 168.523438 C 302.066406 244.519531 223.140625 304.71875 153.089844 274.203125 C 87.625 245.683594 75.015625 158.769531 132.171875 114.539062 C 165.898438 88.441406 211.488281 87.539062 246.820312 111.195312 Z M 246.820312 111.203125 " fill-opacity="1" fill-rule="nonzero"/><path fill="#fa4238" d="M 186.320312 136.210938 C 194.25 135.503906 204.355469 136.691406 211.636719 140.03125 C 212.566406 140.457031 216.089844 141.863281 215.859375 142.902344 L 207.921875 150.195312 C 170.679688 134.945312 133.542969 176.664062 156.78125 211.132812 C 180.484375 246.296875 237.257812 227.472656 233.621094 184.03125 C 233.425781 181.707031 231.617188 177.011719 232.578125 175.371094 C 232.996094 174.652344 239.945312 167.914062 240.46875 168.03125 C 259.972656 210.199219 216.605469 252.386719 173.980469 237.578125 C 120.140625 218.871094 130.925781 141.152344 186.320312 136.210938 Z M 186.320312 136.210938 " fill-opacity="1" fill-rule="nonzero"/><g clip-path="url(#851200745d)"><path fill="#fa4238" d="M 293.511719 41.160156 C 293.738281 41.492188 290.433594 44.550781 289.445312 44.003906 C 263.796875 27.742188 233.820312 18.269531 203.417969 16.28125 C 85.902344 8.613281 -15.988281 114.503906 13.28125 232.816406 C 23.832031 275.453125 51.550781 313.539062 88.390625 337.121094 C 87.367188 343.367188 82.773438 338.65625 79.675781 336.449219 C -46.265625 246.820312 -6.5625 60.210938 139.222656 19.074219 C 191.675781 4.269531 247.449219 12.515625 293.519531 41.160156 Z M 293.511719 41.160156 " fill-opacity="1" fill-rule="nonzero"/></g><g clip-path="url(#7f54fdd8e3)"><path fill="#fa4238" d="M 347.0625 90.898438 C 363.375 113.929688 374.304688 140.800781 378.207031 168.875 C 387.757812 237.59375 353.75 306.679688 294.855469 342.0625 L 292.722656 339.078125 C 331.914062 313.765625 361.554688 274.59375 371.523438 228.53125 C 381.601562 181.960938 371.753906 133.308594 344.332031 94.589844 C 343.957031 93.195312 346.273438 91.933594 347.066406 90.898438 Z M 347.0625 90.898438 " fill-opacity="1" fill-rule="nonzero"/></g><g clip-path="url(#061e71e01d)"><path fill="#fa4238" d="M 259.511719 359.882812 C 215.242188 376.65625 165.652344 375.964844 121.453125 359.375 C 123.71875 353.496094 127.539062 357.253906 131.714844 358.507812 C 172.945312 370.925781 209.183594 371.371094 250.480469 358.722656 C 254.78125 357.410156 256.929688 354.3125 259.503906 359.878906 Z M 259.511719 359.882812 " fill-opacity="1" fill-rule="nonzero"/></g></svg>