<svg xmlns="http://www.w3.org/2000/svg" xmlns:xlink="http://www.w3.org/1999/xlink" width="512" zoomAndPan="magnify" viewBox="0 0 384 383.999986" height="512" preserveAspectRatio="xMidYMid meet" version="1.0"><defs><clipPath id="e0bd508425"><path d="M 6.230469 12.972656 L 377.480469 12.972656 L 377.480469 370.722656 L 6.230469 370.722656 Z M 6.230469 12.972656 " clip-rule="nonzero"/></clipPath></defs><rect x="-38.4" width="460.8" fill="#ffffff" y="-38.399999" height="460.799983" fill-opacity="1"/><rect x="-38.4" width="460.8" fill="#ffffff" y="-38.399999" height="460.799983" fill-opacity="1"/><g clip-path="url(#e0bd508425)"><path fill="#fa4238" d="M 182.652344 13.140625 L 193.007812 12.972656 C 328.910156 17.238281 425.5 160.691406 352.84375 283.644531 C 292.941406 385.015625 154.476562 398.183594 67.460938 323.175781 C -56.984375 215.90625 21.976562 18.632812 182.652344 13.140625 Z M 178.660156 17.132812 C 39.394531 24.171875 -42.566406 186.03125 48.015625 297.207031 C 128.777344 396.324219 292.804688 389.675781 354.027344 273.351562 C 419.894531 148.183594 313.136719 10.332031 178.660156 17.132812 Z M 178.660156 17.132812 " fill-opacity="1" fill-rule="nonzero"/></g><path fill="#fa4238" d="M 180.257812 100.832031 L 180.257812 105.824219 C 180.257812 105.824219 72.1875 105.804688 72.1875 105.804688 C 69.011719 106.035156 63.472656 106.878906 63.472656 111.066406 L 63.472656 249.0625 L 201.71875 248.566406 C 202.011719 240.363281 206.855469 233.136719 213.6875 228.847656 C 210.054688 226.277344 207.09375 222.96875 205.632812 218.699219 C 199.507812 218.699219 196.800781 219.355469 196.207031 212.394531 C 195.59375 205.148438 195.011719 197.570312 204.707031 199.148438 C 205.277344 191.765625 210.996094 185.722656 217.964844 183.707031 C 224.058594 181.941406 229.421875 183.582031 235.65625 183.183594 C 237.476562 176.933594 231.472656 176.207031 230.136719 171.980469 C 226.773438 161.359375 240.457031 152.78125 245.90625 164.199219 C 248.710938 170.074219 246.640625 174.070312 241.632812 177.542969 L 241.632812 183.683594 C 248.535156 183.933594 256.132812 183.496094 262.445312 186.582031 C 267.414062 189.007812 271.765625 194.246094 273.105469 199.636719 C 273.511719 199.933594 278.976562 197.585938 281.175781 201.285156 C 282.570312 203.621094 282.523438 214.519531 281.011719 216.816406 C 279.054688 219.785156 273.910156 217.914062 272.65625 218.699219 C 272.132812 219.027344 268.367188 228.25 265.089844 228.105469 C 269.902344 231.792969 273.894531 235.523438 275.957031 241.4375 C 276.824219 243.925781 276.738281 246.5 277.816406 248.558594 L 291.542969 248.558594 L 291.542969 145.746094 L 297.03125 145.746094 L 297.03125 275.257812 C 297.03125 279.695312 288.753906 287.984375 284.304688 287.984375 L 212.1875 287.984375 L 215.6875 304.949219 L 239.285156 305.058594 C 242.886719 306.15625 242.90625 310.34375 238.917969 310.46875 L 124.710938 310.328125 C 122.300781 310.199219 122.101562 306.167969 124.203125 305.546875 L 147.828125 305.21875 L 152.796875 287.980469 L 73.695312 287.980469 C 63.851562 287.980469 58.550781 276.652344 57.953125 268.285156 C 56.375 246.320312 58.550781 221.546875 58.515625 199.398438 C 58.46875 171.808594 56.832031 143.660156 58.492188 116.070312 C 58.742188 111.945312 57.535156 106.9375 61.207031 103.816406 C 62.375 102.820312 67.3125 100.824219 68.699219 100.824219 L 180.242188 100.824219 Z M 238.402344 164.882812 C 235.28125 164.882812 234.363281 171.484375 238.402344 172.027344 C 242.4375 171.484375 241.519531 164.882812 238.402344 164.882812 Z M 221.050781 189.289062 C 205.417969 191.703125 206.5 223.730469 221.917969 225.613281 C 240.167969 223.253906 270.75 234.9375 268.085938 205.398438 C 266.480469 187.609375 249.007812 190.125 235.878906 189.691406 C 231.058594 189.53125 225.929688 188.539062 221.046875 189.292969 Z M 203.714844 212.625 L 204.132812 205.964844 L 203.746094 205.363281 L 202.222656 205.144531 C 202.722656 207.195312 200.890625 212.195312 203.714844 212.625 Z M 275.582031 205.144531 C 273.035156 204.894531 273.976562 212.613281 274.839844 212.613281 C 276.40625 210.683594 275.246094 207.464844 275.582031 205.144531 Z M 271.089844 248.558594 C 271.09375 239.597656 262.753906 231.554688 253.871094 231.550781 C 245 231.542969 232.53125 231.320312 223.914062 232.066406 C 215.183594 232.828125 208.566406 239.992188 207.710938 248.558594 L 271.09375 248.558594 Z M 291.550781 254.046875 L 63.472656 254.046875 L 63.472656 263.03125 L 291.550781 263.03125 Z M 63.472656 268.023438 C 62.910156 275.734375 68.175781 282.863281 76.179688 283.015625 L 281.316406 282.988281 C 287.378906 282.304688 291.371094 278.289062 291.996094 272.214844 C 292.136719 270.847656 292.449219 268.949219 291.304688 268.023438 Z M 206.140625 288.054688 L 158.675781 288.496094 C 157.171875 289.183594 154.34375 302.558594 153.800781 304.953125 L 210.199219 305.457031 L 206.140625 288.058594 Z M 206.140625 288.054688 " fill-opacity="1" fill-rule="nonzero"/><path fill="#fa4238" d="M 206.214844 140.757812 C 197.511719 140.863281 188.433594 139.824219 187.308594 129.46875 C 185.328125 111.207031 188.667969 89.734375 187.246094 71.136719 C 188.257812 64.449219 193.824219 60.125 200.457031 59.890625 C 230.207031 61.585938 262.355469 57.695312 291.820312 59.890625 C 300.371094 60.53125 303.910156 64.074219 304.546875 72.617188 C 303.566406 90.734375 305.785156 110.089844 304.546875 128.054688 C 304.148438 133.839844 302.703125 139.109375 296.175781 140.144531 C 287.398438 141.53125 278.09375 140.253906 269.363281 140.242188 C 257.726562 140.226562 246.121094 140.171875 234.507812 140.867188 L 213.207031 161.488281 C 211.089844 163.667969 206.804688 164.046875 206.238281 160.445312 C 205.78125 157.492188 206.902344 141.460938 206.210938 140.761719 Z M 212.207031 154.230469 L 232.015625 135.371094 C 250.242188 134.433594 269.195312 136.265625 287.335938 135.292969 C 289.273438 135.1875 292.300781 134.933594 294.171875 134.644531 C 295.207031 134.484375 297.09375 134.050781 297.78125 133.261719 C 298.523438 132.410156 298.96875 127.574219 299.0625 126.058594 C 300.101562 108.789062 298.230469 90.5 299.0625 73.117188 C 298.59375 67.644531 296.792969 65.851562 291.328125 65.378906 C 262.136719 66.9375 230.898438 63.371094 201.953125 65.375 C 198.496094 65.613281 194.757812 66.238281 193.476562 69.878906 L 193.359375 130.410156 C 194.011719 137.867188 209.503906 133.8125 211.46875 135.753906 C 213.785156 138.042969 210.566406 153.019531 212.214844 154.230469 Z M 212.207031 154.230469 " fill-opacity="1" fill-rule="nonzero"/><path fill="#fa4238" d="M 106.273438 146.875 C 108.46875 146.589844 110.296875 146.742188 112.375 147.503906 C 117.121094 149.257812 132.785156 165.152344 134.929688 169.863281 C 136.519531 173.347656 136.253906 177.023438 134.0625 180.148438 C 132.476562 182.414062 127.953125 185.96875 126.832031 187.890625 C 126.066406 189.199219 126.277344 189.703125 126.742188 191.027344 C 128.273438 195.421875 142.097656 208.386719 146.601562 209.09375 C 152.425781 210.007812 155.488281 203.40625 160.453125 201.054688 C 166.988281 197.960938 169.902344 200.261719 175.003906 204.15625 C 182.003906 209.5 193.589844 218.824219 190.484375 228.589844 C 185.019531 245.789062 160.820312 245.203125 146.925781 240.710938 C 120.976562 232.324219 84.085938 195.898438 88.054688 166.585938 C 89.171875 158.339844 97.765625 147.976562 106.269531 146.871094 Z M 107.277344 153.332031 C 101.84375 154.09375 95.355469 162.347656 94.535156 167.582031 C 91.011719 190.226562 119.875 220.066406 138.324219 229.855469 C 150.28125 236.207031 172.34375 242.578125 182.246094 229.832031 C 185.519531 225.613281 185.261719 223.707031 182.015625 219.605469 C 180.078125 217.164062 168.863281 206.621094 166.410156 206.222656 C 161.539062 205.421875 154.773438 217.070312 147.714844 216.515625 C 139.882812 215.898438 120.414062 198.128906 119.421875 190.375 C 119.300781 189.457031 119.261719 188.359375 119.40625 187.449219 C 120.09375 183.183594 130.71875 177.5625 129.140625 172.671875 C 128.4375 170.492188 118.640625 160.449219 116.386719 158.46875 C 113.976562 156.34375 110.617188 152.863281 107.277344 153.332031 Z M 107.277344 153.332031 " fill-opacity="1" fill-rule="nonzero"/><path fill="#fa4238" d="M 134.152344 123.433594 C 135.824219 123.242188 142.632812 125.125 144.582031 125.773438 C 158.152344 130.296875 169.378906 141.980469 173.628906 155.621094 C 174.421875 158.167969 177.519531 169.9375 172.722656 169.46875 C 168.929688 169.097656 169.773438 162.363281 169.039062 159.210938 C 165.890625 145.765625 154.082031 133.640625 140.726562 130.132812 C 138.558594 129.5625 133.953125 129.398438 132.585938 128.292969 C 130.480469 126.59375 131.96875 123.683594 134.152344 123.433594 Z M 134.152344 123.433594 " fill-opacity="1" fill-rule="nonzero"/><path fill="#fa4238" d="M 131.96875 136.882812 C 133.660156 135.191406 141.496094 137.765625 143.664062 138.671875 C 151.90625 142.097656 158.832031 150.394531 161.421875 158.84375 C 162.175781 161.304688 164.660156 169.699219 160.128906 169.574219 C 156.585938 169.472656 157.296875 164.347656 156.652344 161.617188 C 154.582031 152.890625 147.214844 145.277344 138.722656 142.613281 C 136.609375 141.949219 131.671875 141.984375 131.332031 139.484375 C 131.242188 138.804688 131.488281 137.359375 131.96875 136.882812 Z M 131.96875 136.882812 " fill-opacity="1" fill-rule="nonzero"/><path fill="#fa4238" d="M 131.476562 149.371094 C 134.628906 146.386719 144.210938 153.734375 146.320312 156.476562 C 148.429688 159.222656 153.523438 170.117188 147.070312 169.753906 C 144.210938 169.59375 144.894531 165.933594 143.910156 163.378906 C 142.726562 160.324219 139.847656 156.855469 136.839844 155.480469 C 135.421875 154.835938 132.113281 154.390625 131.316406 153.511719 C 130.335938 152.429688 130.460938 150.332031 131.476562 149.367188 Z M 131.476562 149.371094 " fill-opacity="1" fill-rule="nonzero"/><path fill="#fa4238" d="M 223.542969 199.769531 C 233.746094 197.675781 235.0625 211.511719 226.292969 212.535156 C 218.433594 213.453125 216.449219 201.21875 223.542969 199.769531 Z M 223.542969 199.769531 " fill-opacity="1" fill-rule="nonzero"/><path fill="#fa4238" d="M 256.945312 201.316406 C 262.542969 206.910156 254.519531 216.957031 247.886719 210.621094 C 241.359375 204.390625 251.121094 195.492188 256.945312 201.316406 Z M 256.945312 201.316406 " fill-opacity="1" fill-rule="nonzero"/><path fill="#fa4238" d="M 244.503906 93.464844 C 255.609375 91.167969 255.988281 108.003906 244.921875 106.289062 C 238.042969 105.222656 238.191406 94.765625 244.503906 93.464844 Z M 244.503906 93.464844 " fill-opacity="1" fill-rule="nonzero"/><path fill="#fa4238" d="M 268.460938 93.457031 C 278.398438 91.414062 279.914062 104.601562 272.226562 106.199219 C 262.515625 108.222656 261.3125 94.929688 268.460938 93.457031 Z M 268.460938 93.457031 " fill-opacity="1" fill-rule="nonzero"/><path fill="#fa4238" d="M 217.359375 95.011719 C 224.082031 88.289062 233.992188 100.101562 225.929688 105.328125 C 219.007812 109.808594 211.960938 100.410156 217.359375 95.011719 Z M 217.359375 95.011719 " fill-opacity="1" fill-rule="nonzero"/></svg>