<svg xmlns="http://www.w3.org/2000/svg" xmlns:xlink="http://www.w3.org/1999/xlink" width="512" zoomAndPan="magnify" viewBox="0 0 384 383.999986" height="512" preserveAspectRatio="xMidYMid meet" version="1.0"><defs><clipPath id="043d728aa2"><path d="M 26.925781 5.898438 L 356.925781 5.898438 L 356.925781 316 L 26.925781 316 Z M 26.925781 5.898438 " clip-rule="nonzero"/></clipPath><clipPath id="e7625befe1"><path d="M 179 346 L 228 346 L 228 377.898438 L 179 377.898438 Z M 179 346 " clip-rule="nonzero"/></clipPath></defs><rect x="-38.4" width="460.8" fill="#ffffff" y="-38.399999" height="460.799983" fill-opacity="1"/><rect x="-38.4" width="460.8" fill="#ffffff" y="-38.399999" height="460.799983" fill-opacity="1"/><path fill="#fa4238" d="M 246.066406 279.167969 C 255.378906 278.894531 258.425781 290.933594 250.144531 295.230469 C 221.351562 302.671875 192.808594 311.34375 163.941406 318.484375 C 159.910156 319.480469 153.203125 321.886719 149.359375 320.921875 C 143.25 319.394531 141.34375 311.472656 145.65625 306.988281 C 147.910156 304.648438 152.84375 303.710938 155.960938 302.816406 C 169.050781 299.050781 183.0625 296.289062 195.957031 292.152344 C 196.433594 291.996094 197.324219 292.039062 197.214844 291.386719 C 166.132812 291.890625 134.0625 280.097656 111.042969 259.285156 C 53.972656 207.675781 59.882812 116.03125 122.898438 72.105469 C 194.636719 22.09375 295.269531 64.5625 312.414062 149.277344 C 322.566406 199.417969 297.375 252.027344 252.410156 275.789062 C 250.308594 276.894531 247.609375 277.378906 246.066406 279.167969 Z M 208.074219 273.289062 C 238.074219 269.445312 266.332031 250.636719 282.261719 225.128906 C 330.378906 148.09375 261.546875 55.34375 174.511719 68.984375 C 120.664062 77.425781 82.542969 128.367188 88.726562 182.546875 C 94.070312 229.390625 131.714844 266.398438 177.769531 273.742188 L 177.769531 204.542969 L 164.878906 204.542969 C 143.617188 204.542969 136.382812 174.433594 155.304688 163.304688 C 168.59375 155.492188 188.625 165.367188 188.625 180.796875 L 188.625 194.589844 L 197.21875 194.589844 C 196.851562 181.835938 197.046875 168.625 210.335938 162.703125 C 234.847656 151.78125 253.371094 183.488281 234.074219 199.105469 C 231.023438 201.574219 223.9375 204.542969 220.0625 204.542969 L 208.074219 204.542969 Z M 177.769531 194.589844 L 177.769531 179.890625 C 177.769531 176.882812 172.640625 171.878906 169.65625 171.269531 C 154.136719 168.136719 149.273438 188.195312 161.035156 193.460938 C 161.460938 193.652344 164.25 194.589844 164.429688 194.589844 Z M 208.074219 194.589844 L 220.964844 194.589844 C 222.429688 194.589844 226.75 192.238281 227.933594 191.160156 C 237.875 182.082031 226.949219 165.304688 213.558594 172.710938 C 211.445312 173.875 208.074219 177.925781 208.074219 180.34375 Z M 197.21875 204.542969 L 188.625 204.542969 L 188.625 274.648438 L 197.21875 274.648438 Z M 197.21875 204.542969 " fill-opacity="1" fill-rule="nonzero"/><g clip-path="url(#043d728aa2)"><path fill="#fa4238" d="M 266.539062 307.328125 C 267.316406 306.527344 272.105469 304.507812 273.507812 303.671875 C 372.933594 244.34375 381.515625 107.628906 285.742188 40.257812 C 204.023438 -17.226562 89.378906 10.273438 46.214844 100.804688 C 7.199219 182.632812 47.007812 276.207031 128.003906 311.523438 C 129.574219 312.535156 129.246094 315.046875 127.277344 315.238281 C 125.554688 315.398438 112.671875 308.492188 110.246094 307.121094 C 30.644531 262.054688 1.957031 161.8125 51.390625 82.910156 C 105.074219 -2.773438 221.070312 -19.175781 298.746094 44.890625 C 382.648438 114.089844 374.347656 242.566406 284.019531 301.972656 C 281.269531 303.78125 271.324219 310.238281 268.796875 310.742188 C 266.265625 311.242188 265.027344 308.867188 266.539062 307.320312 Z M 266.539062 307.328125 " fill-opacity="1" fill-rule="nonzero"/></g><path fill="#fa4238" d="M 245.953125 310.949219 C 256.808594 309.546875 260.476562 323.003906 250.578125 327.332031 L 155.265625 354.132812 C 144.734375 355.960938 140.773438 341.871094 150.640625 337.757812 L 245.953125 310.953125 Z M 245.953125 310.949219 " fill-opacity="1" fill-rule="nonzero"/><g clip-path="url(#e7625befe1)"><path fill="#fa4238" d="M 227.066406 346.558594 C 227.519531 353.484375 227.585938 359.640625 223.976562 365.859375 C 213.253906 384.339844 184.582031 381.328125 179.140625 360.605469 Z M 227.066406 346.558594 " fill-opacity="1" fill-rule="nonzero"/></g></svg>