<?xml version="1.0" encoding="UTF-8"?>
<svg id="Capa_1" data-name="Capa 1" xmlns="http://www.w3.org/2000/svg" viewBox="0 0 512 512">
  <path d="M236.56,15.4c189.56-10.42,338.76,184.36,238.4,358.27-97.74,169.36-353.8,162.09-443.83-10.35C-50.28,207.38,66.1,24.78,236.56,15.4ZM241.3,20.82C50.58,29.74-61.8,245.09,61.31,398.85c110.77,138.36,337.95,117.86,416.4-42.74C559.09,189.48,417.59,12.57,241.3,20.82Z"/>
  <path d="M95.49,363.32c-9.62-1.02-18.39-8.8-19.3-18.63l-.03-197.1c.82-9.51,7.56-14.08,16.59-14.56,47.41,2.44,97.93-3.16,144.98,0,1.89.13,3.72.72,5.61.82,1.52,3.04,1.13,6.74-2.91,6.66l-149.04-.03c-7.24.25-8.08,5.84-8.47,11.84-.42,6.45,0,13.31,0,19.65-.04,33.03-.06,66.47,0,99.56.02,10.96-1.21,26.29,0,36.64.11.99.08,1.74,1.05,2.33h188.62c1.14-7.77,5.81-14.26,12.19-18.62-3.99-2.2-6.31-6.08-8.27-10.02-.48-.97-.36-2.46-.89-3.18-.8-1.09-4.47-1.31-5.06-4.42-.35-1.85-.28-10.19.13-12.03.67-2.97,3.56-3.37,4.26-4.55.66-1.11.22-3.24.65-4.78,3.16-11.64,13.4-17.23,25.08-16.2,4.87.43,9.36,3.02,14.57,2.02l-.11-3.96c-15.2-5.03-9.36-25.66,6.39-22.97,8.96,1.53,12.05,13.82,5.57,20.15-2.78,2.71-6.3,1.53-5.07,6.78h19.98c5.77,0,14.73,6.92,16.93,12.19.77,1.83,1.22,6.51,1.86,7.28.88,1.06,3.69.7,4.43,4.04.5,2.23.43,10.89-.38,12.89-1.04,2.59-3.39,2.38-4.55,3.58-.94.97-2.4,5.82-4.13,8.06-1.59,2.06-3.61,3.61-5.69,5.14,5.66,4.97,10.06,10.86,10.82,18.63h15.24l1.02-1.02v-114.46c1.53-1.58,3.6-1.75,5.58-1.02l1.19,3.05v147.65c-.05,8.28-10.64,18.63-18.63,18.63h-97.19l6.18,22.26,30.58.23c4.8,1.11,3.59,7.67-1.17,7.34l-149.57-.18c-4.09-.95-4.09-6.21,0-7.16l30.58-.24,6.86-22.26h-96.51v-.02ZM318.42,218.58c-6.9.38-6.22,10.54,1.22,9.3,5.28-.89,5.01-9.64-1.22-9.3ZM295.47,243.61c-14.76,1.8-14.3,17.94-13.42,29.32.59,7.62,4.27,12.69,11.86,14.55,15.1-1.04,31.89,1.33,46.78.02,4.72-.42,9.71-3.71,11.48-8.16,1.51-3.78,1.53-17.55,1.03-22.01-.36-3.13-2.26-6.22-4.79-8.08-7.9-5.81-28.58-2.06-38.89-3.1-4.84-.49-8.78-3.18-14.05-2.53ZM280.72,310.49h72.13c1.45-.83.33-3.21-.2-4.54-1.58-3.93-4.98-7.28-9.06-8.54-7.19-2.23-38.99-1.91-47.65-1.16-7.73.67-15.1,6.07-15.21,14.24h0ZM377.57,317.27H83.98l-1.02,1.02v10.83l1.02,1.02h292.58l1.02-1.02v-11.85ZM82.96,337.58c-.66,9.78,3.46,17.42,13.86,18.31l268.22-.02c8.86-.99,13.86-9.99,12.23-18.33l-2.04-.66h-119.93c-53.97,2.56-111.41-3.27-165.26,0-2.39.14-4.67.89-7.08.71h0ZM192.68,385.67h74.49l-6.51-22.39-61.87.08-6.12,22.32h0Z"/>
  <path d="M278.02,187.23h-11.18c-6.01,0-15.39-9.01-15.85-15.3l.27-85.62c6.07-15.72,18.04-13.3,31.86-13.52,32.61-.5,66.08-1.11,98.82-.72,12.1.15,19.18,8.45,20.04,19.97,1.83,24.47-1.44,51.19,0,75.9-.78,9.93-6.03,17.19-16,19.22l-72.95.2c-9.59,7.69-18.16,16.69-27.56,24.59-2.59,2.17-8.01,7.58-8.84,1.38-1.12-8.29,2.28-17.68,1.39-26.11h0ZM268.19,179.1c4.26.7,12.19,0,16.93,0,3.42,0,.51,14.14.35,16.6-.1,1.54-.27,3.66.33,5.07,8.55-6.87,15.91-15.85,25.22-21.52l72.31-.16c6.74-.81,9.97-6.15,10.52-12.51,2.06-23.94-1.53-50.87-.1-75.12-1.14-7.96-6.22-10.74-13.78-11.28-35.26-2.54-73.52,1.98-109.09,0-5.77.38-11.31,4.5-11.82,10.53,2.03,24.67-2.71,53.74,0,77.89.49,4.4,4.77,9.78,9.14,10.5h0Z"/>
  <path d="M156.79,233.63c.32-1.88,3.37-2.88,5.06-3.07,5.63-.62,20.17-.64,25.77,0,3,.35,4.85,2.02,5.08,5.08l-.02,41.67c7.07-1.52,10.2,6.72,1.73,7.47-10.95.98-22.37-.81-33.22-.77-17.47.06-39.81,2.66-56.89.74-7.71-.87-5.14-7.45-2.71-7.45h10.16c2.55-2.92.29-8.08.31-11.21.02-1.63.7-3.07.73-4.68.06-3.4-.69-13.68.32-15.94.69-1.54,3.07-2.54,4.72-2.73,5.15-.6,18.54-.57,23.71.01,2.09.24,6.44,2.12,6.44,4.41v30.14h8.8v-43.68l.02.02ZM185.23,277.31v-38.94l-1.02-1.02h-19.64l-1.02,1.02v38.94h21.67ZM140.53,250.21c-6.86-1.16-13.95.67-20.99,0v27.09h20.99v-27.09Z"/>
  <path d="M228.33,165.8c7.97,8.19.93,21.64-10.24,20.77-1.99-.16-4.2-1.76-5.96-1.28-.55.15-7.46,6.6-8.63,7.68-4.7,4.33-8.69,9.43-13.91,13.22-.98,1.99,1.03,4.88,1.04,7.1.06,10.44-13.42,15.73-21.14,8.47-3.81-3.58-2.93-6.9-3.65-11.58-2.46-1.45-4.11.67-6.33,1.13-4.09.84-7.18.05-11.07-.94l-36.13,28.91c-3.66,2.4-8.44-.79-5.28-4.6l36.94-30.15c.15-4.64-1.02-7.46,1.96-11.54,5.15-7.04,15.73-7.07,20.45.54,2.52,4.07,1.04,5.9,2.01,8.83,1.14,3.46,4.85-.51,7.05-.86,6.16-.99,6.24,2.31,11.82-2.41,6.76-5.71,13.06-13.55,19.97-19.33.95-1.89-.39-3.7-.36-5.71.14-10.72,14.2-15.71,21.45-8.26h.01ZM222.94,170.52c-4.79-4.39-12.15,2.35-7.63,7.29,5.02,5.47,12.89-2.47,7.63-7.29ZM159.95,196.24c-6.09-6.65-14.41,6.47-5.39,8.46,5.4,1.19,8.9-4.63,5.39-8.46ZM182.32,209.78c-3.39-4.21-11.53.2-8.93,5.89,3.02,6.63,13.67-.01,8.93-5.89Z"/>
  <path d="M230.48,230.73c41.17-.7,43.5,61.81,2.52,64.21-43.82,2.56-46.67-63.45-2.52-64.21ZM248.9,279.34c10.38-10.42,8.57-26.47-2.71-35.56-20.51-16.53-49.69,6.05-38.26,29.45.56,1.14,2.08,3.8,3.02,4.44,1.69,1.15,1.27-.66,2.06-1.33,4.13-3.46,7.23,3.36,2.03,4.37-1.19,1.7,6.22,5.19,7.58,5.6,8.49,2.63,18.74.77,24.93-5.61-6.33.49-4.74-7.43.69-4.43l.67,3.07h0Z"/>
  <path d="M230.61,205.52h-22.35v28.11l-6.77,5.08v-37.59c0-1.05,3.26-2.25,4.39-2.39,5.33-.63,21.91-.72,27.14-.02,1.04.15,4.37,2.14,4.37,3.08v23.7c0,2.18-5.67,1.69-6.77,0v-19.98Z"/>
  <path d="M332.7,255.1c12.75-2.11,13.43,16.92,1.76,17.23-10.82.29-12.4-15.47-1.76-17.23Z"/>
  <path d="M300.18,255.11c13.05-2.27,14.19,18.49-.18,16.79-8.81-1.04-9.55-15.1.18-16.79Z"/>
  <path d="M319.87,86.52c23.4-2.21,45.99,10.71,51.17,34.44,9.3,42.66-43.97,69.39-76.09,42.23-30.14-25.47-13.56-73.04,24.93-76.67ZM323.26,93.97c-29.56,1.86-47.02,35.08-27.3,58.73,19.85,23.81,61.38,14.76,67.21-16.11,4.48-23.75-16.54-44.09-39.91-42.62h0Z"/>
  <path d="M238.55,251.01c1.18-.26,2.29-.31,3.29.49,3.06,2.45-2.14,7.42-4.12,9.56-2.66,2.86-5.48,6.91-9.82,5.05-.54-.23-7.65-7.14-7.84-7.74-.71-2.2-.16-4.57,2.33-5.12,2.34-.52,5.98,3.7,7.86,5.06.7,0,5.68-6.75,8.29-7.3h0Z"/>
  <path d="M230.39,280.13c2.89-.23,4.56,6.32.52,6.69-3.89.35-4.28-6.39-.52-6.69Z"/>
  <path d="M232.54,239.48c1.24.79,1.21,6.22-2.15,5.82-4.95-.59-2.25-8.6,2.15-5.82Z"/>
  <path d="M249.06,261.22c1.94-1.89,6.61-.12,4.92,3.22-1.9,3.77-7.86-.35-4.92-3.22Z"/>
  <path d="M245.31,246.24c2.53-.71,4.68,1.59,2.6,4.01-3.48,4.07-6.52-2.91-2.6-4.01Z"/>
  <path d="M216.97,250.81c-2.74,1.74-7.47-3.51-3.48-4.56,3.11-.82,5.25,3.44,3.48,4.56Z"/>
  <path d="M325.24,100.65c1.77-.27,3.9,1.19,4.23,2.95,1.38,7.19-1.24,17.84.32,25.42l16.68,15.15c2.09,4.02-.13,7.63-4.77,6.13l-19.53-17.05c.69-8.8-1.43-20.51-.09-28.94.27-1.69,1.33-3.38,3.16-3.66h0Z"/>
</svg>