<?xml version="1.0" encoding="UTF-8"?>
<svg id="Capa_1" data-name="Capa 1" xmlns="http://www.w3.org/2000/svg" viewBox="0 0 512 512">
  <path d="M256.19,17.2c131.78,0,238.99,107.21,238.99,238.99,0,18.43-2.1,36.38-6.07,53.61.13,1.07.21,2.16.21,3.25,0,3.11-.53,6.07-1.49,8.79,2.14,5.61,2.11,12.01-.15,17.96.65,1.6,1.13,3.3,1.45,5.07,10.79-28.27,16.24-58.06,16.24-88.68,0-33.64-6.59-66.27-19.58-97-12.55-29.67-30.51-56.32-53.4-79.2-22.89-22.88-49.53-40.85-79.2-53.4-30.73-12.99-63.37-19.58-97.01-19.58s-66.27,6.59-96.99,19.58c-29.67,12.55-56.32,30.51-79.2,53.4-4.94,4.94-9.62,10.05-14.09,15.33,6.04-3.76,12.9-6.14,20.46-7.1,43.34-43.82,103.47-71.01,169.83-71.01Z"/>
  <path d="M256.19,495.18c-36.24,0-70.61-8.11-101.42-22.61-7.46-.03-14.94-.06-22.44-.09,8.64,4.95,17.6,9.4,26.86,13.31,30.72,12.99,63.36,19.58,96.99,19.58s66.27-6.59,96.99-19.58c9.61-4.07,18.89-8.7,27.84-13.89-7.7.24-15.56.5-23.4.66-30.81,14.5-65.2,22.61-101.44,22.61h0Z"/>
  <path d="M17.2,256.19c0-31.96,6.3-62.47,17.74-90.36-3.67-1.89-6.1-4.44-7.52-6.3-.2-.26-.4-.54-.61-.85-.08.17-.15.34-.22.51-12.99,30.72-19.58,63.36-19.58,96.99s6.59,66.27,19.58,96.99c.48,1.14.98,2.27,1.48,3.4v-29.06c-7.06-22.54-10.86-46.5-10.86-71.33Z"/>
  <path d="M341.67,142.23v121.36c0,3.06-8.84,3.06-8.84,0v-64.25h-63.91v244.08h63.91v-9.85c0-.71,2.82-2.24,3.8-2.37,7.06-.92,4.6,7.32,5.13,11.79l1.6,1.11c8.84.18,17.71-.22,26.55-.03,19.21.42,39.96.71,59.12,2.07,2.98.21,12.59.72,14.64,1.68.27.13.83.8.67,1.03-13.96,2.47-28.35,1.67-42.52,2.02-17.53.43-35.44,1.22-52.97,1.42-99.67,1.11-199.41-.8-299.08-.14l-1.31-1.41.02-125.45c.22-.51,1.6-2.22,1.86-2.22h62.21v-46.57c0-.28,2.71-2.38,3.06-2.38h69.69v-40.45c0-.13,1.58-1.7,1.7-1.7h72.41v-39.78c0-.17,2.21-2.38,2.38-2.38h70.03l1.02-1.02v-53.71c0-.45,1.72-1.5,2.33-1.74,4.25-1.71,27.02-.67,33.39-.66,10.77.02,21.78.56,32.6.77,4.29.08,10.25-3.29,10.57,4.33l-.02,114.27c-.85,7.28-9.53,3.8-9.53,2.03v-110.82l-1.02-1.02h-59.49,0ZM259.4,240.82h-63.57l-1.02,1.02v201.59h64.59v-202.61ZM185.29,283.66h-63.23v159.78h63.23v-159.78ZM112.54,442.76v-109.81l-1.02-1.02h-53.03l-1.02,1.02v109.81h55.07Z"/>
  <path d="M381.11,291.14h9.85c3.1-3.35-2.39-16.99,5.35-16.15.91.1,3.83,2.44,3.83,2.89v13.26h10.2v-13.26c0-3.35,8.16-3.11,8.16.68v12.58h10.2v-13.26c0-.19,1.05-1.85,1.36-2.03,2.1-1.44,6.8.35,6.8,2.71v12.58c11.2-.93,15.05,7.71,13.6,17.68h15.3c4.24,0,3.96,8.16.68,8.16h-15.98v10.2h15.98c.19,0,1.85,1.05,2.03,1.36,1.44,2.1-.35,6.8-2.71,6.8h-15.3v10.2h15.98c3.36,0,4.11,8.16-.68,8.16h-15.3v10.2h15.98c3.03,0,3.48,8.16,0,8.16h-15.98v10.2h15.98c2.65,0,3.71,5.22,1.52,7.3-2.05,1.94-14.11.31-17.51.85.94,9.09-5.98,13.6-14.24,13.64-.6,3.73,2.12,14.66-4.28,14.1-1.33-.11-3.92-1.58-3.92-2.92v-11.22h-10.2v11.9c0,2.68-7.48,2.68-7.48,0v-11.9h-10.2c-2.04,3.98,2.01,13.97-4.42,13.97-5.57,0-3.78-9.97-4.42-13.97h-10.2v11.9c0,2.68-7.48,2.68-7.48,0v-11.9h-10.88v11.9c0,.36-2.22,2.31-3.09,2.4-6.68.69-3.82-10.42-4.43-14.27-7.57-.51-13.3-5.74-12.89-13.62-4.65-.41-10.09.55-14.63.01-6.86-.81-4.17-8.17-1.34-8.17h15.97v-10.2h-15.97c-3.78,0-3.78-8.16,0-8.16h15.97v-10.2h-15.3c-3.83,0-4.89-8.16-.68-8.16h15.97v-10.2h-15.97c-3.96,0-3.27-8.16-.68-8.16h16.66v-10.2h-15.97c-3.78,0-3.78-8.16,0-8.16h15.97c-1.26-8.86,2.78-18.21,12.93-17.68,1.07-4.8-3.2-16.45,4.43-15.7,5.48.53,1.93,10.95,3.14,14.58l.55.81,9.94-.34c1.33-3.68-2.32-16.65,4.56-15.58.76.12,3.21,1.82,3.21,2.27v13.95ZM353.69,300.76c-1.6.54-1.71,2.85-1.84,4.28-2.41,26.81,1.9,57.18,0,84.38.03,3.84,1.62,4.78,5.1,5.1,25.05,2.28,53.52-1.8,78.93,0l4.44-1.68.02-91.22-86.64-.84Z"/>
  <path d="M132.93,204.79c-.58-.46-10.27,7.68-12.71,5.61-12.87-11.78-26.51-23.67-38.29-36.54-1.54-1.69-7.99-8.73-8.15-10.26.83-4.27,4.89-7.71,6.83-11.51.33-.65,1.12-.53-.02-1.38-9.89-3.7-19.94-3.04-30.28-3.08-3.27-.02-8.45,2.09-6.76-4.04l33.01-30.9c11.69-7.34,26.21-4.27,38.97-1.9,26.17-25.28,61.74-48.94,99.31-50.86,3.49-.18,13.15-1.14,13.95,3.1.96,5.1-1.18,17.38-2.22,22.91-6.55,34.61-26.89,64.28-52.05,88.06,1.18,11.03,4.9,22.74,1.07,33.66-3.06,8.74-15.21,16.57-22.26,22.61-3.85,3.3-10.01,10.31-13.89,12.63-7.31,4.36-3.71-14.45-3.76-18.08-.04-3.86-.78-10.99-1.47-14.85-.32-1.77-.94-3.44-1.29-5.18h0ZM222.02,66.77c-60.74.98-106.71,48.56-139.73,94.54l-.24,1.5c11.41,14.85,26.16,27.04,39.83,39.84,1.98.51,16.14-9.13,18.77-10.91,42.63-28.99,78.66-71.13,81.38-124.98h0ZM109.82,116.41c-3.56-.06-6.95-1.19-10.51-1.4-12.2-.73-15.99.7-24.86,8.52-5.97,5.27-11.98,11.71-17.67,17.34,9.82-.54,19.32,1.82,28.75,4l24.28-28.46h0ZM141.78,230.61c.54.46,4.35-2.81,5.08-3.41,4.91-4.03,18.18-14.54,20.89-19.23,4.74-8.2,2.18-19.51.54-28.34l-28.92,21.08c1.48,9.72,3.89,20.13,2.41,29.91h0Z"/>
  <path d="M85.85,209.64c3.73-.74,4.61,3.39,2.52,5.98-4.41,2.27-15.73,17.25-19.66,17.44-3.93.2-4.24-3.01-2.07-5.86,1.7-2.23,14.72-14.69,17.01-16.31.69-.49,1.33-1.08,2.2-1.26h0Z"/>
  <path d="M68.15,197.44c3.92-1.2,6.05,1.52,3.6,4.96-1.43,2.01-13.85,14.11-15.65,14.94-1.98.93-5.25.46-5.46-2.06l.68-2.04,16.83-15.81Z"/>
  <path d="M87.49,230.53c-2.09-3.34,2.4-5.51,3.99-7.04,2.86-2.74,11.29-12.67,14.63-12.64,1.87.02,3.17,1.16,3.05,3.05-.2,3.47-13.62,12.9-15.95,16.76-.88,1.16-5.28.58-5.71-.13Z"/>
  <path d="M72.22,182.83c-4.26,2.12-12.65,14.42-17.09,13.81-1.89-.26-2.71-1.95-2.45-3.72.46-3.1,13.37-12.2,15.67-15.66,4.89-1.76,5.96,1.64,3.87,5.57h0Z"/>
  <path d="M364.29,371.18c-2.07-1.96-1.02-4.87-.36-7.16,3.96-13.83,11.98-28.2,16.36-42.1,2.25-4.31,9.29-4.02,11.53.31,4.67,14.11,12.34,27.53,16.81,41.66,1.01,3.19,1.75,7.69-2.77,8.13-7.04.68-7.06-11.85-10.92-15.52-3.01.23-17.67-.97-18.94.56-1.69,2.05-2.91,10.6-5.07,13.29-1.41,1.74-5,2.38-6.64.82ZM379.07,348.24h13.6l-6.47-17c-1.49-.3-.85.65-1.19,1.49-1.98,5.16-3.48,10.54-5.94,15.5h0Z"/>
  <path d="M418.67,319.85c1.41-1.41,6.24-1.32,7.35.81l.63,48.3c-.77,4.05-8.04,4.07-8.81,0,.92-14.74-1.28-31.01-.04-45.57.09-1.05.11-2.8.87-3.55Z"/>
  <path d="M142.96,121.32c9.92-1.55,21.14,3.85,22.55,14.52,3.95,29.79-41.43,30.27-37.28,0,.93-6.77,8.11-13.48,14.72-14.52h.01ZM144.32,128.12c-11.12,1.91-13.1,18.97-2.02,22.77,19.7,6.77,23-26.38,2.02-22.77Z"/>
  <path d="M178.32,90.72c24.98-4.25,24.63,34.46,0,30.27-16.66-2.84-15.4-27.65,0-30.27ZM179.67,97.52c-10.06,2.07-7.82,18.32,3.19,16.81,10.84-1.49,9.35-19.39-3.19-16.81Z"/>
</svg>