<?xml version="1.0" encoding="UTF-8"?>
<svg id="Capa_1" data-name="Capa 1" xmlns="http://www.w3.org/2000/svg" viewBox="0 0 512 512">
  <path d="M232.91,250.66l17.23-48.52,12.78.15,16.26,48.36h-11.75l-3.64-11.41-15.74-.38-3.39,11.79h-11.75ZM261.55,230.1l-5.15-19.09c-1.12.11-1.14,1.09-1.43,1.87-1.92,5.12-2.65,11.91-4.44,17.22h11.02Z"/>
  <path d="M285.05,202.2h11.02v48.46h-11.02v-48.46Z"/>
  <path d="M164.61,500.34h58.74v-167.8l-56.21-56.14-.29-53.17c-15.38-3.53-19.54-24.19-6.02-32.53,16.69-10.3,36.21,9.49,23.91,25.38-3.14,4.05-6.41,4.58-10.49,7.14l.05,50.42,52.74,52.27c.66.79,3.66,4.68,3.66,5.16v169.27h10.65l1.14-2.53-.05-178.47-41.29-44.64c-.95-10.13-.98-20.78.23-30.9-7.15-3.03-11.63-8.87-8.71-16.85,4.19-11.47,21.18-10.83,23.75,1.64,1.6,7.77-2.4,11.39-8.37,15.21l.04,27.64,41.71,44.94v183.95h12.12l1.1-223.97c-30.18-3.28-49.59-33.89-39.68-62.82,12.63-36.88,64.54-42.72,85.52-9.82,20.08,31.48-2.02,71.55-38.49,72.63v223.24h11.75v-167.8l18.24-18.46c-11.17-23.04,11.38-46.14,34.9-35.42,17.28,7.87,18.86,33.83,2.9,43.84-10.98,6.89-23.25,5.84-32.92-2.67l-15.05,14.19v166.33h63.16c-9.11-13.77-20.15-26.27-29.68-39.72-6.52-9.19-8.27-8.98-5.36-20.66,2.8-11.23,7.08-28.46,10.97-38.96,13.61-36.75,72.04,12.3,83.17-21.85,3.76-11.53-2.89-13.65-4.59-21.81-1.34-6.45,3.96-9.01,6.47-13.76,4.02-7.61-5.42-7.39-5.93-11.05-.18-1.27,3.98-2.84,5.19-4.38,5.64-7.2-5.71-11.89-3.55-18.96,1.47-4.83,22.64-3.6,22.68-14.82.04-9.04-18.23-23.15-24.28-30.13-2.47-2.86-14.03-18.52-13.81-21.16,5.55-9.22,9.27-8.82,5.52-20.49-5.38-16.73-16.92-41.28-24.65-57.59-24.61-51.9-66.45-70.52-123.17-69.3-107.76,2.32-136.46,99.9-109.38,190.23,6.97,23.24,18.53,44.59,26.06,67.56l9.43,36.47c3.21,37.46-2.86,75.41-13.83,111.13h0ZM352.48,212.65c28.31-1.43,28.6,41.68,1.23,41.67-27.16,0-27.25-40.35-1.23-41.67ZM306.18,146.55c16.38-1.8,22.38,21.65,7.68,28.28-21.08,9.52-30.07-25.82-7.68-28.28ZM223.12,125.21c1.67-1.54,5.19-3.41,7.42-3.66,6.58-.73,13.08,5.55,13.42,12.01.14,2.64-1.74,5.82-1.4,7.17.14.53,6.91,7.53,7.58,7.92,2,1.17,7.07-1.36,10.99-.74,9.53,1.52,12.93,14.87,5.52,20.85-10.27,8.29-22.86-1.35-19.47-13.59l-10.81-10.07c-12.29,5.14-23.41-10.53-13.26-19.88ZM194.98,159.86c19.14-19.72,50.03,6.89,33.5,27.99-19.16,24.45-54.17-6.69-33.5-27.99Z"/>
  <path d="M481.03,161.04c-12.3-29.06-29.89-55.16-52.3-77.57s-48.51-40.01-77.57-52.3c-30.09-12.72-62.05-19.17-94.99-19.17s-64.9,6.45-94.99,19.18c-29.06,12.29-55.16,29.89-77.57,52.3-22.41,22.42-40.01,48.51-52.3,77.57-12.72,30.08-19.18,62.04-19.18,94.98s6.46,64.91,19.18,95c12.29,29.06,29.89,55.16,52.3,77.57,19.16,19.16,41.02,34.79,65.11,46.6.9-3.61,1.71-7.19,2.46-10.74-76.11-38.51-128.42-117.47-128.42-208.43C22.77,127.34,127.47,22.64,256.17,22.64s233.4,104.7,233.4,233.4c0,92.79-54.43,173.09-133.03,210.69,2.21,2.84,4.44,5.74,6.65,8.68,24.26-11.84,46.27-27.54,65.55-46.81,22.41-22.42,40.01-48.52,52.3-77.57,12.72-30.09,19.18-62.05,19.18-94.99s-6.45-64.9-19.18-94.99h0Z"/>
</svg>