<?xml version="1.0" encoding="UTF-8"?>
<svg id="Capa_1" data-name="Capa 1" xmlns="http://www.w3.org/2000/svg" viewBox="0 0 512 512">
  <path d="M364.27,115.21c-.06.11-1.4.53-1.95,1.07-1.31,1.27-7.24,7.9-8.32,7.73-76.63-56.22-188.28-35.56-239.9,43.87-61.02,93.88-6.88,212.03,97.71,239.72,114.48,30.31,232.13-64.87,207.73-185.4-4.63-22.86-15.4-44.69-29.23-63.26l9.27-9.5c2.35-1.16,6.67,5.81,7.97,7.6,55.48,76.42,32.38,182.43-42.58,235.98-9.66,6.9-20.83,13.53-31.73,18.01-.28,1.03.27,1.13.66,1.7,1.06,1.52,4.24,4.74,5.76,6.43,14.35,16.06,29.56,31.39,43.66,47.7,5.63,11.16-6.42,21.14-16.58,13.86l-56.27-60.77c-36.83,11.2-76.25,10.58-112.92-.89l-56.49,61.33c-9.61,7.95-22.46-2.41-16.83-13.45l51.33-57.28c-44.58-20.29-80.64-60.73-94.92-107.77-33.81-111.35,52.96-219.07,165.65-224.52,37.11-1.8,82.83,9.68,112.88,31.92,1.4,1.03,6.24,3.94,5.11,5.88Z"/>
  <path d="M427.98,87.54c11.66-1.3,24.63-1.5,35.2,4.39,1.32.74,5.05,2.43,3.96,4.33l-45.26,41.72-24.42-5.44-107.89,104.6c.76,5.95,2.89,10.73,2.31,17.15-2.88,31.85-49.09,39.48-62.29,9.67-12.41-28.02,17.07-54.52,44.12-42.05l108.15-105.38c.35-.59-1.72-11.18-2.11-12.88-.57-2.46-3.82-10.51-2.86-12.04l46.04-42.63c9.31,10.7,8.35,25.65,5.08,38.56h-.02Z"/>
  <path d="M329.17,148.47c.27.98-.27,1.13-.66,1.69-.77,1.11-9.7,9.14-10.39,9.03-57.76-38.33-137.48-15.31-165.71,47.68-41.66,92.95,56.37,184.99,148.3,145.59,61.78-26.47,87.13-100.2,51.65-158.34l10.96-10.48c8.17,12.56,14.46,26.54,17.64,41.26,21.86,101.33-83.37,181.59-176.77,140.91-87.29-38.03-104.1-153.91-27.89-212.89,44.97-34.8,105.76-36,152.86-4.46h0Z"/>
  <path d="M248.51,181.81c10.57-.94,24.05.64,33.76,5.09,1.24.57,5.94,2.44,5.63,3.83l-10.58,9.72c-49.66-20.33-99.17,35.29-68.19,81.25,31.6,46.89,107.3,21.79,102.45-36.14-.26-3.1-2.67-9.36-1.39-11.55.56-.96,9.82-9.94,10.52-9.79,26.01,56.22-31.82,112.47-88.65,92.73-71.79-24.94-57.41-128.57,16.45-135.16Z"/>
  <path d="M391.43,55.08c.3.44-4.1,4.52-5.42,3.79-34.2-21.68-74.17-34.31-114.7-36.96C114.61,11.68-21.24,152.87,17.79,310.62c14.07,56.85,51.03,107.63,100.15,139.07-1.36,8.33-7.49,2.05-11.62-.9C-61.61,329.29-8.67,80.48,185.71,25.63c69.94-19.74,144.3-8.74,205.73,29.45h-.01Z"/>
  <path d="M462.83,121.4c21.75,30.71,36.32,66.54,41.53,103.97,12.73,91.63-32.61,183.74-111.14,230.92l-2.84-3.98c52.26-33.75,91.78-85.98,105.07-147.4,13.44-62.09.31-126.96-36.26-178.59-.5-1.86,2.59-3.54,3.65-4.92h0Z"/>
  <path d="M346.09,480.04c-59.03,22.36-125.15,21.44-184.08-.68,3.02-7.84,8.11-2.83,13.68-1.16,54.97,16.56,103.29,17.15,158.35.29,5.73-1.75,8.6-5.88,12.03,1.54h.01Z"/>
</svg>