<?xml version="1.0" encoding="UTF-8"?>
<svg id="Capa_1" data-name="Capa 1" xmlns="http://www.w3.org/2000/svg" viewBox="0 0 512 512">
  <path d="M284.93,129.87c.67.19,1.53,1.6,1.69,2.4,1,5.24.11,14.56.7,20.39.11,1.11.47,3.44,1.36,4.07.98.7,8.63,2.21,10.72,2.89,10.62,3.46,20.22,8.1,29.89,13.68l18.6-15.89c.71-.46,1.43-.39,2.2-.23,2.39.48,22.44,21.58,26.01,25.09,2.54,2.51,7.97,4.72,5.97,9.33-1.72,3.95-15.01,13.16-15.11,16.84,7.03,12.99,14,26.03,17.14,40.67l1.49,1.91c8.61,1.98,18.9-1,27.24,2.01.37.97.74,2.12.78,3.16.47,11.1.41,28.35-.4,39.38-.09,1.14-.18,2.24-.64,3.3-1.77,2.47-22.49-.09-26.33,1.71-3.07,7.1-4.46,14.79-7.25,22-1.46,3.77-6.92,13.21-7.2,16-.08.76-.08,1.32.53,1.89l18.45,16.95.28,3.76-31.6,32.29c-2.47.73-13.37-9.81-16.03-11.84-1.14-.86-5.09-4.09-6.1-4.09-13.77,9.68-28.94,16.53-44.94,21.72l-1.01,2.4c-1.1,8.41.56,19.93-.69,27.89-.2,1.25-.71,2.26-1.66,3.1h-41.84v-89.81c34.34,5.77,69.57-16.13,77.09-50.47,10.34-47.16-30.59-86.57-77.09-78.11v-84.36h37.76,0Z"/>
  <path d="M440.39,273.42c-1.38-.26-1.11-1.44-1.35-2.38-1.26-4.91-1.29-11.47-2.27-16.79-26.26-143.67-224.09-210.43-315.05-82.8-27.32,38.33-37.41,85.67-27.3,131.92.95,4.34,7.21,23.97,5.72,26.45-3.68,1.71-6.59-4.05-8.37-6.78-37.7-57.83-18.92-138.96,25.44-187.4,60.92-66.52,154.41-72.07,229.23-25.1,54.95,34.49,99.23,95.28,93.94,162.89v-.02Z"/>
  <path d="M261.46,316.28h-40.82v17.69h-74.83c-4.55,16.12-29.14,16.64-34.72,1.05-7.08-19.77,18.97-34.08,31.68-18.07,1.41,1.78,2.16,5.1,4.06,5.46l60.59.03,2.34-1.05v-15.99h50.01c.23,0,.76-1.21,1.7.34v10.54h-.01ZM125.87,321.2c-7.4,1.71-7.26,14.35,1.93,14.84,11.95.65,10.8-17.78-1.93-14.84Z"/>
  <path d="M211.8,217.64v14.63l.99.86c1.1-.38,2.24-.66,3.43-.58,11.92.81,24.08,1.15,36.09.78,2.87-.09,6.71-2.05,9.16.31v10.54h-60.55v-14.97h-53.41c-5.07,14.35-23.74,18.8-33.35,6.14-13.42-17.68,12.6-41.4,30.29-20.77,1.13,1.32,1.15,3.51,3.06,3.75l64.29-.69h0ZM127.96,217.09c-12.24,1.69-5.57,20.41,5.16,14.05,7.56-4.48,2.59-15.12-5.16-14.05Z"/>
  <path d="M290.71,270.02v11.57h-110.56c-4.96,10.37-17.65,15.18-27.79,8.73-12.58-7.99-10.05-27.07,3.84-31.99,11.36-4.04,19.44,2.01,24.62,11.69h109.88ZM168.03,280.68c7.44-7.1-4.07-18.11-11.03-10.69-6.96,7.42,3.96,17.44,11.03,10.69Z"/>
  <path d="M234.93,179.54v10.54l-2.35,1.05-53.1-.03c-3.11,2.38-3.84,6.21-7.59,8.73-15.65,10.52-35.93-4.74-27.45-22.69,6.99-14.8,29.15-12.85,34.36,2.39h56.13ZM166.66,179.77c-7.06-7.06-18.32,2.96-11.63,10.6,6.76,7.7,19.01-3.21,11.63-10.6Z"/>
  <path d="M234.93,366.63v10.89h-53.41c-4.29,6.81-7.49,12.55-16.4,13.53-27.84,3.06-27.42-39.94,1.38-35.93,7.05.98,10.4,6.46,14.34,11.51h54.09ZM161.97,365.4c-12.31,1.38-6.58,20.3,4.71,14.29,7.47-3.97,3.43-15.21-4.71-14.29Z"/>
  <path d="M256.19,505.88c-33.7,0-66.41-6.6-97.19-19.63-29.73-12.57-56.43-30.58-79.37-53.51-22.93-22.93-40.93-49.63-53.51-79.37-13.02-30.78-19.62-63.48-19.62-97.18s6.6-66.41,19.63-97.19c12.58-29.73,30.58-56.43,53.51-79.37,22.93-22.93,49.63-40.93,79.36-53.51,30.78-13.02,63.48-19.62,97.19-19.62s66.41,6.6,97.19,19.63c29.73,12.58,56.43,30.58,79.36,53.51,22.93,22.93,40.93,49.63,53.51,79.36,13.03,30.79,19.63,63.49,19.63,97.19s-6.6,66.41-19.63,97.19c-12.58,29.73-30.58,56.43-53.51,79.37-22.93,22.93-49.63,40.93-79.36,53.51-30.79,13.03-63.49,19.63-97.19,19.63h0ZM256.19,17.38C124.52,17.38,17.38,124.52,17.38,256.19s107.13,238.8,238.81,238.8,238.8-107.13,238.8-238.8S387.86,17.38,256.19,17.38Z"/>
</svg>