<?xml version="1.0" encoding="UTF-8"?>
<svg id="Capa_1" data-name="Capa 1" xmlns="http://www.w3.org/2000/svg" viewBox="0 0 512 512">
  <path d="M241.42,13.36c172.11-8.19,312.2,160.32,252.65,327.27-62.45,175.1-299.34,210.41-422.86,76.92C-74.87,259.66,33.2,23.28,241.42,13.36ZM237.19,21.11C78.77,29.77-35.93,191.04,30.28,341.63c46.44,105.65,159.01,165.84,273.36,145.71,158.83-27.95,244.65-191.66,167.73-336.95C426.16,64.96,333.58,15.83,237.19,21.11Z"/>
  <path d="M108.53,321.79c.75,4.48,6.38,10.15,10.95,10.87,34.71-.2,69.51.18,104.13.6,4.63.06,9.84-.95,14.81-.59,2.23.16,4.47.78,6.7,1.04,2.17,4.41-.37,8.76-5.32,8.84l-116.87.03c-12.02-.95-22.29-8.24-23.58-20.76v-191.5c.88-10.08,9.03-19.61,19.38-20.74,12.31-1.34,26.78,1.09,39.33-.09,1.93-.63.94-7.33,1.46-9.8,1.18-5.58,7.79-11.4,13.38-11.96,14.55-1.46,19.85,8.93,20.13,21.82l61.91.04c-.14-7.65,1.26-16.06,8.52-19.98,10.48-5.66,23.31.1,25.07,12.06.39,2.63-.41,5.43.84,7.6,1.89,1.31,33.29-.45,39.5.62,27.07,4.67,16.04,48.72,18.22,67.57-.56,3.45-7.31,9.66-9.81,12.36v-30.97H108.53v162.94h0ZM183.84,109.58c2.46-18.74-18.75-18.77-16.19,0h16.19ZM280.27,109.58c2.17-18.68-18.78-18.46-16.89,0h16.89ZM108.53,129.64c-.92,5.89.68,13.92,0,20.06h228.76v-20.77c0-2.59-7.59-10.2-10.21-10.2h-63.7c.9,5.21,1.1,9.01,5.96,11.98,2.82,1.73,9.3,2.81,5.93,8-2.3,3.53-7.04.87-9.79-.61-7.46-4.01-9.99-11.26-10.55-19.37h-87.28c-.39,4.83,1.54,9.62,5.66,12.29,2.1,1.36,5.1,1.16,5.99,3.86,1.45,4.38-2.02,6.13-5.89,5.2-8.59-2.07-15.66-12.46-14.21-21.35l-41.02.16c-4.6,1.47-8.9,5.92-9.66,10.74h0Z"/>
  <path d="M333.86,269.27c20.95,6.46,35.05,24.03,39.68,45.14,5.91,27,4.82,58.63,27.45,79.54,1.96,1.81,6.9,4.13,8.01,6.07,2.63,4.57-1.05,9.31-5.91,9.42h-48.21c-5.07,41.55-67.45,41.55-73.27.07l-48.88-.04c-5.05.16-8.27-4.47-6.28-9.17.69-1.63,6.04-4.74,7.74-6.33,20.52-19.16,22.61-47.68,25.76-73.48,2.82-23.07,15.41-43.7,38.54-50.49-1.87-30.13,36.29-30.69,35.37-.72ZM307.72,267.24h16.89c.86-15.47-18.33-15.7-16.89,0ZM392.18,399.56c-12.75-14.44-20.51-32.54-24.31-51.35-3.24-16.07-2.46-33-10.76-47.66-14.01-24.7-47.71-31.67-69.81-13.26-19.33,16.1-15.75,42.28-20.62,64.54-3.8,17.38-11.4,34.28-23.01,47.72h148.52ZM344.32,409.42h-52.08c5.93,27.76,46.38,27.3,52.08,0Z"/>
  <path d="M391.33,166.1c47.52-2.67,81.29,49.16,55.34,90.53-26.52,42.27-95.07,34.84-109.03-14.02-10.73-37.53,14.58-74.31,53.69-76.51ZM392.03,175.95c-36.06,1.84-58.59,41.04-41.04,73.01,18.16,33.08,66.4,34.66,86.81,3.02,22.21-34.44-6.19-78.04-45.77-76.03Z"/>
  <path d="M125.93,277.96c4.42-.9,23.09-.72,27.99-.16,5.49.63,6.97,3.62,7.42,8.77.52,6.05.65,18.76-.03,24.66-.44,3.82-2.66,6.93-6.67,7.4-5.64.67-23.41.77-28.91.02-3.11-.43-5.59-2.81-5.97-5.99-.63-5.43-.76-23.67.06-28.83.43-2.73,3.52-5.33,6.1-5.86h0ZM152.17,286.95h-23.23v23.22c2.7-1.64,5.24.12,8.09.07,4.8-.1,10.09-1.46,15.14-.77v-22.52Z"/>
  <path d="M227.28,225.16c9.9.6,21.89-1.3,31.55-.16,3.89.46,5.54,2.93,5.97,6.7.53,4.65.67,24.64-.33,28.53-1.05,4.06-4.68,5.22-8.47,5.6-4.8.48-24.98.6-28.66-.88-2.15-.86-3.8-3.47-4.07-5.78-.7-5.9-.66-21.54.01-27.46.33-2.91,1.42-5.07,4.02-6.54h0ZM255.63,233.46h-23.22v23.23h23.22v-23.23Z"/>
  <path d="M227.98,170.27c4.04-.9,25.45-.71,30.14-.17,3.38.4,6.28,3.24,6.68,6.69.54,4.54.64,25.46-.35,29.24-.81,3.08-3.32,4.64-6.31,4.95-6.38.67-22.6.7-28.92-.03-3.67-.43-5.56-3.18-5.98-6.69-.68-5.68-.68-21.81,0-27.48.32-2.61,1.96-5.9,4.74-6.52ZM255.63,178.56h-22.88c-1.59.98-.35,1.52-.35,1.76v22.17h23.22v-23.93Z"/>
  <path d="M177.32,277.97c5.23-.87,21.8-.79,27.28-.17,3.79.42,6.92,1.81,7.41,5.97.71,6.11.71,22.8,0,28.89-.4,3.31-2.6,5.59-5.98,5.98-4.65.54-26.07.66-29.95-.35-2.98-.77-4.58-3.38-4.93-6.33-.58-4.88-.76-24.38.05-28.84.53-2.9,3.4-4.69,6.11-5.15h.01ZM203.55,286.95h-23.22v22.52c.69-.22,1.53.7,1.76.7h20.41l1.06-1.05v-22.17Z"/>
  <path d="M175.9,225.17c3.76-.84,26.54-.76,30.85-.18,2.84.38,4.93,3.18,5.26,6.01.71,6.11.68,22.03.03,28.22-.52,4.95-3.52,6.17-8.15,6.63-5.03.5-24.57.62-28.5-1.05-2.91-1.24-3.88-3.27-4.22-6.33-.67-5.97-.71-21.52-.01-27.46.3-2.56,2.13-5.23,4.73-5.82h.01ZM203.55,233.46h-23.22v23.23h23.22v-23.23Z"/>
  <path d="M279.1,209.29c-1.07-1.11-2.03-3.61-2.11-5.14-.46-9.02,1.32-19.53.42-28.79.44-3.39,3.61-4.99,6.69-5.27,6.38-.59,21.28-.73,27.5.01,3.94.47,6.35,3.55,6.7,7.38.57,6.21.7,20.73-.02,26.79-.47,3.97-2.76,6.31-6.66,6.72-6.21.65-22.83.73-28.93-.02-1.3-.16-2.69-.76-3.59-1.68h-.01ZM309.13,178.56h-23.23v23.93h23.23v-23.93Z"/>
  <path d="M150.3,214.91c-2.16-2.11-14.11-14.42-14.67-15.98-1.42-3.99,3.43-8.15,7.07-5.62l20.28,19.69,40.6-39.68c4.53-1.56,7.69.69,6.97,5.55-.48,3.24-2.71,3.44-4.56,5.3-13.39,13.59-27,26.96-40.46,40.47-1.51.65-3.4.65-4.91,0-.65-.28-8.94-8.38-10.32-9.73h0Z"/>
  <path d="M393.13,231.1c-.88-1.03-1.6-2.19-1.69-3.6,1.08-12.05-1.34-26.29.01-38.05.18-1.57.56-2.77,1.72-3.91,2.67-1.89,7.19-.17,7.4,3.26l.16,35.73c5.09,5.47,11.8,9.42,17.15,14.53,5.95,5.69,6.81,11.74-3.16,10.9-6.01-6.41-16.13-12.42-21.59-18.87h0Z"/>
</svg>