<?xml version="1.0" encoding="UTF-8"?>
<svg id="Capa_1" data-name="Capa 1" xmlns="http://www.w3.org/2000/svg" viewBox="0 0 512 512">
  <path d="M505.19,256c0-33.64-6.59-66.27-19.59-96.99-9.09-21.5-21.04-41.4-35.63-59.44.03,5.2.18,10.54.36,16.05,28.61,39.49,45.49,88,45.49,140.39,0,38.62-9.18,75.14-25.46,107.48v19.64c5.72-9.65,10.82-19.7,15.23-30.13,12.99-30.72,19.59-63.36,19.59-96.99h0Z"/>
  <path d="M41.73,363.68c-16.35-32.4-25.57-68.98-25.57-107.68C16.17,123.76,123.76,16.17,256,16.17c43.13,0,83.64,11.45,118.65,31.46,5.39-.13,10.82-.23,16.17-.23h1.56c-12.42-8.14-25.57-15.17-39.38-21.01-30.72-12.98-63.36-19.57-96.99-19.57s-66.27,6.59-96.99,19.59c-29.68,12.55-56.33,30.52-79.21,53.4s-40.85,49.53-53.4,79.21c-13,30.72-19.59,63.36-19.59,96.99s6.59,66.27,19.59,96.99c4.47,10.58,9.65,20.76,15.47,30.53-.31-6.36-.32-13.38-.14-19.84Z"/>
  <path d="M400.11,447.59l15.16.05c5.85-4.87,11.5-10.02,16.93-15.44.61-.61,1.21-1.25,1.83-1.88h-13.49c-6.48,6.12-13.31,11.89-20.43,17.27Z"/>
  <path d="M400.11,447.59c-8.38,6.31-17.17,12.08-26.33,17.28l18.08.07c8.13-5.29,15.93-11.06,23.42-17.29l-15.17-.05h0Z"/>
  <path d="M287.96,183.15v15.7c0,.36-1.14,1.07-1.69,1.03l-41.07-.03v230.48h189.4l1.01-1v-229.48l-106.89-.68,16.99-15.4c29.84-1.46,60.19-.23,90.21-.62,9.79.82,16.2,5.44,17.07,15.66v231.2c-.76,10.96-5.89,16.82-17.04,17.7l-193.76-.7c-7.04-.7-13.57-4.86-14.37-12.35-2.01-18.84-.66-41.55-.69-60.82-.09-55.59,1.24-111.23.73-167.02-.06-6.63-2.28-12.48,2.96-18.35,1.8-2.03,7.49-5.33,10.03-5.33h47.1Z"/>
  <path d="M255.22,95.63v14.7c-30.9.07-60.96,7.05-87.96,21.93-46.71,25.73-79.99,73.8-85.06,127.39-1.2,12.74-.11,25.23.68,37.94l-7.7,6.48c-1.42.23-.78-.23-1.06-.92-13.35-33.49-11.06-73.69,3.29-106.42,29.58-67.45,104.63-109.23,177.82-101.09h0Z"/>
  <path d="M216.48,314.09c-2.97-.43-8.01-2.46-10.86-1.9-1.7.34-5.79,3.81-7.83,4.92-23.08,12.4-44.28,12.41-67.27-.23-5.18-2.85-4.73-5.34-11.83-4.7-21.1,1.88-42.35,21.47-43.86,42.97-.55,7.78-1.08,28.95.19,35.95,1.55,8.58,19.81,10.14,26.98,11.1,26.86,3.6,54.42,3.52,81.39,2.73,11.06-.32,22.07-.07,33.1-1.31v13.7c0,.18-.68,1.58-1.15,1.67-21.68,1.43-43.57,2.58-65.35,2.03-19.18-.48-39.63-1.58-58.57-4.9-13.44-2.35-26.67-5.92-30.77-20.68-2.35-8.48-1.93-38.9-.33-48.1,5.03-28.9,39.09-54.07,68.24-49.88,3.77.54,7.21,4.7,10.64,6.73,14.31,8.5,32.53,9.26,47.42,1.77,4.73-2.38,8.77-7.38,13.78-8.27,4.7-.83,12.15-.67,16.07,2.04v14.36h.01Z"/>
  <path d="M284.95,172.46c-7.89-1.11-16.03-9.9-16.96-17.78,1.43-22.75-2.16-48.35-.1-70.77.97-10.65,10.29-17.86,20.49-18.92,17.72-1.85,36.93.51,54.68.61,21.88.12,48.27-1.92,69.49-.02,10.57.95,19.48,8.9,20.41,19.67-1.36,22.16,1.72,46.28,0,68.19-.86,10.93-8.14,19.04-19.15,20.27l-69.9.25-35.57,31.24c-3.01,2.35-9.96,1.64-10.88-2.48-1.06-8.85.91-19.3-.11-27.95-.11-.97-.08-1.72-1.04-2.31-3.57-.35-7.92.49-11.35,0h-.02ZM420.01,78.48c-1.39-1.39-4.74-2.95-6.76-2.94-40.92,1.32-83.43-2.77-124.18-1.05-6.08.26-11.08,2.95-11.8,9.43-1.46,13.01.43,29.54.69,42.73.18,8.74-.85,19-.06,27.45.43,4.66,3.93,8.06,8.54,8.82,3.72.62,18.36-.71,19.91.81,2.33,2.31.17,19.86.98,24.4.18.97.54,1.76,1.67,1.7l28.06-24.74,3.49-1.85c20.65-.7,41.41.11,61.95.54,8.08.17,19.4,1.17,20.44-9.68,2.11-21.93-1.66-47.23-.02-69.53-.21-1.73-1.7-4.89-2.91-6.1h0Z"/>
  <path d="M156.85,182.65c80.89-10.14,72.28,131.18-2.53,114.43-52.88-11.84-52.06-107.58,2.53-114.43ZM164.89,197.36c-48.67.47-43.85,89.28,3.18,85.35,41.59-3.47,41.62-85.79-3.18-85.35Z"/>
  <path d="M271.08,316.24l142.16.49c8.11.95,6.82,15.59-2.67,14.07l-141.03-.64c-6.1-2.39-5.13-12.98,1.54-13.92Z"/>
  <path d="M283.14,345.01c25.52-1.05,52.37-.05,77.94.51,4.98.1,25.44-.9,28.12.6,3.91,2.19,3.68,14.29-2.69,14.08l-114.86-.07c-8.5-1.21-7.92-13.57-1.35-14.6,3.25-.51,9.13-.36,12.85-.51h0Z"/>
  <path d="M269.73,378.36l94.02-.1c6.57,1.04,6.15,15.12-1.96,14.66h-89.52c-7.83-.24-9.68-11.78-2.53-14.55Z"/>
  <path d="M287.52,277.11c-7.65-6.7-14.84-22.21-22.85-29.59-3.05-3.24,7.05-9.59,9.23-8.6l17.73,22.39c2.54-2.99,5.22-5.96,7.66-9.03,7.26-9.07,16.26-24.92,23.81-32.31,4.67-4.55,9.67.28,11.57,4.94l-35.76,51.04c-2.83,4.54-7.58,4.51-11.39,1.17h0Z"/>
  <path d="M424.04,245.75c-1.23,1.53-7.93,2.21-10.14,2.26-7,.14-14.26-.51-21.42-.03-14.11-2.49-30.58.86-44.5-.4-5.48-.49-5.85-5.49-5.27-10.01.52-3.98,3.52-4.64,7.05-4.98,21.59-2.03,46.21,1.5,68.13,0,6.79-1.18,9.17,9.43,6.15,13.16h0Z"/>
  <path d="M347.24,260.13l50.57-.11c7.6,1.16,7.59,12.11,0,13.28-14.68,2.24-34.76-1.55-50.02,0-7.35-1.13-7.63-11.9-.55-13.16Z"/>
  <path d="M353.09,151.75c-2.52-.72-3.51-10.65-5.71-12.33-4.04-3.09-22.23.68-27.96-.29-1.17,4.21-2.18,9.28-5.08,12.63h-13.36c-.73,0-1.33-1.95-.74-2.7,8.22-19.36,13.53-41.13,21.94-60.28.92-2.09.9-3.57,3.47-3.88,2.74-.32,13.58-.42,16.06.06,1.15.22,1.73.74,2.26,1.76,6.8,19.29,15.19,38.6,21.49,58.01.4,1.21,2.95,7.03.99,7.03h-13.36ZM334.65,101.06l-1.88-.05c-.7,3.49-9.18,23.81-8.44,25.34.25.51.96,1.04,1.52,1.21,2.2.65,16.96.61,17.51-1.59l-8.7-24.91Z"/>
  <path d="M376.48,84.94h13.36l1.01,1v64.8l-1.01,1.01h-13.36l-1.01-1.01v-64.8l1.01-1Z"/>
  <path d="M256,495.83c-61.48,0-117.63-23.26-160.12-61.43-2.5-.36-5-.76-7.47-1.19-3.14-.55-6.35-1.18-9.57-2,.32.33.63.66.96.98,22.88,22.88,49.53,40.85,79.21,53.4,30.72,12.99,63.36,19.59,96.99,19.59s66.27-6.59,96.99-19.59c13.63-5.76,26.59-12.67,38.87-20.67l-18.08-.06c-34.81,19.71-75.01,30.96-117.78,30.96h0Z"/>
</svg>