<?xml version="1.0" encoding="UTF-8"?>
<svg id="Capa_1" data-name="Capa 1" xmlns="http://www.w3.org/2000/svg" viewBox="0 0 512 512">
  <path d="M138.33,308.27c5.2-.62,6.5,3.75,10.15,6.69,14.29,11.54,33.79,12.94,49.09,2.36,2.4-1.66,9.36-9,10.76-9.23,4.2-.69,20.77,6.81,25.01,9.34,21.55,12.91,22.9,31.13,23.46,54.25.14,5.34.8,11.19-3.81,14.82-6.37,5-30.61,9.06-39.3,10.22-26.43,3.54-94.56,5.07-117.11-8.56-4.82-2.91-7.16-6.64-7.65-12.3-.56-6.55.17-18,.72-24.77,1.73-21.15,15.11-30.88,33.52-38.01,3.71-1.44,11.5-4.39,15.15-4.82h0Z"/>
  <path d="M349.61,101.78c.17,1.19-1.57.65-2.39.68-17.34.62-41.56,1.45-58.49.03-5.39-.45-11.66-2.55-17.28-3.35-78.61-11.14-159.04,39.2-170.68,120.01-4.28,29.72.1,61.38,15.69,87.23-5.11,3.18-10.63,5.65-15.45,9.3-1.22.93-5.22,5.98-6.56,5.18-36.31-56.84-28.98-130.69,13.09-182.28,58.03-71.16,164.95-85.97,242.06-36.8h0Z"/>
  <path d="M309.05,203.56v-23.38h-23.73c-.2,0-2.92-1.68-3.44-2.06-2.95-2.22-4.18-4.91-4.5-8.57-1.34-15.28,1-32.59.1-48.09.71-5.61,5.41-10.64,11.24-10.76l130.05.68c4.33,1.13,7.02,5.1,7.89,9.31-1.14,15.71,1.47,33.4.02,48.87-.43,4.66-3.16,8.77-7.72,10.17l-84.67.61c-3.67.83-18.47,18.61-23.18,22.22-.69.53-.86,1.32-2.07,1.02ZM303.54,122.41h-9.63v41.61c0,.69.39,1.97,1.03,2.41h22.35c-.37-2.94,2.14-6.54-.34-8.94h-13.41v-35.07ZM333.8,122.41h-9.63v44.02h9.63v-44.02ZM357.88,151.98l-8.59-28.89-9.98-.68,13.11,42.93c1.39,2.01,8.49,1.02,10.98.77l13.03-43.7c-2.53.42-8.07-1.08-9.57,1.08l-7.59,26.8-1.4,1.69h0ZM409.45,122.41h-27.51v44.02h27.51c-.4-2.85,1.04-6.76-1.03-8.94h-16.85v-10.32h16.51c-.25-1.4,1.8-8.25-.34-8.25h-16.16v-8.94h16.16c.19,0,1.6-.71,1.75-1.16l-.03-6.4Z"/>
  <path d="M391.7,194.83v148.49c0,4.51-7.94,10.45-12.21,10.15l-117.37.02c-.05-6.68-1.86-12.98-4.38-19.02h122.07l-.58-5.61-123.45.04-9.3-9.18c-.1-2.15,1.27-.32,1.56-.32h131.15l-.63-117.35h-53.84c1.97-2.17,3.71-6.72,6.61-7.15l60.38-.06h0Z"/>
  <path d="M167.91,219.57c66.09-7.94,59.79,95.58,3.95,90.58-45.73-4.1-52.28-84.78-3.95-90.58Z"/>
  <path d="M363.38,410.57c.32,1.33-.48,1.32-1.15,1.94-17.72,16.18-51.11,29.22-74.47,34.19-54.88,11.67-117.61.15-160.95-36.13h48.48c3.65,0,19.05,5.43,24.41,6.54,31.09,6.44,66.49,6.63,97.55-.12,4.57-.99,19.15-6.42,21.78-6.42h44.36-.01Z"/>
  <path d="M414.96,187.05l8.22.02c13.22,39.95,14.12,85.88-2.59,124.93l-5.63,11.22v-136.17Z"/>
  <path d="M141.23,194.28c1.21-7.27,11.84-13.57,18.89-13.44l114.74.68c5.19,9.02,16.53,4.4,25.15,5.63l1.47,4.72h-143.39c-.48,0-3.88,1.93-4.42,2.46-4.31,4.24-.85,15.89-2.47,21.6l-9.63,7.57c-2.1.18-.34-.74-.34-1.03,0-7.72-1.15-21.29,0-28.2h0Z"/>
  <path d="M234.77,400.94c-.16-1,1.2-.96,1.92-1.17,11.24-3.16,22.95-5.15,29.04-16.42h77.75c8.35,1.99,6.28,17.58-.39,17.58h-108.32Z"/>
  <path d="M287.05,244.14c1.23.27,1.35-.36,1.94-1.14,2.03-2.67,5.04-12.24,8.17-13.16,1.64-.48,13.66-.41,15.53,0,3.86.86,5.08,5.72,2.89,8.78-2.64,3.66-9.37,1.42-13.29,2.19l-10.81,19.79c-2.29,3.05-5.54,4.98-8.91,2.12-5.75-10.06-8.36-22.2-12.72-33.02-1.79-.33-1.06.27-1.43.98-1.53,2.95-2.36,6.39-3.79,9.38l-38.48-.69c-2.58-1.54-2.54-7.86.42-9.29,3.2-1.54,5.55-.32,8.53-.35,7-.06,14.04.25,21.02-.38,1.3-.65,8.17-18.61,10.67-21.65,1.97-2.39,4.48-2.82,6.88-.72l13.4,37.15h0Z"/>
  <path d="M262.08,275.92l116.1-.17c6.23.06,6.68,9.6.71,10.36l-115.59-.02c-5.56.19-6.21-9.04-1.22-10.18Z"/>
  <path d="M264.88,293.81c2.53-.26,3.91.58,5.97.56,13.74-.13,26.83-.16,40.58,0,9.43.11,22.9-1.22,31.7-.06,5.82.77,5.83,9.63,0,10.39l-82.61-.68c-3.58-4.93-1.86-9.57,4.38-10.2h0Z"/>
  <path d="M265.72,361.05h48.48c.17,0,.55-.72,1.03-.7.15,1.06.6,2.02.7,3.1.22,2.54.95,10.39.73,12.4-.11,1.01-.13,1.79-1.09,2.39h-49.52c-2.81-5.04.39-11.65-.34-17.19Z"/>
  <path d="M381.77,224.37c3.81,3.57,1.43,9.49-4.3,10.14-15.54,1.76-34.28-1.28-50.16-.04-5.82-1.39-7.35-8.44-1.4-10.95,16.9,1.06,35.6-1.47,52.28-.05,1.14.09,2.72.09,3.57.9h0Z"/>
  <path d="M325.36,243.6l44.6.49c2.93,3.6,2.56,9.06-2.79,9.69-12.49,1.46-27.75-1.08-40.55-.05-5.69-.89-5.88-9.11-1.27-10.13Z"/>
  <path d="M243.13,9.73l14.27-.23c187.27,5.88,320.38,203.56,220.26,372.99-82.55,139.69-273.35,157.83-393.27,54.47C-87.1,289.15,21.71,17.3,243.13,9.73ZM237.63,15.23C45.71,24.93-67.23,247.98,57.59,401.18c111.29,136.58,337.32,127.42,421.69-32.88C570.05,195.82,422.94,5.86,237.63,15.23Z"/>
</svg>