<?xml version="1.0" encoding="UTF-8"?>
<svg id="Capa_1" data-name="Capa 1" xmlns="http://www.w3.org/2000/svg" viewBox="0 0 512 512">
  <path d="M328.19,372.36c12.42-.36,16.48,15.69,5.44,21.42-38.39,9.92-76.45,21.48-114.94,31.01-5.38,1.33-14.32,4.54-19.44,3.25-8.15-2.04-10.69-12.6-4.94-18.58,3.01-3.12,9.58-4.37,13.74-5.56,17.45-5.02,36.14-8.7,53.33-14.22.64-.21,1.82-.15,1.68-1.02-41.44.67-84.2-15.05-114.9-42.8-76.09-68.81-68.21-191.01,15.81-249.57,95.65-66.68,229.83-10.06,252.69,102.9,13.54,66.85-20.05,137-80.01,168.68-2.8,1.47-6.4,2.12-8.46,4.51ZM277.53,364.52c40-5.13,77.68-30.2,98.92-64.21,64.16-102.71-27.62-226.38-143.67-208.19-71.8,11.26-122.63,79.18-114.38,151.42,7.13,62.46,57.32,111.8,118.72,121.59v-92.27h-17.19c-28.35,0-37.99-40.15-12.77-54.98,17.72-10.42,44.43,2.75,44.43,23.32v18.39h11.46c-.49-17.01-.23-34.62,17.49-42.52,32.68-14.56,57.38,27.71,31.65,48.54-4.07,3.29-13.52,7.25-18.68,7.25h-15.98v91.66ZM237.12,259.59v-19.6c0-4.01-6.84-10.68-10.82-11.49-20.69-4.18-27.18,22.57-11.49,29.59.57.26,4.29,1.51,4.53,1.51h17.79ZM277.53,259.59h17.19c1.95,0,7.71-3.14,9.29-4.57,13.26-12.1-1.31-34.47-19.17-24.6-2.82,1.55-7.31,6.95-7.31,10.18v18.99ZM263.06,272.86h-11.46v93.47h11.46v-93.47Z"/>
  <path d="M355.48,409.91c1.04-1.07,7.42-3.76,9.29-4.88,132.57-79.1,144.01-261.39,16.31-351.22C272.13-22.83,119.27,13.83,61.72,134.54c-52.02,109.1,1.06,233.87,109.05,280.96,2.09,1.35,1.66,4.7-.97,4.95-2.3.21-19.47-8.99-22.71-10.82C40.96,349.54,2.71,215.89,68.62,110.68,140.2-3.56,294.86-25.43,398.43,59.99c111.87,92.27,100.8,263.57-19.64,342.78-3.67,2.41-16.93,11.02-20.3,11.69-3.38.67-5.03-2.5-3.01-4.56h0Z"/>
  <path d="M328.04,414.73c14.47-1.87,19.36,16.07,6.17,21.84l-127.08,35.73c-14.04,2.44-19.32-16.35-6.17-21.83l127.08-35.74h0Z"/>
  <path d="M302.85,462.21c.6,9.23.69,17.44-4.12,25.73-14.3,24.64-52.53,20.63-59.78-7.01l63.9-18.73Z"/>
</svg>