<?xml version="1.0" encoding="UTF-8"?>
<svg id="Capa_1" data-name="Capa 1" xmlns="http://www.w3.org/2000/svg" viewBox="0 0 512 512">
  <path d="M487.7,158.09c-9.92-23.46-23.2-45.03-39.59-64.38.3,1.43.52,2.91.65,4.44.35,4.1.52,8.24.57,12.37,30.56,40.52,48.7,90.91,48.7,145.45,0,133.46-108.58,242.04-242.04,242.04-47.2,0-91.29-13.58-128.56-37.04l-6.04-.02h-.73l-.73-.05c-4.61-.34-9.13-1.26-13.44-2.67,15.93,11.81,33.19,21.67,51.6,29.46,31.01,13.11,63.94,19.77,97.89,19.77s66.88-6.65,97.89-19.77c29.95-12.67,56.84-30.8,79.93-53.89,23.09-23.09,41.23-49.98,53.89-79.93,13.11-31.01,19.77-63.94,19.77-97.89s-6.65-66.89-19.77-97.89Z"/>
  <path d="M70.55,413.9v-2.53c-35.32-42.07-56.61-96.29-56.61-155.39C13.94,122.52,122.52,13.94,255.98,13.94c58.49,0,112.21,20.86,154.1,55.53,3.84.03,7.3.19,10.53.47,1.94.18,3.8.49,5.58.93-21.32-19.65-45.61-35.31-72.33-46.61-31.01-13.11-63.94-19.76-97.89-19.76s-66.89,6.65-97.89,19.77c-29.95,12.67-56.84,30.8-79.94,53.89s-41.23,49.99-53.89,79.94c-13.12,31.01-19.77,63.94-19.77,97.89s6.65,66.88,19.77,97.89c12.08,28.55,29.14,54.33,50.72,76.68-2.23-4.86-3.7-10.1-4.31-15.53l-.13-1.13h0Z"/>
  <path d="M156.87,98.89v20.56c0,.22-.89,1.03-.67,1.69h-32.7c-.63,0-4.26,1.23-5.1,1.64-4.48,2.19-5.66,6.89-6.05,11.48v271.08c.78,9.02,5.66,13.13,14.49,13.82,22.32,1.75,48.66-.24,71.52-.06,49.78.41,99.79,1.14,149.68.73,5.27-.51,8.75-2.65,10.46-7.74.28-.82,1.31-4.93,1.31-5.43v-74.51h21.57v83.27c0,12.76-17.6,26.34-29.97,25.98l-229.96-.67c-15.65-1.18-28.88-12-30.68-27.98l.04-285.21c.44-13.26,15.41-28.67,28.64-28.67h37.42Z"/>
  <path d="M252.6,88.78c9.2.66,19.6-.9,28.65,0,5.51.55,8.6,2.67,9.14,8.4.53,5.72.81,23.03-.06,28.31-.41,2.48-2.61,5.04-4.99,5.79-36.94,1.52-74.23.19-111.3.67-2.72.15-6.17-1.72-7.22-4.24-1.8-4.3-1.67-23.8-1.21-29.18.3-3.46.97-6.8,4.28-8.54,5.71-3,31.91,0,33.43-1.29.8-7.27,2.2-13.76,7.56-19.07,16.46-16.33,42.86-3.23,41.73,19.15h0ZM224.78,70.05c-2.45.51-6.43,3.55-7.9,5.58-4.69,6.46-.88,20.18-4.34,22.64-2.25,1.59-19.88.19-24.35.59-5.73.52-5.71,3.9-4.96,9.07.52,3.57,1.51,4.17,4.96,4.47,25.29,2.29,53.97-1.8,79.62,0,6.7.8,6.92-11.63,1.69-13.21-5.34-1.63-23.67,1.23-26.72-.92-3.36-2.38-.66-11.3-1.04-15.15-.82-8.25-8.67-14.79-16.96-13.07h0Z"/>
  <path d="M375.32,246.54l24.6.69c9.64,1.23,18.74,6.07,24.63,13.81,2.05,2.7,3.85,9.2,5.05,10.45,1.39,1.43,4.3.7,6.04,3.4,2.77,4.27,3.97,26.24-5.68,24.95.17,14.28-11.81,23.89-25.29,24.94-21.9,1.7-45.98-1.32-68.12-.04-9.08-.9-19.95-8.48-23.6-16.85-.67-1.54-1.48-6.09-1.83-6.59-.6-.85-4.94-1.4-6.41-4.71-1.47-3.31-1.58-19.56.85-22.38,1.35-1.57,4.1-1.53,5.35-2.74,1.26-1.21,3.24-7.66,5.19-10.31,12.39-16.91,25.09-12.56,42.72-13.91,13.17-1.01.97-4.85,1.09-11.84.23-13.42,23.15-12.84,19.96,2.56-.78,3.76-5.03,4.79-4.56,8.57h-.01ZM352.93,256.85c-15.69.73-30.84,3.56-32.81,22.47-2.81,26.97,5.24,36.46,31.97,36.02,16.04-.27,36.5.74,51.91-.67,10.86-.99,16.16-9.2,17.08-19.33,1.99-21.93-4.13-36.99-27.9-38.68-12.15-.86-27.95-.38-40.26.19Z"/>
  <path d="M317.14,74.08c9.8.09,19.76-.6,29.55-.17,2.65.12,9.2.37,11.29.84,5.01,1.13,10.66,14.66,14.32,15.34,15.02,1.04,31.72-1.32,46.53,0,6.17.55,9.25,3.67,9.77,9.78,1.67,19.62-1.32,41.54,0,61.41-.17,5.36-5.67,8.12-10.45,8.43-28.47-1.29-57.26,2.03-85.68.67-3.37-.16-10.48-.53-13.39-1.44-4.16-1.31-5.46-4.22-5.82-8.33-2.28-25.78,1.79-54.84,0-80.97-.12-2.65,1.33-4.83,3.88-5.55h0ZM418.47,99.56h-51.58l-12.94-15.38-30.56-.8.3,76.23c.86,1.23,12.38.5,14.9.61,19.58.81,39.01-.31,58.67,0,3.78.06,18.85,2.06,21.05-.13l.67-1.66-.51-58.87h0Z"/>
  <path d="M143.91,162.45c8.19-.99,24.48-.86,32.84-.17,3.55.29,7.79.59,7.8,5.04,0,3.32-2.97,4.62-5.83,5-6.34.85-16.81.21-23.56.09-6.76-.12-13.17-3.96-13.82,5.68-.58,8.69-.73,23.16,0,31.75.1,1.17.15,2.82,1.03,3.69,1.76,1.74,34.04.15,38.98.52,4.33-1.28-.76-15.22,3.87-18.37,2.27-1.55,5.35-1.34,7.04.99,2.35,3.27.31,6.18.33,9.11.02,2.78.97,4.51.52,7.89-1.04,7.74-7.11,10.54-14.35,10.65-10.29.15-21.34.11-31.66.03-6.86-.05-14.29-2.85-15.16-10.51-1.47-12.92,1.07-28.55.04-41.76,1.69-6.24,5.72-8.87,11.95-9.63h-.02Z"/>
  <path d="M142.2,373.8l39.15.71c1.1-.37,1.59-1.14,1.8-2.24.97-5.18-2.87-18.52,6.37-17.14,3.07.45,3.54,2.26,3.79,4.99.76,8.46,1.3,22.78-9.8,23.97-8.62.93-33.38,1.09-41.74-.06-4.96-.68-9.09-4.81-9.78-9.78-1.13-8.24-.97-32.58-.06-41.07.61-5.76,5.49-9.82,11.13-10.45,8.3-.93,27.31-.79,35.77-.03,6.93.63,7.46,8.19,2.52,9.32-11.33,1.39-25.3-1.33-36.3.11-3.02.4-3.47,2.35-3.71,5.06-.76,8.49-.64,23.83,0,32.42.11,1.44.32,2.86.86,4.19Z"/>
  <path d="M184.68,275.71c1.79-1.64,6.02-1.48,7.66.43,2.3,2.69.21,6.29.21,9.17,0,3.16,1.03,4.81.43,8.46-1.14,6.88-5.57,9.61-12.15,10.1-9.92.73-27.3.85-37.14,0-6.05-.53-10.16-3.11-11.73-9.17.85-13.21-1.29-28.11-.07-41.11.62-6.62,5.39-10.44,11.83-11.09,8.07-.81,27.07-.91,35.05-.01,7.26.82,7.54,8.53,1.98,9.4-10.01,1.57-23.84-.94-34.37.02-4.26.38-4.71,1.62-5.05,5.73-.67,8.15-.74,23.65,0,31.74.18,1.93.27,3.55,2.22,4.52h38.11c5.05-3.76-.92-14.57,3.02-18.2h-.02Z"/>
  <path d="M211.31,343.79l103-.16c7.53.21,9.29,8.7,1.36,10.14h-104.54c-6.59-.69-6.04-8.99.17-9.97Z"/>
  <path d="M207.61,186.71c.8-.85,3.58-1.57,4.85-1.56l88.37.02c6.19.38,7.24,9.6.67,10.14h-90.37c-4.48.5-5.79-6.19-3.52-8.6Z"/>
  <path d="M289.02,139.34c.01,3.68-3.49,6.57-7.08,6.74h-113.27c-7.3-.66-13.07-7.86-9.44-14.82,1.63,2.39,6.51,8.08,9.44,8.08h120.35Z"/>
  <path d="M211.92,264.32c22.02-.92,44.57.53,66.65.49,3.99,0,14.72-2.78,14.3,4.89-.43,7.67-14.83,4.54-19.66,4.45-9.44-.15-19.04.08-28.32,0-10.06-.09-23.56,1.18-33.08.05-8.04-.95-6.6-9.6.12-9.89h0Z"/>
  <path d="M210.64,362.67l66.6-.18c5.82.57,6.48,8.72,0,9.47-20.41,2.34-45.22-1.8-66.1,0-5.58-.22-6.4-8.7-.5-9.29Z"/>
  <path d="M193.77,247.33c3.55-.73,8.14,3.21,6.59,6.6-9.98,8.15-18.76,17.78-28.65,25.98-2.27,1.88-6.24,5.9-9.02,5.71-5.18-.34-10.84-10.39-14.91-13.48-1.72-3.8,1.3-7.81,5.32-7.4,3.93.4,9.09,9.42,10.17,9.42l30.49-26.84h0Z"/>
  <path d="M193.77,327.58c3.38-1.42,8.06,3.41,6.6,6.59l-29.33,26.66c-3.51,2.33-6.39,6.72-11.05,4.28-1.17-.61-11.62-11.85-12.04-12.9-1.63-3.94,1-7.67,5.16-7.24,3.81.39,9.39,9.43,10.17,9.43l30.49-26.82Z"/>
  <path d="M193.08,167.8c3.07-.71,6.97,1.04,7.51,4.39.48,3.02-4.65,5.41-6.64,7.25-8.06,7.46-16.47,16.06-24.93,22.95-10.67,8.67-13.99-4.64-21.23-10.47-1.03-2.71-.1-5.67,2.64-6.78,5.77-2.34,8.8,6.09,12.84,8.7,4.57-3.9,9.36-7.67,13.84-11.67,2.82-2.52,13.52-13.79,15.98-14.36h-.01Z"/>
  <path d="M209.95,283.1l61.9-.16c6,.2,6.63,8.72.69,9.48h-62.09c-5.17-.66-5.51-8.22-.49-9.33h0Z"/>
  <path d="M209.27,204.21l63.25-.16c6.4.74,5.98,8.63-1.36,9.45-18.2,2.05-40.06-1.52-58.66,0-5.61-.22-8.6-6-3.23-9.3Z"/>
  <path d="M297.79,98.21c2.59-.46,6,1.21,6.6,3.85.82,3.59.58,19.93.18,24.17-.55,5.72-4.16,7.71-9.47,8.39-.66-.6,2.69-4.26,2.69-5.05v-31.35h.01Z"/>
  <path d="M368.07,184.35c-1.41-1.4-1.02-6.68-.06-8.51,9.59-2.99,8.82,12.66.06,8.51Z"/>
  <path d="M325.88,237.18c2.24-.36,5.09,1.18,4.95,3.57-.19,3.25-2.8,6.48-6.39,5.78-4.92-.96-.79-7.26,1.44-9.35Z"/>
  <path d="M369.05,192.07c5.6-1.69,5.48,2.66,4.95,6.98-.32,2.65-1.8,2.8-4.39,2.31-3.42-.66-2.76-6.02-1.77-8.48.32-.38.73-.66,1.21-.81h0Z"/>
  <path d="M373.87,217.45c-1.46.89-5.02,1.22-6.03-.35-1.17-3.9-1.77-8.95,3.77-8.36,4.04.42,1.95,5.55,2.25,8.72h0Z"/>
  <path d="M341.4,229.48c-.45.54-4.83,3.51-5.42,3.45-8.36-.71,2.37-14.82,5.81-6.42.48,1.17.45,1.95-.4,2.96h.01Z"/>
  <path d="M350.13,219.67c4.26-.64,10.76.59,7.34,5.99-3.92,1.71-10.32-.09-8.15-5.45l.81-.54Z"/>
  <path d="M344.84,262.92c9.91-1.02,48.51-1.56,56.79.8,4.53,1.29,9.09,4.81,11.14,9.09,1.92,4.02,2.74,16.54,2.36,21.29-.76,9.48-5.82,14.28-15.2,15.14-12.5,1.14-26.65.18-39.06.04-12.28-.14-32.3,3.24-34.58-13.35-2.21-16.16-.14-31.08,18.56-33h0ZM346.17,272.98c-14.66,2.12-11.72,24.34,3.12,22.73,15.21-1.65,11.99-24.93-3.12-22.73ZM401.38,292.16c9.8-10.64-6.06-25.75-16.29-16.63-11.99,10.7,5.8,28.02,16.29,16.63Z"/>
  <path d="M330.82,153.5c-.44-12.78-1.49-26.7-.7-39.47.09-1.5.78-7.56,1.37-8.07l78.58-.38.88.16c.1.48.79,1.33.79,1.58v46.18h-80.91Z"/>
</svg>