<?xml version="1.0" encoding="UTF-8"?>
<svg id="Capa_1" data-name="Capa 1" xmlns="http://www.w3.org/2000/svg" viewBox="0 0 512 512">
  <path d="M243.73,17.72l13.81-.22c181.2,5.69,309.99,196.96,213.11,360.9-79.87,135.16-264.49,152.72-380.51,52.71C-75.79,288.08,29.49,25.05,243.73,17.72ZM238.41,23.05C52.72,32.43-56.56,248.24,64.21,396.48c107.68,132.16,326.39,123.29,408.02-31.81C560.05,197.78,417.71,13.98,238.41,23.05Z"/>
  <path d="M240.54,134.65v6.66l-144.09-.03c-4.23.31-11.62,1.43-11.62,7.02v183.99l184.33-.66c.39-10.94,6.85-20.57,15.96-26.29-4.84-3.43-8.79-7.84-10.74-13.53-8.17,0-11.78.88-12.57-8.41-.82-9.66-1.59-19.77,11.33-17.66.76-9.84,8.39-17.9,17.68-20.59,8.13-2.35,15.28-.17,23.59-.7,2.43-8.33-5.58-9.3-7.36-14.94-4.48-14.16,13.76-25.6,21.03-10.38,3.74,7.83.98,13.16-5.7,17.79v8.19c9.2.33,19.33-.25,27.75,3.86,6.63,3.23,12.43,10.22,14.21,17.41.54.4,7.83-2.73,10.76,2.2,1.86,3.11,1.8,17.65-.22,20.71-2.61,3.96-9.47,1.46-11.14,2.51-.7.44-5.72,12.73-10.09,12.54,6.42,4.92,11.74,9.89,14.49,17.78,1.16,3.32,1.04,6.75,2.48,9.49h18.3v-137.08h7.32v172.68c0,5.92-11.04,16.97-16.97,16.97h-96.16l4.67,22.62,31.46.15c4.8,1.46,4.83,7.05-.49,7.21l-152.28-.19c-3.21-.17-3.48-5.55-.68-6.38l31.5-.44,6.63-22.98h-105.47c-13.13,0-20.19-15.1-20.99-26.26-2.1-29.29.8-62.32.75-91.85-.06-36.79-2.24-74.32-.03-111.1.33-5.5-1.28-12.18,3.62-16.34,1.56-1.33,8.14-3.99,9.99-3.99h148.74ZM318.06,220.05c-4.16,0-5.39,8.8,0,9.53,5.38-.72,4.16-9.53,0-9.53ZM294.93,252.59c-20.84,3.22-19.4,45.92,1.16,48.43,24.33-3.15,65.11,12.43,61.56-26.95-2.14-23.72-25.44-20.36-42.94-20.94-6.43-.21-13.27-1.54-19.78-.53h0ZM271.81,283.7l.56-8.88-.52-.8-2.03-.29c.67,2.73-1.78,9.4,1.99,9.97ZM367.64,273.73c-3.4-.33-2.14,9.96-.99,9.96,2.09-2.57.54-6.86.99-9.96ZM361.65,331.61c0-11.95-11.11-22.67-22.96-22.68-11.83-.01-28.45-.31-39.94.69-11.64,1.02-20.46,10.57-21.6,21.99h84.51,0ZM388.93,338.93H84.82v11.98h304.1v-11.98ZM84.82,357.57c-.75,10.28,6.27,19.79,16.94,19.99l273.52-.04c8.08-.91,13.41-6.27,14.24-14.36.19-1.82.6-4.35-.92-5.59H84.82ZM275.05,384.28l-63.29.59c-2.01.92-5.78,18.75-6.5,21.94l75.2.67-5.41-23.2h0Z"/>
  <path d="M275.15,187.88c-11.6.14-23.71-1.24-25.21-15.05-2.64-24.35,1.81-52.98-.08-77.78,1.35-8.92,8.77-14.68,17.61-14.99,39.67,2.26,82.53-2.93,121.82,0,11.4.85,16.12,5.58,16.97,16.97-1.31,24.16,1.65,49.96,0,73.92-.53,7.71-2.46,14.74-11.16,16.12-11.7,1.85-24.11.15-35.75.13-15.52-.02-30.99-.09-46.47.83l-28.4,27.49c-2.82,2.91-8.54,3.41-9.29-1.39-.61-3.94.89-25.31-.04-26.24h0ZM283.14,205.84l26.41-25.15c24.3-1.25,49.57,1.19,73.76-.1,2.58-.14,6.62-.48,9.11-.86,1.38-.21,3.9-.79,4.81-1.84.99-1.14,1.58-7.58,1.71-9.6,1.39-23.03-1.11-47.41,0-70.59-.63-7.3-3.03-9.69-10.31-10.32-38.92,2.08-80.57-2.68-119.17,0-4.61.32-9.59,1.15-11.3,6.01l-.16,80.71c.87,9.94,21.53,4.54,24.15,7.13,3.09,3.05-1.2,23.02.99,24.64h-.01Z"/>
  <path d="M141.89,196.04c2.93-.38,5.36-.18,8.14.84,6.33,2.34,27.21,23.53,30.07,29.81,2.12,4.65,1.77,9.55-1.16,13.71-2.11,3.02-8.15,7.76-9.64,10.32-1.02,1.74-.74,2.42-.12,4.18,2.04,5.86,20.47,23.15,26.48,24.09,7.77,1.22,11.85-7.58,18.47-10.72,8.71-4.13,12.6-1.06,19.4,4.14,9.33,7.13,24.78,19.56,20.64,32.58-7.29,22.93-39.55,22.15-58.08,16.16-34.6-11.18-83.79-59.75-78.49-98.83,1.49-10.99,12.95-24.81,24.29-26.29h0ZM143.23,204.65c-7.24,1.02-15.9,12.02-16.99,19-4.7,30.19,33.79,69.98,58.39,83.03,15.94,8.47,45.36,16.96,58.56-.03,4.36-5.63,4.02-8.17-.31-13.64-2.58-3.26-17.54-17.31-20.81-17.84-6.49-1.07-15.52,14.46-24.93,13.72-10.44-.82-36.4-24.52-37.72-34.85-.16-1.22-.21-2.69-.02-3.9.92-5.69,15.08-13.18,12.98-19.7-.94-2.91-14-16.3-17.01-18.94-3.21-2.83-7.69-7.47-12.15-6.85Z"/>
  <path d="M179.06,164.78c2.23-.26,11.31,2.26,13.91,3.12,18.09,6.03,33.06,21.61,38.73,39.8,1.06,3.4,5.19,19.09-1.21,18.46-5.06-.49-3.93-9.47-4.91-13.68-4.2-17.93-19.94-34.09-37.75-38.77-2.89-.76-9.03-.98-10.85-2.45-2.81-2.27-.82-6.15,2.09-6.48Z"/>
  <path d="M176.15,182.71c2.26-2.26,12.7,1.18,15.59,2.39,10.99,4.57,20.22,15.63,23.68,26.9,1.01,3.28,4.32,14.47-1.72,14.31-4.72-.14-3.78-6.97-4.64-10.61-2.76-11.64-12.58-21.79-23.91-25.34-2.82-.89-9.4-.84-9.85-4.17-.12-.91.21-2.83.85-3.47Z"/>
  <path d="M175.49,199.36c4.2-3.98,16.98,5.82,19.79,9.47,2.81,3.66,9.6,18.19,1,17.7-3.81-.21-2.9-5.09-4.21-8.5-1.58-4.07-5.42-8.7-9.43-10.53-1.89-.86-6.3-1.45-7.36-2.63-1.31-1.44-1.14-4.24.21-5.53h0Z"/>
  <path d="M298.25,266.56c13.6-2.79,15.36,15.66,3.67,17.02-10.48,1.22-13.13-15.09-3.67-17.02Z"/>
  <path d="M342.79,268.63c7.46,7.46-3.23,20.85-12.08,12.41-8.7-8.31,4.31-20.17,12.08-12.41Z"/>
  <path d="M326.2,124.82c14.81-3.06,15.31,19.39.56,17.1-9.17-1.42-8.97-15.36-.56-17.1Z"/>
  <path d="M358.14,124.81c13.25-2.72,15.27,14.86,5.02,16.99-12.95,2.7-14.55-15.03-5.02-16.99Z"/>
  <path d="M290.01,126.89c8.96-8.96,22.18,6.79,11.43,13.76-9.23,5.97-18.63-6.56-11.43-13.76Z"/>
</svg>