<?xml version="1.0" encoding="UTF-8"?>
<svg id="Capa_1" data-name="Capa 1" xmlns="http://www.w3.org/2000/svg" viewBox="0 0 512 512">
  <path d="M238.19,13.39c107.49-5.79,207.57,53.46,249.53,152.72,41.91,99.15,9.71,216.99-75.79,281.15-124.43,93.36-302.57,57.26-376.67-79.83C-50.32,209.08,62.22,22.87,238.19,13.39ZM252.03,18.23c-193.98-.1-312.42,215.05-193.85,376.08,103.09,139.99,321.44,130.41,410.41-19.08,91.24-153.33-19.2-342.53-191.86-356.51l-24.7-.49Z"/>
  <path d="M164.3,326.59c2.99-36.86,12.29-84.61,49.56-101.6,4.59-2.09,9.51-3.2,14.08-5.29-13.39-8.95-21.14-24.84-22.17-40.79-1.56-24.47,1.85-46.01,24.3-59.47,34.69-20.8,77.46,2.27,80.89,42.16,1.59,18.59.45,36.57-12.47,51.17-.98,1.11-7.82,6.46-6.9,7.29,11.95,1.1,25.13,6.59,33.82,14.95,1.77,1.7,6.72,9.02,8.03,9.27l97.72.52,2.9,4.02-12.41,78.48h30.1c1.7,0,4.83,3.2,5.15,5.23.57,3.66.55,22.71-.29,25.93-.45,1.71-3.26,4.82-4.86,4.82h-17.64v40.47c0,2.15-7.84,11.31-9.69,13.49v-52.93l-1.04-1.04H78.51l-.7,41.51-9.56-14.36c.27-7.55,1.48-17.33.6-24.77-.11-1.01-.08-1.78-1.07-2.39h-16.6c-.42,0-3.67-2.13-4.15-2.78-2.88-3.95-.91-9.11-1.02-13.51-.23-9.63-3.9-21.46,11.03-19.68v-23.87c0-.69,2.42-3.11,3.11-3.11h10.03v-19.37h-10.03c-.65,0-3.91-2.63-3.79-3.83l.13-30.28c2.67-4.84,8.4-2.91,13-3.26v-19.37c-2.99.14-12.02.08-13.01-3.24.56-9.31-1.22-20.56-.15-29.63.42-3.58,1.8-4.21,5.17-4.52,25.02-2.3,53.53,1.8,78.91.02,1.51-.33,4.48,1.84,4.48,3.13v25.25c5.27,1.97,11.58-2.58,14.92,3.42l.29,30.12c.06.94-2.85,3.82-3.1,3.82h-12.1l.69,19.38h12.1c2.78,0,3.68,5.82,3.83,7.93.43,5.86.69,18.63-.09,24.18-.24,1.74-1.83,5.25-3.74,5.25h-12.1c.92,4.59-.08,11.38.69,15.57.14.77.35,1.29,1.04,1.73h16.95l.02-.02ZM250.61,122.68c-53.41,7.25-44.04,107.11,16.24,95.8,30.58-5.73,37.6-33.55,32.86-60.88-4.13-23.82-25.32-38.16-49.11-34.94h0ZM135.24,195.83h-69.19v18.68l69.19.69v-19.38ZM150.46,224.89c-4.3.61-8.71-.56-12.77-.72-12.5-.49-24.94.84-37.42.76-5.85-.04-12.61-1.47-18.68-.76-1.01.12-1.78.08-2.39,1.07v17.3l1.04,1.04h70.22v-18.68ZM318.58,244.27c-.54-2.32-4.3-5.22-6.28-6.53-16.93-11.22-38.14-7.84-57.06-7.97-15-.1-25.54-1.4-39.52,6.07-31.31,16.74-37.06,58.99-41.05,90.75h99.28c1.05-.86,1.24-2.09,1.54-3.31,5.71-23.19,6.9-49.52,12.27-72.83.41-1.79,2.14-6.19,4.19-6.19h26.64ZM135.24,253.26h-69.19v18.68h69.19v-18.68ZM423.05,254.64h-124.88l-.91,1.17-11.86,68.46c-.32.73.48,2.32,1.01,2.32h124.88l11.76-71.95ZM151.16,280.93h-70.57v19.37h70.57v-19.37ZM135.94,309.3h-69.19v17.3h69.19v-17.3ZM447.27,336.97l-391.58-.69v17.3h391.58v-16.6Z"/>
  <path d="M366.17,90.86c36.02-3.82,66.13,25.63,57.95,62.1-8.37,37.33-56.58,50.64-85.14,26.28-33.93-28.93-16.35-83.77,27.19-88.38ZM371.72,100.56c-19.55.66-38.2,16.16-39.98,36.14-3.24,36.43,38.43,57.81,67.04,36.59,32.15-23.84,12.96-74.07-27.06-72.73Z"/>
  <path d="M382.23,450.43c-4.31,4.56-10.36,9.23-16.93,9.71l-221.45.02c-5.61-.56-12.89-6.01-16.92-9.72h255.29Z"/>
  <path d="M203.74,68.53c3.26-1.01,5.09-4.97,8.69-5.51,2.53-.38,5.04.22,6.43,2.49l8.18,31.84c.13,5.28-7.69,8.07-10.47,3.65-1.82-2.89-4.94-19.96-5.92-20.72-4.31,2.16-11.61,11.81-15.81,4.4-1.56-2.76-3.34-14.84-4.03-18.8-.5-2.84-3.15-16.51-2.49-17.92,1.1-2.4,10.33-5.64,12.04-3.38s2.15,22.59,3.4,23.93h0Z"/>
  <path d="M305.44,69.22c8.46,1.65,18.41,2.15,10.36,12.78-3.54,4.69-14.43,17.24-18.66,20.78-5.43,4.54-12.85,2.13-10.77-4.52,1.24-3.96,14.18-14.99,14.23-17.61-6.1-2.51-15.95-.57-12.61-10.54.95-2.84,12.97-17.32,15.72-20.26,3.19-3.42,4.31-5.08,9.54-3.98,13.81,2.9-3.94,17.06-7.12,21.62-.41.59-.96.69-.68,1.74h0Z"/>
  <path d="M243.52,75.45c-4.36-.76-4.22-5.74-3.74-9.28.42-3.09,8.22-21.83,10.34-23.55,2.12-1.72,8.88-3.58,10.88-1.59,3.55,3.54-4.67,16.67-4.69,21.28,5.35,1.25,14.62-1.13,13.81,7.19-.24,2.51-11.01,24.28-12.97,27.2-1.96,2.92-4.79,4.08-8.02,2.2-6.5-3.78,4.36-17.76,4.42-23.44-3.06-.37-7.13.51-10.03,0h0Z"/>
  <path d="M372.36,109.48c9.69-1.96,6.8,14.91,7.07,20.31.17,3.27.99,6.7,1.06,10.01,2.85,2.48,11.63,5.46,12.88,8.62,1.42,3.58-1.98,7.69-5.77,7.17-1.13-.16-14.48-7.53-15.72-8.55-4.46-3.69-2.67-20.81-2.76-26.98-.05-3.33-2.28-9.45,3.25-10.57h0Z"/>
</svg>