<?xml version="1.0" encoding="UTF-8"?>
<svg id="Capa_1" data-name="Capa 1" xmlns="http://www.w3.org/2000/svg" viewBox="0 0 512 512">
  <path d="M173.28,284.57c12.24-8.32,18.7-21.81,18.71-35.59,0-.95-.03-1.9-.09-2.85-.03-.52-.08-1.05-.14-1.57-.09-.91-.2-1.8-.35-2.71-.16-.95-.34-1.89-.56-2.83-.22-.94-.47-1.88-.74-2.81-2.52-8.38-7.6-16.29-15.41-22.57-.54-.43-1.07-.83-1.6-1.23l-.5-.36c-.38-.28-.77-.55-1.15-.81-.19-.13-.38-.26-.57-.38-.4-.26-.79-.51-1.18-.75-.18-.1-.34-.21-.52-.32-.56-.33-1.11-.66-1.68-.97-.06-.04-.14-.07-.21-.11-.49-.28-1-.53-1.51-.79-.2-.1-.4-.19-.6-.29-.39-.19-.77-.36-1.17-.54-.22-.1-.43-.19-.65-.28-.4-.18-.8-.34-1.2-.5-.19-.08-.39-.16-.58-.23-.58-.22-1.16-.44-1.74-.64-.14-.05-.28-.09-.42-.14-.46-.15-.92-.3-1.39-.44-.23-.07-.45-.14-.67-.19-.39-.11-.77-.21-1.16-.31-.23-.06-.47-.12-.71-.18-.41-.1-.82-.19-1.23-.28-.2-.04-.4-.09-.59-.13-.59-.12-1.19-.23-1.79-.32-.16-.03-.31-.05-.47-.07-.46-.07-.92-.14-1.38-.19-.23-.03-.45-.05-.67-.08-.41-.04-.81-.08-1.21-.12-.22-.02-.45-.04-.67-.05-.45-.03-.91-.06-1.36-.08-.17,0-.32-.02-.49-.03-.61-.02-1.22-.04-1.84-.04h-.36c-.55,0-1.09.02-1.65.04-.19,0-.38.01-.56.03-.55.03-1.1.06-1.65.1-.11.01-.22.02-.34.03-.66.06-1.32.13-1.97.21-.14.02-.28.04-.42.06-.54.07-1.07.15-1.6.24l-.48.08c-1.31.23-2.61.51-3.9.84-.14.04-.28.07-.42.11-.53.14-1.06.29-1.59.45-.13.04-.24.07-.37.11-.65.2-1.29.42-1.92.64-.03,0-.05.02-.07.03-.6.21-1.19.44-1.78.67-.14.05-.27.1-.4.16-.55.22-1.09.45-1.62.69-.07.04-.14.06-.21.09-.62.28-1.22.57-1.83.88-.08.04-.16.08-.24.13-.52.27-1.03.54-1.54.82-.12.07-.24.14-.36.2-1.17.66-2.3,1.36-3.4,2.11-.1.07-.2.14-.3.21-.46.32-.92.65-1.37.98-.1.07-.2.15-.31.23-1.06.8-2.09,1.65-3.08,2.54-.11.1-.21.19-.33.29-.42.39-.83.78-1.23,1.18-.07.07-.15.14-.22.21-.47.47-.94.96-1.39,1.45-.07.06-.13.14-.19.21-.39.42-.76.85-1.13,1.29-.1.12-.2.24-.3.36-.4.47-.77.96-1.15,1.45-.03.04-.06.07-.08.11-.4.53-.79,1.08-1.17,1.63-.08.12-.17.24-.24.38-.3.44-.58.9-.87,1.35-.09.14-.18.27-.26.41-.34.58-.68,1.16-1.01,1.76,0,.01,0,.02-.01.03-.31.58-.6,1.17-.89,1.76-.08.16-.16.33-.23.49-.22.48-.44.98-.66,1.47-.06.14-.13.29-.19.43-.26.63-.51,1.26-.74,1.9-.04.12-.08.24-.13.36-.19.53-.36,1.07-.53,1.61-.06.19-.12.39-.17.58-.17.56-.32,1.12-.46,1.69-.03.12-.06.23-.09.35-.17.68-.31,1.36-.45,2.05-.04.18-.07.36-.1.55-.1.54-.19,1.08-.28,1.63-.03.2-.06.41-.09.63-.09.71-.18,1.43-.25,2.15v.02c-1.36,15.26.64,31.98,5.11,48.86.7,2.67,1.47,5.33,2.3,8,.27.89.56,1.78.84,2.67,1.44,4.44,3.04,8.88,4.78,13.28.7,1.76,1.41,3.52,2.15,5.26,1.48,3.49,3.05,6.96,4.69,10.39,12.33,25.71,29.05,49.17,46.6,65.15,0,0,0,0,.01,0,.85.77,1.72,1.54,2.61,2.31.13.11.26.22.39.34.84.73,1.71,1.46,2.59,2.17.16.14.33.28.49.42.88.71,1.77,1.43,2.68,2.13.15.12.3.23.45.35.95.73,1.9,1.46,2.88,2.19.04.03.09.06.13.09.96.71,1.93,1.41,2.92,2.11.15.1.28.2.43.3.96.68,1.95,1.36,2.94,2.03.2.13.39.27.59.4.98.66,1.98,1.32,2.98,1.96.19.12.38.24.57.36,1.04.67,2.09,1.33,3.15,1.98.09.06.17.11.27.16,1.03.63,2.07,1.26,3.13,1.88.16.09.31.19.47.28,1.06.61,2.13,1.23,3.21,1.83.22.13.44.25.67.38,1.06.59,2.13,1.18,3.21,1.75.22.12.45.23.67.35,1.11.58,2.23,1.17,3.36,1.74.13.07.27.14.4.2,1.09.54,2.18,1.08,3.28,1.61.17.08.33.17.5.24,1.13.55,2.27,1.08,3.41,1.6.25.11.49.22.74.34,1.13.51,2.26,1.01,3.39,1.51.24.11.49.21.74.32,1.16.49,2.33.99,3.5,1.47.17.07.33.14.49.2,1.14.47,2.28.92,3.42,1.36.16.06.31.12.47.19,1.19.46,2.38.91,3.58,1.34.24.09.49.18.73.27,1.17.43,2.35.84,3.52,1.24.25.08.51.17.77.26,1.19.41,2.4.8,3.6,1.19.18.06.36.11.54.17,1.18.37,2.36.73,3.56,1.08.13.04.25.08.38.11,1.23.36,2.46.71,3.7,1.05.23.07.47.13.7.19,1.2.32,2.4.63,3.6.93.24.06.5.12.74.18,1.22.3,2.44.58,3.66.85.18.04.36.08.55.12,1.23.27,2.45.53,3.68.77.08.02.17.04.24.06,1.26.24,2.52.47,3.77.69.21.04.43.07.64.11,1.21.21,2.42.4,3.63.57.23.03.47.07.71.1,1.21.17,2.43.33,3.65.48.18.02.36.04.54.06,1.26.15,2.51.28,3.75.4.03,0,.06,0,.09,0,1.26.11,2.52.21,3.77.29.18.02.38.03.56.04,1.2.07,2.39.13,3.58.17.22,0,.44.01.67.02,1.19.04,2.37.06,3.55.06h1.1c.35,0,.71,0,1.06-.01.4,0,.81-.02,1.2-.03.35,0,.7-.01,1.05-.03.4-.01.79-.03,1.18-.05.35-.02.71-.03,1.06-.05.4-.02.78-.05,1.17-.07.35-.02.7-.04,1.05-.07.39-.03.78-.07,1.18-.09.34-.03.68-.05,1.02-.08.41-.04.83-.09,1.23-.13.31-.03.64-.06.95-.1.47-.05.94-.11,1.4-.17.26-.03.51-.06.76-.09.71-.1,1.43-.2,2.14-.31,1.93-.31,3.82-.7,5.67-1.19,2.46-.65,4.84-1.44,7.15-2.39.57-.23,1.15-.48,1.71-.73,9.02-4.04,16.61-10.24,22.31-17.74.71-.94,1.4-1.9,2.04-2.86.33-.49.65-.98.95-1.48.93-1.49,1.79-3.02,2.57-4.58.78-1.56,1.49-3.16,2.14-4.78,1.69-4.33,2.84-8.85,3.38-13.45.14-1.15.23-2.31.3-3.46.61-12.17-3.06-24.71-12.13-35.59,0,0-.01-.02-.01-.02-.38-.45-.76-.89-1.15-1.33-.13-.14-.24-.27-.37-.41-.28-.31-.56-.61-.84-.91-.14-.15-.28-.29-.42-.43-.3-.31-.6-.61-.91-.92-.1-.1-.21-.21-.32-.32-.41-.4-.83-.79-1.26-1.17-.08-.07-.16-.14-.24-.21-.35-.31-.7-.62-1.05-.92-.14-.11-.27-.22-.41-.34-.31-.26-.63-.51-.94-.76-.14-.1-.28-.21-.41-.32-.39-.3-.77-.58-1.16-.87-.06-.05-.12-.09-.18-.14-.45-.32-.92-.65-1.38-.96-.11-.07-.22-.15-.33-.22-.35-.23-.71-.46-1.07-.69-.14-.09-.28-.18-.42-.27-.35-.21-.71-.42-1.07-.63-.12-.07-.23-.14-.36-.21-.96-.54-1.92-1.05-2.9-1.52-.14-.06-.26-.13-.4-.19-.36-.17-.73-.34-1.1-.51-.14-.07-.29-.13-.43-.19-.4-.17-.8-.34-1.21-.51-.09-.04-.19-.08-.28-.11-.51-.2-1.01-.39-1.52-.57-.08-.03-.16-.05-.24-.09-.42-.15-.84-.29-1.27-.42-.15-.05-.29-.09-.44-.14-.38-.12-.76-.23-1.13-.33-.15-.04-.29-.09-.43-.12-.46-.13-.94-.26-1.4-.36-.04-.01-.08-.02-.12-.04-.52-.13-1.03-.24-1.55-.34-.13-.03-.27-.05-.4-.08-.39-.08-.77-.16-1.15-.22-.17-.03-.33-.06-.49-.09-.38-.07-.76-.12-1.14-.18-.14-.02-.29-.04-.43-.06-.52-.07-1.03-.14-1.55-.19-.06,0-.11,0-.17-.01-.46-.05-.93-.09-1.39-.12-.16-.02-.32-.02-.48-.04-.36-.02-.73-.04-1.09-.06-.18,0-.35-.02-.52-.02-.4-.02-.8-.02-1.2-.03h-.82c-.48,0-.98.01-1.46.03-.22,0-.44.02-.66.03-.42.02-.84.05-1.27.07-.22.02-.46.04-.68.06-.43.04-.86.08-1.29.13-.2.02-.41.05-.61.07-.57.06-1.13.15-1.68.23-.07.02-.14.02-.2.03-.63.1-1.25.21-1.88.34-.17.03-.34.07-.52.11-.45.09-.9.19-1.35.3-.21.05-.42.1-.64.15-.42.11-.84.21-1.25.33-.2.06-.41.11-.61.17-.45.14-.91.27-1.35.41-.16.05-.31.1-.47.15-.61.2-1.22.42-1.82.64-.04.01-.08.03-.12.05-.55.2-1.1.43-1.66.65-.17.07-.34.15-.51.22-.42.18-.84.36-1.26.56-.19.09-.38.18-.57.27-.41.19-.82.4-1.22.6-.17.09-.34.18-.51.26-.48.26-.96.51-1.43.78-.09.05-.17.09-.26.14-.56.32-1.13.66-1.68,1.01-.1.06-.19.13-.29.19-.44.28-.89.56-1.32.86-.16.1-.32.22-.48.33-.37.26-.75.52-1.11.8-.17.12-.33.24-.49.36-.38.29-.75.58-1.12.88-.14.1-.28.21-.41.32-1.01.82-1.98,1.69-2.93,2.59-.12.11-.24.23-.35.35-.34.34-.69.68-1.03,1.04-.15.15-.29.31-.44.46-.31.33-.62.67-.93,1.01-.14.16-.28.31-.42.48-.33.38-.65.77-.97,1.16-.1.12-.2.24-.3.36-.41.52-.82,1.05-1.21,1.59-.05.07-.09.14-.15.21-.34.47-.67.94-.99,1.43-.12.18-.23.35-.34.54-.26.39-.51.78-.74,1.17-.13.2-.25.41-.37.61-.23.39-.46.79-.69,1.2-.11.2-.22.39-.33.59-.27.49-.52.98-.77,1.48-.06.12-.12.23-.18.34-.3.62-.59,1.24-.87,1.88-.07.18-.15.35-.22.52-.2.47-.4.94-.58,1.42-.09.23-.18.47-.27.71-.16.43-.32.87-.47,1.31-.08.24-.17.49-.25.74-.16.46-.3.93-.44,1.4-.07.23-.14.45-.2.67-.19.69-.38,1.38-.55,2.08,0,.01,0,.02,0,.03-2.27-.54-4.52-1.19-6.75-1.9-.72-.23-1.43-.46-2.15-.71-1.44-.5-2.88-1.03-4.3-1.58-1.24-.49-2.47-1.02-3.7-1.56-1.32-.58-2.65-1.18-3.95-1.82-.84-.41-1.67-.83-2.5-1.26-1.66-.86-3.3-1.76-4.91-2.71-14.58-8.48-27.55-20.16-37.85-33.2-1.71-2.18-3.36-4.39-4.93-6.63-.48-.69-.96-1.39-1.43-2.09-7.13-10.55-13.61-22.86-15.9-35.28,2.12-.7,4.14-1.53,6.05-2.46,1.91-.94,3.7-1.99,5.39-3.13l-.02-.09Z"/>
  <path d="M207.94,180.97c.08,1.16.17,2.32.29,3.47.01.11.02.23.03.34.12,1.15.26,2.3.41,3.45.08.6.17,1.21.27,1.81.47,3.03,1.08,6.04,1.82,9.05.3,1.2.62,2.4.96,3.59.17.6.35,1.2.53,1.8.37,1.2.76,2.39,1.17,3.57,3.91,11.28,9.89,22.24,18.17,32.48.72.9,1.46,1.78,2.21,2.65.24.28.48.55.73.82.51.59,1.03,1.17,1.55,1.74.29.32.6.64.9.95.48.51.96,1.03,1.44,1.53.32.33.65.65.98.97.47.47.95.94,1.43,1.41.34.32.68.65,1.03.96.48.45.96.9,1.44,1.34.34.31.7.63,1.04.93.49.43.98.86,1.48,1.29.35.3.7.6,1.06.89.51.42,1.01.83,1.53,1.24.35.28.7.57,1.06.84.53.41,1.06.82,1.59,1.22.35.26.69.52,1.04.78.56.41,1.13.81,1.7,1.21.32.23.66.46.98.69.62.43,1.23.83,1.86,1.24.29.19.58.39.86.57.74.47,1.48.94,2.23,1.39.18.1.35.22.53.33,1.89,1.14,3.81,2.2,5.74,3.22.21.1.41.2.62.31.76.39,1.52.77,2.28,1.14.3.15.6.29.91.43.67.32,1.35.64,2.03.94.34.16.69.31,1.04.46.64.28,1.28.56,1.92.83.38.15.74.3,1.11.45.63.25,1.25.49,1.89.74.39.15.77.29,1.16.43.63.23,1.25.46,1.88.68.39.14.78.27,1.18.41.63.21,1.26.42,1.88.61.39.13.79.26,1.19.38.64.19,1.27.38,1.92.56.39.11.79.23,1.18.33.66.18,1.32.35,1.97.52.38.09.76.19,1.13.29.7.17,1.4.33,2.1.49.34.08.68.16,1.02.23.8.17,1.61.33,2.42.49.23.05.47.1.71.14,1.06.2,2.11.38,3.18.55.05,0,.09.02.14.02,1.01.16,2,.3,3.01.43.34.05.67.08,1.01.12.71.08,1.43.17,2.14.24.41.04.82.07,1.23.11.65.06,1.29.12,1.93.17.44.03.89.06,1.32.08.62.04,1.23.08,1.85.11.46.02.91.04,1.37.05.6.02,1.2.04,1.8.05.47,0,.93.02,1.4.02h1.67c.64,0,1.28-.02,1.91-.03.51-.02,1.01-.03,1.53-.04.64-.02,1.29-.05,1.93-.08.5-.03.99-.06,1.49-.09.66-.05,1.32-.1,1.98-.15.47-.04.95-.07,1.43-.12.69-.07,1.39-.15,2.08-.23.44-.05.88-.09,1.31-.15.77-.1,1.55-.21,2.31-.32.36-.06.72-.1,1.08-.16,1.08-.17,2.18-.35,3.25-.55.04,0,.08-.01.11-.02,1.14-.21,2.27-.44,3.39-.68.26-.05.5-.12.76-.17.86-.19,1.72-.4,2.58-.6.36-.09.72-.19,1.08-.29.74-.19,1.49-.4,2.23-.6.4-.11.8-.23,1.2-.35.7-.2,1.4-.41,2.09-.63.41-.14.83-.27,1.24-.41.67-.22,1.35-.45,2.02-.68.42-.15.84-.3,1.26-.45.66-.24,1.32-.48,1.97-.74.42-.16.84-.32,1.26-.49.66-.26,1.3-.53,1.94-.8.41-.18.83-.35,1.24-.54.64-.28,1.29-.57,1.93-.87.4-.19.81-.36,1.2-.56.65-.31,1.3-.63,1.95-.95.39-.19.77-.38,1.15-.57.67-.34,1.32-.69,1.98-1.05.35-.19.71-.38,1.07-.58.7-.39,1.38-.79,2.07-1.18.31-.18.62-.35.92-.54.78-.46,1.55-.94,2.32-1.44.2-.13.42-.25.63-.39,1.97-1.26,3.9-2.59,5.79-3.99.18-.13.36-.27.54-.41.74-.56,1.49-1.13,2.23-1.71.29-.23.58-.47.86-.7.61-.5,1.23-1,1.83-1.52.33-.28.65-.57.98-.85.55-.48,1.11-.97,1.66-1.46.34-.31.68-.64,1.03-.96.52-.48,1.03-.97,1.54-1.46.35-.34.7-.69,1.04-1.03.49-.49.98-.98,1.46-1.48.34-.36.69-.73,1.04-1.1.46-.49.93-1.01,1.39-1.52.34-.38.68-.77,1.02-1.16.45-.52.9-1.05,1.34-1.57.33-.4.67-.79.99-1.2.44-.54.86-1.08,1.3-1.64.32-.41.64-.82.95-1.23.42-.57.84-1.14,1.26-1.72.3-.41.61-.82.9-1.24.42-.6.84-1.22,1.26-1.83.27-.41.55-.8.82-1.22.45-.68.89-1.38,1.32-2.08.22-.36.44-.7.66-1.06.64-1.05,1.25-2.1,1.85-3.17.02-.03.03-.05.04-.07.65-1.17,1.27-2.33,1.88-3.5.19-.36.36-.73.54-1.09.41-.81.81-1.61,1.19-2.42.21-.45.41-.91.61-1.36.33-.72.66-1.44.97-2.17.21-.49.41-.98.6-1.47.29-.69.57-1.38.84-2.07.2-.52.38-1.03.57-1.55.24-.67.49-1.34.73-2.02.18-.52.34-1.06.52-1.58.22-.67.44-1.33.64-1.99.17-.54.31-1.07.47-1.61.19-.66.39-1.32.56-1.98.15-.54.28-1.08.41-1.61.17-.66.33-1.32.49-1.97.13-.54.24-1.08.35-1.63.14-.66.29-1.32.41-1.97.11-.55.2-1.09.3-1.64.12-.66.23-1.31.34-1.97.08-.55.16-1.09.24-1.64.09-.66.18-1.31.27-1.97.07-.54.12-1.08.18-1.63.07-.66.14-1.31.2-1.96.05-.54.08-1.09.13-1.63.05-.66.09-1.32.13-1.97.03-.54.05-1.08.07-1.61.03-.66.05-1.32.06-1.97.01-.53.02-1.06.02-1.59,0-.66,0-1.32,0-1.98-.01-.52-.03-1.06-.04-1.58-.02-.66-.05-1.32-.08-1.98-.03-.53-.06-1.04-.09-1.57-.04-.66-.09-1.32-.15-1.98-.04-.52-.09-1.03-.14-1.55-.07-.67-.14-1.32-.21-1.98-.06-.51-.13-1.02-.19-1.53-.09-.66-.18-1.33-.28-1.98-.07-.5-.15-1-.24-1.5-.11-.66-.22-1.33-.34-1.99-.09-.49-.19-.97-.28-1.47-.13-.67-.27-1.33-.42-1.99-.1-.48-.21-.96-.33-1.44-.15-.67-.32-1.33-.48-1.99-.12-.47-.24-.94-.36-1.41-.18-.67-.36-1.33-.56-2-.14-.46-.27-.92-.4-1.37-.2-.67-.41-1.33-.63-2-.15-.45-.29-.89-.44-1.34-.22-.67-.46-1.34-.7-2.01-.15-.43-.31-.86-.46-1.3-.26-.67-.52-1.34-.78-2.02-.17-.42-.32-.84-.5-1.25-.28-.68-.56-1.35-.85-2.02-.17-.4-.34-.81-.52-1.2-.3-.68-.61-1.35-.93-2.04-.18-.38-.35-.76-.54-1.14-.33-.69-.68-1.37-1.02-2.05-.19-.36-.36-.72-.55-1.08-.36-.69-.74-1.39-1.11-2.07-.19-.34-.36-.68-.55-1.01-.4-.71-.81-1.4-1.21-2.09-.18-.31-.35-.63-.55-.94-.43-.72-.88-1.43-1.32-2.13-.18-.28-.35-.56-.53-.84-.47-.74-.96-1.46-1.45-2.19-.17-.24-.33-.49-.49-.73-.53-.77-1.07-1.52-1.61-2.27-.14-.2-.28-.4-.43-.59-.59-.81-1.2-1.6-1.82-2.4-.1-.14-.2-.27-.3-.4-.69-.88-1.39-1.74-2.11-2.6-.03-.04-.07-.08-.1-.12-4.54-5.45-9.59-10.48-15.1-15.01-.08-.07-.17-.14-.26-.2-.83-.68-1.66-1.34-2.52-2-.16-.13-.33-.24-.49-.38-.77-.59-1.55-1.17-2.34-1.74-.22-.16-.45-.31-.67-.47-.74-.52-1.48-1.05-2.23-1.55-.27-.18-.53-.35-.8-.53-.71-.48-1.44-.95-2.17-1.41-.3-.19-.61-.37-.92-.56-.7-.43-1.41-.86-2.12-1.29-.33-.19-.67-.39-1.01-.57-.69-.4-1.39-.79-2.09-1.17-.36-.19-.72-.39-1.09-.57-.69-.36-1.38-.72-2.07-1.08-.39-.19-.77-.38-1.16-.56-.69-.33-1.37-.67-2.06-.98-.41-.19-.82-.36-1.23-.55-.68-.31-1.36-.6-2.06-.9-.43-.18-.86-.35-1.3-.53-.68-.28-1.35-.55-2.05-.81-.45-.17-.91-.34-1.35-.51-.68-.25-1.36-.49-2.04-.73-.47-.16-.94-.32-1.41-.47-.68-.23-1.35-.45-2.04-.65-.48-.15-.98-.3-1.46-.43-.68-.2-1.35-.4-2.04-.58-.51-.14-1.01-.27-1.52-.4-.68-.17-1.35-.34-2.03-.5-.52-.12-1.05-.24-1.57-.35-.68-.15-1.35-.29-2.03-.42-.54-.11-1.08-.21-1.62-.31-.68-.13-1.35-.24-2.03-.35-.55-.09-1.11-.17-1.66-.26-.68-.1-1.35-.19-2.04-.28-.57-.07-1.14-.14-1.71-.21-.67-.07-1.35-.15-2.03-.2-.58-.05-1.17-.11-1.76-.16-.67-.05-1.34-.09-2.02-.13-.6-.03-1.19-.07-1.8-.09-.67-.03-1.34-.05-2.01-.07-.61-.01-1.23-.03-1.85-.03-.79,0-1.58,0-2.37,0-.38,0-.77,0-1.14.02-1.21.03-2.41.07-3.62.14h-.02c-7.17.4-14.07,1.47-20.68,3.11-.77.19-1.54.4-2.31.6-1.63.45-3.23.93-4.82,1.44-.82.27-1.63.54-2.43.82-3.8,1.33-7.47,2.85-11.03,4.56-2.4,1.15-4.73,2.39-7.02,3.7-.6.34-1.19.69-1.78,1.05-3.9,2.34-7.62,4.93-11.15,7.7-.2.16-.39.31-.59.47-.79.63-1.56,1.26-2.32,1.9-.14.12-.28.23-.41.35-2.7,2.32-5.29,4.76-7.75,7.3-.84.87-1.67,1.76-2.47,2.65-.59.65-1.17,1.32-1.74,1.99-.42.49-.84.99-1.26,1.49-.48.59-.96,1.17-1.44,1.76-1.57,1.98-3.08,4.01-4.51,6.07-.69.99-1.35,1.99-2.01,2.99-.32.51-.65,1.01-.96,1.52-.63,1.02-1.25,2.05-1.85,3.08-1.51,2.59-2.9,5.25-4.19,7.95-.52,1.08-1.01,2.17-1.5,3.27-.47,1.1-.94,2.2-1.39,3.31-.67,1.67-1.3,3.35-1.89,5.05-.97,2.82-1.84,5.7-2.58,8.59-.15.58-.29,1.17-.43,1.74-.42,1.75-.8,3.51-1.13,5.27-.33,1.77-.63,3.55-.88,5.33-.66,4.76-.99,9.57-1,14.4h0c0,1.2.01,2.39.05,3.58v.12c.04,1.18.1,2.38.18,3.56l-.02.04ZM221.03,172.91c0-.82.02-1.65.05-2.48.02-.35.03-.71.04-1.06.03-.77.08-1.55.13-2.33.02-.33.04-.65.07-.98.09-1.09.18-2.18.3-3.29,1.4-12.71,5.63-25.04,12.02-36.2.34-.58.68-1.17,1.03-1.75.7-1.16,1.42-2.31,2.16-3.44,1.85-2.83,3.85-5.58,5.99-8.22.85-1.06,1.72-2.09,2.62-3.12,1.78-2.04,3.65-4.01,5.59-5.9.02-.02.05-.05.06-.07.95-.93,1.92-1.83,2.91-2.73,1.42-1.28,2.88-2.51,4.36-3.7.76-.61,1.52-1.2,2.3-1.79,2.02-1.53,4.1-2.99,6.23-4.36.93-.59,1.86-1.16,2.8-1.72,1.11-.67,2.23-1.31,3.37-1.92,2.05-1.11,4.14-2.15,6.26-3.1,1.23-.55,2.46-1.07,3.72-1.57,7.51-2.97,15.42-4.93,23.56-5.67h.01c.84-.07,1.67-.14,2.5-.2.29-.02.58-.04.87-.06.54-.03,1.08-.06,1.62-.09.34-.02.68-.03,1.02-.04.48-.02.97-.04,1.45-.05.35-.01.71-.02,1.05-.02.46,0,.93-.02,1.39-.02h.25c.33,0,.66.01.98.02.35,0,.71,0,1.06.01.43.01.84.02,1.27.04.34.01.68.02,1.02.03.43.02.85.04,1.28.07.33.02.66.03.99.05.43.03.86.06,1.3.09.32.03.64.05.95.07.45.04.9.09,1.35.13.29.03.58.06.87.09.5.05,1,.11,1.49.17.24.03.48.05.71.09.73.09,1.45.19,2.17.3.17.03.33.06.49.08.56.08,1.11.17,1.66.27.29.05.57.11.86.16.42.08.85.15,1.27.24.32.06.64.13.95.2.39.08.77.16,1.16.24.33.07.66.15.98.22.36.09.73.17,1.1.26.33.08.66.17.99.25.35.09.71.18,1.06.28.34.09.67.18,1.01.28.35.09.69.19,1.03.29.34.1.67.2,1.01.31.33.1.67.2,1.01.31.34.1.67.22,1.01.32.33.11.65.21.98.32.34.11.67.23,1,.35.32.11.64.23.95.34.34.12.67.25,1.01.38.31.12.61.23.93.35.33.14.67.27,1.01.4.31.12.6.24.91.36.33.14.67.28.99.42.3.13.59.25.89.39.33.15.67.29.99.44.29.14.58.26.86.4.33.15.66.31.99.46.28.14.56.28.84.41.33.16.66.33.98.49.27.14.54.28.82.42.32.17.66.35.98.52.27.14.53.29.79.43.32.18.65.36.97.55.26.15.51.29.77.44.33.19.65.38.97.56.25.15.49.3.75.45.32.19.65.39.97.59.24.15.48.3.72.45.33.2.65.41.97.63.23.15.46.3.68.45.33.22.65.43.97.65.22.16.44.31.66.45.32.23.65.45.98.69.2.15.41.3.61.45.33.24.66.48.98.71.19.15.39.3.58.44.33.25.67.51,1,.77.18.14.35.28.53.42.34.27.68.54,1.02.82.16.13.31.26.46.38.36.29.71.58,1.07.89.12.1.24.2.36.31.38.32.76.65,1.13.97.07.06.13.12.2.18,3.27,2.9,6.32,6.01,9.14,9.29.06.06.1.11.16.18.34.41.69.81,1.03,1.22.07.08.15.18.22.27.32.39.64.79.96,1.18.08.1.18.22.27.32.3.39.6.77.9,1.16.1.13.19.25.29.38.29.38.57.77.86,1.15.1.14.21.27.31.41.28.38.55.76.82,1.15.1.15.2.29.3.43.27.38.54.76.79,1.15.1.15.2.3.3.45.26.39.51.77.77,1.16.1.16.2.31.3.46.24.39.49.77.74,1.16.1.16.2.32.3.48.24.39.47.78.71,1.17.1.16.19.32.29.48.23.39.46.79.69,1.18.09.16.18.32.28.48.23.4.45.8.67,1.2.08.17.18.32.27.49.22.4.43.81.65,1.21.08.16.17.32.25.48.21.41.42.82.63,1.23.08.16.16.32.24.48.21.42.41.83.61,1.25.07.16.15.31.22.47.2.42.4.84.59,1.27.07.16.14.31.21.47.19.43.39.86.57,1.3.07.15.13.3.19.44.19.45.38.89.56,1.33.06.14.11.29.17.42.19.45.36.91.54,1.37.06.13.1.26.15.39.18.47.35.94.53,1.41.04.11.08.23.13.34.18.49.35.98.53,1.47.03.09.06.18.09.28.18.51.35,1.03.52,1.55.02.06.04.12.06.18.18.55.35,1.1.52,1.66,0,.02,0,.02.01.03,1.64,5.4,2.83,10.93,3.55,16.51,0,.05.02.09.02.14.07.54.14,1.08.19,1.63.02.09.02.18.04.28.05.52.1,1.02.15,1.53.01.13.03.25.03.38.04.48.08.97.11,1.46.02.16.03.3.03.45.04.47.06.95.09,1.41,0,.17.02.33.03.5.02.46.04.92.05,1.38,0,.18.02.36.02.54.02.45.02.9.03,1.34,0,.19,0,.38,0,.57v1.92c0,.43-.01.86-.03,1.3,0,.2-.01.41-.02.61-.02.43-.04.86-.06,1.29,0,.21-.02.42-.03.63-.02.43-.05.84-.07,1.27-.02.21-.03.43-.05.65-.03.42-.07.84-.1,1.25l-.06.66c-.04.41-.08.82-.13,1.24-.03.22-.05.44-.07.67-.05.41-.09.82-.15,1.23-.03.22-.06.44-.09.67-.05.41-.11.82-.17,1.23-.03.22-.07.45-.1.67-.07.41-.13.82-.2,1.22-.04.22-.08.44-.12.67-.07.4-.15.81-.23,1.21-.04.23-.08.45-.13.67-.08.41-.17.81-.26,1.22-.05.22-.1.44-.15.66-.09.41-.18.81-.28,1.22-.06.22-.11.44-.16.66-.1.41-.2.81-.3,1.21-.05.21-.11.42-.17.64-.1.41-.22.82-.33,1.22-.06.21-.12.41-.18.62-.12.41-.24.82-.36,1.23-.06.19-.12.39-.18.58-.13.43-.27.84-.41,1.27-.06.17-.12.34-.17.52-.15.44-.3.88-.45,1.31-.05.14-.1.27-.15.41-.17.48-.34.95-.53,1.43,0,.01-.01.03-.01.04-.84,2.23-1.8,4.43-2.83,6.6-.07.16-.15.31-.22.47-.19.38-.38.76-.57,1.14-.1.21-.2.42-.32.63-.18.35-.36.7-.55,1.05-.13.23-.24.47-.38.7-.18.33-.36.67-.55,1-.14.24-.28.49-.42.74-.19.32-.37.64-.56.96-.16.25-.3.51-.45.77-.19.31-.38.63-.58.93-.16.26-.32.52-.49.78-.19.3-.39.6-.58.9-.17.26-.34.53-.51.79-.2.3-.4.59-.6.89-.18.27-.36.53-.55.79-.21.29-.41.58-.62.86-.19.27-.39.53-.58.79-.2.28-.42.56-.63.84-.2.27-.4.53-.6.79-.21.28-.43.55-.65.82-.21.27-.42.53-.64.79-.22.27-.44.54-.66.81-.22.27-.44.52-.66.78-.22.27-.46.53-.68.8l-.69.78c-.23.26-.46.53-.7.78-.24.26-.47.52-.71.77-.24.26-.48.52-.72.77-.24.26-.49.52-.74.77-.24.26-.49.5-.74.76-.25.25-.51.51-.78.76-.25.25-.51.49-.76.73-.27.25-.54.51-.81.75-.26.24-.52.48-.78.72-.28.26-.55.5-.83.74-.27.23-.53.46-.79.7-.29.24-.57.49-.86.74-.27.22-.54.46-.81.68-.3.24-.6.49-.9.74-.27.22-.54.44-.82.67-.31.24-.62.48-.93.72-.28.21-.56.43-.83.65-.32.24-.64.48-.97.71-.28.21-.56.42-.85.64-.33.24-.67.48-1.01.72-.29.2-.57.41-.85.6-.35.23-.7.47-1.05.71l-.86.58c-.36.24-.74.48-1.11.72-.28.18-.56.36-.84.54-.4.26-.81.49-1.2.74-.27.17-.53.33-.81.49-.45.27-.91.53-1.36.8-.23.13-.46.27-.69.41-.69.39-1.4.78-2.11,1.17-.99.54-2,1.06-3.01,1.56-.33.17-.67.32-1,.48-.68.33-1.35.66-2.03.97-.4.18-.79.35-1.19.53-.63.27-1.25.54-1.88.81-.42.18-.83.34-1.25.52-.61.24-1.22.48-1.83.72-.42.16-.84.32-1.27.47-.61.23-1.23.44-1.85.65-.41.14-.83.28-1.24.42-.65.21-1.3.41-1.94.6-.39.11-.77.24-1.16.34-.74.21-1.48.41-2.23.6-.29.08-.58.16-.88.23-1.04.26-2.07.51-3.1.73-.19.04-.39.07-.58.12-.84.18-1.69.34-2.53.49-.36.07-.74.13-1.1.19-.67.11-1.34.22-2.02.33-.41.06-.82.11-1.23.17-.63.08-1.27.17-1.89.24-.42.05-.85.09-1.28.13-.62.06-1.24.12-1.85.17-.43.04-.85.07-1.29.1-.63.04-1.25.07-1.88.11-.41.02-.82.04-1.23.05-.67.02-1.32.03-1.99.05-.37,0-.74.01-1.11.02h-.28c-.89,0-1.77-.02-2.65-.04-.18,0-.34-.01-.51-.02-.82-.03-1.64-.07-2.45-.11-.32-.02-.64-.04-.95-.06-.69-.05-1.39-.1-2.07-.17-.31-.03-.64-.05-.95-.08-.82-.08-1.65-.18-2.46-.28-.16-.02-.31-.03-.45-.05-.96-.13-1.93-.27-2.89-.42-.28-.05-.55-.09-.82-.14-.7-.11-1.4-.24-2.1-.38-.32-.06-.64-.13-.96-.19-.7-.14-1.39-.29-2.08-.45-.28-.06-.54-.12-.81-.18-.94-.22-1.88-.45-2.81-.7-.15-.04-.3-.09-.45-.13-.79-.21-1.57-.43-2.36-.67-.3-.09-.6-.18-.91-.27-.65-.2-1.3-.41-1.95-.62-.3-.1-.6-.2-.9-.3-.76-.25-1.51-.52-2.25-.79-.17-.06-.33-.12-.5-.18-.9-.33-1.79-.68-2.68-1.04-.26-.1-.51-.21-.76-.31-.65-.27-1.3-.55-1.94-.83-.3-.13-.6-.27-.9-.4-.63-.29-1.26-.58-1.89-.87-.26-.12-.52-.24-.77-.37-.86-.42-1.72-.84-2.57-1.29-.13-.07-.26-.14-.39-.21-.72-.38-1.44-.77-2.16-1.17-.28-.15-.55-.31-.82-.46-.59-.33-1.17-.67-1.74-1.02-.28-.17-.55-.33-.83-.5-.66-.41-1.31-.81-1.96-1.23-.16-.11-.33-.21-.48-.31-.8-.52-1.6-1.05-2.38-1.6-.22-.15-.44-.31-.67-.46-.57-.41-1.15-.81-1.71-1.22-.27-.19-.53-.39-.79-.59-.55-.41-1.09-.82-1.63-1.25-.23-.18-.46-.35-.68-.54-.74-.59-1.48-1.2-2.21-1.81-.1-.09-.19-.17-.3-.26-.63-.54-1.26-1.09-1.88-1.64-.23-.21-.46-.43-.7-.64-.49-.45-.98-.91-1.47-1.37-.23-.22-.47-.44-.7-.67-.55-.53-1.08-1.06-1.61-1.6-.15-.15-.3-.3-.43-.44-.67-.68-1.32-1.38-1.96-2.08-.18-.19-.35-.4-.53-.59-.47-.53-.94-1.05-1.4-1.59-.21-.26-.43-.5-.65-.75-.44-.52-.88-1.05-1.31-1.58-.18-.23-.37-.46-.56-.69-.6-.75-1.18-1.51-1.76-2.27-.06-.09-.13-.17-.19-.26-.51-.69-1.01-1.39-1.5-2.09-.18-.26-.35-.52-.53-.77-.38-.56-.76-1.12-1.13-1.68-.18-.27-.36-.55-.53-.82-.41-.64-.81-1.28-1.2-1.93-.11-.19-.22-.37-.34-.55-.49-.83-.97-1.66-1.44-2.51-.13-.22-.24-.45-.36-.68-.34-.63-.68-1.27-1.02-1.91-.16-.3-.3-.59-.45-.89-.31-.62-.61-1.24-.9-1.87-.13-.27-.26-.54-.39-.81-.41-.89-.81-1.78-1.19-2.67-.03-.07-.05-.14-.08-.21-.35-.84-.69-1.67-1.01-2.53-.11-.29-.22-.58-.33-.87-.24-.65-.48-1.31-.71-1.97-.1-.31-.21-.62-.32-.93-.24-.73-.48-1.47-.71-2.21-.07-.21-.14-.43-.2-.64-.29-.95-.55-1.91-.8-2.88-.07-.24-.12-.48-.18-.73-.18-.74-.36-1.48-.54-2.22-.07-.32-.15-.65-.22-.97-.16-.71-.3-1.42-.43-2.13-.06-.3-.12-.6-.17-.91-.18-.99-.35-2-.5-3.02,0-.04,0-.07-.02-.09-.15-.98-.27-1.97-.38-2.96-.04-.31-.07-.63-.1-.94-.07-.74-.15-1.47-.2-2.22-.03-.34-.05-.68-.08-1.02-.05-.81-.1-1.63-.14-2.45,0-.24-.03-.48-.03-.72-.03-1.05-.05-2.11-.06-3.17,0-.24,0-.5.01-.74h-.04Z"/>
  <path d="M94.59,334.32l-2.28-.39c-1.25.08-2.51.15-3.77.2-.39.02-.78.03-1.17.05-.9.04-1.81.06-2.72.08-.41,0-.82.02-1.24.03-1.01.02-2.03.03-3.04.03h-1.01c-.38,0-.76,0-1.14,0-1.12,0-2.23-.02-3.36-.03-.59-.01-1.18-.02-1.78-.04-.98-.02-1.96-.04-2.95-.06-.64-.02-1.27-.04-1.91-.06-.97-.03-1.94-.06-2.91-.09-.65-.02-1.31-.04-1.96-.06-1.15-.04-2.3-.08-3.46-.12-1.18-.04-2.36-.09-3.54-.13-.67-.03-1.34-.05-2.01-.07-1.58-.05-3.16-.1-4.73-.15h-.24c-1.46-.04-2.92-.07-4.37-.09-.49,0-.98-.01-1.47-.02-1.05-.02-2.09-.03-3.14-.03-.75,0-1.49,0-2.24.01-.58,0-1.16,0-1.74.01-.81.02-1.62.04-2.42.06-.54.01-1.08.03-1.63.04-.44.02-.88.04-1.33.06-.44.02-.89.04-1.32.06-.45.02-.91.04-1.35.07-1.32.08-2.64.17-3.94.28-1.49.13-2.91.44-4.23.9-7.49,2.64-11.83,10.29-8.54,18.56.26.66.82,1.47,1.54,2.33.18.21.37.43.58.65.41.43.84.87,1.3,1.3,2.07,1.91,4.54,3.55,6.05,3.55h90.09c-5.61-8.8-10.11-18.89-16.64-26.92h0Z"/>
  <path d="M146.47,403.13l-24.25-27.31-57.9.03c-2.19.06-4.21.6-5.99,1.52-.29.16-.58.31-.86.49-.56.34-1.1.72-1.6,1.14-.76.63-1.44,1.32-2.05,2.08-.04.05-.07.1-.11.15-.36.46-.7.94-.99,1.43-.33.55-.64,1.13-.89,1.71-.65,1.47-1.05,3.04-1.17,4.64-.05.64-.05,1.28,0,1.93.05.65.14,1.29.28,1.93.14.64.33,1.27.58,1.9.36.93.85,1.85,1.47,2.72.41.58.87,1.15,1.4,1.69l.25.25c.47.42,1.18.95,1.97,1.48.47.31.98.63,1.48.92,1.16.67,2.3,1.21,2.98,1.33h85.44-.02Z"/>
  <path d="M236.67,167.47c.45-.05.9-.1,1.33-.12h.07c.29-.02.57-.02.84-.02.1,0,.19,0,.29.02.17,0,.32,0,.48.02.26.01.51.03.77.05.15.01.31.03.46.05.25.03.49.07.73.12.13.03.26.05.39.07.3.07.58.14.86.22.06.02.12.04.17.05.33.11.64.22.93.35.1.05.2.1.3.15.19.08.38.18.55.27.11.06.22.13.33.19.15.09.3.19.44.29.1.07.2.15.3.22.13.11.27.21.39.33.08.08.17.15.26.23.13.13.25.25.36.38.07.07.14.14.19.21.17.2.32.41.45.62.04.07.07.14.11.19.09.15.19.31.27.47.05.09.08.18.12.28.06.14.12.28.17.41.03.1.07.2.09.3.04.14.07.28.1.42.02.1.04.2.06.3.03.15.04.29.05.44,0,.09.02.19.02.28,0,.18,0,.36-.01.54v.18c-.02.24-.06.47-.1.7-.01.07-.04.15-.06.22-.04.16-.09.32-.14.48-.04.09-.07.18-.11.27-.06.14-.12.29-.19.43-.05.09-.09.18-.14.27-.08.14-.17.27-.26.41-.05.08-.1.16-.17.24-.1.15-.22.29-.34.43-.06.06-.11.13-.16.18-.19.19-.39.39-.6.57-.03.03-.07.05-.09.07-.19.15-.39.3-.6.44-.08.05-.17.11-.26.16-.17.1-.34.2-.53.3-.1.05-.21.11-.32.16-.19.08-.38.16-.57.24-.12.04-.24.09-.36.13-.21.07-.43.14-.66.2-.12.04-.24.07-.37.1-.28.06-.58.13-.88.17-.08.01-.16.03-.23.04-.39.06-.79.1-1.2.13-.11,0-.23,0-.35.01-.24.02-.49.03-.75.03h-.48c-.43-.01-.87-.03-1.32-.08-.06,0-.13-.02-.19-.02-.48-.05-.98-.11-1.49-.2,1.91,37.3,31.99,64.95,67.05,72.4,2.97.64,5.98,1.12,9.01,1.45.37-.59.61-1.24.77-1.92.07-.34.13-.69.17-1.05.03-.36.06-.71.06-1.07.01-.37.01-.73,0-1.1-.01-.55-.04-1.11-.06-1.66-.04-1.1-.07-2.18.07-3.17.02-.17.05-.33.08-.49.25-1.28.83-2.39,2.07-3.16.31-.19.66-.36,1.06-.52.4-.15.84-.28,1.34-.38.39-.08.76-.14,1.11-.18.09-.01.18-.02.27-.03.34-.03.67-.05.98-.05h.1c.2,0,.4,0,.59.03.08,0,.15.02.22.03.14.02.27.03.4.05.08.02.16.04.24.05.11.02.22.05.33.07.08.02.17.05.24.07.1.04.2.06.29.1.08.03.16.06.23.09.08.04.18.08.26.12.07.04.15.07.22.11.08.05.16.09.24.14.06.04.14.08.2.13.07.06.15.11.21.16.06.05.13.1.19.15.07.06.13.12.2.18.06.05.11.1.17.16.07.07.13.14.19.21.05.06.1.11.15.17.1.13.2.26.29.4.05.06.09.14.13.2.05.07.09.15.14.23.04.08.08.16.13.24.04.07.08.15.11.22.04.09.07.17.11.26.03.08.06.16.1.24.03.08.07.18.1.27.03.08.06.17.09.24.03.09.06.19.08.28.03.08.05.17.07.26.03.09.05.19.07.3.02.08.04.18.06.27.02.1.05.2.07.3.02.09.03.18.05.27.02.1.04.21.05.31.02.09.03.19.04.28.01.1.03.21.05.31.01.09.02.19.03.29.02.21.04.43.06.65.01.08.02.18.02.27.01.11.02.22.02.33,0,.1.02.19.02.29,0,.11,0,.22.01.33,0,.1,0,.2,0,.3v1.61c0,.1,0,.21,0,.31,0,.1,0,.22,0,.33,0,.1,0,.2-.02.31,0,.1,0,.22-.01.32,0,.1,0,.2-.02.3,0,.11-.01.22-.01.33,0,.09-.02.19-.02.28,0,.12-.01.23-.02.35v.03c-.01.19-.02.36-.03.55,2.64-.17,5.27-.5,7.86-.95.66-.11,1.31-.23,1.96-.37,1.01-.21,2.01-.43,3.01-.67,1.3-.32,2.58-.67,3.85-1.05,1.51-.45,3-.94,4.48-1.49,2.6-.95,5.17-2.03,7.67-3.25.03-.01.06-.03.08-.04,2.45-1.19,4.85-2.51,7.18-3.94.38-.23.76-.46,1.13-.7.66-.42,1.3-.84,1.95-1.28.73-.49,1.46-1,2.18-1.51,3.77-2.71,7.32-5.73,10.59-9.02l.02-.02c5.02-5.04,9.39-10.7,12.91-16.83.59-1.03,1.15-2.06,1.69-3.1.54-1.05,1.06-2.11,1.55-3.18.24-.53.48-1.07.71-1.61.47-1.08.91-2.17,1.32-3.28s.8-2.22,1.16-3.34c.54-1.69,1.01-3.4,1.42-5.12.95-4.03,1.55-8.17,1.76-12.39-.48.09-.95.16-1.4.21-.09.02-.18.02-.27.03-.43.05-.86.08-1.27.09h-.22c-.16,0-.31.02-.47.02s-.3-.02-.46-.02-.31,0-.46-.01c-.28-.02-.55-.05-.81-.07-.12-.02-.24-.02-.36-.04-.37-.05-.73-.12-1.07-.2-.02,0-.05-.02-.07-.02-.32-.08-.63-.17-.93-.27-.1-.04-.2-.08-.3-.11-.21-.08-.41-.16-.6-.24-.11-.05-.21-.1-.32-.16-.18-.08-.35-.18-.51-.27-.1-.06-.2-.12-.29-.18-.16-.1-.3-.21-.45-.32-.08-.06-.17-.12-.25-.18-.16-.14-.3-.27-.45-.41-.05-.05-.1-.09-.15-.15-.19-.19-.36-.4-.52-.6-.04-.04-.06-.09-.09-.14-.12-.17-.23-.33-.34-.51-.05-.07-.08-.15-.13-.23-.08-.15-.15-.3-.22-.44-.04-.08-.07-.17-.1-.26-.05-.15-.11-.29-.16-.44-.03-.09-.05-.17-.07-.26-.04-.16-.06-.32-.09-.48-.01-.08-.03-.15-.04-.23-.03-.21-.04-.42-.04-.62v-.1c0-.24.02-.48.05-.72,0-.06.02-.12.03-.18.03-.18.06-.35.11-.53.02-.08.05-.16.07-.24.05-.15.1-.31.15-.46.04-.09.07-.17.11-.26.06-.15.14-.3.22-.44.04-.08.08-.16.13-.23.09-.15.19-.31.31-.46.05-.06.08-.13.13-.19.32-.42.7-.81,1.14-1.16.07-.05.14-.1.21-.15.16-.12.33-.24.5-.35.08-.06.18-.11.27-.17.17-.1.34-.19.52-.29.1-.05.2-.1.31-.15.18-.09.39-.17.58-.25.1-.04.21-.08.33-.13.23-.08.48-.15.73-.22.09-.03.17-.05.27-.07.34-.09.71-.15,1.09-.21.07-.01.15-.01.22-.03.31-.04.63-.07.95-.09.14,0,.29-.01.43-.01.19,0,.36-.02.56-.02.12,0,.24,0,.36,0h.24c.41.02.83.04,1.27.09.08,0,.15.02.23.03.46.05.93.11,1.42.2-1.6-14.52-6.52-27.99-14.08-39.47-.66-.99-1.34-1.98-2.04-2.94s-1.42-1.92-2.15-2.85c-.74-.94-1.49-1.85-2.26-2.76-2.32-2.7-4.81-5.26-7.45-7.65-.88-.8-1.78-1.57-2.69-2.33-1.37-1.14-2.78-2.22-4.23-3.27-1.45-1.04-2.93-2.04-4.45-3-1.29-.81-2.61-1.58-3.95-2.32-.49-.27-.97-.53-1.46-.79-1.06-.56-2.14-1.09-3.22-1.6-.6-.28-1.2-.55-1.8-.82-.8-.35-1.6-.7-2.42-1.02-.92-.38-1.85-.72-2.8-1.06-.35-.13-.71-.26-1.06-.38-.88-.3-1.76-.59-2.65-.86l-.94-.28c-1.01-.3-2.03-.58-3.06-.84-2.31-.58-4.66-1.07-7.06-1.46-.2-.03-.4-.07-.6-.09-1.79-.28-3.6-.51-5.44-.67v9.65c0,.13-.02.26-.05.39-.02.05-.04.08-.06.13-.03.09-.06.18-.1.26-.03.05-.07.11-.1.16-.05.08-.09.15-.15.23-.04.06-.09.11-.15.17-.06.07-.11.15-.18.21-.05.06-.12.11-.18.17-.07.07-.14.14-.21.2-.07.06-.14.11-.21.18-.08.06-.16.13-.24.19-.07.05-.15.11-.23.16-.08.06-.17.12-.27.18-.08.05-.17.1-.25.16-.09.06-.19.11-.28.17-.08.05-.18.1-.27.15-.1.05-.19.1-.29.16-.09.04-.18.08-.27.13-.1.05-.2.09-.3.14-.09.04-.19.08-.27.11-.1.04-.2.08-.3.13-.09.03-.18.07-.27.1-.1.03-.2.07-.29.1-.09.03-.17.06-.27.08s-.19.06-.29.08c-.09.02-.17.04-.24.06-.09.02-.18.04-.28.06-.08.02-.15.03-.23.04-.09.01-.17.03-.25.03-.07,0-.14,0-.2.02-.05,0-.11.01-.17.01h-.12c-.1,0-.22-.02-.34-.04-1.35-.21-3.58-1.29-4.9-2.51-.39-.36-.7-.74-.9-1.1-.13-.24-.19-.48-.19-.72v-9.64c-1.29.07-2.56.17-3.82.31-2.53.27-5.02.65-7.48,1.14-1.23.25-2.45.53-3.65.83-1.21.3-2.41.63-3.59.99-1.18.36-2.36.74-3.52,1.15-1.74.61-3.46,1.29-5.15,2.02-1.13.48-2.23.99-3.34,1.54-24.17,11.78-41.74,35.27-45.38,62.81-.25,1.88-.43,3.77-.55,5.68.49-.1.96-.17,1.43-.23.11-.02.22-.03.33-.04v-.03ZM275.07,169.64c.23-.27.48-.53.75-.77.41-.36.86-.7,1.34-.99,1.3-.79,2.86-1.33,4.59-1.49.68-.07,1.36-.11,2.05-.16.22-.01.44-.02.67-.03.46-.03.94-.05,1.41-.07.27,0,.53-.02.79-.02.44-.01.89-.02,1.33-.03.27,0,.54,0,.81,0h1.17c.43,0,.85,0,1.28.01.36,0,.73.02,1.09.02.43.01.86.02,1.3.04.36.01.73.02,1.09.03.45.02.89.03,1.34.05.38.01.76.03,1.14.04.53.02,1.06.04,1.58.06.57.02,1.15.05,1.72.07.4.01.82.03,1.22.05.45.01.9.03,1.34.05.36.01.73.03,1.08.03.46.02.93.02,1.39.03.34.01.68.02,1.02.02.49.01.98.02,1.48.02.3,0,.6,0,.9,0,.43,0,.86,0,1.29-.02.34,0,.68,0,1.02-.01.46-.02.91-.03,1.36-.05.31-.02.62-.02.93-.04.51-.03,1.02-.06,1.53-.1.25-.02.49-.03.73-.05.75-.06,1.49-.13,2.24-.22l31.43-30.37,7.79-7.53c.21-.14.43-.27.65-.39.07-.04.14-.07.21-.1.15-.08.3-.15.44-.22.08-.04.16-.07.24-.1.14-.06.28-.11.43-.17.08-.03.16-.06.24-.08.15-.05.3-.09.44-.13.07-.02.14-.04.21-.05.21-.05.41-.09.61-.12h.04c.21-.03.42-.05.63-.07.07,0,.13,0,.19,0,.11,0,.21-.02.31-.02h.13c.07,0,.14,0,.21.01.14,0,.27.01.41.03.07,0,.14.01.2.02.16.02.31.04.47.07l.11.02c.19.04.38.09.56.14.06.02.11.04.17.05.13.04.25.09.38.14.07.03.14.05.19.08.12.05.23.1.35.16.06.03.12.05.18.08.15.07.29.16.43.24.02.02.05.03.07.04.16.09.3.2.46.31.05.04.1.08.15.12.1.07.19.15.29.23.05.05.1.09.16.14.09.08.18.17.27.26.05.05.09.08.13.13.13.14.25.27.36.41.02.03.04.05.06.08.09.12.18.24.27.36.04.05.07.11.11.17.07.1.13.2.19.31.03.06.07.12.1.18.06.11.12.23.17.35.03.05.05.1.07.15.07.17.14.34.2.51.02.04.03.09.04.14.05.13.09.27.12.41.02.07.03.13.05.2.03.13.05.24.07.38.02.06.02.13.03.2.02.15.04.29.04.44,0,.04,0,.09.02.15,0,.19,0,.39,0,.58,0,.05-.01.1-.02.16,0,.15-.02.29-.04.44,0,.07-.02.14-.03.21-.02.14-.05.28-.08.42-.02.07-.03.14-.05.21-.04.17-.09.34-.15.52-.02.03-.02.06-.03.1-.07.2-.16.41-.24.61-.03.06-.06.12-.09.18-.07.15-.14.3-.22.45-.04.07-.08.15-.12.22-.08.15-.17.29-.27.44-.04.07-.08.14-.13.19-.14.21-.29.41-.45.62-4.02,3.42-7.84,7.08-11.57,10.84-.74.75-1.49,1.51-2.23,2.28-1.48,1.52-2.95,3.05-4.42,4.59-2.94,3.06-5.86,6.14-8.84,9.15-1.49,1.51-2.99,2.98-4.52,4.45-1.52,1.46-3.07,2.89-4.65,4.28-.18.16-.36.32-.54.49-.91.82-1.86,1.71-2.87,2.55-.8.66-1.64,1.3-2.49,1.82-.86.53-1.76.95-2.68,1.19-.46.13-.93.2-1.4.23-2.95.17-6.03.25-9.15.29-2.08.03-4.17.03-6.26.04-3.13.01-6.22.01-9.18.06-.21,0-.43,0-.65.01h-.19c-.21,0-.43.02-.67.02h-.16c-.27,0-.54.02-.82.03-.58.02-1.19.04-1.83.05h-.22c-.31.01-.63.02-.95.02h-.04c-.33,0-.66.02-.99.02h-2.42c-.22,0-.44,0-.66-.02-.1,0-.21,0-.31,0-.21,0-.42-.02-.63-.02-.1,0-.19,0-.29-.01-.27-.02-.55-.02-.82-.04h-.08c-.3-.01-.59-.03-.89-.05-.08,0-.16-.02-.24-.02-.21-.01-.43-.03-.64-.05-.1,0-.19-.02-.29-.03-.2-.02-.4-.04-.59-.07-.09-.02-.18-.02-.26-.03-.26-.04-.52-.07-.77-.11h-.05c-.27-.04-.53-.08-.79-.13-.07-.02-.15-.03-.21-.04-.18-.03-.36-.07-.54-.11-.08-.02-.17-.04-.24-.06-.17-.04-.33-.08-.49-.13-.07-.02-.15-.04-.21-.06-.21-.06-.42-.13-.63-.2,0,0-.02,0-.03,0-.2-.08-.4-.16-.59-.23-.06-.03-.11-.05-.17-.08-.13-.06-.26-.12-.38-.19-.06-.04-.12-.07-.17-.1-.11-.07-.22-.14-.32-.21-.05-.03-.09-.07-.14-.1-.14-.11-.28-.21-.39-.33-3.11-3.06-2.82-6.64-.62-9.18l-.03.02Z"/>
  <path d="M485.32,159.38c-12.53-29.61-30.45-56.2-53.29-79.04-22.84-22.83-49.43-40.77-79.05-53.3-30.66-12.96-63.23-19.54-96.8-19.54s-66.14,6.58-96.8,19.54c-29.61,12.53-56.2,30.45-79.05,53.3-22.83,22.84-40.77,49.43-53.29,79.04-12.96,30.66-19.54,63.23-19.54,96.8,0,23.43,3.21,46.38,9.56,68.53,2.06-.7,4.23-1.17,6.46-1.36,1.35-.12,2.75-.21,4.18-.3-6.22-21.22-9.56-43.67-9.56-66.87C18.14,124.93,124.93,18.14,256.18,18.14s238.04,106.79,238.04,238.04-106.78,238.04-238.04,238.04c-70.88,0-134.62-31.14-178.27-80.46h-14.13c5.19,6.32,10.7,12.42,16.55,18.26,22.84,22.83,49.43,40.77,79.05,53.29,30.66,12.97,63.23,19.54,96.8,19.54s66.14-6.57,96.8-19.54c29.61-12.53,56.2-30.45,79.05-53.29,22.83-22.84,40.77-49.43,53.29-79.05,12.97-30.66,19.54-63.23,19.54-96.8s-6.57-66.14-19.54-96.8Z"/>
</svg>