<?xml version="1.0" encoding="UTF-8"?>
<svg id="Capa_1" data-name="Capa 1" xmlns="http://www.w3.org/2000/svg" viewBox="0 0 512 512">
  <path d="M393.42,215.74c1.9-.17,3.58-.61,5.06-1.3,1.11-.52,2.09-1.17,2.96-1.94,2.59-2.32,4.09-5.75,4.45-9.92.49-5.76.65-11.69.62-17.71h0c-.02-3.03-.07-6.06-.16-9.11-.41-15.24-1.43-30.79-.46-45.39-.17-2.58-1.09-5.01-2.54-7.06-.48-.68-1.02-1.33-1.61-1.92-.01-.01-.03-.02-.04-.03-2.36-2.34-5.52-3.9-8.96-4.13h-130.86c-.39.09-.78.18-1.15.29-5.67,1.6-9.94,6.19-10.67,12.18.79,10.31.45,21.24.02,32.22-.16,3.92-.33,7.85-.46,11.76-.05,1.56-.1,3.12-.15,4.67-.04,1.55-.07,3.1-.09,4.65-.02,1.54-.03,3.08-.03,4.6.02,5.34.21,10.59.71,15.66.18,1.85.86,3.72,1.9,5.43,1.72,2.84,4.42,5.2,7.39,6.19,2.41.8,4.64.76,6.86.84.26,0,.51.02.77.03.28.02.55.03.82.05.43.03.87.08,1.3.15.79.12,1.59.3,2.41.59.36.36,1,4.16,1.34,6.73.01.11.03.23.04.33.11.86.18,1.55.18,1.88v.05c0,.14,0,.28,0,.44,0,.07-.01.14-.02.21,0,.11-.01.22-.02.33,0,.08-.01.17-.02.27-.02.11-.02.21-.04.32-.01.1-.02.2-.03.31-.01.11-.03.21-.04.33-.02.11-.03.22-.05.34-.01.1-.03.21-.04.32-.02.13-.04.25-.05.39-.02.08-.03.17-.04.27-.15,1.1-.34,2.3-.51,3.52,0,.04-.02.08-.02.12-.03.23-.06.45-.09.67-.01.06-.02.13-.03.19-.03.21-.05.41-.07.61,0,.07-.02.15-.03.22l-.06.61c0,.07-.02.14-.02.2-.02.21-.04.43-.05.63,0,.06,0,.11-.01.17-.04.54-.06,1.06-.07,1.56v.06c0,.22,0,.44.01.66,0,.06,0,.13,0,.19,0,.17.01.33.03.49,0,.08.01.15.02.22.01.15.03.29.04.43.02.08.02.16.03.23.02.14.05.26.07.39.01.07.03.15.05.22.03.13.06.24.09.37.02.06.04.14.06.19.05.12.09.24.14.35.02.05.04.1.07.15.07.16.15.3.24.43v.02c.1.14.2.27.31.39.03.03.07.06.1.09.08.08.16.16.25.23.05.04.09.06.15.09.08.05.17.11.26.16.06.03.12.05.18.08.09.04.19.07.29.09.07.02.14.03.21.05.1.02.21.03.32.05.08,0,.16.01.23.02.11,0,.24,0,.36-.01.09,0,.18,0,.27-.02.14-.02.28-.05.42-.07.1-.02.19-.03.29-.05.16-.04.33-.09.51-.14.09-.03.18-.05.27-.08.27-.09.55-.2.85-.32.24-.1.54-.26.87-.46.11-.06.24-.14.36-.22.82-.5,1.86-1.21,3.05-2.08.4-.28.8-.59,1.22-.91,1.07-.81,2.23-1.71,3.43-2.67,7.61-6.09,17.13-14.62,18.25-17.11.08-.17.13-.32.16-.46.11-.48.02-.84-.14-1.22-.04-.1-.08-.2-.13-.3-.09-.21-.18-.43-.27-.68.22.02.45.03.67.03.09,0,.18,0,.27-.02.14,0,.28-.01.43-.03.09,0,.19-.02.29-.03.13-.01.27-.03.4-.05.1-.01.2-.03.3-.05.13-.03.26-.04.39-.07.11-.02.22-.04.33-.07.18-.03.35-.07.52-.1.15-.03.29-.06.43-.08.1-.02.2-.04.3-.06.15-.02.3-.05.45-.07.08-.02.16-.03.24-.04.22-.03.45-.05.67-.07h.02c1.1-.07,2.21-.14,3.33-.19.28-.01.57-.03.85-.04,1.05-.05,2.09-.08,3.15-.12.07,0,.14,0,.2,0,1.13-.03,2.25-.05,3.38-.07.29,0,.58-.01.88-.02,1.02-.01,2.04-.02,3.05-.02h.35c1.94,0,3.9.02,5.86.05.16,0,.32,0,.47,0,1.85.04,3.71.08,5.57.13.19,0,.37.02.55.02,1.93.06,3.85.12,5.78.19h.17c2.04.07,4.09.15,6.13.22,1.92.07,3.82.14,5.72.21l.61.02c1.95.07,3.92.14,5.87.19h.15c1.96.06,3.93.1,5.88.14.16,0,.32,0,.47.01,1.84.03,3.68.04,5.51.05h.61c1.38,0,2.76-.01,4.13-.03.23,0,.47,0,.7-.01,1.38-.03,2.75-.06,4.11-.11.2,0,.41-.02.61-.03,1.4-.05,2.79-.13,4.17-.21.14,0,.28-.02.41-.03,1.45-.09,2.89-.19,4.32-.32h.03ZM347.98,199.15c-.21.03-.42.05-.62.07-.43.04-.86.09-1.28.12-.24.02-.48.03-.71.05-.4.02-.79.04-1.18.05-.24,0-.48.01-.72.01-.15,0-.29,0-.44,0-.18,0-.35-.01-.53-.01-.44,0-.88-.02-1.31-.03-.29-.02-.58-.03-.86-.04-.45-.03-.9-.05-1.35-.09-.27-.02-.55-.04-.82-.06-.49-.05-.99-.09-1.5-.15-.22-.03-.45-.04-.68-.07-.71-.08-1.43-.16-2.15-.24h-.04l-.68-1.61-5.23-12.37-14.91.16-15.08.17-3.01,7.78-2.31,5.96h-15.17l-.74-1.4,27.99-65.62.7-.31.35-.16,5.6.26,3.73.17,6.21.28,28.65,66.77c-.65.12-1.29.22-1.92.3ZM374.84,198.85h-.73c-.3,0-.6.02-.9.02-.09,0-.2,0-.3.01-.39.02-.79.05-1.18.08-.09,0-.18.02-.27.03-.32.03-.64.06-.96.09-.14.02-.29.04-.43.05-.31.03-.62.06-.93.1l-1.36.14h-.03c-.39.04-.79.08-1.17.11-.11.01-.23.02-.34.03-.29.02-.57.04-.86.06-.13,0-.27.01-.4.02-.31.01-.61.02-.91.03h-.29c-.39,0-.79-.02-1.18-.04-.09,0-.18-.01-.27-.02-.3-.02-.6-.05-.91-.09-.13-.01-.26-.03-.39-.05-.28-.04-.56-.09-.84-.15-.13-.03-.24-.05-.36-.08-.4-.09-.78-.19-1.17-.32v-67.43c.63-.14,1.27-.26,1.91-.36.21-.03.43-.06.65-.08.43-.06.86-.13,1.3-.16.27-.03.53-.04.79-.06.4-.03.8-.06,1.19-.08.29-.02.57-.02.85-.02.29,0,.57-.02.86-.02.08,0,.17,0,.26.01.42,0,.83.02,1.24.03.3.01.59.01.9.03.43.03.85.06,1.29.09.28.02.55.04.83.07.47.04.94.1,1.41.16.22.03.46.05.68.08.68.09,1.36.2,2.03.31h.02v67.43h-.03Z"/>
  <path d="M111.52,238.67c.07-1.32.15-2.64.26-3.95.01-.11.02-.22.03-.33.17-1.97.38-3.95.63-5.91,4.03-31.02,18.88-59.99,40.88-82.23,23.92-24.16,56.29-40.34,92.4-42.48.63-.04,1.26-.07,1.88-.1.16,0,.3-.01.46-.02.46-.02.93-.04,1.39-.05.2,0,.41-.01.63-.02.4,0,.79-.02,1.18-.03h.71c.34,0,.67,0,1.01,0h.05c.93,0,1.85.01,2.77.03.15,0,.3,0,.44.02.89.02,1.76.06,2.61.09.16,0,.31.02.46.03.87.05,1.72.1,2.58.16.1,0,.2.01.31.03.88.06,1.74.14,2.61.21h.06c.88.08,1.74.17,2.6.26.12.01.24.03.35.04.83.09,1.65.19,2.47.29.14.02.27.03.4.05.82.1,1.65.2,2.47.31.08.02.17.03.26.03,1.75.24,3.5.48,5.26.74.06.01.11.02.17.03.98.15,1.96.29,2.96.44.76.11,1.52.22,2.28.33.16.03.32.04.48.07.82.12,1.64.24,2.46.35.05.01.09.02.14.02.84.11,1.69.23,2.54.35.15.02.3.04.45.06.83.11,1.67.21,2.52.32.17.02.33.04.51.06.85.1,1.72.2,2.6.3.14.01.27.02.41.04.93.1,1.86.19,2.81.28h.02c.66.06,1.33.12,2.01.17.15.02.28.02.42.04.67.04,1.34.09,2.03.14.13,0,.27.01.4.02.66.04,1.33.07,2.01.1.07,0,.15,0,.23.02.73.03,1.47.06,2.21.08.16,0,.32.01.48.02.74.03,1.49.05,2.26.07.1,0,.21,0,.31,0,.71.02,1.44.03,2.16.04h.38c.78.02,1.56.02,2.34.03h.48c.8,0,1.61.01,2.41.01h2.45c.43,0,.85,0,1.28-.01h.65c.41,0,.83,0,1.24-.01.22,0,.44,0,.65,0,.44,0,.88-.02,1.32-.02.18,0,.36,0,.54,0,.61-.02,1.22-.02,1.82-.03h.03c.63-.02,1.26-.03,1.9-.04.15,0,.29,0,.45-.01.47-.02.94-.02,1.41-.04.19,0,.39-.01.58-.01.43-.02.86-.02,1.28-.03.19,0,.38-.02.57-.02.44-.01.89-.03,1.32-.04.17,0,.34-.02.52-.02.49-.01.98-.03,1.47-.04.1,0,.2,0,.31,0,.6-.02,1.2-.04,1.78-.06.09,0,.19,0,.28,0,.49-.02.98-.03,1.47-.05.17,0,.33-.01.49-.02.41-.02.82-.03,1.22-.05.17,0,.34-.02.52-.02.42-.01.84-.03,1.26-.04.14,0,.27-.01.4-.02.43-.01.85-.03,1.27-.05.13,0,.27,0,.4-.01.52-.02,1.04-.04,1.54-.06h.1c.08,0,.17,0,.27.01h.05c.09.01.2.02.31.03.1.02.21.02.32.04h.06c.1,0,.2.01.31.01h.18s.06,0,.09,0c.03,0,.06,0,.1-.02.03,0,.06,0,.08-.01.03,0,.06-.02.08-.03.03,0,.05-.01.07-.03.03-.01.05-.03.07-.04.02-.02.04-.02.06-.04.02-.01.04-.03.06-.05s.03-.03.05-.05c.02-.03.03-.05.05-.08,0-.02.02-.03.02-.06.02-.03.02-.07.03-.11,0-.02.01-.03.02-.06,0-.07,0-.13,0-.21-15.1-8.2-30.8-14.87-47.28-19.31-1.47-.4-2.94-.78-4.42-1.14-1.57-.38-3.15-.74-4.73-1.08-3.55-.76-7.15-1.43-10.78-1.97-1.24-.19-2.47-.35-3.7-.52-.38-.05-.76-.09-1.13-.14-.9-.11-1.79-.22-2.69-.33-.39-.05-.78-.09-1.17-.14-1.11-.13-2.22-.24-3.34-.35-.11-.01-.24-.03-.35-.04-1.21-.12-2.42-.21-3.63-.31-.39-.03-.78-.06-1.16-.08-.86-.06-1.73-.12-2.59-.17-.4-.03-.8-.05-1.2-.07-1.04-.06-2.09-.11-3.13-.15-.17,0-.35-.02-.52-.03-1.2-.05-2.4-.08-3.59-.1-.36,0-.71-.01-1.07-.02-.88-.01-1.77-.02-2.65-.02h-1.05c-1.46,0-2.92.02-4.38.05-.24,0-.49.02-.73.02-1.47.04-2.94.09-4.4.16-.06,0-.13,0-.18,0-1.51.08-3,.18-4.49.29-.25.02-.5.04-.75.06-1.46.11-2.93.24-4.38.39-.21.02-.41.05-.61.06-1.5.16-3,.32-4.49.52h-.02c-1.5.19-2.99.41-4.49.64-.21.03-.43.06-.64.09-1.46.22-2.91.47-4.35.73-.18.03-.35.06-.52.1-2.98.55-5.94,1.17-8.86,1.87-.19.05-.38.09-.57.14-1.43.35-2.86.71-4.28,1.09-.16.04-.3.09-.46.13-2.91.79-5.79,1.66-8.65,2.61-.18.06-.34.11-.52.17-1.39.46-2.78.95-4.16,1.45-.15.05-.3.11-.44.16-2.82,1.04-5.61,2.15-8.36,3.33-.17.07-.33.14-.5.21-1.34.59-2.68,1.18-4.01,1.81-.15.07-.3.15-.44.21-2.71,1.28-5.39,2.64-8.02,4.06-.17.09-.34.18-.51.28-1.28.7-2.55,1.42-3.81,2.15-.16.09-.32.19-.47.28-2.58,1.52-5.11,3.1-7.62,4.77-.17.12-.35.23-.53.35-1.2.81-2.4,1.65-3.59,2.49-.17.12-.34.24-.51.36-2.43,1.74-4.82,3.57-7.17,5.47-.19.15-.37.3-.55.45-1.13.92-2.24,1.86-3.36,2.81-.18.15-.36.31-.54.47-2.28,1.98-4.52,4.03-6.71,6.16-.19.19-.38.37-.57.55-1.05,1.03-2.09,2.07-3.13,3.14-.19.2-.38.39-.56.59-1.06,1.11-2.12,2.23-3.16,3.38-1.04,1.14-2.06,2.31-3.08,3.49-.19.22-.38.43-.56.65-.97,1.14-1.94,2.3-2.89,3.47-.18.22-.36.45-.54.68-.98,1.23-1.96,2.47-2.92,3.74-.88,1.16-1.72,2.31-2.57,3.48-2.43,3.38-4.73,6.81-6.89,10.32-1.74,2.83-3.4,5.7-4.96,8.61-2.08,3.88-4,7.82-5.76,11.81-.44,1-.87,2.01-1.29,3.01-2.09,5.02-3.93,10.13-5.5,15.28-.63,2.07-1.22,4.14-1.76,6.22-4.9,18.72-6.38,38.08-4.21,57.07.48,4.22,1.15,8.42,1.99,12.6.42,2.08.89,4.17,1.4,6.24s1.08,4.13,1.68,6.19c.3,1.02.61,2.05.94,3.07,1.31,4.09,2.8,8.13,4.48,12.12.83,1.99,1.72,3.98,2.66,5.94s1.91,3.92,2.94,5.86c.52.97,1.04,1.93,1.58,2.89,1.07,1.92,2.2,3.82,3.38,5.71,3.52,5.66,7.46,11.15,11.85,16.44l.49.13.43.11c1.13-.92,2.34-1.79,3.61-2.57.96-.59,1.95-1.13,2.97-1.62.68-.32,1.37-.63,2.07-.9s1.41-.51,2.13-.71c.36-.1.72-.2,1.08-.29.73-.17,1.46-.31,2.2-.41s1.48-.16,2.22-.18h.02s.11,0,.17.01c.02,0,.04,0,.06,0,.06.01.13.02.2.03.03,0,.05.01.08.02.09.02.19.03.3.06.03,0,.05.02.08.02.09.02.19.04.28.06.07.01.14.03.21.05l.09.02c.21.05.43.09.65.14.02,0,.04,0,.05.02.13.03.27.05.4.08.03,0,.07.01.1.02.31.06.61.11.9.16.04,0,.08.01.11.02.12.02.23.03.34.04.03,0,.06.01.08.02.14.01.27.03.39.03h.32c.08,0,.15,0,.21-.02.05,0,.09,0,.14-.01.06-.01.11-.03.17-.05.03-.01.07-.02.1-.03.05-.03.09-.05.12-.08.02-.01.05-.03.06-.05.04-.05.07-.11.07-.19-2.46-1.3-3.81-3.07-4.59-5.08-.1-.24-.18-.48-.26-.73-.12-.39-.22-.77-.31-1.17-.13-.59-.23-1.2-.31-1.81-.08-.61-.13-1.24-.18-1.86-.01-.2-.03-.42-.04-.63-.14-2.28-.19-4.58-.71-6.6-1.08-4.21-5.88-12.21-8.98-18.36-.23-.47-.47-.93-.68-1.38-.43-.9-.81-1.74-1.13-2.52-1.04-2.57-1.99-5.15-2.86-7.73-.11-.34-.23-.69-.34-1.03-.85-2.59-1.61-5.19-2.29-7.79-.33-1.26-.63-2.51-.92-3.77-.35-1.52-.66-3.03-.95-4.55-.24-1.29-.47-2.58-.68-3.86-.34-2.18-.64-4.35-.88-6.53-.3-2.77-.5-5.53-.63-8.3-.11-2.76-.15-5.51-.09-8.24.03-1.38.08-2.74.15-4.1h.04Z"/>
  <path d="M480.24,416.05c-.01-.38-.02-.74-.04-1.12-.02-.46-.05-.93-.08-1.4-.03-.37-.05-.73-.08-1.1-.04-.47-.09-.94-.14-1.41-.04-.35-.07-.71-.11-1.07-.06-.48-.13-.96-.19-1.43-.05-.34-.09-.69-.14-1.03-.08-.49-.16-.99-.26-1.48-.06-.32-.11-.64-.17-.96-.09-.53-.21-1.06-.32-1.58-.06-.28-.11-.56-.17-.84-.14-.63-.29-1.25-.45-1.87-.05-.18-.09-.36-.13-.54-.21-.81-.43-1.6-.67-2.41-.01-.03-.02-.07-.03-.1-.22-.76-.45-1.51-.71-2.26-.08-.23-.16-.46-.23-.69-.19-.55-.38-1.1-.58-1.64-.1-.29-.22-.57-.33-.85-.19-.48-.36-.96-.57-1.45-.12-.3-.26-.6-.39-.91-.19-.46-.38-.91-.58-1.36-.14-.32-.29-.63-.43-.93-.2-.44-.4-.87-.61-1.3-.16-.32-.32-.63-.47-.95-.21-.42-.42-.84-.64-1.26-.17-.32-.34-.64-.52-.95-.22-.41-.44-.81-.67-1.21-.18-.32-.37-.63-.55-.95-.23-.39-.46-.79-.7-1.18-.19-.32-.39-.63-.59-.94-.24-.39-.49-.77-.73-1.15-.2-.31-.41-.61-.61-.93-.26-.37-.51-.74-.78-1.12-.21-.3-.43-.6-.65-.9-.17-.23-.34-.46-.51-.69-.1-.14-.2-.27-.3-.41-.22-.3-.45-.59-.68-.89-.28-.35-.56-.71-.84-1.06-.23-.29-.47-.58-.71-.86-.29-.35-.58-.7-.88-1.04-.24-.29-.49-.57-.73-.84-.3-.34-.6-.68-.92-1.02-.25-.28-.5-.55-.76-.82-.16-.16-.32-.32-.47-.48-.16-.17-.32-.34-.48-.5-.26-.26-.53-.53-.79-.79-.33-.32-.66-.64-.99-.96-.26-.26-.53-.51-.8-.76-.34-.31-.68-.63-1.03-.93-.27-.24-.55-.49-.82-.73-.35-.31-.71-.6-1.08-.91-.28-.23-.55-.46-.83-.7-.38-.3-.74-.59-1.13-.89-.28-.22-.56-.44-.84-.65-.4-.3-.79-.59-1.19-.88-.28-.2-.55-.41-.83-.61-.42-.29-.84-.58-1.27-.86-.26-.18-.53-.37-.8-.54-.46-.31-.94-.6-1.41-.9-.23-.15-.47-.3-.71-.45-.58-.36-1.18-.71-1.78-1.05-.13-.07-.26-.16-.39-.23-.73-.42-1.48-.82-2.23-1.21-.14-.07-.27-.14-.41-.21-.62-.31-1.23-.63-1.86-.93-.27-.12-.53-.24-.79-.36-.51-.23-1.01-.47-1.52-.7-.31-.14-.62-.26-.93-.39-.48-.2-.95-.4-1.43-.59-.33-.14-.67-.26-1.01-.39-.46-.18-.93-.35-1.4-.52-.35-.13-.71-.24-1.06-.37-.46-.15-.92-.31-1.39-.46-.36-.11-.74-.22-1.1-.33-.46-.14-.92-.28-1.38-.41-.38-.1-.76-.21-1.15-.3-.46-.13-.92-.24-1.39-.35-.39-.1-.79-.18-1.18-.27-.46-.1-.93-.21-1.39-.3-.4-.08-.8-.16-1.2-.23-.47-.09-.93-.17-1.41-.25-.41-.07-.82-.13-1.22-.19-.47-.07-.94-.14-1.42-.2-.41-.05-.83-.1-1.24-.16-.48-.06-.95-.1-1.44-.16-.42-.04-.84-.07-1.27-.11-.48-.04-.96-.07-1.45-.1-.42-.03-.85-.05-1.28-.07-.49-.02-.98-.04-1.47-.05-.43-.01-.86-.02-1.29-.02-.68,0-1.37,0-2.07,0h-.28c-.84.02-1.68.05-2.53.09-.2.02-.4.03-.6.04-.86.05-1.72.11-2.58.19-5.72.53-11.19,1.76-16.35,3.59-.65.23-1.29.46-1.92.71-1.58.61-3.12,1.29-4.63,2.01-.93.45-1.85.91-2.76,1.39-.59.32-1.19.65-1.77.98-5.23,3-10.04,6.66-14.32,10.84-.02.01-.03.03-.04.03-19.55,19.1-28.35,49.07-19.08,76.65.32.96.66,1.91,1.03,2.84.11.31.24.6.36.91.24.62.49,1.24.76,1.86.15.35.31.7.46,1.06.24.55.49,1.1.75,1.64.18.36.35.72.52,1.08.26.53.53,1.05.8,1.56.18.35.37.71.56,1.05.28.52.57,1.02.86,1.53.19.34.38.67.57.99.31.53.65,1.05.97,1.58.18.28.35.57.54.85.47.72.95,1.42,1.44,2.13.09.13.18.26.27.39.5.7,1.01,1.39,1.53,2.07.21.28.43.54.65.81.36.46.72.92,1.1,1.37.25.3.51.6.77.9.35.41.7.81,1.06,1.21.11.13.24.26.35.39.16.18.31.34.47.52.35.38.72.76,1.08,1.14.28.3.57.58.85.87.37.36.75.73,1.12,1.09.29.28.57.55.86.82.41.38.82.73,1.22,1.1.27.24.54.49.82.73.19.17.39.32.58.49.35.3.72.6,1.08.89.26.2.52.42.78.63.58.45,1.17.91,1.76,1.35.3.22.6.43.9.64.44.31.88.62,1.32.93.33.22.67.44,1,.66.43.28.84.55,1.28.82.35.22.69.43,1.04.65.43.26.85.52,1.28.77.35.21.71.41,1.06.6.44.24.89.49,1.33.73.35.19.69.38,1.05.55.48.24.96.48,1.44.72.32.16.65.32.97.47.65.31,1.3.6,1.96.89.26.11.52.23.79.34.71.31,1.42.59,2.14.87.32.13.65.24.96.36.52.19,1.04.39,1.57.57.35.12.71.24,1.07.36.49.17.99.33,1.48.48.37.11.74.22,1.11.33.49.15.99.29,1.49.42.36.1.74.2,1.1.3.52.13,1.03.26,1.54.38.35.08.71.17,1.07.25.56.13,1.13.24,1.69.35.31.07.61.13.93.19.81.15,1.61.28,2.42.41.07.01.14.03.21.03.88.13,1.76.24,2.64.35.29.03.59.06.88.09.6.06,1.19.13,1.79.17.34.03.69.05,1.03.07.55.04,1.1.07,1.65.09.36.02.72.03,1.08.04.54.01,1.08.03,1.62.03h1.22c.31,0,.61,0,.91-.02.48-.01.97-.03,1.45-.04.3-.02.59-.02.88-.04.53-.03,1.05-.06,1.57-.1.25-.02.51-.03.76-.05.77-.07,1.53-.14,2.3-.23.06,0,.11-.01.17-.03.71-.08,1.41-.17,2.12-.28.27-.04.54-.08.81-.13.49-.07.99-.16,1.48-.24.31-.06.61-.11.92-.17.46-.09.92-.18,1.36-.28.32-.06.63-.14.95-.21.45-.1.9-.21,1.34-.32.31-.08.62-.16.94-.23.47-.12.94-.26,1.41-.39.28-.08.56-.16.84-.24.66-.19,1.31-.4,1.96-.61.2-.07.4-.14.6-.2.61-.2,1.21-.42,1.81-.64.28-.1.57-.22.85-.33.45-.17.89-.34,1.33-.52.31-.13.63-.26.93-.4.41-.17.82-.35,1.23-.53.32-.14.63-.29.95-.43.41-.19.81-.39,1.22-.58.3-.15.61-.3.91-.45.43-.22.85-.44,1.28-.67.27-.15.55-.29.82-.44.58-.32,1.17-.66,1.74-1,.22-.13.43-.26.65-.39.55-.34,1.1-.68,1.65-1.03.27-.17.52-.35.78-.52.41-.27.82-.54,1.22-.82.28-.19.55-.4.83-.59l1.14-.83c.28-.21.55-.42.83-.64.38-.29.76-.59,1.13-.89.26-.21.53-.43.78-.65.4-.33.8-.67,1.19-1.02.22-.2.46-.39.68-.59.57-.51,1.13-1.02,1.69-1.56.09-.08.18-.17.27-.26.55-.53,1.09-1.07,1.62-1.62.2-.2.4-.42.6-.64.38-.4.76-.81,1.14-1.22.22-.24.44-.49.66-.74.35-.4.69-.79,1.03-1.2.22-.27.44-.53.66-.79.34-.41.68-.84,1.01-1.26.21-.27.41-.53.61-.79.35-.47.71-.95,1.06-1.43.17-.23.34-.46.51-.69.51-.72,1.01-1.45,1.5-2.2.53-.81,1.04-1.63,1.53-2.44.16-.26.31-.53.46-.8.33-.55.65-1.1.96-1.66.18-.32.35-.65.52-.97.27-.49.54-1,.8-1.49.18-.35.34-.7.52-1.05.23-.47.47-.95.69-1.43.17-.37.33-.73.49-1.09.21-.47.42-.94.62-1.41.16-.38.31-.74.46-1.13.18-.46.37-.93.55-1.39.15-.38.28-.76.42-1.15.17-.46.33-.92.49-1.38.13-.39.25-.77.38-1.15.15-.46.3-.92.43-1.38.11-.39.22-.78.33-1.16.13-.46.26-.92.38-1.38.1-.39.2-.78.29-1.17.11-.46.22-.91.32-1.37.08-.39.17-.79.25-1.17.1-.46.18-.92.27-1.37.07-.4.14-.79.21-1.18.08-.45.15-.91.21-1.37.06-.39.11-.78.16-1.17.06-.46.11-.91.17-1.37.04-.4.08-.78.12-1.17.05-.46.08-.92.11-1.38.03-.39.06-.77.08-1.16.03-.46.05-.92.07-1.38.01-.39.03-.77.04-1.15.01-.46.01-.92.01-1.39v-1.14c0-.46-.02-.93-.03-1.39h.03ZM468.67,419.55c0,.32-.01.63-.02.94-.02.33-.04.66-.05.99-.02.31-.04.62-.06.93-.03.34-.05.68-.09,1.02-.03.3-.05.61-.08.92-.03.35-.07.69-.11,1.04-.04.3-.07.6-.11.91-.05.35-.1.71-.16,1.06-.04.3-.08.59-.14.89-.06.36-.13.73-.19,1.1-.05.29-.1.57-.16.86-.07.38-.16.76-.24,1.14-.06.27-.11.54-.17.82-.09.42-.2.84-.31,1.26-.06.23-.11.46-.18.7-.16.62-.33,1.23-.52,1.85-.01.04-.02.07-.03.11-.26.88-.53,1.73-.82,2.59-.09.28-.2.55-.3.83-.2.57-.4,1.13-.62,1.68-.13.33-.26.65-.39.97-.2.49-.4.98-.6,1.46-.15.34-.3.68-.46,1.01-.21.45-.41.9-.63,1.35-.17.34-.33.68-.51,1.02-.21.43-.43.85-.66,1.27-.18.34-.36.67-.55,1.01-.22.41-.45.8-.69,1.2-.19.33-.4.66-.59.99-.24.39-.48.77-.72,1.15-.2.32-.42.65-.63.97l-.75,1.09c-.22.31-.44.63-.67.93-.26.35-.53.7-.79,1.06-.23.3-.45.6-.69.9-.28.34-.56.68-.84,1.02-.24.28-.47.57-.71.85-.3.34-.61.68-.91,1.01-.23.26-.46.52-.71.78-.36.38-.72.76-1.09,1.12-.33.34-.68.68-1.02,1.01-.42.4-.83.79-1.25,1.18-.27.24-.54.48-.81.71-.32.29-.65.57-.97.84-.29.24-.58.48-.88.72-.32.26-.63.51-.95.76-.31.24-.62.46-.93.7-.32.24-.64.47-.96.7-.32.22-.64.44-.96.66-.32.22-.65.44-.97.66s-.65.43-.98.63c-.33.21-.67.41-1,.62-.33.2-.66.4-.99.59-.34.19-.68.39-1.03.57-.33.19-.68.36-1.01.55-.35.19-.7.36-1.05.54-.34.17-.68.34-1.02.51-.36.18-.72.34-1.08.51-.34.15-.68.31-1.02.46-.38.16-.76.31-1.13.47-.33.14-.67.28-1.01.41-.4.16-.8.3-1.21.45-.32.11-.63.23-.95.35-.49.17-.99.33-1.49.49-.23.08-.47.16-.7.23-.72.23-1.45.43-2.18.63-.28.08-.56.15-.83.21-.47.13-.94.24-1.41.35-.32.07-.63.14-.95.21-.44.09-.88.18-1.31.28-.33.06-.66.12-.99.18-.43.08-.86.16-1.29.22-.33.05-.67.1-1.01.15-.42.06-.85.11-1.28.17-.34.04-.68.08-1.02.11-.43.05-.86.08-1.28.12-.34.03-.68.05-1.03.08-.43.03-.86.05-1.29.07-.34.01-.68.03-1.03.04-.44.02-.87.02-1.31.03-.21,0-.42.02-.64.02-.14,0-.29,0-.43-.01-.31,0-.62,0-.93-.01-.41,0-.8-.02-1.21-.04-.32-.02-.63-.03-.94-.05-.4-.02-.8-.05-1.2-.08-.31-.03-.63-.05-.94-.08-.4-.04-.8-.08-1.2-.12-.31-.03-.63-.07-.93-.1-.4-.05-.81-.1-1.21-.16-.31-.05-.61-.08-.92-.14-.41-.06-.83-.14-1.23-.21-.3-.05-.59-.1-.89-.15-.44-.08-.89-.18-1.32-.28-.26-.06-.52-.1-.78-.16-.68-.16-1.37-.32-2.05-.51-.22-.06-.44-.12-.65-.19-.47-.13-.94-.26-1.41-.4-.29-.09-.6-.19-.89-.29-.39-.12-.77-.24-1.16-.37-.32-.11-.64-.23-.95-.34-.36-.13-.72-.26-1.07-.39-.32-.13-.65-.26-.97-.38-.35-.14-.69-.28-1.04-.42-.33-.14-.65-.28-.97-.42-.34-.15-.68-.3-1.02-.46-.32-.15-.65-.3-.97-.46-.33-.16-.67-.32-.99-.49-.32-.16-.64-.33-.96-.49-.33-.17-.65-.35-.98-.53-.31-.18-.63-.35-.94-.53-.32-.19-.65-.38-.97-.57-.31-.19-.62-.36-.92-.56-.32-.21-.64-.41-.96-.63-.3-.19-.59-.39-.89-.59-.33-.22-.66-.46-.99-.7-.28-.2-.55-.38-.83-.58-.21-.15-.42-.32-.64-.48-.22-.18-.46-.34-.68-.53-.33-.26-.67-.53-1.01-.8-.39-.31-.77-.63-1.15-.95-.25-.21-.49-.44-.74-.65-.32-.29-.65-.57-.97-.86-.26-.23-.51-.47-.76-.71-.3-.29-.6-.57-.9-.87-.25-.25-.5-.5-.74-.76-.11-.11-.22-.22-.32-.33-.19-.19-.36-.38-.55-.58-.24-.26-.49-.53-.73-.79-.28-.32-.56-.63-.84-.95-.23-.27-.47-.55-.7-.82-.28-.33-.56-.66-.83-1-.22-.28-.45-.56-.67-.84-.27-.35-.54-.7-.81-1.06-.21-.29-.42-.57-.64-.86-.27-.38-.54-.76-.8-1.14-.2-.28-.4-.57-.59-.86-.27-.41-.54-.83-.81-1.24-.17-.28-.35-.55-.53-.84-.29-.47-.57-.95-.85-1.43-.14-.24-.29-.47-.42-.72-.41-.72-.82-1.47-1.21-2.22-2.81-5.42-4.73-11.04-5.83-16.73-.85-4.42-1.22-8.88-1.11-13.29.03-1.26.1-2.52.2-3.77.1-1.26.24-2.51.42-3.74,1.67-11.8,6.59-22.99,14.04-32.12.6-.73,1.22-1.45,1.85-2.16.4-.44.8-.88,1.21-1.31.43-.46.86-.9,1.31-1.34.66-.66,1.33-1.3,2.03-1.93.92-.84,1.87-1.64,2.84-2.42,8.75-7.01,19.56-11.66,31.81-12.7h.01c.83-.07,1.65-.13,2.47-.16.26-.01.5-.02.74-.03.61-.02,1.22-.03,1.83-.04.15,0,.3-.02.46-.02h.33c.3,0,.6,0,.91.02.36,0,.71.01,1.08.03.3.01.6.03.91.04.35.02.7.04,1.06.06.3.02.6.05.91.07.35.03.69.06,1.04.09.3.03.6.06.91.1.34.04.68.07,1.03.12.3.04.6.08.9.13.33.05.67.1,1.01.15.3.05.6.1.9.16.33.06.66.12.99.19.3.06.6.11.9.18.32.07.65.15.97.21.3.07.6.14.9.21.32.08.64.16.95.23l.89.23c.32.08.63.17.93.27.3.08.59.17.89.26.31.1.61.19.91.29.3.09.59.19.88.29.3.1.6.21.9.31.29.1.58.21.87.32s.58.22.86.33c.29.11.59.22.88.35.28.11.56.24.83.35.3.12.59.24.89.37.27.13.53.24.8.37.3.14.6.27.9.41.22.11.45.22.68.33,1.21.6,2.41,1.24,3.57,1.91.2.12.41.23.6.35.31.18.61.38.92.56.22.14.44.26.65.4.3.19.59.39.89.58.22.14.44.28.65.42.29.19.58.4.86.6.22.15.43.3.65.45.28.2.56.41.83.61.21.16.43.32.64.48.28.21.55.42.82.64.2.16.42.33.63.49.27.22.53.44.8.66.21.17.41.34.6.51.27.22.52.45.79.68.2.17.4.35.59.53.26.23.51.46.77.7.19.18.39.36.58.54.25.24.49.48.74.72.19.18.38.37.56.56.24.24.48.49.72.74.18.2.36.38.54.58.24.25.47.51.7.77.17.19.35.39.53.58.21.23.41.47.62.71.03.03.05.05.06.08.17.2.34.4.51.6.22.27.44.54.66.8.16.2.32.41.48.61.22.28.43.55.65.83.15.21.31.41.46.62.21.28.42.57.62.85.15.21.3.42.45.63.2.29.41.58.6.88.14.21.28.42.42.63.2.3.4.6.59.9.1.16.2.32.3.48.03.05.06.09.09.14.2.31.39.62.57.93.13.21.24.41.36.62.19.32.37.64.56.96.11.19.21.4.32.59.19.34.38.68.55,1.02.09.17.17.34.26.51.19.37.39.75.57,1.13.03.05.04.1.06.15.68,1.4,1.31,2.84,1.89,4.29.07.19.15.37.22.55.14.34.26.69.39,1.04.08.23.17.46.26.7.11.33.22.66.33.99.08.26.18.51.26.76.1.32.2.65.29.97.08.27.16.53.24.8.09.32.18.65.27.97.08.28.15.55.22.83.08.32.16.64.23.96.07.29.14.57.2.86.07.31.14.63.2.95.06.29.13.58.18.88.06.31.11.63.17.95.05.3.1.59.16.9.05.31.09.63.14.94.05.3.09.61.13.92.04.31.07.63.11.95.04.31.07.61.1.93.03.31.06.63.08.94.03.32.05.63.07.95.02.31.04.63.06.94.02.32.04.64.05.96.02.32.02.63.03.94.01.32.02.65.02.97v.94c0,.33,0,.65-.02.98l.04.03Z"/>
  <path d="M199.94,414.75c.41.13.82.24,1.23.35.85.24,1.69.49,2.54.73.5.14.99.27,1.48.39.77.21,1.55.41,2.32.61.53.14,1.06.26,1.58.39.75.19,1.5.37,2.25.54.54.13,1.09.24,1.63.37.74.17,1.48.33,2.22.48.55.11,1.11.23,1.66.34.74.15,1.47.3,2.21.44.55.1,1.11.21,1.67.31.75.14,1.49.27,2.23.4.56.09,1.11.18,1.66.28.76.12,1.52.23,2.28.34.55.09,1.09.16,1.64.24.77.11,1.55.21,2.32.31.53.07,1.06.14,1.59.2.81.09,1.63.19,2.44.27.49.05.98.11,1.48.16.91.09,1.82.17,2.72.24.41.03.8.08,1.21.11,2.62.2,5.25.36,7.88.46.43.02.86.03,1.3.04.88.03,1.76.06,2.65.07.52,0,1.04.01,1.55.01.78,0,1.56.02,2.33.02.86,0,1.71-.02,2.56-.04.57,0,1.13-.01,1.7-.02.94-.03,1.89-.06,2.84-.1.47-.02.94-.03,1.4-.05,2.83-.14,5.67-.33,8.49-.59.43-.04.87-.09,1.3-.14.98-.09,1.95-.19,2.93-.31.54-.06,1.07-.14,1.6-.2.88-.11,1.74-.22,2.61-.34.57-.07,1.15-.17,1.72-.25.83-.12,1.66-.24,2.49-.38.59-.09,1.18-.2,1.77-.3.81-.14,1.62-.28,2.42-.43.6-.11,1.2-.23,1.8-.34.79-.16,1.59-.32,2.39-.48.6-.13,1.2-.26,1.8-.4.79-.17,1.57-.35,2.35-.54.6-.15,1.2-.29,1.8-.44.78-.19,1.56-.4,2.34-.6.6-.16,1.19-.32,1.79-.48.78-.21,1.56-.44,2.34-.66.58-.17,1.17-.33,1.75-.51.79-.24,1.58-.48,2.37-.73.56-.18,1.13-.35,1.69-.54.82-.26,1.63-.55,2.44-.82.53-.18,1.06-.36,1.59-.55.89-.32,1.77-.65,2.66-.98.45-.17.89-.32,1.33-.49,1.31-.5,2.61-1.02,3.91-1.55.01,0,.03-.01.04-.02.8-2.96,1.41-5.96,2.07-8.95.33-1.49.67-2.99,1.05-4.47.38-1.48.8-2.96,1.29-4.43.24-.71.49-1.4.76-2.09.53-1.38,1.13-2.73,1.73-4.06.31-.67.62-1.33.94-2,.63-1.32,1.27-2.65,1.88-3.99.31-.67.6-1.34.9-2.02.29-.68.57-1.36.83-2.05-1.45.66-2.91,1.31-4.38,1.93-.11.05-.24.1-.35.15-1.41.59-2.81,1.17-4.23,1.73-.19.07-.38.15-.56.22-1.38.54-2.77,1.06-4.16,1.57-.22.08-.44.16-.67.24-1.39.49-2.77.98-4.17,1.44-.23.08-.45.16-.69.22-1.4.46-2.81.91-4.22,1.33-.21.07-.43.13-.64.19-1.44.43-2.88.84-4.33,1.24-.17.05-.35.09-.52.14-1.5.41-3,.8-4.52,1.17-.08.02-.17.04-.26.06-1.54.38-3.08.73-4.64,1.07-.06.02-.13.03-.18.04-1.53.33-3.07.64-4.61.93-.16.03-.33.06-.49.1-1.49.28-2.97.54-4.46.78-.22.04-.44.07-.65.11-1.46.23-2.93.45-4.4.65-.24.04-.48.07-.72.1-1.46.19-2.93.38-4.39.53-.23.03-.47.05-.71.08-1.48.16-2.96.3-4.44.42-.21.02-.42.03-.63.05-1.52.12-3.04.22-4.56.31-.15,0-.3.01-.45.02-1.58.08-3.17.15-4.76.19h-.1c-1.59.04-3.18.06-4.78.06h-.38c-.68,0-1.35,0-2.04-.01-.26,0-.52,0-.79-.01-.94-.01-1.88-.04-2.81-.06-.2,0-.4-.01-.6-.03-.73-.03-1.47-.05-2.21-.08-.35-.02-.69-.04-1.04-.06-.59-.03-1.18-.06-1.77-.1-.39-.03-.78-.05-1.16-.08-.55-.04-1.1-.07-1.65-.11-.4-.03-.81-.06-1.2-.09-.54-.05-1.07-.09-1.6-.14-.41-.04-.82-.08-1.23-.13-.52-.05-1.05-.1-1.57-.16-.42-.04-.83-.09-1.25-.14-.52-.06-1.04-.12-1.55-.19-.42-.05-.83-.1-1.26-.16-.52-.06-1.02-.14-1.54-.2-.42-.06-.84-.11-1.26-.18-.51-.08-1.03-.15-1.54-.23-.42-.07-.83-.13-1.24-.2-.51-.08-1.03-.17-1.54-.26-.41-.07-.83-.14-1.24-.22-.52-.09-1.03-.19-1.54-.29-.41-.07-.82-.15-1.22-.23-.52-.1-1.04-.21-1.56-.32-.4-.08-.79-.16-1.18-.24-.54-.11-1.07-.23-1.6-.35-.38-.08-.76-.17-1.14-.26-.56-.13-1.11-.27-1.67-.4l-1.06-.25c-.63-.16-1.26-.32-1.9-.48-.27-.07-.55-.14-.82-.21-.9-.24-1.81-.48-2.71-.74-.11-.03-.23-.06-.34-.1-.78-.23-1.56-.45-2.34-.68-.31-.09-.61-.19-.93-.29-.58-.18-1.17-.36-1.75-.55-.35-.11-.71-.23-1.06-.35-.53-.17-1.07-.34-1.6-.53-.37-.13-.74-.26-1.12-.39-.51-.18-1.02-.35-1.53-.54-.39-.14-.77-.28-1.16-.42-.49-.18-.98-.36-1.47-.55-.4-.15-.78-.3-1.17-.45-.48-.19-.97-.37-1.44-.57-.4-.15-.79-.31-1.18-.47-.47-.19-.95-.39-1.42-.59-.39-.16-.79-.33-1.17-.49-.47-.2-.94-.41-1.42-.61-.39-.17-.78-.34-1.16-.52-.47-.21-.94-.43-1.41-.64-.39-.18-.77-.35-1.15-.54-.47-.22-.94-.44-1.41-.67-.38-.18-.75-.36-1.13-.55-.47-.23-.94-.47-1.41-.7l-1.11-.56c-.47-.24-.95-.49-1.43-.74l-1.06-.56c-.49-.27-.98-.54-1.48-.81-.33-.18-.67-.36-.99-.55-.53-.3-1.07-.61-1.6-.92-.28-.16-.56-.32-.84-.48-.79-.46-1.57-.94-2.36-1.41-.02-.01-.04-.03-.06-.04l27.67,44.81c1.25.4,2.5.79,3.76,1.16l.03.03Z"/>
  <path d="M414.49,334.92c28.25-48.94,27.26-111.45,5.54-162.71l-3.24-5.46-2.16-3.64v42.82c0,1.67-1.05,4.21-2.51,6.71-.63,1.08-1.33,2.14-2.05,3.13-.48.66-.98,1.29-1.47,1.85-.98,1.14-1.94,2.07-2.78,2.6.53,3.07.96,6.14,1.3,9.19.08.77.16,1.53.23,2.28.36,3.81.58,7.6.65,11.39.01.76.03,1.52.03,2.27,0,1.52,0,3.02-.04,4.53-.02.76-.04,1.51-.07,2.26-.14,3.77-.42,7.52-.82,11.28-.57,5.24-1.39,10.48-2.44,15.71-.3,1.49-.61,2.99-.96,4.48-.68,2.99-1.42,5.97-2.24,8.96-.64,2.32-2.45,5.85-3.22,8.38-.18.59-.3,1.11-.34,1.56-.3,3.62,1.42,9.85,2.2,14.85.18,1.15.3,2.24.35,3.21.23,5.65-.68,9.78-4.32,13.56,0,.01-.01.02-.02.02-.52.54-1.09,1.06-1.72,1.58l10.51-.43,9.59-.39h0Z"/>
  <path d="M147.94,329c.1.02.21.02.33.03.04,0,.08.01.13.02.09,0,.19.01.28.02.05,0,.11.01.16.02.1,0,.22.01.33.02.06,0,.11,0,.18,0,.15,0,.3.01.45.02h.11c.2,0,.4.01.62.03h.18c.16,0,.33.01.49.01.08,0,.18,0,.27,0,.16,0,.31,0,.47.02.09,0,.19,0,.28,0,.18,0,.36,0,.55.01h.24c.26,0,.54.01.82.02h.21c.21,0,.43,0,.64,0h5.8c.27,0,.53,0,.8,0h.4c.27,0,.53,0,.8-.02h.38c.31,0,.61-.01.91-.02h.22c.38-.01.76-.02,1.12-.03h.19c.3,0,.59-.02.88-.03.11,0,.22,0,.33-.02.23,0,.47-.02.7-.03.12,0,.23-.01.35-.01.22-.02.44-.02.65-.03.11,0,.21-.02.31-.02.23-.01.46-.03.68-.04.07,0,.15,0,.23-.02.29-.02.56-.04.82-.06.03,0,.06,0,.09,0,.23-.02.44-.04.64-.06.08,0,.15-.02.22-.03.15-.02.3-.03.43-.05.07,0,.14-.02.21-.03.13-.02.23-.03.34-.05.06-.01.12-.02.18-.03.1-.02.2-.04.29-.06.04,0,.08-.02.12-.03.12-.03.21-.06.29-.09,3.35-1.43,3.89-6.55,1.2-8.95-.74-.67-1.98-1.06-3.41-1.32-1.04-.18-2.2-.28-3.34-.35-.63-.04-1.26-.06-1.87-.09-1.48-.06-2.85-.11-3.87-.27l95.02-84c.14-.15.27-.29.39-.45.04-.05.07-.1.11-.15.08-.1.16-.2.23-.31.04-.06.08-.11.11-.17.07-.1.13-.2.18-.29.04-.06.07-.13.11-.19.05-.09.1-.19.15-.29.03-.06.07-.13.09-.19.04-.09.08-.19.12-.28.03-.06.05-.13.08-.19.03-.1.06-.19.09-.29.02-.06.04-.13.06-.18.02-.1.05-.2.07-.3.02-.06.03-.11.04-.18.02-.11.04-.21.05-.32.01-.05.02-.1.02-.15.02-.14.03-.28.03-.41v-.06c0-.16,0-.32,0-.47,0-.03,0-.05,0-.07-.01-.13-.02-.26-.04-.39,0-.05-.01-.09-.02-.14-.02-.1-.03-.21-.06-.31-.01-.05-.03-.1-.04-.16-.03-.1-.05-.19-.08-.28-.01-.05-.03-.1-.05-.16-.03-.09-.06-.18-.09-.27-.02-.05-.04-.1-.07-.16-.04-.09-.08-.17-.12-.26-.03-.05-.05-.1-.07-.15-.04-.09-.09-.17-.15-.26-.03-.05-.05-.09-.08-.13-.06-.09-.11-.18-.18-.26-.03-.04-.05-.07-.07-.11-.08-.1-.16-.2-.24-.29l-.05-.06c-.2-.23-.42-.45-.66-.65-.03-.03-.06-.05-.09-.07-.09-.07-.18-.15-.28-.21-.04-.03-.09-.06-.13-.08-.08-.06-.18-.11-.27-.17-.05-.03-.09-.06-.15-.08-.08-.05-.18-.1-.27-.14-.05-.03-.11-.05-.16-.08-.09-.05-.18-.08-.27-.13-.06-.03-.11-.04-.17-.07-.1-.04-.19-.07-.29-.1-.06-.02-.12-.04-.18-.06-.1-.03-.2-.06-.3-.08-.06-.02-.13-.04-.18-.05-.11-.03-.22-.05-.34-.06-.05-.01-.1-.02-.16-.03-.16-.02-.31-.04-.47-.05h-.05c-.18-.02-.35-.02-.53-.02-.26,0-.52.02-.79.05-.06,0-.13.01-.19.03-.27.03-.55.08-.82.14l-11.76,10.32-84.82,74.49c-.84-2.45.01-5.21-.38-7.71-.03-.19-.07-.39-.11-.57-.02-.06-.04-.11-.05-.17-.04-.13-.07-.24-.11-.35-.03-.07-.05-.13-.08-.19-.04-.1-.08-.2-.13-.3-.03-.07-.06-.13-.1-.19-.04-.09-.09-.18-.15-.27-.04-.06-.08-.13-.11-.18-.05-.08-.11-.16-.17-.23-.04-.06-.09-.11-.13-.17-.06-.07-.13-.15-.19-.21-.05-.05-.1-.1-.15-.15-.06-.06-.14-.13-.2-.19-.05-.04-.1-.09-.16-.14-.08-.06-.15-.11-.22-.17-.05-.04-.11-.08-.16-.11l-.25-.16c-.05-.03-.1-.06-.16-.09-.1-.05-.2-.1-.3-.15-.05-.02-.09-.04-.14-.06-.15-.06-.3-.13-.46-.17,0,0-.02,0-.03,0-.15-.05-.29-.09-.44-.13-.05-.01-.11-.02-.16-.03-.1-.02-.21-.05-.32-.06-.06,0-.13-.02-.19-.02-.1-.01-.2-.02-.3-.03-.07,0-.14,0-.21,0h-.28c-.1,0-.21,0-.31.01-.08,0-.16.01-.23.02-.11.01-.22.03-.33.04-.07.02-.14.02-.22.04-.12.02-.24.05-.36.07-.06.02-.13.03-.18.04-.17.05-.33.09-.5.16-.02,0-.02,0-.03,0-.18.06-.35.14-.52.22l-.16.08c-.11.06-.24.11-.35.19-.07.04-.13.08-.19.11-.1.06-.21.13-.3.2-.06.05-.13.1-.19.15-.09.07-.19.14-.28.22-.07.05-.13.11-.19.17-.08.08-.17.15-.25.23-.06.07-.13.13-.18.2-.08.08-.16.17-.23.26-.06.07-.11.14-.17.21-.07.1-.14.19-.2.29-.05.07-.1.15-.16.23-.06.1-.13.21-.19.32-.04.08-.09.17-.14.25-.06.11-.11.23-.16.35-.04.09-.07.18-.11.27-.05.13-.09.26-.14.39-.03.09-.06.18-.09.27-.05.15-.08.3-.12.46-.02.08-.04.17-.06.25-.05.23-.08.47-.11.72,0,.01,0,.03,0,.04-.2,1.64-.42,4.41-.58,7.45-.02.51-.05,1.02-.07,1.54-.02.26-.03.52-.04.78-.18,4.43-.24,8.97.01,11.17.46,3.98,3.44,5.31,7.09,5.71l.03-.03Z"/>
  <path d="M360.55,319.82c-1.57.8-2.61,2.19-2.54,4.73.04,1.3.41,2.3,1.02,3.06.3.38.67.71,1.08.98.61.41,1.32.72,2.08.95.98.3,2.06.47,3.12.58.05,0,.11.02.16.02.51.05.99.09,1.47.14.29.02.56.05.83.06.11,0,.22.02.35.03.04,0,.08,0,.13,0,.08,0,.18.02.27.02.05,0,.11,0,.17,0,.1,0,.19.02.29.02.05,0,.11,0,.16,0,.11,0,.24.02.35.02.05,0,.09,0,.14,0,.17,0,.33.01.52.02h.16c.13,0,.27.01.4.01.07,0,.15,0,.22,0,.12,0,.25.01.38.02h.22c.15,0,.3,0,.45.01h.18c.2,0,.42.01.63.02h.19c.16,0,.32,0,.48,0h4.4c.19,0,.39,0,.58-.01h.31c.2,0,.4-.01.59-.02.09,0,.19,0,.28,0,.24,0,.48-.02.72-.03h.14c.28-.02.56-.03.83-.04.07,0,.13-.01.2-.02.2-.01.41-.02.61-.03.09,0,.18-.02.27-.02.17-.01.35-.03.52-.03.09,0,.18-.01.27-.02.17-.01.33-.03.49-.04.08,0,.18-.02.26-.02.18-.02.35-.03.52-.05.06,0,.11-.01.17-.02.22-.03.44-.05.66-.08.03,0,.07-.02.1-.02.17-.03.34-.05.5-.08.07-.01.13-.02.19-.03.13-.02.24-.05.36-.06.06-.02.13-.03.18-.04.11-.03.21-.04.31-.07.06-.02.11-.03.17-.05.09-.03.19-.06.28-.08.05-.02.09-.03.13-.04.12-.04.23-.09.33-.13.62-.3,1.34-.88,1.99-1.57.09-.09.18-.2.27-.3.18-.21.35-.41.5-.63.47-.64.83-1.3.96-1.88.48-2.1-.87-12.42-1.69-17.62-.15-.97-.29-1.75-.38-2.28-.08-.43-.18-.85-.27-1.25-.03-.14-.07-.26-.11-.39-.07-.27-.14-.52-.22-.77-.05-.15-.1-.29-.14-.43-.07-.22-.15-.44-.23-.65-.05-.14-.11-.28-.17-.41-.08-.19-.16-.38-.24-.57-.06-.13-.12-.26-.19-.39-.08-.17-.17-.34-.26-.5-.07-.13-.14-.24-.21-.35-.09-.16-.19-.31-.29-.45-.07-.1-.14-.21-.21-.31-.1-.14-.21-.28-.31-.41-.07-.09-.14-.18-.21-.27-.11-.13-.23-.25-.34-.38-.07-.07-.14-.15-.21-.21-.14-.13-.27-.24-.4-.36-.05-.04-.11-.09-.16-.14-.19-.15-.39-.3-.59-.42-.03-.02-.05-.03-.08-.05-.17-.1-.34-.2-.52-.29-.07-.04-.14-.06-.2-.09-.13-.06-.27-.11-.4-.16-.07-.03-.16-.05-.23-.07-.13-.04-.24-.07-.36-.1-.09-.02-.17-.03-.26-.05-.11-.02-.23-.04-.34-.04-.09-.01-.17-.02-.26-.02h-.31c-.13,0-.24.02-.36.03-.09.02-.18.02-.27.04-.13.02-.24.05-.36.08-.08.03-.17.04-.26.07-.12.04-.23.09-.35.14-.07.04-.15.07-.22.1-.13.07-.24.14-.36.22-.07.04-.13.07-.19.12-.16.11-.31.23-.46.37-.02.02-.04.03-.05.05-.17.16-.32.33-.47.51-.04.05-.08.1-.12.15-.1.14-.21.29-.31.43-.05.08-.09.16-.14.24-.08.14-.16.28-.23.43-.05.09-.08.19-.13.29-.06.15-.12.31-.18.46-.04.11-.07.23-.1.34-.05.16-.09.32-.14.49-.03.12-.05.25-.08.37-.03.18-.06.35-.08.54-.02.14-.03.27-.05.41-.02.19-.03.39-.04.58,0,.14-.02.29-.02.44,0,.21,0,.42.02.63,0,.15.01.31.02.46.02.23.04.47.07.71.02.16.03.3.06.46.04.27.1.55.15.82.03.14.04.27.08.41.09.43.2.86.33,1.3l-2.02-1.01-67.78-63.04s-.02,0-.02-.01c-.19-.17-.4-.33-.6-.49-.07-.05-.14-.1-.21-.16-.15-.11-.3-.22-.44-.33-.08-.06-.16-.11-.24-.17-.15-.1-.3-.19-.44-.29-.08-.05-.16-.1-.24-.15-.17-.1-.35-.2-.54-.3-.05-.03-.11-.06-.16-.08-.23-.11-.46-.22-.7-.31-.07-.03-.13-.05-.19-.07-.18-.06-.35-.13-.52-.17-.09-.03-.17-.05-.26-.07-.16-.04-.32-.07-.47-.1-.08-.01-.18-.03-.26-.04-.17-.02-.34-.03-.52-.04-.08,0-.15-.02-.22-.01-.05,0-.11,0-.16.01-.14,0-.28.02-.42.04-.07,0-.13.02-.19.03-.15.03-.29.06-.43.1-.05.01-.1.02-.16.04-.18.06-.37.13-.56.21-.04.02-.08.04-.11.06-.15.07-.3.15-.44.24-.06.04-.11.07-.18.11-.13.09-.27.18-.4.28-.05.05-.11.08-.16.13-.18.16-.35.32-.53.49-2.19,2.32-2.41,4.3-1.63,6.05.13.29.29.58.47.85.27.42.6.83.96,1.22,1.81,1.98,4.54,3.7,6.3,5.36,4.16,3.94,8.36,7.83,12.56,11.72,11.23,10.35,22.59,20.56,33.86,30.85,7.05,6.43,14.07,12.9,20.99,19.47-2.4.86-6.1.6-9.02,1.28-.69.16-1.33.38-1.9.67l-.03.02Z"/>
  <path d="M313.14,147.6l-10.45,25.63h20.91l-5.65-13.84-4.81-11.79Z"/>
  <path d="M140.88,382.58v-.05c-.02-.24-.05-.49-.08-.73-.01-.09-.03-.18-.05-.27-.03-.16-.06-.32-.09-.48-.03-.1-.05-.2-.08-.3-.04-.14-.07-.28-.11-.41-.03-.1-.07-.19-.1-.29-.05-.12-.09-.25-.14-.37-.04-.1-.08-.19-.13-.29-.05-.11-.1-.23-.16-.34-.05-.09-.1-.18-.16-.27-.06-.1-.12-.21-.18-.31-.06-.08-.12-.17-.18-.24-.07-.1-.14-.19-.21-.29-.06-.07-.14-.15-.2-.22-.08-.08-.16-.17-.24-.25-.07-.07-.15-.14-.22-.21-.08-.07-.17-.15-.26-.22-.08-.06-.16-.12-.24-.18-.1-.06-.19-.13-.29-.19-.08-.05-.17-.1-.27-.15-.1-.06-.2-.11-.31-.16-.1-.05-.19-.09-.29-.13-.11-.05-.22-.09-.34-.13-.1-.04-.21-.07-.31-.1-.11-.04-.23-.07-.36-.1-.11-.03-.22-.05-.33-.08-.13-.03-.26-.04-.4-.06-.11-.02-.23-.03-.35-.05-.14-.01-.28-.03-.42-.03-.12,0-.24-.01-.36-.01-.23,0-.46,0-.7,0-1.11.06-2.64.49-3.94,1.22-.16.09-.32.19-.47.29-1.08.7-1.94,1.63-2.15,2.74l.61,55.32h0c.07.11.14.21.21.32.03.03.06.06.08.1.06.06.11.14.18.19.04.04.07.07.11.11.06.06.12.11.19.17.04.04.09.07.14.11.06.05.14.1.2.15.05.04.1.07.15.1.07.05.15.09.22.14.05.03.1.06.16.09.08.04.17.09.26.13l.16.08c.1.05.2.09.31.13.05.02.08.04.13.05.15.06.3.11.46.16.03,0,.05.01.08.03.14.04.27.07.41.11.06.01.11.03.17.04l.33.08c.06.02.14.03.21.04.1.02.21.04.31.06.07.01.14.02.22.03.1.01.21.03.32.04.07.01.15.02.22.03.11.02.22.02.32.03.07,0,.14.02.22.02.11,0,.23,0,.34.01h.43c.13,0,.26,0,.39-.01.09,0,.17-.02.24-.02.13,0,.24-.02.37-.03.08,0,.17-.02.25-.03.11-.01.24-.03.35-.04.08-.02.17-.03.25-.04.12-.02.23-.04.35-.06.08-.02.16-.03.24-.05.11-.03.23-.06.35-.09.07-.02.15-.04.22-.07.12-.04.24-.07.36-.11.06-.02.13-.04.19-.06.15-.06.3-.11.44-.18.03-.01.06-.03.08-.04.17-.08.34-.16.49-.25.05-.03.09-.06.14-.09.11-.06.22-.13.32-.2.06-.04.11-.08.16-.13.09-.06.17-.13.26-.2.05-.05.1-.09.16-.14.08-.07.15-.14.22-.21.05-.05.1-.11.15-.16.06-.08.13-.15.19-.23.04-.06.08-.12.13-.18l.16-.25c.04-.06.07-.13.1-.19.04-.09.08-.19.12-.29.03-.06.05-.13.08-.19.04-.11.06-.22.09-.33.02-.06.04-.11.05-.18.03-.17.06-.34.07-.53v-.02c-.6-10.23.1-21.1.38-31.78.06-2.13.09-4.26.1-6.36,0-1.06,0-2.11-.01-3.16-.04-3.14-.16-6.23-.41-9.27l-.02-.03Z"/>
  <path d="M141.23,453.2c0-.14-.02-.28-.03-.41-.01-.07-.02-.15-.02-.21-.03-.17-.05-.35-.09-.52,0-.03-.01-.07-.02-.09-.04-.2-.09-.41-.16-.61-.01-.04-.02-.08-.04-.11-.05-.16-.1-.32-.16-.48-.03-.06-.05-.13-.08-.19-.05-.13-.1-.26-.16-.39-.03-.07-.07-.14-.11-.21-.06-.11-.11-.23-.18-.35-.04-.07-.09-.15-.13-.22-.07-.11-.13-.21-.2-.32l-.16-.22c-.07-.1-.14-.2-.22-.3-.06-.07-.11-.14-.17-.21-.08-.09-.16-.19-.24-.28-.06-.06-.13-.13-.19-.2-.08-.08-.17-.17-.27-.26-.06-.06-.14-.12-.2-.18-.09-.08-.19-.16-.29-.23-.07-.06-.14-.11-.22-.17-.09-.07-.2-.14-.3-.2-.08-.05-.15-.1-.23-.15-.11-.06-.22-.12-.33-.18-.08-.05-.16-.08-.24-.13-.11-.06-.24-.11-.35-.16-.08-.03-.16-.07-.24-.1-.13-.05-.27-.09-.39-.13-.08-.03-.16-.05-.24-.08-.16-.05-.31-.08-.46-.11-.06-.02-.13-.03-.2-.05-.23-.04-.46-.07-.69-.09h-.08c-.2-.02-.42-.03-.63-.03-.17,0-.34.01-.52.03-.09,0-.17,0-.27.01-.26.03-.53.07-.8.12h0c-.31.06-.6.14-.89.22-.09.03-.18.06-.27.09-.18.06-.37.13-.55.2-.09.05-.19.09-.28.14-.16.08-.31.16-.45.23-.09.05-.18.11-.27.16-.13.09-.27.18-.4.28-.08.06-.16.11-.23.18-.13.11-.25.22-.37.33-.06.06-.13.11-.18.17-.13.13-.24.27-.35.41-.02.02-.04.05-.06.07s-.05.05-.07.08c-.15.19-.28.4-.41.6l-.09.17c-.08.16-.17.31-.24.46-.04.08-.07.16-.1.24-.06.14-.11.29-.17.44-.03.08-.06.17-.08.27-.05.15-.08.3-.13.44-.02.09-.04.17-.06.27-.03.16-.06.31-.08.47-.01.08-.03.16-.03.24-.02.19-.03.39-.05.59,0,.05,0,.09,0,.15,0,.25,0,.49.02.74,0,.05.01.1.01.15.02.2.03.4.06.6.02.08.03.16.04.24.03.17.06.33.09.49.02.09.04.17.07.26.04.16.08.31.13.46.02.09.05.18.08.26.05.15.11.31.17.45.03.08.06.16.1.24.07.17.15.33.23.49.03.06.06.12.08.18.11.22.24.43.38.64.01.02.03.04.04.06.13.18.25.36.39.53.05.06.1.11.15.17.1.13.21.25.33.37.06.06.13.13.19.18.11.1.22.21.33.31.07.06.14.11.21.17.11.1.24.18.36.27.07.05.15.1.23.15.14.08.28.17.42.24.07.04.14.08.21.11.21.1.43.19.66.27h.01c.23.08.47.14.72.19.08.02.16.03.23.04.17.04.34.06.52.07.1,0,.2.01.3.01.19.01.39.02.58.01h.11c.26-.02.52-.05.78-.09.04,0,.09-.01.14-.03.26-.04.53-.11.8-.18.05-.02.09-.03.15-.05.28-.08.56-.18.85-.3.03-.02.07-.03.1-.05.31-.13.61-.27.93-.44,0,0,0,0,.01,0,.22-.13.44-.25.66-.39.07-.05.14-.1.21-.14.14-.1.27-.19.39-.29.08-.06.15-.12.22-.19.11-.09.22-.18.32-.28.07-.07.14-.14.2-.21.09-.09.18-.19.27-.28.06-.08.12-.16.19-.23.08-.09.15-.19.22-.29.06-.08.11-.16.16-.24.06-.1.13-.21.19-.31.04-.08.09-.17.14-.25.05-.1.11-.21.15-.32.03-.06.05-.11.07-.17.01-.03.03-.06.04-.09.05-.11.08-.22.13-.33.03-.09.06-.18.09-.27.03-.11.07-.22.09-.33.02-.09.04-.18.06-.27.03-.11.05-.23.06-.35.01-.09.03-.18.04-.26.02-.13.03-.24.04-.36,0-.08.01-.17.02-.26v-.63h-.01Z"/>
  <path d="M344.69,469.69c-27.28,11.35-57.18,17.63-88.53,17.63-13.74,0-27.2-1.21-40.29-3.52-3.65,2.97-8.23,4.86-13.26,5.32l-.35.03h-4.65c19.01,4.77,38.6,7.18,58.55,7.18,32.42,0,63.88-6.35,93.48-18.87.6-.25,1.18-.52,1.78-.78-2.39-2.19-4.64-4.53-6.73-6.98h-.01Z"/>
  <path d="M77.79,403.03c-32.96-39.96-52.78-91.14-52.78-146.86,0-127.46,103.7-231.16,231.15-231.16s231.15,103.7,231.15,231.15c0,37.11-8.8,72.21-24.41,103.32,2.31,2.26,4.5,4.65,6.54,7.18,2.88-5.55,5.55-11.22,8.01-17.02,12.52-29.61,18.88-61.07,18.88-93.48s-6.35-63.88-18.88-93.48c-12.1-28.6-29.41-54.29-51.47-76.34-22.05-22.05-47.73-39.37-76.33-51.46-29.61-12.53-61.07-18.88-93.48-18.88s-63.88,6.35-93.48,18.88c-28.6,12.1-54.29,29.41-76.34,51.46s-39.37,47.73-51.46,76.34c-12.53,29.61-18.88,61.07-18.88,93.49s6.35,63.87,18.88,93.48c9.53,22.53,22.31,43.23,38.08,61.79,1.63-2.81,3.23-5.62,4.83-8.42h0Z"/>
  <path d="M203.35,481.22c1.53-.27,2.97-.71,4.29-1.33,2.88-1.34,5.21-3.44,6.71-5.97.3-.51.57-1.04.8-1.58.12-.27.23-.55.32-.82.2-.55.36-1.13.49-1.7.69-3.2.23-6.74-1.73-10.22l-69.05-110.32c-.26-.27-.52-.53-.78-.78-.09-.07-.17-.15-.26-.22-.19-.17-.39-.34-.58-.5-.09-.08-.19-.16-.29-.24-.2-.16-.41-.32-.61-.47-.08-.06-.17-.13-.25-.19-.3-.21-.59-.41-.9-.59-.04-.03-.08-.05-.13-.07-.26-.16-.53-.32-.8-.46-.1-.05-.21-.1-.31-.16-.22-.11-.44-.22-.66-.32-.11-.05-.22-.1-.33-.15-.24-.1-.48-.2-.73-.3-.08-.03-.17-.07-.26-.1-.33-.13-.67-.24-1-.34-.07-.02-.14-.04-.21-.06-.27-.08-.54-.16-.82-.22l-.34-.08c-.24-.05-.48-.1-.72-.14-.11-.02-.23-.05-.35-.06-.28-.05-.55-.08-.83-.11-.08-.01-.16-.02-.24-.04-.35-.04-.71-.06-1.07-.07-.09,0-.18,0-.27-.01-.27,0-.54-.01-.81,0-.14,0-.27,0-.41.02-.24,0-.47.02-.72.04-.14,0-.28.02-.41.03-.26.03-.51.05-.77.08-.12.02-.24.03-.35.05-.38.05-.74.11-1.11.19-1.3.27-2.47.82-3.55,1.55-.38.26-.74.54-1.1.84-.28.23-.56.48-.83.74-2.03,1.94-3.68,4.41-5.14,6.49-11.38,16.16-21.56,33.78-31.72,51.48-.8,1.4-1.6,2.79-2.4,4.18l-1.41,2.45c-1.13,1.96-2.26,3.92-3.39,5.88-7.8,13.48-15.73,26.8-24.33,39.33-.48.75-.9,1.51-1.27,2.25-.18.38-.34.75-.49,1.11-.44,1.11-.74,2.21-.93,3.29-.23,1.43-.25,2.82-.06,4.16.14,1,.39,1.97.74,2.9.83,2.16,2.21,4.1,4.02,5.73.52.46,1.06.9,1.65,1.31s1.19.79,1.84,1.15c1.6.89,3.38,1.57,5.29,2.03,1.14.28,2.33.47,3.55.58h133.57c.49-.05.97-.11,1.45-.2l-.02-.02ZM147.15,470.51h-.14c-1.46.05-2.92.09-4.38.14-.71.03-1.42.05-2.14.07-1.02.03-2.04.06-3.06.1-1.06.03-2.13.07-3.18.1-.65.02-1.29.05-1.94.07-.9.03-1.79.06-2.68.08-.61.02-1.21.04-1.82.06-.92.03-1.85.06-2.77.08-.55.01-1.09.03-1.64.05-1.15.03-2.29.06-3.43.09-.32,0-.64.02-.96.03-1.45.04-2.89.07-4.33.09-.4.01-.78.02-1.17.02-1.06.02-2.1.04-3.16.06-.53.01-1.06.02-1.59.02-.92.01-1.84.03-2.75.03-.57,0-1.14,0-1.71.02-.89,0-1.77,0-2.65.01h-3.57c-.71,0-1.42,0-2.14-.01-.56,0-1.13-.02-1.69-.02-.71,0-1.41-.02-2.11-.03-.57-.02-1.14-.02-1.7-.03-.7-.02-1.41-.04-2.11-.05-.56-.02-1.12-.03-1.68-.05-.71-.02-1.43-.05-2.15-.08-.54-.02-1.08-.04-1.62-.06-.75-.03-1.49-.07-2.23-.1-.5-.03-1.01-.05-1.51-.07-.82-.04-1.65-.09-2.46-.14-.42-.03-.85-.04-1.27-.08-1.24-.07-2.47-.17-3.7-.26-4.79-.38-9.23-1.22-8.33-6.24.03-.18.07-.35.11-.54.09-.36.2-.75.34-1.16l22.6-36.63,4.93-7.98,38.34-62.14c.68-.5,2.02-1.13,2.83-1.16h.06c.07,0,.15.01.22.03.07,0,.14,0,.21.02.09.02.19.05.28.07.08.02.16.04.23.06.09.03.19.07.29.11.08.04.16.06.24.09.1.04.2.09.3.14.08.04.16.07.24.11.1.05.2.11.3.17.07.05.15.09.22.13.1.07.19.13.29.19.06.05.14.08.2.13.1.07.19.14.28.21.05.04.1.08.16.11.13.11.25.21.35.32l67.81,109.57c-.01.91-.18,1.63-.48,2.19-.38.7-.95,1.17-1.66,1.47-.99.44-2.24.59-3.56.7-1.74-.1-3.48-.19-5.23-.27-.43-.02-.86-.04-1.3-.05-1.73-.07-3.47-.13-5.21-.17h-.23c-1.69-.05-3.4-.07-5.1-.1-.43,0-.87-.01-1.3-.01-1.75-.02-3.51-.03-5.27-.03h-.85c-1.15,0-2.3,0-3.45.01-.53,0-1.05.02-1.57.02h-.56c-.74,0-1.49.01-2.23.03-.57,0-1.15.02-1.72.02-.9.02-1.79.04-2.68.05-.58.02-1.16.03-1.73.03-.91.02-1.82.04-2.73.07-.55.01-1.1.03-1.65.04-.99.03-1.99.05-2.98.08-.46.01-.92.03-1.38.04-1.22.03-2.45.07-3.68.11-.18,0-.36.02-.54.02h.02Z"/>
  <path d="M447.53,390.07v-.05c-.03-.19-.06-.37-.1-.55-.01-.05-.03-.1-.04-.16-.03-.14-.07-.27-.11-.4-.02-.05-.03-.1-.05-.16-.05-.16-.11-.31-.18-.47,0-.02-.01-.03-.02-.05-.07-.17-.16-.34-.24-.5-.03-.05-.05-.09-.07-.13-.06-.12-.14-.24-.21-.36-.01-.02-.02-.03-.03-.04-.02-.03-.04-.06-.06-.09-.09-.15-.19-.28-.29-.41-.01-.02-.03-.04-.03-.05-.11-.15-.23-.3-.35-.44-.03-.04-.06-.07-.1-.1-.09-.11-.19-.21-.29-.32-.04-.04-.08-.08-.12-.11-.12-.11-.24-.23-.36-.33-.02-.02-.03-.03-.05-.05-.14-.12-.3-.23-.44-.35l-.11-.08c-.13-.08-.24-.17-.37-.25-.05-.03-.09-.06-.14-.08-.14-.08-.28-.17-.42-.24-.03-.01-.05-.03-.07-.04-.17-.09-.33-.18-.51-.24-.04-.02-.08-.03-.13-.05-.14-.06-.27-.11-.41-.16-.05-.02-.1-.04-.15-.05-.15-.05-.3-.09-.45-.14-.03,0-.06-.02-.09-.03-.18-.04-.36-.09-.54-.12-.05-.01-.09-.02-.13-.02-.14-.03-.28-.05-.42-.06-.06,0-.11-.02-.18-.02-.15-.01-.29-.02-.44-.03h-.12c-.11,0-.22,0-.32.02-.1,0-.19,0-.29.01-.1,0-.2.03-.31.04-.1.01-.2.02-.3.04-.1.02-.21.05-.3.07-.1.03-.2.04-.3.07-.1.03-.2.07-.3.1-.09.03-.2.06-.3.1-.1.04-.2.09-.3.14-.09.05-.19.09-.28.13-.1.05-.21.11-.31.18-.08.05-.18.09-.26.15-.11.07-.22.16-.33.24-.07.05-.14.1-.21.16-.16.13-.31.26-.46.41-.02.02-.05.04-.06.06l-36.31,48.31-24.8-25.08c-.24-.14-.49-.24-.74-.35-.06-.02-.11-.04-.17-.06-.24-.09-.49-.18-.74-.24-.04-.01-.08-.02-.11-.03-.22-.05-.46-.09-.69-.13-.05,0-.1-.01-.15-.02-.25-.03-.5-.05-.76-.05h-.46c-.17,0-.34.03-.5.05-.03,0-.06,0-.09.01-.14.02-.27.04-.4.07-.06.01-.11.02-.17.03-.11.03-.22.04-.33.08-.06.01-.12.03-.17.04-.12.03-.23.07-.34.1-.05.02-.09.03-.14.05-.16.05-.31.11-.46.17-.03.02-.06.03-.08.04-.12.05-.25.11-.38.17-.05.03-.1.05-.15.07-.1.05-.2.1-.3.16-.05.03-.1.06-.16.09-.1.06-.2.13-.3.19-.04.03-.08.05-.13.08-.14.09-.27.19-.4.29-.03.02-.05.04-.07.06-.1.08-.21.17-.31.26-.05.04-.08.08-.13.12-.08.07-.16.15-.24.22-.04.04-.09.08-.13.13-.08.08-.16.16-.23.24-.04.04-.07.08-.11.13-.1.12-.2.24-.3.38-.01.02-.03.04-.04.06-.08.11-.16.22-.23.33-.03.05-.06.1-.09.15-.06.09-.11.18-.16.28-.03.05-.06.1-.08.16-.05.09-.1.19-.14.3-.02.04-.05.09-.07.14-.06.15-.12.3-.17.44,0,.02-.01.04-.02.06-.04.14-.08.27-.11.41-.01.05-.03.11-.04.16-.03.11-.05.21-.07.32-.01.06-.02.11-.03.17-.01.11-.03.22-.04.33,0,.05-.02.11-.02.16-.01.17-.01.34-.01.51v.03c0,.16.01.32.03.47,0,.06.02.12.02.17.01.11.03.23.06.35.01.06.03.13.04.18.03.13.06.24.09.36.01.06.03.11.04.17.05.17.12.35.18.53h0c.24.64.79,1.44,1.38,2.23.15.2.29.4.45.59.45.58.9,1.12,1.25,1.54,2.1,2.54,4.4,5.02,6.8,7.46,1.2,1.22,2.43,2.43,3.67,3.64,2.47,2.42,4.99,4.83,7.46,7.27,1.23,1.22,2.45,2.45,3.64,3.68.48.49.95,1,1.42,1.5,1.28,1.38,2.53,2.77,3.72,4.17.54.65,1.07,1.3,1.59,1.95.22.14.43.27.65.39.07.04.14.08.21.12.05.02.09.05.15.07.09.05.18.1.27.15.08.04.16.08.24.11.12.06.24.11.36.17.08.03.16.07.24.1.11.05.22.09.34.14.08.03.16.06.23.08.11.04.22.07.33.1.07.02.14.04.21.06.11.03.22.05.33.08.06.01.13.03.19.04.13.03.26.04.38.05.04,0,.08.02.11.02.16.01.32.02.48.02h.06c.17,0,.33-.01.49-.03.05,0,.09-.01.15-.02.16-.02.32-.05.47-.09.02,0,.03,0,.05-.01.17-.05.34-.1.5-.16.04-.01.08-.03.13-.05.13-.05.27-.11.39-.17.04-.01.07-.03.1-.05.16-.07.3-.17.46-.26.03-.02.07-.05.1-.07.12-.07.23-.16.36-.24.04-.03.08-.05.11-.08.14-.11.29-.22.42-.34.02-.02.04-.04.07-.06.12-.11.24-.22.36-.33.04-.04.08-.07.12-.11.13-.13.26-.26.39-.4,0,0,.01-.01.03-.02.14-.15.28-.3.41-.46.04-.05.08-.08.11-.13.11-.13.22-.26.33-.39.03-.04.05-.06.08-.09.14-.16.27-.33.41-.49.04-.05.08-.09.11-.14.11-.14.22-.27.33-.41.04-.05.08-.1.12-.15.15-.19.31-.39.46-.58.11-.14.22-.28.33-.43.05-.06.09-.12.15-.19.14-.17.27-.34.41-.51.02-.02.03-.03.04-.05,2.88-3.53,5.69-7.15,8.46-10.8.52-.68,1.04-1.36,1.55-2.06.82-1.09,1.64-2.19,2.45-3.28,8.95-12.08,17.61-24.54,26.87-36.22.09-.2.19-.39.26-.59.03-.06.05-.11.07-.17.05-.15.1-.29.15-.44.02-.06.04-.11.05-.17.05-.19.1-.38.13-.56v-.03c.03-.19.06-.39.07-.58,0-.06.01-.11.02-.17,0-.15.01-.29.01-.43v-.17c0-.18-.02-.35-.04-.52h.02Z"/>
</svg>