<?xml version="1.0" encoding="UTF-8"?>
<svg id="Capa_1" data-name="Capa 1" xmlns="http://www.w3.org/2000/svg" xmlns:xlink="http://www.w3.org/1999/xlink" viewBox="0 0 512 512">
  <defs>
    <style>
      .cls-1 {
        clip-path: url(#clippath);
      }
    </style>
    <clipPath id="clippath">
      <rect x="250.59" y="6" width="10.67" height="28.83"/>
    </clipPath>
  </defs>
  <path d="M250.15,325.59c34.54-2.67,69.02,17.67,78.68,51.71,3.72,13.09,3.97,41.66,2.68,55.53-.98,10.45-6.82,13.4-15.97,16.38-30.94,10.08-81.2,9.35-112.69,1.62-9.68-2.38-20.58-4.82-21.58-16.52-1.29-15.07-1.18-45.9,3.42-59.89,9.23-28.15,36.44-46.58,65.47-48.81h0Z"/>
  <path d="M251.59,206.28c37.28-3.22,65.27,31.13,54.96,67.18-11.58,40.49-64.9,50.2-91.45,17.76-26.69-32.61-4.66-81.39,36.49-84.94Z"/>
  <path d="M360.35,50.85c1.4-1.02,12.58,5.14,14.79,6.28,132.89,69.28,170.38,243.84,72.81,359.86-101.3,120.48-289.11,118.84-387.4-4.31C-31.34,297.56,4.41,133.46,129.77,60.73c3.26-1.9,16.29-9.33,18.98-9.81,3.02-.54,4.16,1.42,2.01,3.49C80.27,88.46,28.43,155.59,17.49,233.82.41,355.95,84.4,467.26,202.71,493.35c170.98,37.71,332.81-113.72,286.17-287.6-17.89-66.68-66.81-122.11-128.64-151.73l.1-3.16h0Z"/>
  <path d="M406.74,310.75c-48.53,44.79-116.34-30.23-65.89-72.72,48.64-40.95,112.36,29.81,65.89,72.72ZM366.57,238.59c-10.06,1.35-20.88,9.29-25.83,18.02-17.36,30.64,13.03,65.06,45.59,52.78,41.43-15.63,25.72-76.96-19.77-70.8Z"/>
  <path d="M135.86,226.4c33.57-2.59,59.33,27.94,51.38,60.73-9.87,40.7-65.18,49.76-88.48,15.47-21.51-31.65-.51-73.3,37.09-76.2h.01ZM138.76,237.85c-18.02.44-34.9,15.1-36.53,33.27-3.39,37.86,44.48,55.38,67.54,25.85,18.88-24.17-1.21-59.83-31.02-59.11Z"/>
  <path d="M231.78,154.85c-.7-.69-1.63-10.27-2.53-12.93-3.18-9.59-10.48-14.01-15.47-21.9-23.67-37.44,10.53-82.23,52.79-72.92,33.43,7.36,50.04,45.41,30.04,74.09-6.05,8.67-12.84,11.4-15.65,23.17-1.18,4.92.37,11.64-5.96,12.07-9.68.67-4.9-17.13-2.79-22.24,5.23-12.68,18.52-17.18,20.88-32.32,9.52-61.1-86.44-56.65-74.93.11,3.94,19.43,23.44,23.6,23.43,47.01,0,5.73-5.8,9.83-9.82,5.86h0Z"/>
  <path d="M134.42,334.22c7.98-.62,16.8.44,24.58,2.3,5.41,1.3,20.03,4.99,12.95,12.96-3.43,3.86-8.77.07-12.8-.89-27.92-6.65-62.08,1.33-73.08,30.73-4.06,10.85-3.02,11.61,5.85,17.8,19.27,13.46,42.3,22.27,64.46,29.7,5.44,8.58-1.08,10.9-9.04,9.04-18.24-4.27-59.72-24.01-72.1-37.88-5.85-6.55-2.89-16.43.03-23.72,9.36-23.41,34.6-38.15,59.15-40.05Z"/>
  <path d="M367.31,334.22c29.49-2.27,63.26,15.65,71.49,45.24,3.95,14.18,1.03,17.24-10.02,25.58-15.23,11.51-40.32,23.58-58.63,29.07-2.74.82-8.48,2.97-10.98,2.74-4.92-.44-6.69-7.76-2.47-10.46,21.82-7.24,44.6-15.89,63.45-29.28,6.77-4.8,9.59-4.78,7.32-13.52-8.07-30.93-43.02-42.06-71.65-35.71-3.67.81-10.54,3.99-13.56,3.05-3.33-1.03-4.96-5.29-3.17-8.28,2.65-4.42,22.83-8.04,28.21-8.44h-.01Z"/>
  <path d="M277.41,174.22c-.8.8-3.27,1.53-4.46,1.66-6.79.76-29.49.95-35.92-.06-6.43-1.02-6.82-10.7-.79-11.11,12.06-.83,25.94,1.94,38.09-.32,4.7.58,6.17,6.73,3.07,9.83h0Z"/>
  <path d="M270.89,80.42c2.97-.28,6.71,4.05,4.92,7.02-4.89,3.14-17.55,20.89-21.7,22.15-1.39.43-3.17.35-4.52-.23-1.68-2.95-12.94-11.08-13.53-13.07-1.03-3.44,1.27-7.15,5.1-6.54,2.79.44,10.11,9.94,10.93,9.92,2.97-2.88,15.97-18.98,18.8-19.24Z"/>
  <path d="M242.89,182.47c1.69-.51,22.08-.54,24.28-.12,4.94.93,5.47,9.04-.74,10.01-3.71.58-17.68.53-21.34-.13-5.96-1.07-6.15-8.57-2.19-9.76Z"/>
  <g>
    <rect x="250.59" y="6" width="10.67" height="28.83"/>
    <g class="cls-1">
      <path d="M253.67,6.37c2.64-.81,6.11.09,6.67,3.11.56,3.02.47,17.64-.03,20.78-.85,5.41-8.4,5.42-9.25,0-.53-3.39-.56-16.7,0-20.04.23-1.41,1.17-3.41,2.61-3.85Z"/>
    </g>
  </g>
  <path d="M169.58,90.48c2.16-.49,20.08-.55,21.97,0,4.09,1.18,4.56,8.38-2.72,9.19-3.46.39-19.61.56-21.55-1.44-2.29-2.38-1.07-6.97,2.3-7.74h0Z"/>
  <path d="M344.27,98.05c-.69.73-3.35,1.52-4.46,1.64-3.74.42-15.12.52-18.66-.07-5.66-.93-5.64-8.34,0-9.26,3.33-.55,16.68-.53,20.04,0,3.68.58,5.44,5.17,3.09,7.68h0Z"/>
  <path d="M209.14,18.56c1.69-.3,2.88.22,4.16,1.32.76.65,11.79,14.92,12.18,15.85,2.16,5.31-2.73,9.3-7.18,5.73-1.18-.94-11.72-14.14-12.47-15.55-1.6-3.03-.04-6.75,3.31-7.35Z"/>
  <path d="M299.7,18.56c4.48-.82,7.05,2.96,5.55,7.05-.33.91-10.77,14.6-11.79,15.52-4.7,4.17-9.65-.26-7.55-5.4.36-.9,10.73-15.04,11.52-15.78.68-.65,1.32-1.21,2.28-1.38h0Z"/>
  <path d="M179.66,49.48c1.06-.22,2.08-.26,3.09.18,3.13,3.2,18.2,7.51,19.23,10.98,1.36,4.59-2.36,6.68-6.52,5.8-1.27-.28-16.19-7.67-17.32-8.56-3.07-2.46-2.35-7.6,1.51-8.4h0Z"/>
  <path d="M310.12,65.72c-1.97-1.97-1.01-5.43,1.02-6.91,1.47-1.08,16.26-9.11,17.32-9.32,5.41-1.06,8.25,4.97,4.46,8.11-1.78,1.46-14.4,8.14-16.48,8.67-1.68.43-5.05.73-6.32-.55Z"/>
  <path d="M311.92,122.8c4.97-1.03,14.65,8.04,19.97,9.21,4.19,3.2,1.07,10.16-4.71,8.32-1.42-.45-15.79-8.72-16.88-9.73-2.76-2.58-2.16-7.02,1.63-7.8Z"/>
  <path d="M201.25,123.56c1.85,1.87,1.54,5.65-.6,7.33-1.22.95-16.75,9.46-17.74,9.63-5.1.86-8.26-5.07-2.58-9.1,1.47-1.05,14.12-8.09,15.31-8.41,1.55-.42,4.42-.64,5.6.55h.01Z"/>
</svg>