<?xml version="1.0" encoding="UTF-8"?>
<svg id="Capa_1" data-name="Capa 1" xmlns="http://www.w3.org/2000/svg" viewBox="0 0 512 512">
  <path d="M122.27,208.08c-3.14-.86-4.78-7.51-.53-8.68,7.18-1.98,32.64,1.44,36.42-.85l8.65-19.55c-.5-1.11-16.18-16.68-17.23-17.29-4.23-2.43-17.98-.09-23.52-.71-4.48,7.29-8.82,14.32-18.3,15.29-17.14,1.76-28.42-15.79-19.72-30.61,8.83-15.04,33.9-11.8,36.61,6.01l28.34.28c3.13.93,14.21,15.2,18.32,18.02.8.55,1.26,1.35,2.32.47,9.84-13.17,23.79-22.79,39.04-28.69.73-.97-13.93-14.91-15.01-19.03-1.48-5.67.33-13.08-.57-18.96-18.85-6.16-14.1-33.87,5.72-33.21,19.61.66,22.55,27.18,4.38,33.67v14.42c.28,2.14,13.6,18.82,15.19,19.31l17.15-2.49.27-7.2c-23.11-5.45-19.2-40.07,5.15-39.23,22.54.79,25.36,33.07,4.21,39.25l-.15,8.04,18.65,1.91c2.98-5.3,14.26-15.02,15-20.49.29-2.09.31-10.85-.22-12.58-.63-2.09-4.42-3.15-6.2-4.7-15.65-13.54-.11-36.68,18.8-27.88,13.47,6.27,11.08,27.1-3.19,31.18l-.55,19.89-14.11,17.66,11.76,5.49c47.64-60.19,144.79-32.86,156.11,42.76,7.2,48.06-26.2,90.05-73.91,95.69-18.06,2.14-34.94-2.13-51.56-8.94-12.56,16.34-27.85,28.35-47.43,35.28l-.44,54.07c4.79,5.07,8.08,6.72,8.99,14.63,3.31,28.92-1.98,63.13-38.54,61.24-33.58-1.72-36.12-36.79-33.01-63.06.82-6.94,3.98-8.49,8.15-12.79l-.18-54.88c-33.88-9.81-60.23-41.71-61.65-77.31l-49.41-.06c-8.33,28.05-49.33,14.81-37.96-13.28,7.25-17.9,32.84-14.56,38,3.4,16.07.46,32.35,2.12,48.32-.17l1.94-15.31h-34.06ZM196.58,93.35c7.14,6.53,18.48-2.54,12.02-10.66-7.67-9.63-19.52,3.78-12.02,10.66ZM284.12,80.22c-8.28,1.91-6.07,14.93,2.55,15.3,11.71.5,10.96-18.42-2.55-15.3ZM242.4,98.35c-11.52,1.39-12.13,22.36,3.29,20.66,13.16-1.45,10.14-22.28-3.29-20.66ZM355.98,122.93c-32.13.6-51.96,18.33-67.78,44.01-11.84,19.21-21.94,39.58-33.67,58.87,45.06,25.36,91.71,70.64,146.12,39.05,65.99-38.31,33.96-143.41-44.67-141.93ZM103.43,145.59c-12.53,1.82-10.94,22.53,2.38,21.59,14.44-1.03,12.66-23.77-2.38-21.59ZM273.36,172.54c1.37-4.56,7.71-11.29,8.86-15.29.83-2.89-6.69-5.44-9.16-6.42-83-32.61-149.96,78.34-79.01,137.14,34.32,28.44,91.99,21.62,115.65-16.65l-16.55-9.52c-26.66,32.3-77.94,31.17-99.96-5.66-26.48-44.28,9.25-95.01,59.76-89.73,7.21.76,13.49,4.49,20.41,6.12h.01ZM239.69,175.66c-53.2,4.93-61.59,80.07-11.2,96.94,18.99,6.36,43.94.55,54.96-16.77l-39.43-25.09-.75-6.03,24.66-42.53c-7.53-5.61-19.06-7.38-28.24-6.52ZM83.43,218.28c-12.76,2.61-8.62,23.15,4.09,21.43,14.06-1.9,11.39-24.6-4.09-21.43ZM262.59,365.2v-50.41c-2.38-2.04-7.08.32-10.41.49-8.35.43-16.72-.35-25.01-.94v50.86h35.42ZM220.13,376.32c-1.03,1.41-1.03,3.08-1.16,4.74-.69,8.26-.86,29.01,2.05,36.18,8.36,20.61,41.47,19.25,48.38-2.11,2.07-6.41,2.22-26.93,1.4-34.06-.48-4.21-1.75-5.54-5.87-5.94-9.96-.97-29.97-.83-40.05.02-1.66.14-3.33.14-4.74,1.16v.02Z"/>
  <path d="M367.94,215.35l6.69-.13,1.49-2.14c-.1-10.6.11-21.22.03-31.83-.05-6.64.06-13.22,0-19.98-.05-6.27-3.98-14.16,5.83-14.98,3.71-.31,19.59-.48,21.9.89,1.62.96,3.16,4.01,3.14,5.95l-.03,62.24,7.57.83c2.03,1.28,2.03,17.63,1.48,20.49-.31,1.67-1.42,2.7-2.72,3.63l-121.28-.38c-1.09-.91-1.93-1.8-2.19-3.26-.52-2.83-.35-17.12.83-19.11,1.88-3.15,6.09-2.14,9.14-2.21,1.29-1.28-1.66-31.47.47-36.32.53-1.2,2.28-2.47,3.63-2.72,3.28-.61,18.3-.55,21.82-.07,1.97.27,4.95,2.3,4.95,4.13v34.96h6.36v-52.22c0-.59,2.92-2.93,4.1-3.16,3.19-.61,18.37-.54,21.82-.06,1.97.27,4.95,2.3,4.95,4.13v51.31ZM386.11,156.31v59.04l9.89-.1c.6-2.2.92-4.37,1.05-6.68.66-11.56,1.56-39.33-.29-49.79-.13-.74-.36-2.3-1.27-2.51l-9.39.03h0ZM357.96,169.94h-10.9v45.41c3.51-.47,8.26,1.3,10.9-1.36v-44.05h0ZM309.82,186.28v29.06l9.41-.13,1.36-1.35c-1.52-9.18,1.36-18.38-.88-27.48l-9.89-.1h0ZM406.95,224.47c-2.29-.08-4.45-.84-6.73-.99-24.52-1.59-51.05-.33-75.43.05-8.34.13-16.52.39-24.83,1.02l-1.08,5.73,108.14.51-.06-6.32h0Z"/>
  <path d="M256.19,506.38c-33.78,0-66.54-6.61-97.39-19.66-29.79-12.6-56.55-30.65-79.52-53.62s-41.01-49.73-53.62-79.52c-13.05-30.85-19.66-63.61-19.66-97.39s6.61-66.54,19.66-97.39c12.6-29.79,30.65-56.55,53.62-79.52s49.73-41.02,79.52-53.62c30.85-13.05,63.61-19.66,97.39-19.66s66.53,6.61,97.39,19.66c29.79,12.6,56.55,30.65,79.52,53.62s41.02,49.73,53.62,79.52c13.05,30.85,19.66,63.61,19.66,97.39s-6.61,66.53-19.66,97.39c-12.6,29.79-30.65,56.55-53.62,79.52s-49.73,41.02-79.52,53.62c-30.84,13.05-63.61,19.66-97.39,19.66ZM256.19,16.91C124.24,16.91,16.91,124.24,16.91,256.19s107.34,239.28,239.28,239.28,239.28-107.34,239.28-239.28S388.13,16.91,256.19,16.91Z"/>
</svg>