<?xml version="1.0" encoding="UTF-8"?>
<svg id="Capa_1" data-name="Capa 1" xmlns="http://www.w3.org/2000/svg" viewBox="0 0 512 512">
  <path d="M499.28,134.82c-.09-.55-.21-1.1-.36-1.64-.03-.13-.08-.26-.11-.39-.16-.53-.33-1.05-.54-1.55-.23-.58-.49-1.15-.79-1.69-.29-.55-.61-1.09-.96-1.59-2.28-3.33-5.74-5.84-9.99-6.55-7.07-1.2-14.91-1.53-22.84-1.79t-.01-.01c-3.9-.13-7.83-.23-11.71-.42.01,0,.01.01.01.01h0c-5.06-.24-10.02-.6-14.69-1.29-3.54-.4-6.13-.72-8.21-1.42-.35-.11-.68-.23-1-.38-.49-.2-.94-.44-1.37-.72-.44-.27-.85-.58-1.26-.93-.53-.47-1.05-1.02-1.55-1.66-.22-.27-.44-.57-.66-.88-.79-1.14-1.58-2.53-2.45-4.24-3.2-6.37-5.87-13.26-8.45-20.25-1.46-3.99-2.9-8.01-4.38-11.99-.73-1.96-1.47-3.9-2.22-5.83h-.01v-.02c-1.16-2.95-2.37-5.87-3.66-8.69,0,0,0-.01-.01-.01-.2-.33-.41-.64-.63-.95-.08-.11-.16-.21-.24-.32-.16-.2-.31-.41-.48-.6-.1-.12-.2-.23-.3-.35-.15-.19-.31-.36-.47-.53-.12-.12-.23-.24-.35-.36-.15-.17-.31-.33-.48-.48-.12-.11-.25-.23-.38-.33-.16-.15-.34-.3-.52-.44-.13-.11-.26-.22-.39-.32-.18-.14-.37-.27-.55-.4-.14-.1-.28-.2-.41-.28-.2-.14-.4-.26-.6-.39-.13-.08-.26-.17-.39-.24-.23-.14-.46-.26-.7-.38-.11-.07-.22-.13-.34-.19-.35-.17-.71-.34-1.06-.49-.02,0-.04-.01-.04-.01-.35-.15-.7-.28-1.06-.41-.12-.04-.25-.08-.37-.12-.25-.08-.5-.16-.75-.23-.15-.04-.3-.07-.45-.11-.24-.05-.47-.11-.7-.15-.17-.04-.33-.07-.48-.09-.23-.04-.45-.07-.68-.1-.17-.02-.33-.04-.5-.06-.22-.01-.45-.03-.68-.04-.16-.01-.33-.01-.49-.02-.25,0-.51,0-.76.01-.12,0-.24,0-.36.01-.37.02-.75.05-1.13.1-.84.11-1.67.32-2.49.59h-.01c-4.15,1.39-7.89,4.63-9.89,8.37-4.75,8.88-8.3,20.18-12.25,30.86-.36.97-.72,1.94-1.09,2.9-1.47,3.84-3.01,7.56-4.7,11.01-2.17,4.42-3.62,7-5.78,8.64-.14.1-.28.2-.42.3-.71.47-1.49.86-2.39,1.18-1.06.38-2.27.68-3.72.94-.34.06-.69.12-1.05.17-.4.06-.81.12-1.23.19-.4.05-.81.1-1.23.15-12.91,1.6-26.14,1.69-39.14,2.57-1,.07-2,.15-3,.23-2,.16-3.98.34-5.97.55-.99.1-1.94.28-2.85.52-.63.16-1.22.35-1.81.56-.49.18-.97.37-1.42.59-.49.24-.97.5-1.43.77-.54.32-1.07.67-1.56,1.03-.3.23-.59.47-.87.72-.29.25-.56.5-.82.77-.26.26-.51.53-.75.81-.73.84-1.35,1.74-1.87,2.69-1.56,2.86-2.21,6.18-1.75,9.51.19,1.34.56,2.68,1.1,3.98.13.33.28.66.45.99.16.33.34.67.53,1,.74,1.28,1.65,2.52,2.78,3.71,6.53,6.85,15.84,13.47,24.42,20.19,3.9,3.06,7.66,6.13,10.93,9.26,2.81,2.69,4.79,4.5,6.01,6.59.24.43.45.85.63,1.31.84,2.11,1,4.67.53,8.64-.92,7.69-4.26,18.45-6.96,28.82-.32,1.21-.63,2.43-.92,3.63s-.57,2.4-.84,3.57c-1.44,6.46-2.33,12.41-1.81,16.93.06.47.14.92.23,1.35.02.11.03.21.06.31.1.43.21.85.34,1.26.01.04.02.08.04.12.13.37.26.72.42,1.08.04.09.07.18.11.26.17.37.35.73.55,1.08.03.06.07.11.11.17.17.3.36.59.56.87.05.08.1.15.15.22.23.32.47.61.73.9.05.06.11.12.17.18.23.25.45.49.7.72.06.05.11.1.17.16.28.25.57.5.88.73.07.06.15.11.22.16.28.21.56.4.85.59.06.03.1.06.15.09.33.2.67.38,1,.57.09.04.18.08.27.12.32.16.67.31,1.01.46.02.01.05.02.08.03.37.15.74.27,1.12.39.1.03.19.06.29.09.38.12.77.22,1.16.31.03,0,.04,0,.07.01.37.08.76.15,1.15.22.09.01.19.02.28.04.4.06.81.1,1.22.13.05,0,.11,0,.17.01.36.03.74.04,1.11.04h.26c.49,0,.98-.02,1.47-.06.08,0,.17,0,.25-.02.49-.04.98-.11,1.48-.18.07-.02.14-.03.22-.05.5-.08,1-.19,1.5-.31.06-.02.11-.03.16-.05.52-.14,1.04-.29,1.55-.47,2.2-.78,4.44-1.77,6.73-2.9,4.13-2.05,8.38-4.59,12.66-7.28.47-.29.95-.59,1.43-.89.77-.48,1.53-.97,2.3-1.46,1.99-1.25,3.96-2.52,5.93-3.75.4-.25.79-.5,1.19-.74,4.91-3.06,9.73-5.88,14.31-7.91.74-.32,1.43-.61,2.09-.87.07-.02.14-.05.21-.07.09-.04.18-.07.28-.1.61-.23,1.21-.43,1.76-.59.08-.02.14-.03.22-.05.25-.07.5-.13.74-.19.1-.02.2-.03.29-.05.22-.04.43-.09.64-.11.07-.02.14-.02.21-.03.23-.04.47-.06.7-.08.12-.01.24-.01.36-.01.18-.01.36-.02.54-.02s.36.01.53.02c.12,0,.25,0,.37.01.22.01.43.04.66.07.08.02.17.02.24.03.28.04.57.1.86.15.02,0,.04.01.07.02.25.05.49.12.75.18.07.02.14.03.21.05.57.15,1.16.36,1.78.58.09.04.18.06.28.1.14.06.3.11.44.18.22.08.44.17.67.26.38.16.78.33,1.18.51,6.62,2.94,13.44,7.23,20.23,11.57,4.53,2.88,9.05,5.79,13.5,8.33,3.11,1.77,6.19,3.36,9.21,4.64.36.16.73.29,1.09.43.11.04.23.07.34.12.25.08.5.17.74.25.14.04.28.08.42.12.22.07.44.14.66.19.15.04.29.07.44.1.21.05.42.11.63.14.15.04.31.06.45.09.2.03.4.08.61.11.15.03.3.04.46.06.2.02.39.05.58.07.16.01.31.02.47.04.19,0,.38.02.57.03.15,0,.31,0,.47.02h.48c.47,0,.92-.03,1.37-.07.07,0,.14-.01.21-.02.4-.03.8-.09,1.18-.16.1-.01.2-.03.3-.05.44-.08.86-.18,1.29-.29.07-.02.14-.05.22-.07.37-.11.73-.23,1.09-.36.09-.03.18-.06.26-.09.4-.16.8-.33,1.19-.51.07-.04.14-.08.21-.12.34-.17.67-.35.99-.55.08-.03.15-.08.22-.12.36-.23.71-.47,1.06-.73.07-.05.14-.11.21-.17.3-.23.59-.48.87-.73.06-.05.11-.1.17-.15.31-.29.62-.61.91-.93.06-.08.13-.15.19-.22.25-.3.51-.61.74-.93.04-.05.08-.1.12-.15.26-.36.51-.74.74-1.13.06-.1.11-.18.16-.27.21-.36.41-.74.6-1.13.02-.04.05-.09.07-.14.2-.41.38-.86.56-1.31.04-.11.08-.22.12-.33.15-.44.3-.87.43-1.33,0-.03.02-.06.02-.1.14-.48.24-.98.35-1.49.02-.13.04-.25.06-.38.09-.52.18-1.04.23-1.59-2.09-16.34-9.29-34.17-11.21-50.24h-.06c-1.01-8.5.75-10.46,6.5-15.87,5.74-5.41,12-10.35,18.21-15.31h0c2.55-2.05,5.09-4.1,7.59-6.19h0c4.77-3.98,9.36-8.12,13.52-12.68.8-1.42,1.33-2.92,1.62-4.46.18-.92.27-1.85.27-2.79v-.02c0-.92-.07-1.85-.22-2.76ZM477.2,142.86h0c-.31.28-.6.55-.85.77-1.93,1.79-4.15,3.62-6.54,5.53-14.62,11.64-35.47,25.58-34.13,43.15l7.02,33.62,3.51,16.8-2.28,1.19-37.14-20.37-9.29-5.09h-.01c-.34-.12-.69-.24-1.04-.35-.12-.04-.24-.07-.36-.11-.23-.06-.45-.13-.68-.19-.14-.04-.29-.08-.44-.11-.2-.05-.41-.1-.61-.14-.15-.04-.31-.07-.46-.1-.2-.04-.39-.08-.59-.11-.16-.03-.32-.05-.48-.08-.19-.03-.38-.06-.57-.09-.17-.02-.33-.04-.49-.06-.2-.02-.38-.04-.58-.06-.16-.01-.32-.03-.49-.04-.19-.01-.38-.03-.57-.03-.16-.01-.32-.02-.48-.02-.2,0-.39,0-.59-.02h-.4c-.51,0-1.03.02-1.55.05-.08,0-.17.02-.26.02-.53.03-1.06.08-1.61.15h-.03c-.53.06-1.07.14-1.61.24-.08.01-.15.02-.23.04-.52.09-1.04.2-1.56.31-.09.02-.19.05-.28.07-.52.12-1.05.25-1.57.39-.07.02-.15.05-.22.06-.53.15-1.06.31-1.59.49-.03,0-.04.01-.06.01-.54.17-1.08.36-1.62.56-.08.02-.17.06-.25.09-.52.19-1.04.39-1.56.6-.1.03-.19.07-.28.11-.53.21-1.05.44-1.58.67-.06.02-.11.04-.16.07-.53.23-1.06.47-1.58.73-.04.02-.09.04-.12.05-.54.26-1.08.52-1.61.78-.09.04-.16.09-.25.13-.52.26-1.04.53-1.56.81-.09.05-.17.09-.25.14-.54.28-1.07.57-1.61.86-.02.02-.05.03-.07.04-.53.3-1.07.61-1.61.9-.05.04-.1.07-.16.1-.53.3-1.05.61-1.58.92-.08.06-.17.1-.26.15-.51.31-1.03.62-1.55.93-.07.05-.14.1-.22.14-1.07.65-2.15,1.31-3.22,1.98-.06.05-.14.08-.21.13-.51.32-1.03.65-1.55.97-.09.06-.19.12-.28.18-.5.31-.99.62-1.47.93-1.12.71-2.24,1.41-3.33,2.1-.08.05-.16.1-.23.14-.5.32-1,.63-1.5.94-.08.05-.16.1-.24.15-.51.31-1.01.63-1.52.94-.05.02-.08.04-.13.07-.5.3-1,.6-1.5.89-.04.03-.08.05-.12.08-.5.29-.99.58-1.49.87-.08.04-.16.09-.24.13-.48.28-.97.55-1.44.82-.08.04-.15.09-.23.13-.5.27-.99.54-1.49.8-.01.01-.05.02-.06.03-.49.25-.97.5-1.45.74-.06.03-.12.07-.17.09-.48.24-.94.46-1.41.67-.09.05-.17.09-.25.12-.47.22-.94.43-1.39.62-.07.03-.14.06-.21.09-.48.2-.97.4-1.44.58-.29.11-.57.21-.85.3-.06.02-.13.04-.19.06-.27.09-.55.17-.81.23-.03,0-.06,0-.09.02-.24.06-.48.1-.73.13-.06,0-.13.02-.19.03-.26.02-.54.04-.82.04h-.04c-.11,0-.23,0-.35-.01-.07,0-.14,0-.21-.01-.21,0-.43-.03-.66-.06l5.31-25.59,5.3-25.59c.21-2.65.08-5.01-.32-7.16-.06-.36-.14-.71-.22-1.06-.16-.69-.35-1.36-.57-2.01-.22-.66-.47-1.29-.74-1.9-.33-.74-.7-1.46-1.11-2.16-.42-.74-.88-1.46-1.39-2.16-.38-.54-.79-1.08-1.22-1.6-.64-.79-1.32-1.55-2.04-2.31-.24-.25-.48-.5-.73-.75-2.46-2.5-5.3-4.9-8.25-7.53-3.27-2.93-6.67-5.71-10.1-8.48-1.43-1.17-2.88-2.34-4.31-3.51-1.21-.99-2.42-1.98-3.62-2.98-3.6-3.01-7.12-6.1-10.42-9.41.22-1.31.81-2.2,1.75-2.74.29-.17.61-.31.97-.4.22-.07.45-.11.7-.15,1.02-.14,2.05-.27,3.08-.39,9.31-1.1,19.06-1.48,28.68-2.2,2.03-.16,4.07-.32,6.1-.52,4.33-.42,8.62-.95,12.8-1.7,3.76-.67,6.93-1.9,9.73-3.88,1.69-1.19,3.23-2.64,4.7-4.4,1.86-3.02,3.56-6.12,5.16-9.28,3.72-7.37,6.88-15.06,10-22.77,2.68-6.6,5.34-13.21,8.32-19.63.09-.05.2-.1.32-.12.03,0,.08-.02.11-.02.11-.02.21-.03.32-.03h.1c.15,0,.29.01.44.03.02,0,.04,0,.06.01.13.02.25.04.38.08.05.01.09.01.13.03.1.02.2.05.3.09.04.01.08.02.11.03.12.05.24.1.33.15.28.15.74.88,1.35,2.06.45.88.99,2.02,1.58,3.36,4.98,11.08,14.22,35.65,16.75,40.38.97,1.8,1.97,3.39,3.03,4.81.72.96,1.46,1.85,2.26,2.64,2.88,2.91,6.36,4.77,11.04,5.93.62.15,1.25.3,1.92.43.71.14,1.43.26,2.16.4,1.47.25,2.96.49,4.49.71,6.88.99,14.33,1.64,21.41,2.26.79.07,1.57.14,2.35.21,1.7.15,3.36.3,4.99.44h0c.6.05,1.21.11,1.8.17,1.03.1,2.17.14,3.37.17.31.01.61.01.92.02.62,0,1.25,0,1.87.02.94.01,1.89.02,2.82.05.11,0,.21,0,.32,0h0c1.73.06,3.36.17,4.7.42,5.37,1,1.65,4.68-.79,6.9Z"/>
  <path d="M160.19,129.61c-83.11,6.24-140.88,93.36-106.88,171.83,43.17,99.63,187.79,100.47,231.53,1.07,37.63-85.53-32.94-179.79-124.65-172.91ZM231.43,337.46h0c-76.61,54.57-181.88-9.36-166.55-102.74,7.51-45.7,48.47-82.54,94.49-86.3,107.2-8.77,159.47,126.78,72.06,189.04Z"/>
  <path d="M474.85,374.01h0c-.04-4-.24-8-.52-11.92-.14-2.08-.48-4.18-.97-6.26-3.78,8.25-8.02,16.25-12.67,23.96-.08,2.84-.21,5.62-.39,8.15v.04c-.28,3.63-.67,6.71-1.19,8.57,0,0,0,.01,0,.02-.03.1-.06.2-.09.29h0c-.07.23-.15.45-.22.66-.03.08-.06.16-.09.24-.32.9-.68,1.77-1.08,2.6-.13.27-.27.54-.41.81h0c-.14.27-.28.53-.44.79h0c-.14.27-.3.53-.46.78h0c-.15.27-.31.52-.48.77-.22.33-.44.64-.68.96h0c-.32.44-.65.86-.98,1.27-.34.4-.69.8-1.06,1.19h0c-.36.39-.73.76-1.12,1.13-.37.37-.77.72-1.18,1.07-.35.3-.71.59-1.08.87-.73.57-1.5,1.1-2.28,1.6-1.18.75-2.42,1.42-3.7,2.02-.85.4-1.72.77-2.61,1.1-.51.19-1.02.37-1.54.54-1.04.34-2.09.64-3.16.89-1.07.25-2.15.47-3.24.64-1.3.2-2.61.35-3.93.44-1.91.13-3.83.23-5.75.33-.65.02-1.3.04-1.94.07-1.29.06-2.57.1-3.87.14-.77.02-1.55.04-2.33.05-1.17.03-2.34.04-3.51.06-.84.01-1.67.02-2.51.02-.77,0-1.55,0-2.33,0h-.91c-1.52,0-3.05,0-4.58-.03-.69-.02-1.37-.02-2.06-.03-2.2-.03-4.41-.06-6.62-.12-.15,0-.29-.01-.45-.01-2.11-.05-4.24-.1-6.36-.16-.97-.03-1.94-.05-2.89-.08-1.69-.05-3.37-.09-5.06-.15-1.65-.04-3.3-.09-4.94-.14-.94-.02-1.87-.05-2.81-.08-1.41-.04-2.81-.07-4.23-.1-.9-.03-1.79-.05-2.69-.07-1.45-.03-2.9-.05-4.35-.08-.8-.01-1.61-.02-2.42-.04-1.84-.02-3.68-.03-5.51-.03-.41,0-.81,0-1.21,0h-.63c-1.62,0-3.24,0-4.85.03-.57.01-1.13.02-1.7.03-1.33.02-2.66.05-3.98.09-.56.01-1.1.03-1.66.05-1.82.06-3.63.13-5.44.23-17.33-1.86-25.17-10.89-28.38-22.93-.36-1.34-.66-2.72-.9-4.12-.13-.7-.24-1.42-.34-2.13-.3-2.15-.49-4.37-.6-6.63-.03-.76-.06-1.51-.08-2.28s-.03-1.53-.03-2.3c0-1.16,0-2.32.04-3.49,0-.39.02-.78.03-1.17.1-3.12.29-6.28.53-9.44.11-1.48.31-2.94.59-4.37.28-1.43.66-2.83,1.11-4.19.3-.91.63-1.81,1-2.68,1.29-3.06,3.01-5.89,5.09-8.4.59-.72,1.21-1.41,1.87-2.07.66-.66,1.33-1.3,2.04-1.9,4.61-3.91,10.37-6.53,16.91-7.22.99-.11,1.97-.21,2.96-.29.22-.02.44-.04.66-.06.77-.06,1.55-.13,2.32-.19.32,0,.64-.03.95-.05.69-.05,1.37-.1,2.06-.14.33-.02.67-.03,1-.05.68-.03,1.35-.07,2.03-.1.36-.02.73-.03,1.1-.04.65-.03,1.3-.05,1.95-.07.41-.02.82-.02,1.23-.04.61-.01,1.23-.03,1.84-.04.45-.01.9-.02,1.35-.02.58-.01,1.16-.02,1.75-.03h1.41c.52,0,1.04-.01,1.57-.01h.07c2.29,0,4.59.03,6.9.06.15,0,.31,0,.47.01,2.18.04,4.38.09,6.59.16.22,0,.45.01.67.02,2.19.07,4.38.14,6.57.22.18,0,.37.01.54.02,2.37.09,4.73.18,7.1.27,2.26.09,4.51.18,6.76.27.19,0,.39.01.58.01,2.18.09,4.36.16,6.52.23.24,0,.49,0,.73.02,2.17.05,4.33.11,6.48.15.19,0,.39,0,.58.01,2.3.04,4.61.06,6.9.06h.09c1.35,0,2.69-.01,4.03-.03.35,0,.7,0,1.04-.01,1.38-.02,2.76-.05,4.13-.09h.04c1.34-.04,2.68-.1,4.01-.17.34,0,.68-.03,1.01-.05,1.35-.08,2.7-.15,4.03-.26,14.34,1.14,27.93,12.54,29.64,27.15.05.45.1.95.14,1.5.05.6.1,1.27.14,1.99.02.34.04.69.05,1.06.07,1.47.13,3.12.16,4.89.02.88.03,1.79.04,2.72.02,2.84,0,5.85-.08,8.81,4.66-7.72,8.89-15.71,12.67-23.95-.28-1.21-.61-2.4-1-3.59-.43-1.29-.92-2.57-1.46-3.83-.36-.85-.76-1.68-1.18-2.51-2.37-4.73-5.54-9.16-9.3-12.97-4.72-4.78-10.36-8.6-16.48-10.89-.45-.17-.9-.33-1.35-.48-3.66-1.22-7.46-1.9-11.34-1.9h-37.74v-12.36h.02c.39-.24.78-.47,1.16-.7.12-.08.24-.16.36-.25.26-.15.5-.32.75-.49.14-.1.28-.19.42-.29.22-.15.44-.31.65-.47.14-.11.28-.21.42-.32.19-.16.4-.32.59-.47.13-.11.26-.23.4-.33.19-.16.38-.33.55-.5.12-.1.24-.21.37-.32.18-.18.37-.36.55-.54.11-.1.21-.2.31-.31.21-.21.41-.42.61-.64.07-.07.14-.14.21-.22.26-.29.52-.59.75-.89.04-.05.08-.1.12-.15.2-.25.39-.49.58-.75.08-.1.14-.2.22-.3.15-.2.29-.41.43-.62.08-.12.15-.22.22-.34.13-.2.26-.39.38-.59.07-.12.14-.25.21-.37.11-.2.22-.4.33-.6.07-.12.12-.23.19-.35.1-.21.21-.42.31-.64.05-.11.11-.21.16-.33.1-.23.21-.47.31-.71.03-.09.07-.18.11-.26.27-.66.5-1.34.7-2.01.01-.06.02-.11.04-.16.07-.28.16-.57.22-.85.02-.09.04-.18.06-.27.06-.25.12-.49.16-.74.03-.1.04-.21.06-.31.04-.24.07-.48.12-.72.01-.1.02-.2.04-.31.03-.24.06-.49.08-.73.01-.09.02-.19.03-.28.02-.26.04-.52.05-.78,0-.09.01-.16.02-.24.01-.32.02-.63.02-.95v-.06c0-.7-.04-1.4-.1-2.1,0-.02,0-.05-.01-.08-.03-.31-.07-.62-.11-.93-.01-.06-.02-.12-.03-.18-.04-.28-.09-.55-.13-.82,0-.08-.03-.15-.05-.23-.05-.26-.1-.52-.16-.79-.01-.07-.03-.14-.05-.21-.06-.28-.13-.54-.2-.82-.02-.06-.04-.12-.05-.17-.09-.3-.18-.61-.28-.9,0-.02,0-.05-.02-.07-.32-1-.71-1.97-1.17-2.92,0-.01-.01-.02-.01-.03-.14-.3-.29-.59-.45-.88-.02-.04-.04-.08-.06-.12-.14-.26-.29-.52-.44-.78-.02-.04-.06-.09-.08-.14-.15-.25-.3-.5-.46-.75-.03-.04-.07-.08-.09-.13-.17-.26-.34-.51-.52-.77-.01-.02-.03-.05-.05-.09-.82-1.14-1.73-2.21-2.74-3.2-.03-.02-.05-.05-.07-.07-.22-.22-.45-.43-.67-.64-.05-.04-.1-.08-.14-.12-.21-.19-.43-.38-.66-.56-.05-.05-.1-.09-.16-.13-.22-.18-.44-.36-.67-.53-.05-.04-.11-.08-.16-.12-.23-.18-.49-.36-.73-.53-.05-.02-.08-.05-.11-.07-.88-.6-1.82-1.15-2.79-1.62-.04-.03-.08-.05-.12-.06-.27-.13-.55-.27-.84-.39-.08-.03-.16-.07-.23-.1-.25-.11-.5-.2-.76-.3-.09-.05-.19-.08-.29-.11-.23-.09-.47-.17-.72-.26-.1-.03-.21-.07-.32-.1-.25-.08-.49-.15-.75-.23-.1-.03-.21-.06-.3-.08-.27-.08-.54-.15-.81-.21-.09-.01-.17-.03-.26-.06-.35-.07-.7-.14-1.04-.2-.02,0-.04,0-.05,0-.38-.07-.76-.12-1.14-.17-.07-.01-.14-.01-.21-.02-.3-.03-.6-.06-.91-.09-.13-.02-.26-.02-.39-.03-.26,0-.51-.03-.76-.04h-1.15c-.19,0-.37,0-.54.01-.23.01-.45.01-.68.03-.18.01-.37.01-.56.04-.22.02-.44.04-.67.06-.19.02-.39.03-.58.06-.23.02-.45.06-.68.09-.19.02-.38.06-.58.09-.24.04-.47.09-.71.12-.19.04-.38.08-.57.12-.25.05-.5.11-.75.17-.18.04-.36.08-.54.13-.29.07-.57.15-.86.24-.15.04-.29.08-.45.12-.44.14-.88.28-1.33.44-17.6,6.14-20,27.54-8.03,39.12.43.42.88.82,1.34,1.2,1.39,1.17,2.95,2.2,4.67,3.09v12.36h-39.75c-5.72,0-11.42,1.63-16.67,4.4-1.17.61-2.31,1.29-3.44,2.01-.55.37-1.11.74-1.66,1.13-1.09.78-2.16,1.61-3.19,2.48-.52.43-1.02.88-1.53,1.33-1.45,1.32-2.82,2.74-4.11,4.22-.49.56-.97,1.12-1.44,1.71-.42.52-.83,1.06-1.23,1.61-1.21,1.63-2.3,3.32-3.28,5.06s-1.84,3.53-2.57,5.35c-.49,1.21-.91,2.43-1.27,3.67-.73,2.46-1.21,4.95-1.39,7.44-1.7,22.48-1.87,45.27,11.22,58.77.57.59,1.17,1.16,1.79,1.71.42.37.85.74,1.3,1.1.52.41,1.05.81,1.61,1.2,1.56,1.1,3.26,2.12,5.11,3.03.86.41,1.76.81,2.69,1.19.47.19.93.37,1.42.54,3.86,1.41,8.26,2.43,13.28,2.99h.01c1.48-.09,2.96-.18,4.44-.25.37-.01.74-.03,1.1-.04,1.48-.06,2.96-.12,4.45-.16h.23c1.44-.04,2.88-.07,4.33-.09.37,0,.74-.01,1.11-.01,1.49-.02,2.98-.03,4.49-.03h.23c2.46,0,4.92.02,7.4.06.24,0,.48,0,.71,0,2.38.05,4.75.1,7.13.16.22,0,.43.01.65.02,2.51.07,5.03.15,7.55.23h.07c2.66.08,5.34.18,8,.27,2.42.09,4.83.17,7.25.25.28,0,.56.02.83.02,2.47.09,4.93.16,7.39.23.12,0,.24,0,.36,0,2.54.06,5.06.12,7.58.16h.49c2.39.04,4.76.06,7.14.07h2.77c.59,0,1.2-.01,1.79-.02.5,0,.99-.01,1.49-.02.59-.01,1.19-.02,1.78-.03.13,0,.25,0,.37-.01.01,0,.02-.01.03-.02.35,0,.71-.01,1.07-.02.6-.01,1.19-.03,1.79-.05.48,0,.97-.02,1.45-.04.61-.02,1.21-.05,1.81-.08.47-.02.94-.03,1.41-.05.63-.03,1.26-.07,1.89-.1.43-.02.87-.04,1.3-.06.71-.05,1.4-.09,2.11-.14.36-.03.71-.05,1.08-.07.07,0,.15-.02.23-.02h.01c.97-.08,1.95-.15,2.91-.24,32.94-2.82,39.27-29.68,38.94-56.54ZM379.28,275.06h.01c.99-.17,1.92-.26,2.79-.25.37,0,.73.02,1.08.05.05,0,.12.02.17.03.35.03.69.08,1.01.15.05,0,.09.02.14.02.34.08.67.16.98.26,0,0,.01,0,.02.01.32.1.62.22.92.36.03.01.06.02.09.03.29.13.55.27.81.43.05.02.1.05.14.07.24.16.48.32.72.49.04.03.08.07.13.1.22.18.44.37.65.56.03.03.07.06.09.09.21.21.42.42.61.64.02.01.02.02.04.04.18.21.36.44.52.67.02.03.04.07.07.1.16.23.31.47.45.71.02.05.06.1.08.15.14.24.26.48.37.72.03.06.05.12.07.17.11.25.22.5.31.76.02.06.03.11.05.16.09.27.17.54.24.82,0,.03.01.06.02.1.07.26.12.52.17.79,0,.04.02.1.02.14.05.28.07.55.1.83,0,.06.02.13.02.19.02.27.04.54.04.81v.2c0,.26-.02.54-.04.81,0,.06-.01.11-.01.17-.02.27-.06.54-.1.81,0,.04-.01.07-.02.11-.05.26-.1.53-.16.78-.02.05-.03.1-.04.16-.07.26-.15.51-.23.77-.02.05-.04.12-.06.19-.09.24-.19.49-.3.73-.03.06-.05.11-.08.17-.11.25-.23.49-.37.73-.02.03-.04.07-.07.12-.13.23-.27.45-.42.67-.02.02-.03.05-.05.08-.17.22-.34.44-.52.65-.03.04-.07.09-.1.13-.19.2-.37.4-.57.59-.04.04-.09.08-.13.13-.2.18-.41.35-.63.52-.04.04-.09.07-.14.11-.23.17-.47.33-.73.48-.02.02-.05.03-.07.04-.26.15-.52.28-.78.41-.04.01-.07.03-.1.04-.28.12-.57.24-.87.34-.05.02-.11.03-.16.06-.29.09-.6.17-.92.23-.06.02-.12.03-.19.04-.32.06-.66.11-1,.15-.04,0-.09.01-.14.01-.37.04-.75.06-1.13.06-.71,0-1.47-.06-2.25-.18-10.73-1.65-10.85-18.6-.55-20.51Z"/>
  <path d="M413.38,142.1h-.01c-1.32.23-2.14.74-3.19,1.49-5.02,3.54-13.76,15.05-18.66,20.09-4.51,4.64-9.18,9.12-13.81,13.63-1.92.33-13.4-12.89-15.94-14.65-6.74-4.68-14.14,2.7-11.34,10.01l23.07,23.03c5.47,3.06,9.03-.31,12.68-3.96,12.32-12.32,23.38-26.1,35.67-38.49,3.37-6.46-1.42-12.36-8.47-11.15Z"/>
  <path d="M131.74,290.91c-6.5-7.26-9.56-21.28-20.7-19.01-4.92,1.01-7.63,6.78-6.98,11.45,1.18,8.57,16.22,24.88,23.3,29.94,32.9,23.54,87.84,14.22,104.82-24.15,3.95-8.92.86-20.05-10.51-17.05h0c-5.07,1.33-9.55,12.95-13.46,17.61-19.3,23.06-56.41,23.62-76.48,1.2Z"/>
  <path d="M205.32,238.59c16.11,13.02,36.74-9.49,22.64-24.69-15.62-16.83-41.09,9.78-22.64,24.69Z"/>
  <path d="M134.21,213.18c-15.97-14.59-38.37,9.44-22.65,24.69,15.43,14.98,39.34-9.44,22.65-24.69Z"/>
  <path d="M446.06,345.29c-3.66-3.61-10.28-6.49-15.44-6.94-22.77-1.96-47.52,0-71.55.45.25,0,.51.01.76.01-.26,0-.52-.01-.78-.01-4.08.08-8.12.11-12.14.07-.14,0-.27.01-.41.01-5-.05-9.95-.21-14.81-.53-11.1.86-21.42,10.52-22.39,21.71-.58,6.8-.81,29.38,1.04,35.08,2.93,9.03,12.21,14.53,21.38,15.38,31.19,2.86,66.59-2.15,98.22.03,4.45-.48,8.05-1.42,10.98-2.73,0,0,0,0,.01-.01,6.95-3.14,10.03-8.45,11.33-15,0,0,0-.01.01-.02,1.42-7.16.73-15.8.68-24.71,0-1.42.71-2.72.7-3.98-.09-6.52-2.91-14.2-7.58-18.81ZM421.78,389.69c-24.32,12.85-36.76-28.64-10.4-31.78,18.05-2.15,27.67,22.66,10.4,31.78ZM383.2,339.52c9.56.37,19.45.76,29.04.76,0,0-.01,0-.02,0-9.59,0-19.47-.39-29.04-.76-1.99-.08-4-.16-6.01-.23,2.02.08,4.03.15,6.03.23ZM343.94,357.91c26.42-2.16,23.29,38.92-1.92,33.6-18.48-3.9-17.29-32.04,1.92-33.6ZM451.55,393.8s-.01.01-.01.02c-.05.22-.1.43-.16.59.06-.17.11-.38.16-.59-2.58,3.67-5.27,7.27-8.04,10.79,0,0-.01.02-.02.03-5.53,3.6-12.07,4.42-14.74,4.6h0c-6.49.44-13.58.66-21.69.66-9.29,0-18.92-.28-28.22-.55-9.44-.28-19.19-.57-28.73-.57-6.64,0-12.58.13-18.14.42-13.57-1.63-17.76-8.24-19.88-13.84-.83-2.19-1.43-4.6-1.84-7.16.42,2.55,1.01,4.96,1.84,7.15,2.12,5.61,6.31,12.21,19.88,13.84,5.56-.28,11.51-.42,18.14-.42,9.55,0,19.3.29,28.73.57,9.31.28,18.93.56,28.22.56,8.11,0,15.21-.21,21.69-.66,2.67-.18,9.22-1.01,14.77-4.62,2.78-3.52,5.46-7.11,8.04-10.79,1.29-5.55,1.62-26.55.74-34.07-.22-1.88-.74-3.72-1.51-5.48.77,1.76,1.29,3.6,1.51,5.48.88,7.52.55,28.47-.74,34.05Z"/>
  <path d="M418.35,80.55c9.98,9.28,19.18,19.39,27.47,30.23,3.97.32,8.11.49,12.24.64-7.96-11.12-16.85-21.62-26.66-31.43-6.43-6.43-13.16-12.45-20.17-18.09,2.41,5.74,4.58,11.69,6.68,17.48.14.39.28.78.43,1.17Z"/>
  <path d="M409.72,439.51h-.01c-41.76,35.26-95.69,56.53-154.5,56.53-132.24,0-239.84-107.59-239.84-239.84S122.96,16.35,255.21,16.35c43.47,0,84.28,11.62,119.48,31.94,2.95-1.9,6.24-3.18,9.58-3.63.8-.11,1.62-.16,2.44-.18-10.98-6.83-22.48-12.81-34.5-17.89-30.72-13-63.36-19.59-97-19.59s-66.27,6.59-97,19.58c-29.67,12.55-56.32,30.52-79.21,53.4-22.88,22.88-40.85,49.53-53.4,79.21-13.01,30.73-19.59,63.36-19.59,97.01s6.58,66.27,19.59,97c12.55,29.67,30.52,56.32,53.4,79.21,22.89,22.88,49.54,40.85,79.21,53.4,30.73,12.99,63.36,19.59,97,19.59s66.28-6.58,97-19.59c26.63-11.26,50.81-26.9,72.03-46.52-4.16.15-8.54.23-13.22.23-.44,0-.87-.01-1.3-.02Z"/>
  <path d="M382.82,53.19c.82-.27,1.66-.47,2.51-.59-.84.11-1.68.31-2.51.59Z"/>
  <path d="M387.31,52.48c-.17,0-.33.01-.49.01.25,0,.51-.01.76,0-.09,0-.18,0-.27,0Z"/>
  <path d="M441.14,414.72c.89-.34,1.76-.7,2.61-1.1-.85.4-1.72.77-2.61,1.1Z"/>
  <path d="M443.75,413.62c1.28-.6,2.52-1.28,3.7-2.02-1.18.75-2.42,1.42-3.7,2.02Z"/>
  <path d="M502.91,228.69c-.37-2.22-.79-4.44-1.23-6.65.45,2.21.86,4.43,1.23,6.65-2.38-21.77-7.6-42.99-15.61-63.4-2.41,1.98-4.84,3.92-7.24,5.84-.15.12-.31.25-.46.36,1.14,3,2.22,6.04,3.24,9.1l-.5.38c.82,1.81,1.59,3.62,2.36,5.44,2.18,5.23,4.11,10.53,5.81,15.87-1.71-5.34-3.64-10.64-5.82-15.87,6.73,22.09,10.36,45.52,10.36,69.79,0,31.29-6.03,61.21-16.99,88.64,2.08,4.72,3.46,9.61,4.05,14.49.92-2.02,1.83-4.07,2.7-6.13,1.24-2.93,2.41-5.87,3.53-8.82-.06-.04-.14-.11-.21-.2.08.08.15.15.22.19h0s0,.01,0,.02c.02-.07.05-.14.07-.2.01-.04.03-.07.04-.11.01-.05.03-.1.05-.14.83-2.19,1.62-4.4,2.38-6.61.01-.04.03-.09.05-.13,8.93-25.97,13.46-53.14,13.46-81,0-9.25-.51-18.43-1.5-27.51ZM484.5,336.15h.01c0-.11.02-.24.05-.39.05-.31.16-.68.31-1.11.18-.54.42-1.17.7-1.84.49-1.21,1.1-2.57,1.68-3.86-.57,1.29-1.18,2.65-1.68,3.86-.27.67-.52,1.3-.7,1.84-.14.43-.25.8-.31,1.11-.02.15-.04.28-.04.39-.01.19.26,1,.66,2.05-.41-1.04-.68-1.85-.68-2.05ZM486.99,342.3c.43.83.83,1.52,1.14,1.87-.32-.35-.72-1.04-1.14-1.87ZM492.08,314.88c.55-1.98,1.08-3.95,1.57-5.93-.49,1.98-1.01,3.95-1.57,5.93Z"/>
</svg>