<svg xmlns="http://www.w3.org/2000/svg" xmlns:xlink="http://www.w3.org/1999/xlink" width="512" zoomAndPan="magnify" viewBox="0 0 384 383.999986" height="512" preserveAspectRatio="xMidYMid meet" version="1.0"><defs><clipPath id="4f5726699b"><path d="M 4.359375 4.359375 L 379.359375 4.359375 L 379.359375 379.359375 L 4.359375 379.359375 Z M 4.359375 4.359375 " clip-rule="nonzero"/></clipPath></defs><rect x="-38.4" width="460.8" fill="#ffffff" y="-38.399999" height="460.799983" fill-opacity="1"/><rect x="-38.4" width="460.8" fill="#ffffff" y="-38.399999" height="460.799983" fill-opacity="1"/><path fill="#100249" d="M 91.5625 155.921875 C 89.210938 155.273438 87.976562 150.289062 91.164062 149.410156 C 96.546875 147.921875 115.644531 150.488281 118.476562 148.773438 L 124.964844 134.109375 C 124.589844 133.277344 112.832031 121.601562 112.039062 121.144531 C 108.867188 119.324219 98.550781 121.074219 94.398438 120.609375 C 91.035156 126.078125 87.785156 131.351562 80.671875 132.074219 C 67.816406 133.394531 59.355469 120.234375 65.878906 109.113281 C 72.5 97.832031 91.300781 100.265625 93.335938 113.617188 L 114.589844 113.824219 C 116.9375 114.519531 125.246094 125.226562 128.332031 127.339844 C 128.929688 127.75 129.277344 128.355469 130.070312 127.695312 C 137.449219 117.816406 147.910156 110.601562 159.347656 106.179688 C 159.894531 105.449219 148.898438 94.996094 148.089844 91.90625 C 146.980469 87.652344 148.339844 82.097656 147.660156 77.6875 C 133.523438 73.070312 137.085938 52.285156 151.953125 52.78125 C 166.660156 53.273438 168.863281 73.164062 155.238281 78.035156 L 155.238281 88.851562 C 155.445312 90.457031 165.4375 102.964844 166.632812 103.335938 L 179.492188 101.464844 L 179.691406 96.0625 C 162.359375 91.972656 165.289062 66.007812 183.550781 66.640625 C 200.453125 67.230469 202.570312 91.445312 186.707031 96.078125 L 186.59375 102.105469 L 200.582031 103.535156 C 202.816406 99.558594 211.273438 92.273438 211.832031 88.167969 C 212.046875 86.601562 212.0625 80.027344 211.667969 78.734375 C 211.195312 77.167969 208.355469 76.375 207.015625 75.210938 C 195.28125 65.058594 206.933594 47.703125 221.117188 54.300781 C 231.222656 59 229.429688 74.625 218.722656 77.6875 L 218.308594 92.601562 L 207.726562 105.847656 L 216.546875 109.96875 C 252.277344 64.828125 325.140625 85.320312 333.632812 142.039062 C 339.03125 178.085938 313.984375 209.574219 278.199219 213.804688 C 264.652344 215.40625 251.992188 212.210938 239.527344 207.097656 C 230.105469 219.351562 218.636719 228.359375 203.953125 233.558594 L 203.621094 274.109375 C 207.214844 277.914062 209.683594 279.152344 210.363281 285.078125 C 212.847656 306.765625 208.875 332.421875 181.457031 331.011719 C 156.269531 329.71875 154.367188 303.417969 156.699219 283.71875 C 157.316406 278.511719 159.683594 277.347656 162.808594 274.125 L 162.675781 232.96875 C 137.265625 225.609375 117.503906 201.683594 116.441406 174.988281 L 79.386719 174.945312 C 73.140625 195.980469 42.386719 186.050781 50.914062 164.988281 C 56.351562 151.5625 75.546875 154.066406 79.414062 167.535156 C 91.46875 167.882812 103.679688 169.125 115.652344 167.40625 L 117.109375 155.921875 Z M 147.292969 69.875 C 152.648438 74.769531 161.15625 67.972656 156.304688 61.882812 C 150.554688 54.664062 141.664062 64.71875 147.292969 69.875 Z M 212.949219 60.027344 C 206.738281 61.457031 208.394531 71.226562 214.863281 71.503906 C 223.648438 71.878906 223.085938 57.691406 212.949219 60.027344 Z M 181.65625 73.621094 C 173.015625 74.660156 172.558594 90.394531 184.125 89.117188 C 193.992188 88.027344 191.730469 72.410156 181.65625 73.621094 Z M 266.84375 92.054688 C 242.75 92.503906 227.875 105.804688 216.007812 125.0625 C 207.128906 139.472656 199.554688 154.75 190.757812 169.214844 C 224.550781 188.234375 259.542969 222.195312 300.347656 198.5 C 349.839844 169.769531 325.816406 90.941406 266.84375 92.054688 Z M 77.433594 109.054688 C 68.039062 110.417969 69.230469 125.949219 79.21875 125.246094 C 90.046875 124.476562 88.714844 107.417969 77.433594 109.054688 Z M 204.878906 129.265625 C 205.90625 125.84375 210.660156 120.800781 211.523438 117.800781 C 212.148438 115.632812 206.507812 113.722656 204.652344 112.988281 C 142.402344 88.53125 92.179688 171.746094 145.394531 215.84375 C 171.132812 237.175781 214.386719 232.058594 232.128906 203.355469 L 219.71875 196.214844 C 199.722656 220.4375 161.265625 219.59375 144.746094 191.96875 C 124.886719 158.761719 151.683594 120.714844 189.566406 124.667969 C 194.972656 125.234375 199.6875 128.035156 204.871094 129.257812 Z M 179.628906 131.601562 C 139.730469 135.300781 133.4375 191.65625 171.230469 204.308594 C 185.472656 209.082031 204.183594 204.722656 212.449219 191.730469 L 182.878906 172.910156 L 182.316406 168.386719 L 200.8125 136.492188 C 195.167969 132.28125 186.515625 130.960938 179.628906 131.601562 Z M 62.429688 163.566406 C 52.863281 165.527344 55.964844 180.929688 65.496094 179.640625 C 76.042969 178.214844 74.035156 161.1875 62.429688 163.566406 Z M 196.804688 273.761719 L 196.804688 235.957031 C 195.023438 234.429688 191.492188 236.195312 188.996094 236.328125 C 182.734375 236.652344 176.457031 236.066406 170.238281 235.621094 L 170.238281 273.769531 L 196.804688 273.769531 Z M 164.953125 282.101562 C 164.179688 283.160156 164.183594 284.414062 164.082031 285.65625 C 163.5625 291.847656 163.4375 307.414062 165.617188 312.789062 C 171.890625 328.246094 196.722656 327.226562 201.898438 311.207031 C 203.449219 306.398438 203.5625 291.011719 202.949219 285.664062 C 202.585938 282.503906 201.636719 281.511719 198.546875 281.210938 C 191.074219 280.480469 176.070312 280.589844 168.511719 281.222656 C 167.265625 281.324219 166.015625 281.324219 164.957031 282.089844 Z M 164.953125 282.101562 " fill-opacity="1" fill-rule="nonzero"/><path fill="#100249" d="M 275.816406 161.371094 L 280.832031 161.273438 L 281.949219 159.667969 C 281.875 151.714844 282.03125 143.753906 281.972656 135.796875 C 281.9375 130.816406 282.019531 125.878906 281.972656 120.8125 C 281.933594 116.109375 278.984375 110.191406 286.34375 109.574219 C 289.125 109.339844 301.039062 109.214844 302.769531 110.238281 C 303.984375 110.960938 305.136719 113.246094 305.125 114.699219 L 305.105469 161.378906 L 310.785156 162 C 312.304688 162.960938 312.304688 175.21875 311.898438 177.367188 C 311.664062 178.617188 310.835938 179.394531 309.859375 180.089844 L 218.898438 179.808594 C 218.082031 179.128906 217.453125 178.460938 217.253906 177.367188 C 216.863281 175.242188 216.988281 164.527344 217.878906 163.035156 C 219.285156 160.675781 222.449219 161.429688 224.734375 161.378906 C 225.703125 160.417969 223.488281 137.773438 225.089844 134.140625 C 225.488281 133.238281 226.800781 132.289062 227.8125 132.101562 C 230.269531 131.640625 241.535156 131.691406 244.179688 132.050781 C 245.65625 132.25 247.890625 133.773438 247.890625 135.148438 L 247.890625 161.371094 L 252.660156 161.371094 L 252.660156 122.203125 C 252.660156 121.757812 254.851562 120.003906 255.738281 119.835938 C 258.132812 119.378906 269.515625 119.433594 272.105469 119.789062 C 273.582031 119.988281 275.816406 121.511719 275.816406 122.886719 Z M 289.445312 117.09375 L 289.445312 161.371094 L 296.863281 161.296875 C 297.3125 159.644531 297.550781 158.019531 297.648438 156.289062 C 298.140625 147.617188 298.820312 126.792969 297.433594 118.945312 C 297.335938 118.390625 297.160156 117.21875 296.484375 117.066406 L 289.445312 117.089844 Z M 268.328125 127.3125 L 260.152344 127.3125 L 260.152344 161.367188 C 262.78125 161.015625 266.347656 162.34375 268.328125 160.34375 L 268.328125 127.304688 Z M 232.226562 139.570312 L 232.226562 161.367188 L 239.28125 161.269531 L 240.300781 160.253906 C 239.160156 153.367188 241.320312 146.46875 239.644531 139.644531 L 232.226562 139.566406 Z M 305.074219 168.214844 C 303.359375 168.15625 301.738281 167.585938 300.027344 167.472656 C 281.640625 166.28125 261.738281 167.222656 243.457031 167.507812 C 237.199219 167.605469 231.070312 167.800781 224.832031 168.273438 L 224.019531 172.570312 L 305.121094 172.949219 L 305.078125 168.207031 Z M 305.074219 168.214844 " fill-opacity="1" fill-rule="nonzero"/><g clip-path="url(#4f5726699b)"><path fill="#100249" d="M 192 379.640625 C 166.667969 379.640625 142.097656 374.679688 118.957031 364.894531 C 96.613281 355.441406 76.546875 341.910156 59.316406 324.679688 C 42.085938 307.449219 28.558594 287.382812 19.101562 265.039062 C 9.316406 241.898438 4.359375 217.328125 4.359375 192 C 4.359375 166.667969 9.316406 142.097656 19.101562 118.957031 C 28.550781 96.613281 42.085938 76.546875 59.316406 59.316406 C 76.546875 42.085938 96.613281 28.554688 118.957031 19.101562 C 142.097656 9.316406 166.667969 4.359375 192 4.359375 C 217.328125 4.359375 241.898438 9.316406 265.039062 19.101562 C 287.382812 28.554688 307.449219 42.085938 324.679688 59.316406 C 341.910156 76.546875 355.441406 96.613281 364.894531 118.957031 C 374.679688 142.09375 379.640625 166.664062 379.640625 192 C 379.640625 217.332031 374.679688 241.898438 364.894531 265.039062 C 355.445312 287.382812 341.910156 307.449219 324.679688 324.679688 C 307.449219 341.910156 287.382812 355.441406 265.039062 364.894531 C 241.90625 374.679688 217.332031 379.640625 192 379.640625 Z M 192 12.539062 C 93.042969 12.539062 12.539062 93.042969 12.539062 192 C 12.539062 290.953125 93.042969 371.457031 192 371.457031 C 290.953125 371.457031 371.457031 290.953125 371.457031 192 C 371.457031 93.042969 290.953125 12.539062 192 12.539062 Z M 192 12.539062 " fill-opacity="1" fill-rule="nonzero"/></g></svg>