<svg xmlns="http://www.w3.org/2000/svg" xmlns:xlink="http://www.w3.org/1999/xlink" width="512" zoomAndPan="magnify" viewBox="0 0 384 383.999986" height="512" preserveAspectRatio="xMidYMid meet" version="1.0"><defs><clipPath id="4f08d463b1"><path d="M 49 5.109375 L 378.609375 5.109375 L 378.609375 259 L 49 259 Z M 49 5.109375 " clip-rule="nonzero"/></clipPath><clipPath id="d438800ed2"><path d="M 99 353 L 286 353 L 286 378.609375 L 99 378.609375 Z M 99 353 " clip-rule="nonzero"/></clipPath><clipPath id="2c210da93d"><path d="M 5.109375 118 L 27 118 L 27 268 L 5.109375 268 Z M 5.109375 118 " clip-rule="nonzero"/></clipPath></defs><rect x="-38.4" width="460.8" fill="#ffffff" y="-38.399999" height="460.799983" fill-opacity="1"/><rect x="-38.4" width="460.8" fill="#ffffff" y="-38.399999" height="460.799983" fill-opacity="1"/><g clip-path="url(#4f08d463b1)"><path fill="#100249" d="M 192 12.757812 C 290.835938 12.757812 371.242188 93.164062 371.242188 192 C 371.242188 205.820312 369.664062 219.28125 366.691406 232.207031 C 366.789062 233.007812 366.851562 233.824219 366.851562 234.644531 C 366.851562 236.980469 366.457031 239.199219 365.734375 241.234375 C 367.339844 245.445312 367.316406 250.238281 365.621094 254.703125 C 366.105469 255.90625 366.46875 257.179688 366.707031 258.503906 C 374.796875 237.300781 378.890625 214.957031 378.890625 191.996094 C 378.890625 166.769531 373.949219 142.292969 364.203125 119.246094 C 354.789062 96.992188 341.320312 77.003906 324.152344 59.84375 C 306.988281 42.6875 287.003906 29.207031 264.753906 19.796875 C 241.703125 10.050781 217.226562 5.109375 192 5.109375 C 166.773438 5.109375 142.296875 10.050781 119.253906 19.796875 C 97 29.207031 77.011719 42.679688 59.851562 59.84375 C 56.148438 63.546875 52.636719 67.382812 49.28125 71.339844 C 53.808594 68.523438 58.953125 66.738281 64.628906 66.011719 C 97.136719 33.148438 142.230469 12.757812 192 12.757812 Z M 192 12.757812 " fill-opacity="1" fill-rule="nonzero"/></g><g clip-path="url(#d438800ed2)"><path fill="#100249" d="M 192 371.242188 C 164.820312 371.242188 139.039062 365.15625 115.9375 354.285156 C 110.34375 354.261719 104.730469 354.238281 99.109375 354.21875 C 105.589844 357.933594 112.3125 361.265625 119.253906 364.199219 C 142.296875 373.945312 166.773438 378.886719 192 378.886719 C 217.226562 378.886719 241.703125 373.945312 264.746094 364.199219 C 271.953125 361.148438 278.914062 357.671875 285.625 353.785156 C 279.851562 353.96875 273.957031 354.160156 268.078125 354.277344 C 244.972656 365.152344 219.179688 371.234375 192 371.234375 Z M 192 371.242188 " fill-opacity="1" fill-rule="nonzero"/></g><g clip-path="url(#2c210da93d)"><path fill="#100249" d="M 12.757812 192 C 12.757812 168.03125 17.484375 145.148438 26.0625 124.230469 C 23.308594 122.8125 21.484375 120.898438 20.421875 119.507812 C 20.273438 119.3125 20.121094 119.101562 19.964844 118.871094 C 19.90625 118.996094 19.851562 119.125 19.796875 119.253906 C 10.050781 142.296875 5.109375 166.773438 5.109375 192 C 5.109375 217.226562 10.050781 241.703125 19.796875 264.746094 C 20.15625 265.597656 20.535156 266.445312 20.90625 267.292969 L 20.90625 245.496094 C 15.613281 228.59375 12.757812 210.621094 12.757812 192 Z M 12.757812 192 " fill-opacity="1" fill-rule="nonzero"/></g><path fill="#100249" d="M 256.113281 106.535156 L 256.113281 197.558594 C 256.113281 199.851562 249.484375 199.851562 249.484375 197.558594 L 249.484375 149.371094 L 201.550781 149.371094 L 201.550781 332.433594 L 249.484375 332.433594 L 249.484375 325.042969 C 249.484375 324.507812 251.597656 323.363281 252.335938 323.265625 C 257.628906 322.578125 255.789062 328.753906 256.183594 332.109375 L 257.386719 332.945312 C 264.019531 333.078125 270.667969 332.777344 277.296875 332.925781 C 291.703125 333.242188 307.269531 333.457031 321.636719 334.480469 C 323.875 334.636719 331.078125 335.019531 332.613281 335.738281 C 332.816406 335.835938 333.234375 336.339844 333.113281 336.511719 C 322.640625 338.367188 311.847656 337.765625 301.222656 338.023438 C 288.078125 338.34375 274.644531 338.941406 261.492188 339.089844 C 186.742188 339.921875 111.933594 338.488281 37.183594 338.984375 L 36.199219 337.925781 L 36.210938 243.839844 C 36.375 243.460938 37.414062 242.175781 37.605469 242.175781 L 84.265625 242.175781 L 84.265625 207.246094 C 84.265625 207.039062 86.296875 205.460938 86.5625 205.460938 L 138.828125 205.460938 L 138.828125 175.121094 C 138.828125 175.027344 140.011719 173.847656 140.105469 173.847656 L 194.410156 173.847656 L 194.410156 144.015625 C 194.410156 143.886719 196.070312 142.230469 196.195312 142.230469 L 248.71875 142.230469 L 249.484375 141.464844 L 249.484375 101.179688 C 249.484375 100.839844 250.773438 100.054688 251.234375 99.871094 C 254.421875 98.589844 271.5 99.371094 276.277344 99.375 C 284.355469 99.386719 292.609375 99.792969 300.726562 99.953125 C 303.945312 100.011719 308.414062 97.488281 308.65625 103.199219 L 308.640625 188.898438 C 308 194.359375 301.492188 191.75 301.492188 190.417969 L 301.492188 107.300781 L 300.726562 106.535156 L 256.109375 106.535156 Z M 194.410156 180.476562 L 146.734375 180.476562 L 145.96875 181.238281 L 145.96875 332.433594 L 194.410156 332.433594 Z M 138.828125 212.601562 L 91.40625 212.601562 L 91.40625 332.433594 L 138.828125 332.433594 Z M 84.265625 331.925781 L 84.265625 249.570312 L 83.5 248.804688 L 43.726562 248.804688 L 42.960938 249.570312 L 42.960938 331.925781 Z M 84.265625 331.925781 " fill-opacity="1" fill-rule="nonzero"/><path fill="#100249" d="M 285.691406 218.210938 L 293.082031 218.210938 C 295.410156 215.695312 291.292969 205.46875 297.09375 206.097656 C 297.773438 206.175781 299.96875 207.925781 299.96875 208.265625 L 299.96875 218.210938 L 307.617188 218.210938 L 307.617188 208.265625 C 307.617188 205.753906 313.734375 205.929688 313.734375 208.777344 L 313.734375 218.210938 L 321.386719 218.210938 L 321.386719 208.265625 C 321.386719 208.125 322.175781 206.878906 322.40625 206.742188 C 323.984375 205.664062 327.503906 207.003906 327.503906 208.777344 L 327.503906 218.210938 C 335.90625 217.511719 338.789062 223.992188 337.703125 231.46875 L 349.175781 231.46875 C 352.359375 231.46875 352.144531 237.585938 349.6875 237.585938 L 337.703125 237.585938 L 337.703125 245.238281 L 349.6875 245.238281 C 349.828125 245.238281 351.074219 246.027344 351.210938 246.257812 C 352.289062 247.835938 350.949219 251.355469 349.175781 251.355469 L 337.703125 251.355469 L 337.703125 259.003906 L 349.6875 259.003906 C 352.210938 259.003906 352.773438 265.125 349.175781 265.125 L 337.703125 265.125 L 337.703125 272.773438 L 349.6875 272.773438 C 351.957031 272.773438 352.296875 278.890625 349.6875 278.890625 L 337.703125 278.890625 L 337.703125 286.542969 L 349.6875 286.542969 C 351.675781 286.542969 352.472656 290.460938 350.828125 292.019531 C 349.292969 293.476562 340.246094 292.253906 337.699219 292.65625 C 338.402344 299.472656 333.214844 302.855469 327.019531 302.886719 C 326.570312 305.683594 328.609375 313.878906 323.808594 313.464844 C 322.808594 313.378906 320.871094 312.277344 320.871094 311.273438 L 320.871094 302.859375 L 313.222656 302.859375 L 313.222656 311.78125 C 313.222656 313.789062 307.613281 313.789062 307.613281 311.78125 L 307.613281 302.859375 L 299.960938 302.859375 C 298.429688 305.84375 301.46875 313.339844 296.648438 313.339844 C 292.46875 313.339844 293.8125 305.863281 293.332031 302.859375 L 285.683594 302.859375 L 285.683594 311.78125 C 285.683594 313.789062 280.074219 313.789062 280.074219 311.78125 L 280.074219 302.859375 L 271.917969 302.859375 L 271.917969 311.78125 C 271.917969 312.054688 270.253906 313.515625 269.601562 313.582031 C 264.59375 314.101562 266.734375 305.765625 266.28125 302.878906 C 260.601562 302.496094 256.308594 298.574219 256.613281 292.664062 C 253.125 292.355469 249.046875 293.074219 245.644531 292.671875 C 240.5 292.0625 242.519531 286.542969 244.636719 286.542969 L 256.617188 286.542969 L 256.617188 278.890625 L 244.636719 278.890625 C 241.804688 278.890625 241.804688 272.773438 244.636719 272.773438 L 256.617188 272.773438 L 256.617188 265.125 L 245.144531 265.125 C 242.273438 265.125 241.480469 259.003906 244.636719 259.003906 L 256.617188 259.003906 L 256.617188 251.355469 L 244.636719 251.355469 C 241.664062 251.355469 242.183594 245.238281 244.125 245.238281 L 256.617188 245.238281 L 256.617188 237.585938 L 244.636719 237.585938 C 241.804688 237.585938 241.804688 231.46875 244.636719 231.46875 L 256.617188 231.46875 C 255.675781 224.820312 258.699219 217.8125 266.3125 218.210938 C 267.117188 214.609375 263.910156 205.875 269.636719 206.4375 C 273.746094 206.832031 271.085938 214.652344 271.992188 217.375 L 272.402344 217.984375 L 279.859375 217.730469 C 280.855469 214.96875 278.121094 205.246094 283.28125 206.046875 C 283.847656 206.136719 285.691406 207.410156 285.691406 207.75 Z M 265.125 225.429688 C 263.925781 225.832031 263.839844 227.566406 263.742188 228.636719 C 261.9375 248.746094 265.164062 271.523438 263.742188 291.917969 C 263.761719 294.800781 264.957031 295.5 267.566406 295.742188 C 286.351562 297.453125 307.707031 294.390625 326.765625 295.742188 L 330.09375 294.480469 L 330.105469 226.0625 Z M 265.125 225.429688 " fill-opacity="1" fill-rule="nonzero"/><path fill="#100249" d="M 99.558594 153.449219 C 99.121094 153.105469 91.855469 159.210938 90.023438 157.660156 C 80.371094 148.828125 70.144531 139.90625 61.308594 130.257812 C 60.152344 128.992188 55.3125 123.710938 55.199219 122.5625 C 55.820312 119.363281 58.867188 116.78125 60.320312 113.933594 C 60.570312 113.445312 61.160156 113.535156 60.304688 112.902344 C 52.886719 110.125 45.351562 110.625 37.59375 110.589844 C 35.144531 110.578125 31.257812 112.15625 32.523438 107.558594 L 57.28125 84.382812 C 66.046875 78.875 76.9375 81.179688 86.511719 82.957031 C 106.140625 63.996094 132.820312 46.253906 160.996094 44.8125 C 163.613281 44.679688 170.859375 43.960938 171.460938 47.136719 C 172.183594 50.960938 170.578125 60.167969 169.792969 64.316406 C 164.882812 90.277344 149.625 112.527344 130.757812 130.363281 C 131.644531 138.636719 134.429688 147.417969 131.558594 155.605469 C 129.261719 162.160156 120.148438 168.03125 114.863281 172.566406 C 111.976562 175.039062 107.355469 180.296875 104.445312 182.035156 C 98.960938 185.308594 101.660156 171.199219 101.628906 168.472656 C 101.597656 165.574219 101.046875 160.226562 100.527344 157.335938 C 100.289062 156.007812 99.820312 154.757812 99.5625 153.449219 Z M 166.371094 49.933594 C 120.816406 50.667969 86.339844 86.351562 61.570312 120.839844 L 61.386719 121.964844 C 69.945312 133.101562 81.003906 142.242188 91.261719 151.847656 C 92.746094 152.230469 103.367188 145.003906 105.339844 143.664062 C 137.308594 121.917969 164.335938 90.320312 166.375 49.925781 Z M 82.226562 87.164062 C 79.558594 87.121094 77.011719 86.269531 74.347656 86.113281 C 65.199219 85.566406 62.355469 86.640625 55.703125 92.5 C 51.226562 96.449219 46.71875 101.28125 42.453125 105.503906 C 49.816406 105.101562 56.945312 106.867188 64.015625 108.503906 L 82.226562 87.15625 Z M 106.191406 172.820312 C 106.597656 173.164062 109.457031 170.714844 110.003906 170.265625 C 113.6875 167.246094 123.636719 159.363281 125.667969 155.84375 C 129.222656 149.695312 127.300781 141.214844 126.070312 134.585938 L 104.378906 150.398438 C 105.488281 157.691406 107.292969 165.492188 106.1875 172.828125 Z M 106.191406 172.820312 " fill-opacity="1" fill-rule="nonzero"/><path fill="#100249" d="M 64.246094 157.089844 C 67.046875 156.535156 67.707031 159.632812 66.132812 161.578125 C 62.824219 163.28125 54.332031 174.515625 51.386719 174.660156 C 48.4375 174.808594 48.203125 172.40625 49.835938 170.261719 C 51.109375 168.589844 60.875 159.246094 62.59375 158.03125 C 63.113281 157.664062 63.589844 157.21875 64.246094 157.085938 Z M 64.246094 157.089844 " fill-opacity="1" fill-rule="nonzero"/><path fill="#100249" d="M 50.972656 147.941406 C 53.914062 147.042969 55.511719 149.078125 53.671875 151.664062 C 52.597656 153.167969 43.28125 162.246094 41.9375 162.871094 C 40.453125 163.566406 38 163.21875 37.839844 161.328125 L 38.347656 159.796875 Z M 50.972656 147.941406 " fill-opacity="1" fill-rule="nonzero"/><path fill="#100249" d="M 65.476562 172.753906 C 63.90625 170.25 67.273438 168.625 68.46875 167.476562 C 70.613281 165.417969 76.9375 157.976562 79.4375 157.996094 C 80.839844 158.007812 81.8125 158.863281 81.726562 160.285156 C 81.574219 162.886719 71.511719 169.957031 69.761719 172.851562 C 69.105469 173.722656 65.804688 173.285156 65.476562 172.753906 Z M 65.476562 172.753906 " fill-opacity="1" fill-rule="nonzero"/><path fill="#100249" d="M 54.027344 136.984375 C 50.835938 138.574219 44.542969 147.796875 41.207031 147.34375 C 39.792969 147.152344 39.171875 145.882812 39.371094 144.554688 C 39.71875 142.226562 49.398438 135.40625 51.125 132.8125 C 54.792969 131.492188 55.59375 134.039062 54.027344 136.988281 Z M 54.027344 136.984375 " fill-opacity="1" fill-rule="nonzero"/><path fill="#100249" d="M 273.074219 278.246094 C 271.523438 276.777344 272.308594 274.59375 272.804688 272.878906 C 275.777344 262.503906 281.789062 251.726562 285.078125 241.304688 C 286.765625 238.070312 292.046875 238.292969 293.722656 241.539062 C 297.222656 252.121094 302.980469 262.183594 306.328125 272.785156 C 307.082031 275.175781 307.640625 278.554688 304.25 278.882812 C 298.96875 279.390625 298.957031 269.992188 296.0625 267.242188 C 293.804688 267.417969 282.808594 266.511719 281.855469 267.660156 C 280.585938 269.195312 279.675781 275.613281 278.054688 277.628906 C 277 278.933594 274.304688 279.414062 273.074219 278.246094 Z M 284.160156 261.042969 L 294.359375 261.042969 L 289.507812 248.292969 C 288.386719 248.066406 288.867188 248.777344 288.617188 249.414062 C 287.132812 253.285156 286.007812 257.316406 284.160156 261.039062 Z M 284.160156 261.042969 " fill-opacity="1" fill-rule="nonzero"/><path fill="#100249" d="M 313.859375 239.746094 C 314.914062 238.6875 318.542969 238.753906 319.375 240.355469 L 319.84375 276.582031 C 319.265625 279.617188 313.816406 279.632812 313.238281 276.582031 C 313.925781 265.523438 312.28125 253.324219 313.207031 242.40625 C 313.273438 241.617188 313.292969 240.304688 313.859375 239.746094 Z M 313.859375 239.746094 " fill-opacity="1" fill-rule="nonzero"/><path fill="#100249" d="M 107.082031 90.847656 C 114.519531 89.6875 122.933594 93.734375 123.996094 101.738281 C 126.957031 124.078125 92.925781 124.4375 96.035156 101.738281 C 96.730469 96.664062 102.117188 91.625 107.074219 90.847656 Z M 108.101562 95.949219 C 99.761719 97.382812 98.277344 110.179688 106.585938 113.027344 C 121.363281 118.101562 123.835938 93.246094 108.101562 95.949219 Z M 108.101562 95.949219 " fill-opacity="1" fill-rule="nonzero"/><path fill="#100249" d="M 133.597656 67.902344 C 152.332031 64.714844 152.070312 93.75 133.597656 90.605469 C 121.105469 88.476562 122.050781 69.867188 133.597656 67.902344 Z M 134.613281 72.996094 C 127.066406 74.546875 128.746094 86.738281 137.003906 85.601562 C 145.136719 84.484375 144.015625 71.0625 134.613281 72.996094 Z M 134.613281 72.996094 " fill-opacity="1" fill-rule="nonzero"/></svg>