<svg xmlns="http://www.w3.org/2000/svg" xmlns:xlink="http://www.w3.org/1999/xlink" width="512" zoomAndPan="magnify" viewBox="0 0 384 383.999986" height="512" preserveAspectRatio="xMidYMid meet" version="1.0"><defs><clipPath id="448aeba9e2"><path d="M 368 171 L 379.597656 171 L 379.597656 253 L 368 253 Z M 368 171 " clip-rule="nonzero"/></clipPath><clipPath id="69af1e7128"><path d="M 4.597656 5.097656 L 319 5.097656 L 319 378.597656 L 4.597656 378.597656 Z M 4.597656 5.097656 " clip-rule="nonzero"/></clipPath></defs><rect x="-38.4" width="460.8" fill="#ffffff" y="-38.399999" height="460.799983" fill-opacity="1"/><rect x="-38.4" width="460.8" fill="#ffffff" y="-38.399999" height="460.799983" fill-opacity="1"/><path fill="#100249" d="M 338.941406 146.023438 C 338.179688 139.648438 339.503906 138.179688 343.816406 134.117188 C 348.121094 130.0625 352.8125 126.359375 357.472656 122.636719 C 355.917969 118.933594 354.246094 115.292969 352.457031 111.71875 C 341.492188 120.449219 325.851562 130.902344 326.855469 144.082031 L 332.121094 169.292969 L 334.753906 181.894531 L 333.042969 182.785156 L 305.1875 167.511719 L 298.222656 163.695312 C 298.222656 163.695312 298.222656 163.695312 298.214844 163.695312 C 297.957031 163.601562 297.699219 163.515625 297.4375 163.429688 C 297.347656 163.398438 297.253906 163.375 297.164062 163.347656 C 296.992188 163.300781 296.824219 163.25 296.65625 163.203125 C 296.546875 163.175781 296.4375 163.148438 296.328125 163.125 C 296.175781 163.085938 296.019531 163.050781 295.871094 163.015625 C 295.753906 162.988281 295.636719 162.964844 295.519531 162.945312 C 295.375 162.914062 295.230469 162.882812 295.078125 162.859375 C 294.960938 162.839844 294.839844 162.820312 294.71875 162.796875 C 294.574219 162.777344 294.433594 162.753906 294.289062 162.734375 C 294.167969 162.71875 294.046875 162.703125 293.921875 162.6875 C 293.777344 162.671875 293.636719 162.65625 293.492188 162.644531 C 293.371094 162.632812 293.25 162.621094 293.125 162.613281 C 292.980469 162.601562 292.835938 162.59375 292.695312 162.589844 C 292.574219 162.582031 292.453125 162.578125 292.332031 162.574219 C 292.1875 162.574219 292.042969 162.566406 291.894531 162.5625 C 291.792969 162.5625 291.691406 162.5625 291.59375 162.5625 C 291.207031 162.5625 290.820312 162.578125 290.433594 162.597656 C 290.371094 162.597656 290.304688 162.609375 290.238281 162.613281 C 289.839844 162.636719 289.4375 162.671875 289.03125 162.722656 C 289.023438 162.722656 289.015625 162.722656 289.007812 162.722656 C 288.605469 162.773438 288.203125 162.832031 287.800781 162.902344 C 287.738281 162.914062 287.683594 162.921875 287.625 162.933594 C 287.234375 163.003906 286.84375 163.085938 286.457031 163.167969 C 286.386719 163.183594 286.3125 163.203125 286.242188 163.21875 C 285.851562 163.308594 285.460938 163.410156 285.066406 163.515625 C 285.011719 163.53125 284.957031 163.546875 284.90625 163.558594 C 284.507812 163.671875 284.105469 163.789062 283.707031 163.921875 C 283.691406 163.921875 283.679688 163.929688 283.664062 163.929688 C 283.257812 164.0625 282.855469 164.203125 282.449219 164.351562 C 282.386719 164.371094 282.324219 164.398438 282.261719 164.417969 C 281.871094 164.5625 281.480469 164.710938 281.089844 164.867188 C 281.019531 164.894531 280.953125 164.921875 280.882812 164.953125 C 280.488281 165.113281 280.09375 165.285156 279.695312 165.453125 C 279.65625 165.46875 279.617188 165.488281 279.578125 165.507812 C 279.179688 165.683594 278.785156 165.863281 278.390625 166.054688 C 278.359375 166.070312 278.328125 166.082031 278.300781 166.09375 C 277.898438 166.285156 277.496094 166.480469 277.097656 166.679688 C 277.03125 166.710938 276.972656 166.746094 276.90625 166.777344 C 276.515625 166.972656 276.125 167.175781 275.734375 167.382812 C 275.671875 167.417969 275.609375 167.449219 275.546875 167.484375 C 275.148438 167.699219 274.746094 167.914062 274.34375 168.132812 C 274.324219 168.144531 274.308594 168.15625 274.289062 168.164062 C 273.890625 168.386719 273.488281 168.617188 273.085938 168.839844 C 273.046875 168.867188 273.007812 168.886719 272.960938 168.910156 C 272.566406 169.136719 272.171875 169.367188 271.78125 169.601562 C 271.714844 169.644531 271.648438 169.679688 271.585938 169.71875 C 271.199219 169.949219 270.808594 170.179688 270.421875 170.414062 C 270.367188 170.449219 270.3125 170.484375 270.257812 170.515625 C 269.449219 171.003906 268.644531 171.5 267.839844 172.003906 C 267.792969 172.039062 267.738281 172.066406 267.679688 172.101562 C 267.296875 172.34375 266.910156 172.589844 266.523438 172.828125 C 266.453125 172.875 266.378906 172.917969 266.308594 172.964844 C 265.9375 173.195312 265.570312 173.429688 265.207031 173.660156 C 264.371094 174.191406 263.53125 174.71875 262.707031 175.238281 C 262.652344 175.273438 262.59375 175.308594 262.539062 175.34375 C 262.164062 175.582031 261.789062 175.816406 261.414062 176.046875 C 261.351562 176.085938 261.292969 176.121094 261.234375 176.15625 C 260.851562 176.390625 260.472656 176.628906 260.089844 176.859375 C 260.058594 176.878906 260.03125 176.894531 259.996094 176.914062 C 259.621094 177.140625 259.242188 177.363281 258.871094 177.585938 C 258.84375 177.605469 258.8125 177.621094 258.777344 177.640625 C 258.40625 177.859375 258.035156 178.074219 257.664062 178.292969 C 257.605469 178.328125 257.542969 178.363281 257.484375 178.394531 C 257.125 178.601562 256.757812 178.808594 256.402344 179.007812 C 256.34375 179.039062 256.289062 179.074219 256.226562 179.101562 C 255.855469 179.308594 255.484375 179.507812 255.113281 179.703125 C 255.101562 179.714844 255.078125 179.71875 255.066406 179.730469 C 254.703125 179.917969 254.34375 180.105469 253.980469 180.285156 C 253.9375 180.304688 253.890625 180.332031 253.851562 180.351562 C 253.496094 180.527344 253.144531 180.695312 252.792969 180.855469 C 252.730469 180.886719 252.667969 180.917969 252.605469 180.945312 C 252.253906 181.105469 251.90625 181.261719 251.5625 181.40625 C 251.511719 181.429688 251.457031 181.453125 251.40625 181.472656 C 251.046875 181.625 250.683594 181.773438 250.328125 181.910156 C 250.109375 181.992188 249.898438 182.070312 249.691406 182.132812 C 249.644531 182.148438 249.59375 182.167969 249.546875 182.183594 C 249.34375 182.25 249.136719 182.308594 248.9375 182.355469 C 248.917969 182.355469 248.894531 182.363281 248.875 182.371094 C 248.695312 182.410156 248.511719 182.445312 248.324219 182.464844 C 248.28125 182.46875 248.230469 182.480469 248.183594 182.484375 C 247.984375 182.503906 247.777344 182.519531 247.570312 182.519531 C 247.558594 182.519531 247.546875 182.519531 247.539062 182.519531 C 247.453125 182.519531 247.363281 182.515625 247.273438 182.511719 C 247.222656 182.511719 247.171875 182.511719 247.117188 182.503906 C 246.957031 182.496094 246.796875 182.480469 246.625 182.460938 L 250.605469 163.265625 L 254.582031 144.070312 C 254.734375 142.085938 254.636719 140.316406 254.34375 138.703125 C 254.292969 138.433594 254.238281 138.171875 254.175781 137.910156 C 254.058594 137.390625 253.910156 136.886719 253.746094 136.398438 C 253.582031 135.90625 253.394531 135.433594 253.191406 134.972656 C 252.945312 134.417969 252.664062 133.882812 252.363281 133.355469 C 252.042969 132.800781 251.699219 132.257812 251.320312 131.734375 C 251.03125 131.328125 250.726562 130.925781 250.40625 130.535156 C 249.921875 129.945312 249.414062 129.371094 248.871094 128.804688 C 248.691406 128.617188 248.511719 128.429688 248.324219 128.238281 C 246.476562 126.367188 244.347656 124.5625 242.136719 122.589844 C 239.683594 120.398438 237.132812 118.308594 234.566406 116.230469 C 233.488281 115.351562 232.40625 114.480469 231.328125 113.597656 C 230.421875 112.859375 229.515625 112.117188 228.613281 111.363281 C 225.917969 109.109375 223.277344 106.792969 220.796875 104.308594 C 220.96875 103.328125 221.40625 102.65625 222.113281 102.25 C 222.332031 102.125 222.570312 102.019531 222.839844 101.949219 C 223.007812 101.902344 223.175781 101.871094 223.363281 101.84375 C 224.128906 101.738281 224.902344 101.636719 225.675781 101.546875 C 232.65625 100.722656 239.96875 100.4375 247.183594 99.894531 C 248.710938 99.78125 250.238281 99.65625 251.757812 99.503906 C 255.007812 99.195312 258.226562 98.792969 261.359375 98.230469 C 264.179688 97.726562 266.554688 96.804688 268.660156 95.320312 C 269.921875 94.433594 271.082031 93.339844 272.179688 92.019531 C 273.574219 89.757812 274.851562 87.433594 276.050781 85.0625 C 278.84375 79.535156 281.210938 73.765625 283.554688 67.988281 C 285.5625 63.035156 287.554688 58.078125 289.789062 53.261719 C 289.859375 53.222656 289.945312 53.191406 290.035156 53.171875 C 290.058594 53.164062 290.089844 53.160156 290.117188 53.15625 C 290.195312 53.144531 290.273438 53.136719 290.355469 53.136719 C 290.375 53.136719 290.382812 53.136719 290.40625 53.136719 C 290.414062 53.136719 290.425781 53.136719 290.433594 53.136719 C 290.539062 53.136719 290.648438 53.144531 290.761719 53.15625 C 290.773438 53.15625 290.789062 53.160156 290.804688 53.164062 C 290.902344 53.179688 290.996094 53.195312 291.089844 53.222656 C 291.125 53.230469 291.15625 53.234375 291.191406 53.246094 C 291.265625 53.265625 291.339844 53.285156 291.410156 53.3125 C 291.441406 53.320312 291.472656 53.332031 291.496094 53.339844 C 291.585938 53.375 291.671875 53.410156 291.746094 53.453125 C 291.953125 53.5625 292.296875 54.113281 292.753906 54.996094 C 293.09375 55.65625 293.496094 56.507812 293.941406 57.511719 C 297.671875 65.824219 304.605469 84.25 306.503906 87.800781 C 307.230469 89.152344 307.976562 90.34375 308.773438 91.40625 C 309.316406 92.128906 309.871094 92.792969 310.46875 93.390625 C 312.632812 95.570312 315.238281 96.96875 318.75 97.835938 C 319.214844 97.949219 319.691406 98.0625 320.191406 98.15625 C 320.722656 98.261719 321.265625 98.355469 321.8125 98.457031 C 322.910156 98.648438 324.03125 98.824219 325.179688 98.988281 C 330.335938 99.730469 335.921875 100.21875 341.238281 100.6875 C 341.828125 100.738281 342.414062 100.792969 343 100.84375 C 344.273438 100.953125 345.519531 101.066406 346.742188 101.175781 C 344.347656 97.097656 341.792969 93.121094 339.09375 89.253906 C 335.292969 89.070312 331.570312 88.800781 328.0625 88.28125 C 325.410156 87.976562 323.46875 87.738281 321.90625 87.21875 C 321.644531 87.132812 321.394531 87.039062 321.15625 86.933594 C 320.792969 86.777344 320.453125 86.597656 320.128906 86.390625 C 319.800781 86.1875 319.492188 85.957031 319.1875 85.691406 C 318.785156 85.339844 318.398438 84.929688 318.019531 84.445312 C 317.859375 84.242188 317.691406 84.019531 317.53125 83.789062 C 316.9375 82.933594 316.339844 81.890625 315.691406 80.609375 C 313.292969 75.828125 311.285156 70.664062 309.355469 65.421875 C 308.253906 62.425781 307.175781 59.410156 306.066406 56.429688 C 305.523438 54.960938 304.96875 53.5 304.402344 52.058594 C 298.933594 47.632812 293.195312 43.527344 287.222656 39.757812 C 284.105469 40.789062 281.296875 43.230469 279.792969 46.035156 C 276.230469 52.691406 273.570312 61.164062 270.609375 69.179688 C 270.335938 69.90625 270.066406 70.632812 269.789062 71.355469 C 268.6875 74.230469 267.53125 77.019531 266.261719 79.613281 C 264.640625 82.925781 263.550781 84.863281 261.929688 86.089844 C 261.828125 86.164062 261.722656 86.242188 261.617188 86.3125 C 261.085938 86.667969 260.5 86.957031 259.824219 87.203125 C 259.03125 87.488281 258.121094 87.710938 257.035156 87.90625 C 256.777344 87.949219 256.511719 87.996094 256.242188 88.035156 C 255.945312 88.078125 255.640625 88.125 255.320312 88.171875 C 255.023438 88.210938 254.71875 88.25 254.398438 88.289062 C 244.71875 89.484375 234.796875 89.554688 225.046875 90.21875 C 224.292969 90.269531 223.546875 90.324219 222.796875 90.386719 C 221.296875 90.503906 219.808594 90.640625 218.320312 90.796875 C 217.574219 90.875 216.863281 91.011719 216.183594 91.1875 C 215.710938 91.308594 215.261719 91.453125 214.820312 91.613281 C 214.457031 91.746094 214.097656 91.886719 213.757812 92.054688 C 213.386719 92.230469 213.03125 92.425781 212.683594 92.628906 C 212.277344 92.871094 211.882812 93.128906 211.515625 93.40625 C 211.292969 93.578125 211.070312 93.757812 210.859375 93.941406 C 210.648438 94.128906 210.445312 94.316406 210.25 94.519531 C 210.054688 94.714844 209.863281 94.917969 209.683594 95.128906 C 209.140625 95.757812 208.671875 96.433594 208.28125 97.148438 C 207.109375 99.292969 206.625 101.777344 206.972656 104.277344 C 207.109375 105.28125 207.386719 106.285156 207.792969 107.265625 C 207.894531 107.511719 208.007812 107.757812 208.128906 108.003906 C 208.253906 108.253906 208.386719 108.503906 208.53125 108.753906 C 209.082031 109.714844 209.769531 110.648438 210.617188 111.535156 C 215.511719 116.671875 222.492188 121.636719 228.929688 126.683594 C 231.855469 128.972656 234.671875 131.28125 237.125 133.625 C 239.234375 135.640625 240.722656 137 241.632812 138.570312 C 241.8125 138.886719 241.972656 139.207031 242.105469 139.550781 C 242.734375 141.132812 242.859375 143.054688 242.503906 146.027344 C 241.816406 151.800781 239.3125 159.871094 237.285156 167.644531 C 237.046875 168.554688 236.816406 169.46875 236.59375 170.371094 C 236.375 171.269531 236.164062 172.164062 235.964844 173.046875 C 234.882812 177.890625 234.21875 182.355469 234.609375 185.742188 C 234.652344 186.09375 234.710938 186.429688 234.777344 186.757812 C 234.792969 186.835938 234.804688 186.914062 234.828125 186.988281 C 234.902344 187.308594 234.980469 187.625 235.078125 187.933594 C 235.085938 187.960938 235.097656 187.992188 235.113281 188.023438 C 235.207031 188.300781 235.308594 188.566406 235.421875 188.832031 C 235.453125 188.898438 235.476562 188.964844 235.507812 189.027344 C 235.632812 189.304688 235.769531 189.574219 235.917969 189.835938 C 235.945312 189.882812 235.972656 189.921875 236 189.964844 C 236.132812 190.191406 236.273438 190.410156 236.425781 190.621094 C 236.460938 190.675781 236.5 190.726562 236.535156 190.78125 C 236.707031 191.019531 236.890625 191.242188 237.082031 191.460938 C 237.121094 191.503906 237.167969 191.550781 237.207031 191.59375 C 237.378906 191.78125 237.550781 191.960938 237.738281 192.128906 C 237.777344 192.171875 237.816406 192.210938 237.863281 192.25 C 238.074219 192.441406 238.292969 192.625 238.523438 192.800781 C 238.578125 192.84375 238.632812 192.882812 238.691406 192.921875 C 238.894531 193.074219 239.105469 193.21875 239.328125 193.359375 C 239.367188 193.382812 239.402344 193.410156 239.4375 193.429688 C 239.683594 193.578125 239.9375 193.71875 240.191406 193.855469 C 240.257812 193.890625 240.324219 193.917969 240.386719 193.949219 C 240.632812 194.070312 240.890625 194.183594 241.144531 194.289062 C 241.164062 194.300781 241.183594 194.308594 241.210938 194.316406 C 241.484375 194.425781 241.765625 194.519531 242.050781 194.609375 C 242.121094 194.632812 242.191406 194.65625 242.261719 194.675781 C 242.546875 194.761719 242.839844 194.839844 243.132812 194.90625 C 243.15625 194.90625 243.167969 194.910156 243.1875 194.917969 C 243.46875 194.976562 243.753906 195.03125 244.046875 195.078125 C 244.117188 195.085938 244.191406 195.097656 244.261719 195.113281 C 244.5625 195.152344 244.867188 195.1875 245.171875 195.210938 C 245.214844 195.210938 245.257812 195.210938 245.300781 195.21875 C 245.574219 195.238281 245.855469 195.246094 246.136719 195.246094 C 246.199219 195.246094 246.265625 195.246094 246.332031 195.246094 C 246.695312 195.246094 247.0625 195.226562 247.433594 195.203125 C 247.492188 195.203125 247.558594 195.191406 247.617188 195.1875 C 247.988281 195.152344 248.355469 195.105469 248.726562 195.046875 C 248.78125 195.035156 248.835938 195.027344 248.898438 195.015625 C 249.273438 194.953125 249.648438 194.871094 250.023438 194.777344 C 250.0625 194.765625 250.105469 194.757812 250.140625 194.746094 C 250.53125 194.640625 250.921875 194.527344 251.304688 194.390625 C 252.949219 193.808594 254.632812 193.066406 256.351562 192.214844 C 259.445312 190.675781 262.636719 188.769531 265.84375 186.757812 C 266.199219 186.535156 266.554688 186.3125 266.914062 186.085938 C 267.492188 185.726562 268.066406 185.359375 268.644531 184.996094 C 270.132812 184.054688 271.613281 183.101562 273.09375 182.179688 C 273.386719 181.996094 273.683594 181.808594 273.980469 181.625 C 277.664062 179.332031 281.28125 177.21875 284.71875 175.695312 C 285.269531 175.449219 285.789062 175.234375 286.28125 175.042969 C 286.332031 175.023438 286.386719 175 286.4375 174.984375 C 286.507812 174.960938 286.578125 174.933594 286.648438 174.910156 C 287.109375 174.738281 287.554688 174.59375 287.972656 174.472656 C 288.03125 174.457031 288.078125 174.449219 288.132812 174.433594 C 288.324219 174.382812 288.511719 174.332031 288.691406 174.292969 C 288.765625 174.277344 288.839844 174.269531 288.910156 174.253906 C 289.070312 174.222656 289.230469 174.1875 289.386719 174.167969 C 289.441406 174.15625 289.492188 174.15625 289.542969 174.148438 C 289.71875 174.121094 289.894531 174.101562 290.070312 174.085938 C 290.160156 174.082031 290.25 174.082031 290.339844 174.078125 C 290.476562 174.074219 290.609375 174.0625 290.746094 174.0625 C 290.878906 174.0625 291.015625 174.074219 291.144531 174.078125 C 291.234375 174.078125 291.328125 174.078125 291.417969 174.085938 C 291.582031 174.097656 291.746094 174.121094 291.917969 174.140625 C 291.976562 174.152344 292.039062 174.152344 292.097656 174.164062 C 292.308594 174.191406 292.523438 174.234375 292.738281 174.277344 C 292.757812 174.277344 292.773438 174.28125 292.792969 174.289062 C 292.976562 174.328125 293.160156 174.378906 293.351562 174.421875 C 293.40625 174.4375 293.460938 174.449219 293.515625 174.464844 C 293.941406 174.578125 294.382812 174.730469 294.847656 174.898438 C 294.917969 174.925781 294.984375 174.945312 295.058594 174.972656 C 295.164062 175.015625 295.28125 175.058594 295.386719 175.105469 C 295.550781 175.167969 295.714844 175.234375 295.890625 175.304688 C 296.175781 175.425781 296.472656 175.550781 296.777344 175.6875 C 301.742188 177.890625 306.855469 181.105469 311.949219 184.359375 C 315.347656 186.523438 318.734375 188.707031 322.070312 190.609375 C 324.40625 191.941406 326.714844 193.132812 328.980469 194.089844 C 329.25 194.207031 329.527344 194.308594 329.796875 194.410156 C 329.882812 194.441406 329.96875 194.46875 330.054688 194.5 C 330.238281 194.566406 330.425781 194.632812 330.609375 194.691406 C 330.714844 194.722656 330.816406 194.75 330.921875 194.78125 C 331.085938 194.832031 331.25 194.882812 331.417969 194.921875 C 331.527344 194.953125 331.636719 194.972656 331.746094 195 C 331.902344 195.035156 332.0625 195.078125 332.21875 195.105469 C 332.332031 195.132812 332.449219 195.148438 332.558594 195.171875 C 332.710938 195.195312 332.859375 195.226562 333.011719 195.253906 C 333.125 195.273438 333.242188 195.28125 333.359375 195.296875 C 333.507812 195.316406 333.652344 195.332031 333.796875 195.347656 C 333.917969 195.359375 334.03125 195.367188 334.148438 195.378906 C 334.289062 195.386719 334.433594 195.398438 334.574219 195.402344 C 334.6875 195.40625 334.808594 195.40625 334.925781 195.414062 C 335.042969 195.414062 335.164062 195.414062 335.289062 195.414062 C 335.636719 195.414062 335.976562 195.398438 336.316406 195.367188 C 336.371094 195.367188 336.421875 195.359375 336.472656 195.351562 C 336.773438 195.324219 337.070312 195.28125 337.359375 195.230469 C 337.433594 195.222656 337.507812 195.207031 337.585938 195.191406 C 337.910156 195.132812 338.230469 195.058594 338.546875 194.972656 C 338.601562 194.957031 338.65625 194.9375 338.71875 194.921875 C 338.992188 194.839844 339.261719 194.75 339.535156 194.65625 C 339.597656 194.632812 339.664062 194.609375 339.730469 194.585938 C 340.03125 194.46875 340.324219 194.339844 340.617188 194.199219 C 340.671875 194.175781 340.726562 194.144531 340.78125 194.113281 C 341.03125 193.988281 341.277344 193.847656 341.523438 193.703125 C 341.578125 193.675781 341.628906 193.640625 341.683594 193.609375 C 341.953125 193.4375 342.21875 193.257812 342.476562 193.0625 C 342.53125 193.023438 342.582031 192.976562 342.636719 192.9375 C 342.859375 192.761719 343.078125 192.578125 343.292969 192.386719 C 343.332031 192.351562 343.375 192.3125 343.417969 192.277344 C 343.652344 192.054688 343.882812 191.820312 344.097656 191.574219 C 344.148438 191.519531 344.195312 191.464844 344.242188 191.410156 C 344.433594 191.1875 344.625 190.957031 344.800781 190.71875 C 344.828125 190.675781 344.859375 190.640625 344.890625 190.601562 C 345.085938 190.332031 345.269531 190.046875 345.445312 189.753906 C 345.488281 189.683594 345.527344 189.621094 345.566406 189.550781 C 345.722656 189.28125 345.871094 189 346.011719 188.707031 C 346.027344 188.671875 346.046875 188.636719 346.066406 188.601562 C 346.21875 188.289062 346.351562 187.957031 346.484375 187.617188 C 346.511719 187.535156 346.542969 187.449219 346.574219 187.371094 C 346.6875 187.042969 346.800781 186.714844 346.894531 186.375 C 346.898438 186.347656 346.910156 186.324219 346.914062 186.296875 C 347.015625 185.9375 347.09375 185.5625 347.171875 185.179688 C 347.191406 185.085938 347.203125 184.992188 347.21875 184.894531 C 347.289062 184.503906 347.351562 184.113281 347.390625 183.703125 C 345.828125 171.445312 340.421875 158.074219 338.988281 146.023438 Z M 338.941406 146.023438 " fill-opacity="1" fill-rule="nonzero"/><path fill="#100249" d="M 365.003906 90.902344 C 359.695312 90.003906 353.808594 89.753906 347.855469 89.5625 C 350.40625 93.453125 352.8125 97.429688 355.066406 101.507812 C 356.363281 101.546875 357.585938 101.632812 358.59375 101.820312 C 362.621094 102.570312 359.828125 105.328125 357.996094 106.996094 C 359.835938 110.597656 361.550781 114.269531 363.164062 118 C 366.742188 115.007812 370.1875 111.902344 373.304688 108.488281 C 373.902344 107.421875 374.300781 106.292969 374.523438 105.140625 C 374.652344 104.449219 374.722656 103.75 374.722656 103.050781 C 374.722656 103.050781 374.722656 103.042969 374.722656 103.035156 C 374.722656 102.339844 374.671875 101.648438 374.558594 100.960938 C 374.488281 100.546875 374.398438 100.140625 374.289062 99.734375 C 374.261719 99.632812 374.230469 99.539062 374.203125 99.4375 C 374.085938 99.042969 373.957031 98.65625 373.800781 98.277344 C 373.625 97.84375 373.429688 97.417969 373.210938 97.007812 C 372.988281 96.597656 372.75 96.195312 372.488281 95.816406 C 370.78125 93.320312 368.179688 91.441406 364.996094 90.90625 Z M 365.003906 90.902344 " fill-opacity="1" fill-rule="nonzero"/><path fill="#100249" d="M 120.238281 97.058594 C 57.90625 101.738281 14.578125 167.078125 40.078125 225.933594 C 72.453125 300.65625 180.917969 301.289062 213.722656 226.738281 C 241.945312 162.59375 189.019531 91.898438 120.238281 97.058594 Z M 173.671875 252.949219 C 116.210938 293.875 37.265625 245.925781 48.761719 175.890625 C 54.390625 141.613281 85.117188 113.988281 119.628906 111.167969 C 200.03125 104.59375 239.230469 206.25 173.671875 252.945312 Z M 173.671875 252.949219 " fill-opacity="1" fill-rule="nonzero"/><path fill="#100249" d="M 294.226562 213.035156 C 294.226562 213.085938 294.238281 213.128906 294.242188 213.179688 C 294.242188 213.128906 294.234375 213.085938 294.226562 213.035156 Z M 294.226562 213.035156 " fill-opacity="1" fill-rule="nonzero"/><path fill="#100249" d="M 293.765625 210.921875 C 293.78125 210.960938 293.792969 211 293.808594 211.039062 C 293.792969 211 293.78125 210.960938 293.765625 210.921875 Z M 293.765625 210.921875 " fill-opacity="1" fill-rule="nonzero"/><path fill="#100249" d="M 294.152344 215.285156 C 294.152344 215.316406 294.140625 215.339844 294.136719 215.371094 C 294.136719 215.339844 294.148438 215.316406 294.152344 215.285156 Z M 294.152344 215.285156 " fill-opacity="1" fill-rule="nonzero"/><path fill="#100249" d="M 293.144531 209.5625 C 293.164062 209.597656 293.191406 209.636719 293.210938 209.671875 C 293.191406 209.632812 293.171875 209.597656 293.144531 209.5625 Z M 293.144531 209.5625 " fill-opacity="1" fill-rule="nonzero"/><path fill="#100249" d="M 293.484375 210.21875 C 293.507812 210.257812 293.527344 210.304688 293.542969 210.34375 C 293.519531 210.304688 293.507812 210.257812 293.484375 210.21875 Z M 293.484375 210.21875 " fill-opacity="1" fill-rule="nonzero"/><path fill="#100249" d="M 294.128906 212.3125 C 294.132812 212.347656 294.140625 212.386719 294.148438 212.421875 C 294.140625 212.386719 294.132812 212.347656 294.128906 212.3125 Z M 294.128906 212.3125 " fill-opacity="1" fill-rule="nonzero"/><path fill="#100249" d="M 294.238281 214.546875 C 294.238281 214.59375 294.226562 214.632812 294.226562 214.679688 C 294.226562 214.632812 294.238281 214.59375 294.238281 214.546875 Z M 294.238281 214.546875 " fill-opacity="1" fill-rule="nonzero"/><path fill="#100249" d="M 289.195312 206.339844 C 289.195312 206.339844 289.207031 206.339844 289.21875 206.347656 C 289.210938 206.347656 289.207031 206.347656 289.195312 206.339844 Z M 289.195312 206.339844 " fill-opacity="1" fill-rule="nonzero"/><path fill="#100249" d="M 289.898438 206.613281 C 289.898438 206.613281 289.949219 206.632812 289.972656 206.640625 C 289.949219 206.632812 289.921875 206.621094 289.898438 206.613281 Z M 289.898438 206.613281 " fill-opacity="1" fill-rule="nonzero"/><path fill="#100249" d="M 288.359375 206.121094 C 288.394531 206.125 288.425781 206.136719 288.460938 206.140625 C 288.425781 206.136719 288.394531 206.125 288.359375 206.121094 Z M 288.359375 206.121094 " fill-opacity="1" fill-rule="nonzero"/><path fill="#100249" d="M 287.46875 205.988281 C 287.511719 205.988281 287.558594 206 287.605469 206.003906 C 287.558594 206.003906 287.511719 205.996094 287.46875 205.988281 Z M 287.46875 205.988281 " fill-opacity="1" fill-rule="nonzero"/><path fill="#100249" d="M 327.03125 322.761719 C 351.738281 320.644531 356.484375 300.496094 356.238281 280.347656 C 347.882812 295.921875 337.363281 310.191406 324.847656 322.933594 C 325.578125 322.878906 326.3125 322.824219 327.03125 322.761719 Z M 327.03125 322.761719 " fill-opacity="1" fill-rule="nonzero"/><path fill="#100249" d="M 292.339844 208.421875 C 292.339844 208.421875 292.355469 208.441406 292.363281 208.449219 C 292.355469 208.441406 292.347656 208.429688 292.339844 208.421875 Z M 292.339844 208.421875 " fill-opacity="1" fill-rule="nonzero"/><path fill="#100249" d="M 291.808594 207.867188 C 291.808594 207.867188 291.859375 207.914062 291.878906 207.9375 C 291.851562 207.914062 291.828125 207.894531 291.808594 207.867188 Z M 291.808594 207.867188 " fill-opacity="1" fill-rule="nonzero"/><path fill="#100249" d="M 292.753906 208.957031 C 292.753906 208.957031 292.789062 209.007812 292.808594 209.03125 C 292.789062 209.007812 292.773438 208.980469 292.753906 208.957031 Z M 292.753906 208.957031 " fill-opacity="1" fill-rule="nonzero"/><path fill="#100249" d="M 291.222656 207.382812 C 291.25 207.40625 291.285156 207.433594 291.316406 207.457031 C 291.285156 207.433594 291.25 207.40625 291.222656 207.382812 Z M 291.222656 207.382812 " fill-opacity="1" fill-rule="nonzero"/><path fill="#100249" d="M 290.578125 206.957031 C 290.613281 206.976562 290.648438 206.996094 290.679688 207.015625 C 290.644531 206.996094 290.613281 206.976562 290.578125 206.957031 Z M 290.578125 206.957031 " fill-opacity="1" fill-rule="nonzero"/><path fill="#100249" d="M 293.992188 211.648438 C 293.992188 211.648438 294.003906 211.695312 294.007812 211.722656 C 294.003906 211.695312 293.996094 211.671875 293.992188 211.648438 Z M 293.992188 211.648438 " fill-opacity="1" fill-rule="nonzero"/><path fill="#100249" d="M 294.015625 215.953125 C 294.007812 215.992188 293.996094 216.03125 293.988281 216.070312 C 293.996094 216.03125 294.007812 215.992188 294.015625 215.953125 Z M 294.015625 215.953125 " fill-opacity="1" fill-rule="nonzero"/><path fill="#100249" d="M 290.054688 220.960938 C 290.027344 220.972656 290.003906 220.988281 289.980469 220.996094 C 290.003906 220.988281 290.027344 220.972656 290.054688 220.960938 Z M 290.054688 220.960938 " fill-opacity="1" fill-rule="nonzero"/><path fill="#100249" d="M 291.347656 220.191406 C 291.316406 220.214844 291.28125 220.242188 291.246094 220.265625 C 291.28125 220.242188 291.3125 220.214844 291.347656 220.191406 Z M 291.347656 220.191406 " fill-opacity="1" fill-rule="nonzero"/><path fill="#100249" d="M 290.699219 220.625 C 290.699219 220.625 290.660156 220.644531 290.644531 220.65625 C 290.664062 220.644531 290.683594 220.636719 290.699219 220.625 Z M 290.699219 220.625 " fill-opacity="1" fill-rule="nonzero"/><path fill="#100249" d="M 324.996094 312.4375 C 324.019531 312.589844 323.039062 312.703125 322.050781 312.773438 C 320.617188 312.871094 319.179688 312.945312 317.738281 313.015625 C 317.25 313.035156 316.765625 313.050781 316.28125 313.070312 C 315.316406 313.113281 314.351562 313.148438 313.382812 313.175781 C 312.800781 313.191406 312.214844 313.203125 311.628906 313.210938 C 310.753906 313.234375 309.875 313.246094 309 313.257812 C 308.371094 313.261719 307.746094 313.269531 307.121094 313.269531 C 306.539062 313.269531 305.957031 313.277344 305.371094 313.277344 C 305.144531 313.277344 304.914062 313.277344 304.691406 313.277344 C 303.546875 313.277344 302.398438 313.269531 301.253906 313.253906 C 300.738281 313.246094 300.226562 313.246094 299.710938 313.238281 C 298.054688 313.210938 296.402344 313.1875 294.742188 313.148438 C 294.632812 313.148438 294.523438 313.140625 294.40625 313.136719 C 292.820312 313.101562 291.226562 313.0625 289.632812 313.015625 C 288.910156 312.996094 288.183594 312.976562 287.464844 312.957031 C 286.199219 312.921875 284.9375 312.886719 283.675781 312.847656 C 282.4375 312.8125 281.199219 312.777344 279.96875 312.742188 C 279.265625 312.722656 278.5625 312.703125 277.863281 312.679688 C 276.804688 312.652344 275.75 312.625 274.691406 312.601562 C 274.015625 312.585938 273.34375 312.570312 272.671875 312.554688 C 271.585938 312.53125 270.496094 312.515625 269.410156 312.496094 C 268.804688 312.484375 268.199219 312.476562 267.589844 312.464844 C 266.214844 312.449219 264.835938 312.441406 263.460938 312.4375 C 263.15625 312.4375 262.851562 312.429688 262.550781 312.429688 C 262.394531 312.429688 262.238281 312.429688 262.078125 312.429688 C 260.863281 312.429688 259.652344 312.441406 258.441406 312.457031 C 258.015625 312.460938 257.59375 312.472656 257.167969 312.476562 C 256.171875 312.492188 255.175781 312.515625 254.183594 312.546875 C 253.765625 312.554688 253.355469 312.570312 252.941406 312.582031 C 251.570312 312.625 250.214844 312.679688 248.855469 312.757812 C 235.859375 311.363281 229.976562 304.585938 227.570312 295.554688 C 227.304688 294.554688 227.078125 293.519531 226.894531 292.46875 C 226.800781 291.941406 226.71875 291.40625 226.644531 290.871094 C 226.417969 289.257812 226.273438 287.59375 226.191406 285.894531 C 226.167969 285.328125 226.144531 284.761719 226.132812 284.1875 C 226.117188 283.613281 226.113281 283.039062 226.109375 282.460938 C 226.109375 281.59375 226.113281 280.722656 226.136719 279.847656 C 226.144531 279.554688 226.152344 279.261719 226.164062 278.96875 C 226.238281 276.625 226.382812 274.253906 226.558594 271.890625 C 226.644531 270.777344 226.792969 269.683594 227.003906 268.613281 C 227.214844 267.539062 227.496094 266.488281 227.832031 265.464844 C 228.058594 264.785156 228.308594 264.113281 228.582031 263.457031 C 229.554688 261.164062 230.839844 259.039062 232.402344 257.160156 C 232.847656 256.621094 233.3125 256.101562 233.804688 255.605469 C 234.296875 255.109375 234.804688 254.632812 235.335938 254.183594 C 238.789062 251.246094 243.109375 249.285156 248.019531 248.761719 C 248.757812 248.679688 249.492188 248.609375 250.238281 248.546875 C 250.40625 248.53125 250.570312 248.519531 250.734375 248.503906 C 251.3125 248.457031 251.894531 248.40625 252.472656 248.363281 C 252.710938 248.351562 252.949219 248.335938 253.183594 248.320312 C 253.703125 248.285156 254.210938 248.25 254.730469 248.21875 C 254.980469 248.203125 255.230469 248.195312 255.480469 248.179688 C 255.988281 248.15625 256.492188 248.125 257.003906 248.105469 C 257.273438 248.09375 257.550781 248.085938 257.824219 248.074219 C 258.316406 248.054688 258.800781 248.035156 259.292969 248.019531 C 259.597656 248.007812 259.90625 248.003906 260.210938 247.996094 C 260.671875 247.984375 261.132812 247.96875 261.59375 247.960938 C 261.929688 247.953125 262.265625 247.949219 262.605469 247.945312 C 263.042969 247.9375 263.476562 247.929688 263.914062 247.925781 C 264.269531 247.925781 264.625 247.925781 264.976562 247.925781 C 265.367188 247.925781 265.757812 247.917969 266.152344 247.917969 C 266.171875 247.917969 266.1875 247.917969 266.207031 247.917969 C 267.921875 247.917969 269.648438 247.9375 271.378906 247.964844 C 271.496094 247.964844 271.609375 247.964844 271.730469 247.96875 C 273.367188 248 275.015625 248.039062 276.671875 248.089844 C 276.839844 248.089844 277.011719 248.097656 277.179688 248.105469 C 278.820312 248.15625 280.464844 248.210938 282.105469 248.269531 C 282.242188 248.269531 282.378906 248.28125 282.511719 248.285156 C 284.285156 248.351562 286.058594 248.421875 287.832031 248.488281 C 289.527344 248.554688 291.214844 248.621094 292.90625 248.6875 C 293.050781 248.691406 293.195312 248.695312 293.339844 248.699219 C 294.972656 248.761719 296.609375 248.816406 298.230469 248.867188 C 298.410156 248.871094 298.597656 248.875 298.777344 248.882812 C 300.402344 248.925781 302.023438 248.964844 303.636719 248.996094 C 303.78125 248.996094 303.929688 249 304.070312 249.007812 C 305.800781 249.035156 307.53125 249.050781 309.246094 249.050781 C 309.269531 249.050781 309.289062 249.050781 309.316406 249.050781 C 310.328125 249.050781 311.332031 249.042969 312.339844 249.03125 C 312.601562 249.03125 312.863281 249.027344 313.117188 249.019531 C 314.15625 249.007812 315.1875 248.980469 316.214844 248.953125 C 316.222656 248.953125 316.234375 248.953125 316.246094 248.953125 C 317.25 248.921875 318.253906 248.875 319.25 248.824219 C 319.507812 248.816406 319.761719 248.800781 320.011719 248.785156 C 321.023438 248.730469 322.035156 248.671875 323.035156 248.59375 C 333.785156 249.445312 343.976562 258 345.261719 268.957031 C 345.300781 269.289062 345.335938 269.664062 345.371094 270.082031 C 345.40625 270.53125 345.441406 271.03125 345.472656 271.570312 C 345.484375 271.828125 345.5 272.09375 345.511719 272.371094 C 345.5625 273.472656 345.605469 274.710938 345.632812 276.035156 C 345.648438 276.695312 345.652344 277.375 345.660156 278.074219 C 345.675781 280.203125 345.660156 282.460938 345.601562 284.683594 C 349.09375 278.894531 352.269531 272.902344 355.105469 266.71875 C 354.890625 265.816406 354.644531 264.921875 354.351562 264.027344 C 354.03125 263.0625 353.664062 262.097656 353.257812 261.152344 C 352.988281 260.519531 352.6875 259.894531 352.375 259.273438 C 350.597656 255.726562 348.21875 252.402344 345.394531 249.546875 C 341.855469 245.960938 337.625 243.09375 333.035156 241.375 C 332.699219 241.25 332.359375 241.128906 332.023438 241.015625 C 329.28125 240.101562 326.429688 239.589844 323.523438 239.589844 L 295.214844 239.589844 L 295.214844 230.320312 C 295.214844 230.320312 295.21875 230.320312 295.226562 230.316406 C 295.523438 230.144531 295.816406 229.972656 296.097656 229.796875 C 296.191406 229.734375 296.28125 229.675781 296.371094 229.613281 C 296.5625 229.496094 296.746094 229.371094 296.933594 229.246094 C 297.039062 229.167969 297.144531 229.097656 297.25 229.023438 C 297.414062 228.910156 297.574219 228.792969 297.734375 228.671875 C 297.839844 228.59375 297.945312 228.511719 298.046875 228.433594 C 298.195312 228.316406 298.347656 228.195312 298.492188 228.078125 C 298.589844 227.996094 298.691406 227.910156 298.789062 227.832031 C 298.933594 227.710938 299.074219 227.585938 299.207031 227.460938 C 299.296875 227.378906 299.386719 227.296875 299.480469 227.214844 C 299.617188 227.085938 299.757812 226.949219 299.894531 226.8125 C 299.976562 226.738281 300.050781 226.660156 300.128906 226.582031 C 300.285156 226.421875 300.4375 226.261719 300.585938 226.101562 C 300.636719 226.046875 300.691406 225.992188 300.742188 225.9375 C 300.9375 225.71875 301.128906 225.496094 301.308594 225.269531 C 301.335938 225.230469 301.367188 225.195312 301.398438 225.15625 C 301.546875 224.96875 301.691406 224.785156 301.832031 224.59375 C 301.890625 224.519531 301.9375 224.445312 301.992188 224.367188 C 302.105469 224.214844 302.214844 224.058594 302.320312 223.902344 C 302.375 223.816406 302.429688 223.734375 302.484375 223.648438 C 302.582031 223.496094 302.675781 223.351562 302.765625 223.203125 C 302.820312 223.113281 302.871094 223.019531 302.921875 222.929688 C 303.007812 222.78125 303.089844 222.628906 303.171875 222.480469 C 303.222656 222.390625 303.265625 222.304688 303.3125 222.214844 C 303.390625 222.058594 303.472656 221.898438 303.546875 221.738281 C 303.585938 221.652344 303.628906 221.574219 303.667969 221.488281 C 303.746094 221.3125 303.824219 221.132812 303.898438 220.953125 C 303.921875 220.886719 303.953125 220.820312 303.984375 220.757812 C 304.183594 220.261719 304.359375 219.753906 304.503906 219.25 C 304.515625 219.207031 304.523438 219.171875 304.535156 219.132812 C 304.59375 218.921875 304.65625 218.707031 304.703125 218.496094 C 304.71875 218.425781 304.734375 218.359375 304.75 218.292969 C 304.789062 218.105469 304.835938 217.921875 304.871094 217.734375 C 304.886719 217.660156 304.898438 217.578125 304.910156 217.503906 C 304.941406 217.324219 304.96875 217.144531 305 216.96875 C 305.011719 216.886719 305.019531 216.8125 305.03125 216.734375 C 305.054688 216.550781 305.074219 216.367188 305.09375 216.1875 C 305.101562 216.117188 305.109375 216.042969 305.117188 215.972656 C 305.128906 215.777344 305.144531 215.582031 305.15625 215.386719 C 305.15625 215.324219 305.160156 215.269531 305.164062 215.210938 C 305.175781 214.972656 305.179688 214.734375 305.179688 214.5 C 305.179688 214.484375 305.179688 214.46875 305.179688 214.453125 C 305.179688 213.925781 305.152344 213.40625 305.105469 212.878906 C 305.105469 212.859375 305.105469 212.839844 305.101562 212.820312 C 305.074219 212.585938 305.050781 212.355469 305.015625 212.121094 C 305.011719 212.078125 305 212.027344 304.996094 211.984375 C 304.964844 211.777344 304.929688 211.570312 304.894531 211.367188 C 304.886719 211.3125 304.875 211.257812 304.863281 211.199219 C 304.824219 211 304.785156 210.804688 304.738281 210.605469 C 304.730469 210.550781 304.714844 210.5 304.703125 210.445312 C 304.65625 210.238281 304.605469 210.039062 304.550781 209.832031 C 304.539062 209.789062 304.523438 209.746094 304.515625 209.703125 C 304.449219 209.476562 304.382812 209.25 304.308594 209.027344 C 304.304688 209.011719 304.300781 208.992188 304.292969 208.976562 C 304.046875 208.230469 303.753906 207.5 303.410156 206.785156 C 303.410156 206.777344 303.402344 206.773438 303.402344 206.761719 C 303.296875 206.542969 303.1875 206.320312 303.070312 206.105469 C 303.054688 206.074219 303.035156 206.046875 303.019531 206.015625 C 302.914062 205.820312 302.804688 205.625 302.695312 205.433594 C 302.675781 205.398438 302.648438 205.359375 302.628906 205.324219 C 302.519531 205.136719 302.40625 204.949219 302.285156 204.765625 C 302.265625 204.730469 302.238281 204.699219 302.21875 204.664062 C 302.09375 204.472656 301.964844 204.28125 301.832031 204.089844 C 301.820312 204.070312 301.804688 204.046875 301.789062 204.019531 C 301.175781 203.167969 300.496094 202.363281 299.738281 201.621094 C 299.71875 201.601562 299.703125 201.585938 299.683594 201.566406 C 299.519531 201.40625 299.347656 201.246094 299.179688 201.089844 C 299.144531 201.058594 299.109375 201.03125 299.078125 201 C 298.917969 200.855469 298.753906 200.714844 298.585938 200.578125 C 298.546875 200.542969 298.507812 200.511719 298.464844 200.476562 C 298.300781 200.34375 298.128906 200.210938 297.960938 200.082031 C 297.921875 200.050781 297.878906 200.023438 297.84375 199.992188 C 297.664062 199.855469 297.472656 199.722656 297.289062 199.597656 C 297.257812 199.578125 297.234375 199.554688 297.207031 199.542969 C 296.546875 199.089844 295.847656 198.683594 295.121094 198.324219 C 295.089844 198.308594 295.058594 198.292969 295.027344 198.285156 C 294.824219 198.183594 294.613281 198.082031 294.398438 197.992188 C 294.335938 197.96875 294.28125 197.941406 294.222656 197.917969 C 294.039062 197.835938 293.847656 197.761719 293.65625 197.6875 C 293.585938 197.65625 293.511719 197.632812 293.441406 197.605469 C 293.261719 197.542969 293.082031 197.476562 292.894531 197.410156 C 292.820312 197.386719 292.738281 197.363281 292.660156 197.335938 C 292.472656 197.277344 292.289062 197.222656 292.097656 197.167969 C 292.023438 197.144531 291.941406 197.121094 291.867188 197.101562 C 291.667969 197.046875 291.464844 196.996094 291.261719 196.949219 C 291.195312 196.9375 291.132812 196.921875 291.066406 196.90625 C 290.804688 196.851562 290.542969 196.796875 290.285156 196.75 C 290.273438 196.75 290.257812 196.75 290.25 196.746094 C 289.96875 196.695312 289.683594 196.65625 289.398438 196.621094 C 289.34375 196.613281 289.292969 196.609375 289.238281 196.605469 C 289.011719 196.582031 288.785156 196.554688 288.554688 196.535156 C 288.460938 196.523438 288.359375 196.523438 288.261719 196.515625 C 288.070312 196.503906 287.882812 196.488281 287.695312 196.484375 C 287.578125 196.484375 287.464844 196.480469 287.347656 196.480469 C 287.171875 196.480469 287.003906 196.480469 286.828125 196.480469 C 286.691406 196.480469 286.554688 196.480469 286.421875 196.488281 C 286.253906 196.496094 286.089844 196.5 285.917969 196.511719 C 285.78125 196.519531 285.640625 196.523438 285.492188 196.539062 C 285.328125 196.554688 285.164062 196.570312 284.992188 196.585938 C 284.847656 196.601562 284.703125 196.613281 284.558594 196.628906 C 284.386719 196.648438 284.222656 196.675781 284.050781 196.699219 C 283.90625 196.71875 283.761719 196.742188 283.609375 196.765625 C 283.433594 196.796875 283.257812 196.832031 283.082031 196.859375 C 282.9375 196.890625 282.796875 196.914062 282.652344 196.945312 C 282.46875 196.984375 282.277344 197.03125 282.089844 197.074219 C 281.957031 197.105469 281.820312 197.136719 281.6875 197.171875 C 281.46875 197.226562 281.253906 197.285156 281.039062 197.351562 C 280.929688 197.382812 280.820312 197.410156 280.703125 197.445312 C 280.375 197.546875 280.042969 197.652344 279.707031 197.773438 C 266.503906 202.378906 264.703125 218.429688 273.683594 227.113281 C 274.003906 227.425781 274.339844 227.726562 274.6875 228.015625 C 275.726562 228.886719 276.902344 229.664062 278.1875 230.332031 L 278.1875 239.601562 C 278.1875 239.601562 248.375 239.601562 248.375 239.601562 C 244.085938 239.601562 239.816406 240.820312 235.875 242.898438 C 234.996094 243.359375 234.140625 243.867188 233.296875 244.410156 C 232.878906 244.683594 232.460938 244.960938 232.050781 245.257812 C 231.230469 245.839844 230.433594 246.460938 229.65625 247.113281 C 229.269531 247.4375 228.890625 247.773438 228.511719 248.113281 C 227.425781 249.105469 226.394531 250.164062 225.425781 251.277344 C 225.0625 251.695312 224.699219 252.121094 224.347656 252.558594 C 224.035156 252.953125 223.722656 253.355469 223.421875 253.765625 C 222.519531 254.988281 221.699219 256.257812 220.96875 257.5625 C 220.230469 258.867188 219.585938 260.210938 219.039062 261.574219 C 218.671875 262.480469 218.351562 263.398438 218.082031 264.324219 C 217.535156 266.171875 217.179688 268.042969 217.039062 269.90625 C 215.769531 286.769531 215.636719 303.859375 225.457031 313.984375 C 225.457031 313.984375 225.457031 313.984375 225.460938 313.988281 C 225.886719 314.429688 226.332031 314.855469 226.800781 315.265625 C 227.113281 315.546875 227.441406 315.824219 227.777344 316.089844 C 228.164062 316.398438 228.5625 316.699219 228.980469 316.992188 C 230.152344 317.820312 231.425781 318.582031 232.8125 319.261719 C 233.457031 319.574219 234.136719 319.875 234.832031 320.15625 C 235.183594 320.296875 235.53125 320.433594 235.898438 320.566406 C 238.789062 321.621094 242.09375 322.382812 245.855469 322.804688 C 245.855469 322.804688 245.859375 322.804688 245.863281 322.804688 C 246.972656 322.734375 248.085938 322.671875 249.195312 322.621094 C 249.472656 322.609375 249.75 322.597656 250.023438 322.585938 C 251.132812 322.539062 252.238281 322.496094 253.355469 322.46875 C 253.414062 322.46875 253.472656 322.46875 253.53125 322.46875 C 254.609375 322.4375 255.691406 322.417969 256.777344 322.402344 C 257.054688 322.402344 257.335938 322.390625 257.609375 322.390625 C 258.726562 322.375 259.847656 322.371094 260.976562 322.371094 C 260.996094 322.371094 261.015625 322.371094 261.039062 322.371094 C 261.078125 322.371094 261.117188 322.371094 261.152344 322.371094 C 262.996094 322.371094 264.84375 322.386719 266.703125 322.417969 C 266.878906 322.417969 267.058594 322.421875 267.234375 322.425781 C 269.015625 322.457031 270.792969 322.496094 272.578125 322.542969 C 272.742188 322.542969 272.90625 322.550781 273.066406 322.558594 C 274.953125 322.609375 276.839844 322.667969 278.730469 322.726562 C 278.746094 322.726562 278.765625 322.726562 278.78125 322.726562 C 280.777344 322.792969 282.785156 322.863281 284.78125 322.933594 C 286.597656 323 288.40625 323.058594 290.21875 323.117188 C 290.429688 323.125 290.640625 323.132812 290.84375 323.136719 C 292.695312 323.199219 294.542969 323.257812 296.382812 323.304688 C 296.472656 323.304688 296.566406 323.308594 296.65625 323.3125 C 298.558594 323.363281 300.449219 323.402344 302.339844 323.433594 C 302.464844 323.433594 302.585938 323.433594 302.707031 323.4375 C 304.5 323.464844 306.28125 323.480469 308.0625 323.484375 C 308.382812 323.484375 308.703125 323.484375 309.019531 323.484375 C 309.394531 323.484375 309.765625 323.484375 310.140625 323.484375 C 310.585938 323.484375 311.039062 323.480469 311.484375 323.472656 C 311.855469 323.472656 312.226562 323.464844 312.597656 323.460938 C 313.042969 323.453125 313.492188 323.445312 313.9375 323.433594 C 314.03125 323.433594 314.121094 323.433594 314.214844 323.429688 C 317.960938 319.925781 321.566406 316.265625 325.003906 312.457031 Z M 284.566406 206.144531 C 285.308594 206.011719 286.003906 205.949219 286.660156 205.953125 C 286.640625 205.953125 286.621094 205.953125 286.601562 205.953125 C 286.621094 205.953125 286.640625 205.953125 286.660156 205.953125 C 286.9375 205.953125 287.203125 205.96875 287.464844 205.996094 C 287.507812 205.996094 287.554688 206.003906 287.597656 206.011719 C 287.859375 206.039062 288.109375 206.074219 288.355469 206.125 C 288.390625 206.128906 288.421875 206.140625 288.457031 206.144531 C 288.710938 206.199219 288.957031 206.265625 289.191406 206.339844 C 289.195312 206.339844 289.203125 206.339844 289.210938 206.347656 C 289.449219 206.421875 289.671875 206.511719 289.894531 206.613281 C 289.917969 206.621094 289.945312 206.632812 289.96875 206.640625 C 290.179688 206.738281 290.378906 206.84375 290.574219 206.957031 C 290.609375 206.976562 290.644531 206.996094 290.675781 207.015625 C 290.859375 207.132812 291.039062 207.253906 291.214844 207.382812 C 291.246094 207.40625 291.28125 207.433594 291.3125 207.457031 C 291.480469 207.589844 291.648438 207.730469 291.800781 207.875 C 291.828125 207.898438 291.851562 207.917969 291.871094 207.945312 C 292.03125 208.097656 292.1875 208.253906 292.328125 208.421875 C 292.339844 208.429688 292.34375 208.441406 292.355469 208.449219 C 292.492188 208.609375 292.625 208.78125 292.746094 208.957031 C 292.765625 208.980469 292.78125 209.007812 292.800781 209.03125 C 292.917969 209.203125 293.03125 209.382812 293.136719 209.5625 C 293.15625 209.597656 293.179688 209.636719 293.199219 209.671875 C 293.300781 209.851562 293.390625 210.035156 293.476562 210.21875 C 293.496094 210.257812 293.515625 210.304688 293.53125 210.34375 C 293.609375 210.53125 293.691406 210.71875 293.757812 210.914062 C 293.773438 210.957031 293.78125 210.996094 293.796875 211.035156 C 293.863281 211.234375 293.925781 211.441406 293.976562 211.648438 C 293.980469 211.671875 293.988281 211.695312 293.992188 211.722656 C 294.042969 211.917969 294.082031 212.113281 294.117188 212.3125 C 294.121094 212.347656 294.132812 212.386719 294.136719 212.421875 C 294.171875 212.628906 294.191406 212.835938 294.210938 213.039062 C 294.210938 213.089844 294.222656 213.136719 294.226562 213.183594 C 294.242188 213.386719 294.253906 213.589844 294.253906 213.792969 C 294.253906 213.816406 294.253906 213.839844 294.253906 213.863281 C 294.253906 213.886719 294.253906 213.917969 294.253906 213.941406 C 294.253906 214.140625 294.242188 214.347656 294.226562 214.546875 C 294.226562 214.59375 294.21875 214.632812 294.21875 214.679688 C 294.199219 214.882812 294.175781 215.085938 294.140625 215.285156 C 294.140625 215.316406 294.132812 215.339844 294.128906 215.371094 C 294.09375 215.566406 294.050781 215.761719 294.007812 215.953125 C 293.996094 215.992188 293.988281 216.03125 293.976562 216.070312 C 293.925781 216.265625 293.867188 216.457031 293.804688 216.648438 C 293.792969 216.691406 293.777344 216.742188 293.757812 216.789062 C 293.691406 216.972656 293.617188 217.160156 293.535156 217.339844 C 293.515625 217.382812 293.496094 217.425781 293.476562 217.46875 C 293.390625 217.65625 293.300781 217.835938 293.199219 218.011719 C 293.179688 218.039062 293.164062 218.070312 293.144531 218.105469 C 293.046875 218.277344 292.941406 218.441406 292.828125 218.605469 C 292.816406 218.625 292.804688 218.648438 292.789062 218.667969 C 292.667969 218.835938 292.539062 218.996094 292.402344 219.15625 C 292.378906 219.1875 292.347656 219.222656 292.324219 219.253906 C 292.1875 219.402344 292.046875 219.554688 291.902344 219.695312 C 291.867188 219.722656 291.835938 219.757812 291.800781 219.789062 C 291.652344 219.929688 291.492188 220.058594 291.328125 220.183594 C 291.296875 220.210938 291.261719 220.234375 291.226562 220.261719 C 291.050781 220.390625 290.871094 220.511719 290.679688 220.625 C 290.660156 220.636719 290.640625 220.644531 290.625 220.65625 C 290.433594 220.765625 290.238281 220.867188 290.039062 220.960938 C 290.011719 220.972656 289.988281 220.988281 289.964844 220.996094 C 289.753906 221.085938 289.539062 221.171875 289.3125 221.246094 C 289.273438 221.261719 289.230469 221.273438 289.191406 221.289062 C 288.972656 221.359375 288.742188 221.417969 288.5 221.46875 C 288.457031 221.476562 288.410156 221.488281 288.363281 221.492188 C 288.121094 221.542969 287.867188 221.578125 287.613281 221.609375 C 287.578125 221.609375 287.539062 221.613281 287.503906 221.617188 C 287.226562 221.644531 286.945312 221.660156 286.65625 221.660156 C 286.125 221.660156 285.558594 221.613281 284.972656 221.523438 C 276.921875 220.289062 276.832031 207.574219 284.558594 206.144531 Z M 284.566406 206.144531 " fill-opacity="1" fill-rule="nonzero"/><path fill="#100249" d="M 288.515625 221.46875 C 288.46875 221.476562 288.425781 221.488281 288.378906 221.492188 C 288.425781 221.484375 288.46875 221.476562 288.515625 221.46875 Z M 288.515625 221.46875 " fill-opacity="1" fill-rule="nonzero"/><path fill="#100249" d="M 287.628906 221.609375 C 287.59375 221.609375 287.554688 221.613281 287.519531 221.617188 C 287.554688 221.617188 287.59375 221.613281 287.628906 221.609375 Z M 287.628906 221.609375 " fill-opacity="1" fill-rule="nonzero"/><path fill="#100249" d="M 289.328125 221.246094 C 289.285156 221.261719 289.246094 221.273438 289.207031 221.289062 C 289.246094 221.273438 289.285156 221.261719 289.328125 221.246094 Z M 289.328125 221.246094 " fill-opacity="1" fill-rule="nonzero"/><path fill="#100249" d="M 293.550781 217.34375 C 293.53125 217.390625 293.511719 217.429688 293.492188 217.472656 C 293.511719 217.429688 293.53125 217.390625 293.550781 217.34375 Z M 293.550781 217.34375 " fill-opacity="1" fill-rule="nonzero"/><path fill="#100249" d="M 293.21875 218.015625 C 293.199219 218.046875 293.183594 218.074219 293.164062 218.109375 C 293.183594 218.082031 293.207031 218.050781 293.21875 218.015625 Z M 293.21875 218.015625 " fill-opacity="1" fill-rule="nonzero"/><path fill="#100249" d="M 293.816406 216.648438 C 293.800781 216.691406 293.785156 216.742188 293.765625 216.789062 C 293.78125 216.742188 293.796875 216.691406 293.816406 216.648438 Z M 293.816406 216.648438 " fill-opacity="1" fill-rule="nonzero"/><path fill="#100249" d="M 292.421875 219.164062 C 292.398438 219.191406 292.367188 219.226562 292.34375 219.257812 C 292.375 219.226562 292.398438 219.191406 292.421875 219.164062 Z M 292.421875 219.164062 " fill-opacity="1" fill-rule="nonzero"/><path fill="#100249" d="M 292.851562 218.605469 C 292.851562 218.605469 292.824219 218.648438 292.808594 218.667969 C 292.824219 218.648438 292.835938 218.625 292.851562 218.605469 Z M 292.851562 218.605469 " fill-opacity="1" fill-rule="nonzero"/><path fill="#100249" d="M 291.921875 219.699219 C 291.886719 219.730469 291.859375 219.765625 291.824219 219.792969 C 291.859375 219.765625 291.894531 219.730469 291.921875 219.699219 Z M 291.921875 219.699219 " fill-opacity="1" fill-rule="nonzero"/><path fill="#100249" d="M 363.621094 139.65625 C 363.171875 138.191406 362.710938 136.738281 362.226562 135.289062 L 361.855469 135.574219 C 362.46875 136.929688 363.046875 138.292969 363.621094 139.65625 Z M 363.621094 139.65625 " fill-opacity="1" fill-rule="nonzero"/><path fill="#100249" d="M 366.371094 258.136719 C 366.394531 258.054688 366.421875 257.980469 366.445312 257.90625 C 366.414062 257.980469 366.390625 258.054688 366.359375 258.128906 C 366.359375 258.128906 366.359375 258.128906 366.367188 258.136719 Z M 366.371094 258.136719 " fill-opacity="1" fill-rule="nonzero"/><g clip-path="url(#448aeba9e2)"><path fill="#100249" d="M 378.402344 191.996094 C 378.402344 212.890625 375.007812 233.261719 368.308594 252.738281 C 369.578125 249.503906 370.945312 246.304688 372.023438 242.988281 C 379.582031 219.6875 381.300781 195.3125 377.285156 171.363281 C 378.03125 178.171875 378.40625 185.054688 378.40625 191.996094 Z M 378.402344 191.996094 " fill-opacity="1" fill-rule="nonzero"/></g><path fill="#100249" d="M 310.125 106.429688 C 309.132812 106.597656 308.523438 106.984375 307.730469 107.546875 C 303.96875 110.203125 297.410156 118.832031 293.738281 122.613281 C 290.359375 126.089844 286.855469 129.457031 283.382812 132.835938 C 281.941406 133.085938 273.332031 123.167969 271.429688 121.847656 C 266.375 118.339844 260.828125 123.875 262.921875 129.351562 L 280.222656 146.625 C 284.328125 148.917969 286.992188 146.394531 289.734375 143.652344 C 298.976562 134.414062 307.269531 124.078125 316.484375 114.785156 C 319.011719 109.9375 315.421875 105.515625 310.132812 106.425781 Z M 310.125 106.429688 " fill-opacity="1" fill-rule="nonzero"/><path fill="#100249" d="M 166.355469 203.921875 C 162.554688 204.921875 159.195312 213.632812 156.261719 217.132812 C 141.789062 234.425781 113.957031 234.851562 98.902344 218.03125 C 94.027344 212.585938 91.734375 202.070312 83.378906 203.773438 C 79.691406 204.527344 77.65625 208.859375 78.144531 212.363281 C 79.03125 218.792969 90.308594 231.019531 95.617188 234.816406 C 120.289062 252.472656 161.496094 245.484375 174.234375 216.707031 C 177.195312 210.019531 174.882812 201.671875 166.351562 203.921875 Z M 166.355469 203.921875 " fill-opacity="1" fill-rule="nonzero"/><path fill="#100249" d="M 154.089844 178.792969 C 166.175781 188.554688 181.644531 171.675781 171.066406 160.277344 C 159.347656 147.652344 140.25 167.609375 154.089844 178.792969 Z M 154.089844 178.792969 " fill-opacity="1" fill-rule="nonzero"/><path fill="#100249" d="M 100.757812 159.730469 C 88.78125 148.789062 71.980469 166.808594 83.769531 178.25 C 95.34375 189.484375 113.277344 171.171875 100.757812 159.730469 Z M 100.757812 159.730469 " fill-opacity="1" fill-rule="nonzero"/><path fill="#100249" d="M 232.558594 272.347656 C 231.941406 280.539062 231.644531 289.796875 234.136719 296.355469 C 235.726562 300.5625 238.871094 305.515625 249.046875 306.738281 C 253.21875 306.527344 257.675781 306.421875 262.652344 306.421875 C 269.8125 306.421875 277.125 306.636719 284.203125 306.847656 C 291.1875 307.054688 298.402344 307.265625 305.371094 307.265625 C 311.453125 307.265625 316.777344 307.105469 321.640625 306.769531 C 323.644531 306.632812 328.554688 306.015625 332.714844 303.300781 C 334.796875 300.660156 336.808594 297.964844 338.746094 295.210938 C 339.714844 291.046875 339.964844 275.300781 339.304688 269.65625 C 338.425781 262.132812 331.15625 255.476562 322.992188 254.625 C 318.824219 254.917969 314.332031 255.058594 309.265625 255.058594 C 302.074219 255.058594 294.660156 254.769531 287.484375 254.488281 C 281.503906 254.253906 275.359375 254.011719 269.386719 253.945312 C 266.328125 254.007812 263.292969 254.03125 260.28125 254 C 256.03125 254.117188 252.1875 254.359375 248.660156 254.734375 C 239.886719 255.675781 233.261719 262.914062 232.550781 272.335938 Z M 308.636719 268.28125 C 322.171875 266.667969 329.390625 285.273438 316.433594 292.117188 C 298.191406 301.757812 288.867188 270.636719 308.636719 268.28125 Z M 258.050781 268.28125 C 277.867188 266.664062 275.519531 297.46875 256.613281 293.484375 C 242.753906 290.5625 243.648438 269.453125 258.050781 268.28125 Z M 258.050781 268.28125 " fill-opacity="1" fill-rule="nonzero"/><path fill="#100249" d="M 321.640625 306.773438 C 316.773438 307.105469 311.453125 307.269531 305.371094 307.269531 C 298.402344 307.269531 291.179688 307.058594 284.203125 306.855469 C 277.125 306.644531 269.8125 306.429688 262.652344 306.429688 C 257.675781 306.429688 253.21875 306.527344 249.046875 306.742188 C 238.871094 305.519531 235.726562 300.5625 234.136719 296.363281 C 231.648438 289.808594 231.941406 280.546875 232.558594 272.351562 C 233.261719 262.925781 239.886719 255.691406 248.664062 254.75 C 252.195312 254.367188 256.035156 254.128906 260.285156 254.015625 C 256.425781 253.980469 252.613281 253.863281 248.863281 253.617188 C 240.535156 254.265625 232.800781 261.507812 232.074219 269.902344 C 231.636719 275 231.46875 291.933594 232.855469 296.210938 C 235.050781 302.980469 242.011719 307.109375 248.886719 307.742188 C 272.28125 309.890625 298.828125 306.132812 322.550781 307.765625 C 325.890625 307.40625 328.589844 306.703125 330.785156 305.714844 C 331.4375 304.921875 332.082031 304.117188 332.71875 303.3125 C 328.566406 306.027344 323.648438 306.636719 321.644531 306.777344 Z M 321.640625 306.773438 " fill-opacity="1" fill-rule="nonzero"/><path fill="#100249" d="M 309.269531 255.0625 C 314.335938 255.0625 318.828125 254.925781 323 254.628906 C 331.160156 255.476562 338.425781 262.140625 339.308594 269.660156 C 339.96875 275.308594 339.71875 291.050781 338.753906 295.214844 C 338.933594 294.953125 339.117188 294.699219 339.296875 294.4375 C 340.359375 289.070312 339.84375 282.585938 339.804688 275.902344 C 339.800781 274.839844 340.339844 273.859375 340.332031 272.917969 C 340.265625 268.03125 338.152344 262.265625 334.644531 258.8125 C 331.898438 256.105469 326.933594 253.941406 323.0625 253.605469 C 305.988281 252.136719 287.421875 253.605469 269.398438 253.945312 C 275.371094 254.015625 281.519531 254.253906 287.5 254.488281 C 294.671875 254.769531 302.089844 255.058594 309.28125 255.058594 Z M 309.269531 255.0625 " fill-opacity="1" fill-rule="nonzero"/><path fill="#100249" d="M 313.863281 60.257812 C 321.351562 67.214844 328.25 74.800781 334.46875 82.933594 C 337.449219 83.175781 340.554688 83.304688 343.652344 83.410156 C 337.683594 75.066406 331.015625 67.191406 323.660156 59.839844 C 318.839844 55.019531 313.789062 50.5 308.53125 46.269531 C 310.339844 50.574219 311.964844 55.035156 313.542969 59.378906 C 313.648438 59.667969 313.753906 59.960938 313.863281 60.257812 Z M 313.863281 60.257812 " fill-opacity="1" fill-rule="nonzero"/><path fill="#100249" d="M 292.03125 39.300781 C 292.203125 39.320312 292.375 39.351562 292.542969 39.375 C 292.375 39.347656 292.203125 39.320312 292.03125 39.300781 Z M 292.03125 39.300781 " fill-opacity="1" fill-rule="nonzero"/><path fill="#100249" d="M 292.90625 39.441406 C 293.082031 39.476562 293.253906 39.515625 293.429688 39.5625 C 293.253906 39.523438 293.082031 39.476562 292.90625 39.441406 Z M 292.90625 39.441406 " fill-opacity="1" fill-rule="nonzero"/><path fill="#100249" d="M 363.480469 251.960938 C 363.503906 250.628906 366.25 245.242188 366.882812 243.363281 C 378.351562 209.246094 377.394531 172.769531 363.613281 139.65625 C 368.664062 156.222656 371.382812 173.796875 371.382812 191.996094 C 371.382812 215.46875 366.863281 237.902344 358.644531 258.480469 C 360.199219 262.015625 361.238281 265.6875 361.679688 269.347656 C 362.371094 267.828125 363.054688 266.292969 363.703125 264.746094 C 364.632812 262.550781 365.515625 260.34375 366.355469 258.128906 C 365.570312 257.628906 363.464844 252.417969 363.472656 251.960938 Z M 363.480469 251.960938 " fill-opacity="1" fill-rule="nonzero"/><g clip-path="url(#69af1e7128)"><path fill="#100249" d="M 307.378906 329.476562 C 276.058594 355.917969 235.609375 371.875 191.503906 371.875 C 92.320312 371.875 11.625 291.179688 11.625 191.996094 C 11.625 92.808594 92.320312 12.113281 191.503906 12.113281 C 224.109375 12.113281 254.714844 20.832031 281.113281 36.066406 C 283.328125 34.640625 285.792969 33.679688 288.296875 33.34375 C 288.894531 33.261719 289.511719 33.222656 290.128906 33.207031 C 281.894531 28.085938 273.269531 23.601562 264.253906 19.789062 C 241.210938 10.039062 216.734375 5.097656 191.503906 5.097656 C 166.277344 5.097656 141.800781 10.039062 118.753906 19.785156 C 96.5 29.199219 76.511719 42.671875 59.347656 59.835938 C 42.1875 76.996094 28.710938 96.984375 19.300781 119.242188 C 9.546875 142.289062 4.609375 166.765625 4.609375 191.996094 C 4.609375 217.222656 9.546875 241.699219 19.300781 264.746094 C 28.714844 287 42.1875 306.988281 59.347656 324.152344 C 76.511719 341.3125 96.5 354.789062 118.753906 364.199219 C 141.800781 373.945312 166.277344 378.890625 191.503906 378.890625 C 216.734375 378.890625 241.210938 373.953125 264.253906 364.199219 C 284.226562 355.753906 302.359375 344.027344 318.277344 329.3125 C 315.160156 329.425781 311.871094 329.488281 308.363281 329.488281 C 308.035156 329.488281 307.710938 329.480469 307.386719 329.476562 Z M 307.378906 329.476562 " fill-opacity="1" fill-rule="nonzero"/></g><path fill="#100249" d="M 368.308594 252.738281 C 367.644531 254.441406 367 256.15625 366.449219 257.898438 C 367.097656 256.1875 367.71875 254.460938 368.308594 252.738281 Z M 368.308594 252.738281 " fill-opacity="1" fill-rule="nonzero"/><path fill="#100249" d="M 298.050781 41.695312 C 298.191406 41.796875 298.332031 41.898438 298.464844 42.003906 C 298.332031 41.898438 298.191406 41.796875 298.050781 41.695312 Z M 298.050781 41.695312 " fill-opacity="1" fill-rule="nonzero"/><path fill="#100249" d="M 297.300781 41.195312 C 297.449219 41.289062 297.605469 41.386719 297.75 41.484375 C 297.601562 41.386719 297.449219 41.289062 297.300781 41.195312 Z M 297.300781 41.195312 " fill-opacity="1" fill-rule="nonzero"/><path fill="#100249" d="M 359.800781 128.46875 C 360.652344 130.71875 361.460938 132.996094 362.226562 135.289062 L 365.367188 132.871094 C 368.710938 141.132812 372.199219 149.378906 374.457031 158.109375 C 375.59375 162.503906 376.539062 166.925781 377.277344 171.363281 C 375.496094 155.035156 371.578125 139.125 365.570312 123.8125 C 363.761719 125.300781 361.945312 126.757812 360.140625 128.195312 C 360.027344 128.285156 359.910156 128.378906 359.796875 128.46875 Z M 359.800781 128.46875 " fill-opacity="1" fill-rule="nonzero"/><path fill="#100249" d="M 295.429688 40.21875 C 295.699219 40.332031 295.964844 40.457031 296.230469 40.589844 C 295.972656 40.457031 295.699219 40.332031 295.429688 40.21875 Z M 295.429688 40.21875 " fill-opacity="1" fill-rule="nonzero"/><path fill="#100249" d="M 294.601562 39.902344 C 294.875 39.996094 295.140625 40.097656 295.398438 40.207031 C 295.140625 40.097656 294.875 39.996094 294.601562 39.902344 Z M 294.601562 39.902344 " fill-opacity="1" fill-rule="nonzero"/><path fill="#100249" d="M 298.761719 42.238281 C 298.890625 42.347656 299.023438 42.457031 299.152344 42.570312 C 299.027344 42.453125 298.898438 42.34375 298.761719 42.238281 Z M 298.761719 42.238281 " fill-opacity="1" fill-rule="nonzero"/><path fill="#100249" d="M 296.480469 40.722656 C 296.65625 40.820312 296.832031 40.910156 297.003906 41.011719 C 296.832031 40.910156 296.65625 40.816406 296.480469 40.722656 Z M 296.480469 40.722656 " fill-opacity="1" fill-rule="nonzero"/><path fill="#100249" d="M 300.636719 44.101562 C 300.757812 44.25 300.875 44.40625 300.992188 44.558594 C 300.875 44.402344 300.761719 44.246094 300.636719 44.101562 Z M 300.636719 44.101562 " fill-opacity="1" fill-rule="nonzero"/><path fill="#100249" d="M 301.167969 44.796875 C 301.332031 45.027344 301.492188 45.269531 301.644531 45.507812 C 301.492188 45.265625 301.335938 45.027344 301.167969 44.796875 Z M 301.167969 44.796875 " fill-opacity="1" fill-rule="nonzero"/><path fill="#100249" d="M 300.054688 43.445312 C 300.175781 43.574219 300.289062 43.707031 300.410156 43.839844 C 300.296875 43.707031 300.179688 43.574219 300.054688 43.445312 Z M 300.054688 43.445312 " fill-opacity="1" fill-rule="nonzero"/><path fill="#100249" d="M 293.761719 39.640625 C 293.953125 39.691406 294.136719 39.753906 294.328125 39.8125 C 294.140625 39.753906 293.953125 39.691406 293.761719 39.640625 Z M 293.761719 39.640625 " fill-opacity="1" fill-rule="nonzero"/><path fill="#100249" d="M 299.429688 42.824219 C 299.554688 42.9375 299.675781 43.058594 299.792969 43.183594 C 299.675781 43.0625 299.554688 42.945312 299.429688 42.824219 Z M 299.429688 42.824219 " fill-opacity="1" fill-rule="nonzero"/><path fill="#100249" d="M 321.304688 323.152344 C 320.828125 323.179688 320.359375 323.203125 319.882812 323.222656 C 320.359375 323.203125 320.828125 323.179688 321.304688 323.152344 Z M 321.304688 323.152344 " fill-opacity="1" fill-rule="nonzero"/><path fill="#100249" d="M 289.089844 39.300781 C 289.371094 39.261719 289.65625 39.242188 289.9375 39.226562 C 289.65625 39.242188 289.371094 39.265625 289.089844 39.300781 C 288.457031 39.386719 287.828125 39.542969 287.210938 39.742188 C 287.828125 39.535156 288.460938 39.382812 289.089844 39.300781 Z M 289.089844 39.300781 " fill-opacity="1" fill-rule="nonzero"/><path fill="#100249" d="M 323.859375 323.003906 C 323.335938 323.039062 322.808594 323.074219 322.28125 323.101562 C 322.808594 323.074219 323.335938 323.039062 323.859375 323.003906 Z M 323.859375 323.003906 " fill-opacity="1" fill-rule="nonzero"/><path fill="#100249" d="M 357.472656 122.632812 C 359.386719 121.101562 361.289062 119.5625 363.164062 117.992188 C 361.289062 119.5625 359.386719 121.101562 357.472656 122.632812 Z M 357.472656 122.632812 " fill-opacity="1" fill-rule="nonzero"/><path fill="#100249" d="M 318.835938 323.269531 C 318.378906 323.289062 317.929688 323.304688 317.472656 323.324219 C 317.929688 323.308594 318.378906 323.289062 318.835938 323.269531 Z M 318.835938 323.269531 " fill-opacity="1" fill-rule="nonzero"/><path fill="#100249" d="M 316.378906 323.359375 C 315.933594 323.375 315.484375 323.382812 315.035156 323.394531 C 315.488281 323.382812 315.933594 323.367188 316.378906 323.359375 Z M 316.378906 323.359375 " fill-opacity="1" fill-rule="nonzero"/><path fill="#100249" d="M 341.972656 302.46875 C 342.964844 300.980469 343.773438 299.324219 344.355469 297.496094 C 344.792969 296.121094 345.109375 293.699219 345.320312 290.804688 C 345.105469 293.695312 344.789062 296.121094 344.355469 297.496094 C 343.769531 299.324219 342.960938 300.980469 341.972656 302.46875 Z M 341.972656 302.46875 " fill-opacity="1" fill-rule="nonzero"/><path fill="#100249" d="M 290.578125 39.207031 C 290.453125 39.207031 290.328125 39.214844 290.210938 39.214844 C 290.398438 39.210938 290.589844 39.207031 290.78125 39.210938 C 290.714844 39.210938 290.644531 39.207031 290.578125 39.207031 Z M 290.578125 39.207031 " fill-opacity="1" fill-rule="nonzero"/><path fill="#100249" d="M 291.152344 39.226562 C 291.320312 39.234375 291.492188 39.246094 291.664062 39.261719 C 291.492188 39.246094 291.320312 39.230469 291.152344 39.226562 Z M 291.152344 39.226562 " fill-opacity="1" fill-rule="nonzero"/><path fill="#100249" d="M 355.847656 271.417969 C 356.058594 274.355469 356.203125 277.351562 356.238281 280.347656 C 356.203125 277.351562 356.054688 274.355469 355.847656 271.417969 C 355.738281 269.851562 355.488281 268.277344 355.117188 266.722656 C 355.484375 268.28125 355.734375 269.851562 355.847656 271.417969 Z M 355.847656 271.417969 " fill-opacity="1" fill-rule="nonzero"/><path fill="#100249" d="M 348.09375 101.296875 C 348.859375 101.375 349.71875 101.40625 350.621094 101.429688 C 349.714844 101.40625 348.859375 101.375 348.09375 101.296875 C 347.640625 101.253906 347.183594 101.210938 346.730469 101.167969 C 347.183594 101.210938 347.644531 101.253906 348.09375 101.296875 Z M 348.09375 101.296875 " fill-opacity="1" fill-rule="nonzero"/><path fill="#100249" d="M 324.667969 322.949219 C 324.726562 322.949219 324.789062 322.9375 324.847656 322.933594 C 324.789062 322.933594 324.726562 322.941406 324.667969 322.949219 Z M 324.667969 322.949219 " fill-opacity="1" fill-rule="nonzero"/><path fill="#100249" d="M 352.457031 111.714844 C 354.246094 115.289062 355.917969 118.929688 357.472656 122.632812 C 359.386719 121.101562 361.289062 119.5625 363.164062 117.992188 C 361.554688 114.261719 359.835938 110.585938 357.996094 106.988281 C 357.761719 107.207031 357.546875 107.402344 357.363281 107.570312 C 355.914062 108.910156 354.246094 110.285156 352.457031 111.714844 Z M 352.457031 111.714844 " fill-opacity="1" fill-rule="nonzero"/><path fill="#100249" d="M 287.210938 39.746094 C 293.183594 43.515625 298.921875 47.625 304.394531 52.046875 C 303.523438 49.828125 302.617188 47.644531 301.652344 45.523438 C 301.652344 45.523438 301.648438 45.515625 301.644531 45.515625 C 301.492188 45.269531 301.335938 45.035156 301.167969 44.804688 C 301.113281 44.722656 301.046875 44.648438 300.988281 44.566406 C 300.871094 44.414062 300.757812 44.257812 300.632812 44.113281 C 300.554688 44.019531 300.480469 43.9375 300.40625 43.847656 C 300.289062 43.710938 300.175781 43.582031 300.050781 43.449219 C 299.964844 43.359375 299.878906 43.273438 299.792969 43.183594 C 299.675781 43.0625 299.554688 42.945312 299.429688 42.824219 C 299.339844 42.738281 299.242188 42.652344 299.148438 42.574219 C 299.023438 42.464844 298.890625 42.347656 298.757812 42.242188 C 298.660156 42.164062 298.5625 42.082031 298.460938 42.007812 C 298.328125 41.902344 298.1875 41.800781 298.046875 41.703125 C 297.945312 41.632812 297.84375 41.554688 297.746094 41.492188 C 297.59375 41.390625 297.445312 41.296875 297.292969 41.199219 C 297.195312 41.140625 297.097656 41.074219 297 41.019531 C 296.828125 40.917969 296.652344 40.824219 296.476562 40.734375 C 296.390625 40.6875 296.308594 40.640625 296.222656 40.597656 C 295.960938 40.46875 295.691406 40.34375 295.421875 40.226562 C 295.410156 40.226562 295.398438 40.222656 295.394531 40.21875 C 295.132812 40.109375 294.867188 40.007812 294.597656 39.914062 C 294.507812 39.882812 294.414062 39.851562 294.324219 39.824219 C 294.136719 39.761719 293.945312 39.703125 293.757812 39.652344 C 293.644531 39.621094 293.535156 39.597656 293.421875 39.570312 C 293.246094 39.53125 293.070312 39.488281 292.894531 39.453125 C 292.773438 39.425781 292.652344 39.40625 292.539062 39.386719 C 292.367188 39.355469 292.199219 39.332031 292.027344 39.3125 C 291.902344 39.296875 291.78125 39.28125 291.65625 39.269531 C 291.488281 39.257812 291.316406 39.242188 291.144531 39.234375 C 291.019531 39.230469 290.894531 39.226562 290.773438 39.222656 C 290.585938 39.222656 290.394531 39.222656 290.203125 39.226562 C 290.113281 39.226562 290.027344 39.226562 289.9375 39.234375 C 289.65625 39.25 289.371094 39.277344 289.089844 39.3125 C 288.457031 39.398438 287.828125 39.550781 287.210938 39.753906 Z M 287.210938 39.746094 " fill-opacity="1" fill-rule="nonzero"/><path fill="#100249" d="M 348.09375 101.296875 C 348.859375 101.375 349.71875 101.40625 350.621094 101.429688 C 350.847656 101.433594 351.078125 101.4375 351.308594 101.441406 C 351.769531 101.449219 352.242188 101.453125 352.710938 101.457031 C 353.417969 101.46875 354.128906 101.472656 354.824219 101.492188 C 354.90625 101.492188 354.988281 101.5 355.070312 101.503906 C 352.816406 97.429688 350.410156 93.445312 347.859375 89.558594 C 344.929688 89.460938 341.984375 89.378906 339.078125 89.242188 C 341.777344 93.109375 344.328125 97.085938 346.730469 101.167969 C 347.183594 101.210938 347.644531 101.253906 348.089844 101.296875 Z M 348.09375 101.296875 " fill-opacity="1" fill-rule="nonzero"/><path fill="#100249" d="M 292.550781 39.375 C 292.667969 39.398438 292.789062 39.417969 292.90625 39.441406 C 292.785156 39.417969 292.664062 39.398438 292.550781 39.375 Z M 292.550781 39.375 " fill-opacity="1" fill-rule="nonzero"/><path fill="#100249" d="M 289.9375 39.226562 C 290.027344 39.226562 290.113281 39.222656 290.203125 39.214844 C 290.113281 39.214844 290.027344 39.214844 289.9375 39.226562 Z M 289.9375 39.226562 " fill-opacity="1" fill-rule="nonzero"/><path fill="#100249" d="M 295.398438 40.207031 C 295.398438 40.207031 295.421875 40.214844 295.425781 40.21875 C 295.414062 40.21875 295.40625 40.214844 295.398438 40.207031 Z M 295.398438 40.207031 " fill-opacity="1" fill-rule="nonzero"/><path fill="#100249" d="M 294.328125 39.8125 C 294.417969 39.84375 294.511719 39.867188 294.601562 39.902344 C 294.511719 39.871094 294.417969 39.84375 294.328125 39.8125 Z M 294.328125 39.8125 " fill-opacity="1" fill-rule="nonzero"/><path fill="#100249" d="M 296.226562 40.589844 C 296.3125 40.632812 296.398438 40.679688 296.480469 40.722656 C 296.398438 40.679688 296.3125 40.628906 296.226562 40.589844 Z M 296.226562 40.589844 " fill-opacity="1" fill-rule="nonzero"/><path fill="#100249" d="M 291.664062 39.261719 C 291.789062 39.269531 291.90625 39.285156 292.03125 39.300781 C 291.90625 39.285156 291.789062 39.269531 291.664062 39.261719 Z M 291.664062 39.261719 " fill-opacity="1" fill-rule="nonzero"/><path fill="#100249" d="M 290.78125 39.210938 C 290.90625 39.210938 291.03125 39.214844 291.152344 39.226562 C 291.027344 39.222656 290.902344 39.214844 290.78125 39.210938 Z M 290.78125 39.210938 " fill-opacity="1" fill-rule="nonzero"/><path fill="#100249" d="M 293.429688 39.558594 C 293.542969 39.582031 293.65625 39.605469 293.765625 39.636719 C 293.65625 39.605469 293.546875 39.582031 293.429688 39.558594 Z M 293.429688 39.558594 " fill-opacity="1" fill-rule="nonzero"/><path fill="#100249" d="M 300.992188 44.5625 C 301.050781 44.644531 301.113281 44.71875 301.171875 44.796875 C 301.117188 44.71875 301.050781 44.644531 300.992188 44.5625 Z M 300.992188 44.5625 " fill-opacity="1" fill-rule="nonzero"/><path fill="#100249" d="M 357.363281 107.570312 C 355.914062 108.910156 354.246094 110.285156 352.457031 111.714844 C 354.25 110.285156 355.914062 108.910156 357.363281 107.570312 C 357.546875 107.402344 357.765625 107.199219 357.996094 106.988281 C 357.761719 107.207031 357.546875 107.402344 357.363281 107.570312 Z M 357.363281 107.570312 " fill-opacity="1" fill-rule="nonzero"/><path fill="#100249" d="M 304.394531 52.042969 C 303.523438 49.824219 302.617188 47.640625 301.652344 45.519531 C 301.652344 45.519531 301.648438 45.507812 301.644531 45.507812 C 301.644531 45.507812 301.648438 45.519531 301.652344 45.519531 C 302.621094 47.640625 303.523438 49.824219 304.394531 52.042969 Z M 304.394531 52.042969 " fill-opacity="1" fill-rule="nonzero"/><path fill="#100249" d="M 297.003906 41.011719 C 297.105469 41.070312 297.199219 41.128906 297.300781 41.191406 C 297.199219 41.128906 297.105469 41.066406 297.003906 41.011719 Z M 297.003906 41.011719 " fill-opacity="1" fill-rule="nonzero"/><path fill="#100249" d="M 352.710938 101.457031 C 353.417969 101.46875 354.128906 101.472656 354.824219 101.492188 C 354.132812 101.472656 353.421875 101.464844 352.710938 101.457031 Z M 352.710938 101.457031 " fill-opacity="1" fill-rule="nonzero"/><path fill="#100249" d="M 347.855469 89.5625 C 344.925781 89.46875 341.980469 89.382812 339.074219 89.246094 C 341.972656 89.382812 344.921875 89.46875 347.855469 89.5625 Z M 347.855469 89.5625 " fill-opacity="1" fill-rule="nonzero"/><path fill="#100249" d="M 355.070312 101.503906 C 354.992188 101.503906 354.910156 101.5 354.824219 101.492188 C 354.90625 101.492188 354.988281 101.5 355.070312 101.503906 Z M 355.070312 101.503906 " fill-opacity="1" fill-rule="nonzero"/><path fill="#100249" d="M 351.308594 101.441406 C 351.769531 101.449219 352.242188 101.453125 352.710938 101.457031 C 352.242188 101.453125 351.769531 101.449219 351.308594 101.441406 Z M 351.308594 101.441406 " fill-opacity="1" fill-rule="nonzero"/><path fill="#100249" d="M 297.75 41.484375 C 297.851562 41.554688 297.949219 41.625 298.050781 41.695312 C 297.949219 41.625 297.851562 41.550781 297.75 41.484375 Z M 297.75 41.484375 " fill-opacity="1" fill-rule="nonzero"/><path fill="#100249" d="M 300.410156 43.839844 C 300.484375 43.925781 300.566406 44.015625 300.636719 44.105469 C 300.5625 44.015625 300.484375 43.929688 300.410156 43.839844 Z M 300.410156 43.839844 " fill-opacity="1" fill-rule="nonzero"/><path fill="#100249" d="M 298.464844 42.003906 C 298.566406 42.078125 298.660156 42.15625 298.761719 42.238281 C 298.667969 42.15625 298.566406 42.078125 298.464844 42.003906 Z M 298.464844 42.003906 " fill-opacity="1" fill-rule="nonzero"/><path fill="#100249" d="M 299.152344 42.570312 C 299.25 42.652344 299.339844 42.734375 299.433594 42.820312 C 299.34375 42.734375 299.25 42.648438 299.152344 42.570312 Z M 299.152344 42.570312 " fill-opacity="1" fill-rule="nonzero"/><path fill="#100249" d="M 299.800781 43.179688 C 299.882812 43.265625 299.976562 43.355469 300.054688 43.445312 C 299.96875 43.355469 299.882812 43.269531 299.800781 43.179688 Z M 299.800781 43.179688 " fill-opacity="1" fill-rule="nonzero"/><path fill="#100249" d="M 356.238281 280.347656 C 356.203125 277.351562 356.054688 274.355469 355.847656 271.417969 C 355.738281 269.851562 355.488281 268.277344 355.117188 266.722656 C 352.28125 272.90625 349.105469 278.90625 345.613281 284.6875 C 345.554688 286.820312 345.460938 288.914062 345.320312 290.808594 C 345.105469 293.699219 344.789062 296.125 344.355469 297.5 C 343.769531 299.328125 342.960938 300.988281 341.972656 302.476562 C 341.808594 302.726562 341.636719 302.964844 341.460938 303.207031 C 337.660156 308.40625 331.542969 311.410156 324.996094 312.441406 C 321.554688 316.25 317.957031 319.910156 314.210938 323.414062 C 314.484375 323.410156 314.761719 323.402344 315.035156 323.398438 C 315.488281 323.390625 315.933594 323.375 316.378906 323.363281 C 316.742188 323.355469 317.105469 323.34375 317.46875 323.328125 C 317.921875 323.3125 318.375 323.292969 318.828125 323.273438 C 319.179688 323.257812 319.53125 323.25 319.878906 323.230469 C 320.351562 323.207031 320.824219 323.183594 321.300781 323.160156 C 321.625 323.144531 321.953125 323.125 322.277344 323.109375 C 322.804688 323.078125 323.328125 323.042969 323.855469 323.007812 C 324.125 322.988281 324.390625 322.972656 324.664062 322.953125 C 324.722656 322.953125 324.78125 322.941406 324.84375 322.9375 C 337.363281 310.195312 347.882812 295.925781 356.234375 280.351562 Z M 356.238281 280.347656 " fill-opacity="1" fill-rule="nonzero"/><path fill="#100249" d="M 322.28125 323.101562 C 321.957031 323.125 321.628906 323.136719 321.304688 323.152344 C 321.628906 323.136719 321.957031 323.117188 322.28125 323.101562 Z M 322.28125 323.101562 " fill-opacity="1" fill-rule="nonzero"/><path fill="#100249" d="M 324.667969 322.949219 C 324.402344 322.96875 324.132812 322.984375 323.859375 323.003906 C 324.132812 322.984375 324.398438 322.96875 324.667969 322.949219 Z M 324.667969 322.949219 " fill-opacity="1" fill-rule="nonzero"/><path fill="#100249" d="M 314.210938 323.414062 C 314.484375 323.410156 314.761719 323.402344 315.035156 323.394531 C 314.761719 323.398438 314.484375 323.402344 314.210938 323.410156 Z M 314.210938 323.414062 " fill-opacity="1" fill-rule="nonzero"/><path fill="#100249" d="M 317.472656 323.324219 C 317.109375 323.332031 316.746094 323.347656 316.382812 323.359375 C 316.746094 323.347656 317.109375 323.339844 317.472656 323.324219 Z M 317.472656 323.324219 " fill-opacity="1" fill-rule="nonzero"/><path fill="#100249" d="M 324.996094 312.4375 C 331.535156 311.402344 337.65625 308.398438 341.460938 303.203125 C 337.660156 308.402344 331.542969 311.402344 324.996094 312.4375 Z M 324.996094 312.4375 " fill-opacity="1" fill-rule="nonzero"/><path fill="#100249" d="M 319.882812 323.230469 C 319.53125 323.242188 319.179688 323.257812 318.835938 323.273438 C 319.183594 323.257812 319.535156 323.25 319.882812 323.230469 Z M 319.882812 323.230469 " fill-opacity="1" fill-rule="nonzero"/><path fill="#100249" d="M 377.277344 171.363281 C 376.53125 166.925781 375.59375 162.507812 374.457031 158.109375 C 372.199219 149.375 368.714844 141.132812 365.367188 132.871094 L 362.226562 135.289062 C 362.707031 136.738281 363.171875 138.191406 363.621094 139.65625 C 377.398438 172.765625 378.355469 209.246094 366.886719 243.363281 C 366.253906 245.242188 363.503906 250.628906 363.484375 251.960938 C 363.472656 252.417969 365.578125 257.628906 366.367188 258.128906 C 366.394531 258.054688 366.421875 257.980469 366.449219 257.90625 C 367.007812 256.15625 367.644531 254.441406 368.308594 252.746094 C 375.007812 233.269531 378.402344 212.894531 378.402344 192 C 378.402344 185.0625 378.023438 178.175781 377.277344 171.367188 Z M 377.277344 171.363281 " fill-opacity="1" fill-rule="nonzero"/><path fill="#100249" d="M 338.625 295.660156 C 338.667969 295.53125 338.707031 295.378906 338.746094 295.214844 C 336.808594 297.96875 334.796875 300.664062 332.714844 303.304688 C 335.238281 301.65625 337.484375 299.234375 338.625 295.660156 Z M 338.625 295.660156 " fill-opacity="1" fill-rule="nonzero"/><path fill="#100249" d="M 339.292969 294.4375 C 339.113281 294.699219 338.925781 294.953125 338.746094 295.214844 C 338.707031 295.378906 338.667969 295.535156 338.625 295.660156 C 337.484375 299.226562 335.238281 301.652344 332.714844 303.304688 C 332.078125 304.113281 331.429688 304.914062 330.78125 305.710938 C 336.007812 303.355469 338.316406 299.367188 339.289062 294.441406 Z M 339.292969 294.4375 " fill-opacity="1" fill-rule="nonzero"/></svg>