<svg xmlns="http://www.w3.org/2000/svg" xmlns:xlink="http://www.w3.org/1999/xlink" width="512" zoomAndPan="magnify" viewBox="0 0 384 383.999986" height="512" preserveAspectRatio="xMidYMid meet" version="1.0"><defs><clipPath id="0c43759751"><path d="M 99 71 L 325 71 L 325 374.867188 L 99 374.867188 Z M 99 71 " clip-rule="nonzero"/></clipPath><clipPath id="dd5d2370e6"><path d="M 8.867188 8.867188 L 374.867188 8.867188 L 374.867188 357 L 8.867188 357 Z M 8.867188 8.867188 " clip-rule="nonzero"/></clipPath></defs><rect x="-38.4" width="460.8" fill="#ffffff" y="-38.399999" height="460.799983" fill-opacity="1"/><rect x="-38.4" width="460.8" fill="#ffffff" y="-38.399999" height="460.799983" fill-opacity="1"/><path fill="#100249" d="M 174.546875 187.863281 L 187.46875 151.476562 L 197.050781 151.589844 L 209.246094 187.863281 L 200.433594 187.863281 L 197.703125 179.304688 L 185.898438 179.019531 L 183.359375 187.863281 Z M 196.027344 172.441406 L 192.167969 158.125 C 191.328125 158.207031 191.316406 158.945312 191.097656 159.527344 C 189.660156 163.367188 189.113281 168.460938 187.765625 172.441406 Z M 196.027344 172.441406 " fill-opacity="1" fill-rule="nonzero"/><path fill="#100249" d="M 213.652344 151.515625 L 221.914062 151.515625 L 221.914062 187.863281 L 213.652344 187.863281 Z M 213.652344 151.515625 " fill-opacity="1" fill-rule="nonzero"/><g clip-path="url(#0c43759751)"><path fill="#100249" d="M 123.328125 375.125 L 167.386719 375.125 L 167.386719 249.273438 L 125.226562 207.167969 L 125.007812 167.292969 C 113.472656 164.648438 110.355469 149.152344 120.496094 142.894531 C 133.015625 135.167969 147.652344 150.011719 138.429688 161.929688 C 136.078125 164.964844 133.625 165.367188 130.5625 167.28125 L 130.601562 205.097656 L 170.15625 244.300781 C 170.652344 244.890625 172.902344 247.808594 172.902344 248.167969 L 172.902344 375.117188 L 180.886719 375.117188 L 181.738281 373.21875 L 181.703125 239.367188 L 150.738281 205.890625 C 150.027344 198.296875 150 190.308594 150.910156 182.714844 C 145.550781 180.441406 142.191406 176.0625 144.375 170.074219 C 147.515625 161.472656 160.261719 161.953125 162.1875 171.304688 C 163.390625 177.128906 160.386719 179.84375 155.910156 182.714844 L 155.9375 203.445312 L 187.21875 237.152344 L 187.21875 375.117188 L 196.308594 375.117188 L 197.132812 207.140625 C 174.496094 204.679688 159.941406 181.722656 167.371094 160.023438 C 176.84375 132.363281 215.773438 127.980469 231.507812 152.65625 C 246.566406 176.265625 229.992188 206.316406 202.640625 207.128906 L 202.640625 374.5625 L 211.453125 374.5625 L 211.453125 248.714844 L 225.136719 234.867188 C 216.761719 217.589844 233.667969 200.261719 251.3125 208.304688 C 264.273438 214.207031 265.457031 233.675781 253.488281 241.183594 C 245.25 246.351562 236.050781 245.566406 228.796875 239.179688 L 217.511719 249.820312 L 217.511719 374.566406 L 264.878906 374.566406 C 258.042969 364.242188 249.769531 354.863281 242.621094 344.777344 C 237.734375 337.886719 236.421875 338.042969 238.601562 329.285156 C 240.699219 320.859375 243.914062 307.941406 246.828125 300.0625 C 257.035156 272.5 300.859375 309.285156 309.203125 283.675781 C 312.019531 275.027344 307.039062 273.4375 305.761719 267.316406 C 304.753906 262.480469 308.734375 260.558594 310.613281 256.996094 C 313.625 251.289062 306.546875 251.457031 306.164062 248.707031 C 306.03125 247.753906 309.152344 246.574219 310.058594 245.425781 C 314.285156 240.027344 305.773438 236.511719 307.398438 231.203125 C 308.503906 227.582031 324.375 228.503906 324.410156 220.085938 C 324.4375 213.308594 310.734375 202.722656 306.203125 197.488281 C 304.351562 195.34375 295.683594 183.601562 295.847656 181.617188 C 300.011719 174.703125 302.796875 175.003906 299.984375 166.246094 C 295.953125 153.695312 287.292969 135.285156 281.496094 123.050781 C 263.039062 84.128906 231.65625 70.160156 189.121094 71.074219 C 108.300781 72.816406 86.773438 145.996094 107.085938 213.75 C 112.3125 231.183594 120.980469 247.191406 126.628906 264.421875 L 133.703125 291.777344 C 136.113281 319.871094 131.554688 348.335938 123.332031 375.125 Z M 264.226562 159.355469 C 285.460938 158.28125 285.675781 190.613281 265.148438 190.609375 C 244.78125 190.609375 244.710938 160.34375 264.226562 159.355469 Z M 229.503906 109.78125 C 241.789062 108.433594 246.289062 126.015625 235.261719 130.992188 C 219.449219 138.128906 212.710938 111.628906 229.503906 109.78125 Z M 167.207031 93.777344 C 168.457031 92.625 171.097656 91.222656 172.769531 91.035156 C 177.703125 90.484375 182.578125 95.199219 182.835938 100.039062 C 182.941406 102.015625 181.53125 104.402344 181.789062 105.414062 C 181.890625 105.8125 186.972656 111.0625 187.472656 111.351562 C 188.972656 112.226562 192.773438 110.328125 195.71875 110.796875 C 202.867188 111.9375 205.417969 121.949219 199.859375 126.433594 C 192.15625 132.652344 182.714844 125.417969 185.257812 116.238281 L 177.152344 108.6875 C 167.9375 112.542969 159.59375 100.789062 167.207031 93.777344 Z M 146.101562 119.761719 C 160.457031 104.96875 183.625 124.929688 171.226562 140.757812 C 156.855469 159.097656 130.597656 135.742188 146.101562 119.761719 Z M 146.101562 119.761719 " fill-opacity="1" fill-rule="nonzero"/></g><g clip-path="url(#dd5d2370e6)"><path fill="#100249" d="M 360.640625 120.648438 C 351.417969 98.855469 338.222656 79.28125 321.414062 62.472656 C 304.605469 45.664062 285.03125 32.464844 263.238281 23.246094 C 240.671875 13.707031 216.703125 8.867188 191.996094 8.867188 C 167.289062 8.867188 143.320312 13.707031 120.75 23.253906 C 98.953125 32.472656 79.378906 45.667969 62.570312 62.476562 C 45.761719 79.289062 32.566406 98.859375 23.347656 120.65625 C 13.808594 143.21875 8.964844 167.1875 8.964844 191.894531 C 8.964844 216.605469 13.808594 240.574219 23.351562 263.144531 C 32.570312 284.9375 45.769531 304.511719 62.578125 321.320312 C 76.945312 335.691406 93.34375 347.410156 111.414062 356.273438 C 112.085938 353.566406 112.695312 350.878906 113.257812 348.214844 C 56.175781 319.335938 16.945312 260.113281 16.945312 191.894531 C 16.945312 95.375 95.472656 16.847656 191.996094 16.847656 C 288.515625 16.847656 367.042969 95.375 367.042969 191.894531 C 367.042969 261.484375 326.222656 321.714844 267.269531 349.914062 C 268.929688 352.046875 270.601562 354.21875 272.253906 356.425781 C 290.449219 347.546875 306.957031 335.773438 321.414062 321.316406 C 338.222656 304.503906 351.417969 284.929688 360.640625 263.136719 C 370.183594 240.566406 375.023438 216.597656 375.023438 191.890625 C 375.023438 167.183594 370.183594 143.214844 360.640625 120.644531 Z M 360.640625 120.648438 " fill-opacity="1" fill-rule="nonzero"/></g></svg>