<svg xmlns="http://www.w3.org/2000/svg" xmlns:xlink="http://www.w3.org/1999/xlink" width="512" zoomAndPan="magnify" viewBox="0 0 384 383.999986" height="512" preserveAspectRatio="xMidYMid meet" version="1.0"><defs><clipPath id="e60e60191c"><path d="M 0 6.96875 L 384 6.96875 L 384 376.71875 L 0 376.71875 Z M 0 6.96875 " clip-rule="nonzero"/></clipPath></defs><rect x="-38.4" width="460.8" fill="#ffffff" y="-38.399999" height="460.799983" fill-opacity="1"/><rect x="-38.4" width="460.8" fill="#ffffff" y="-38.399999" height="460.799983" fill-opacity="1"/><path fill="#100249" d="M 103.746094 231.042969 C 107.648438 230.578125 108.621094 233.855469 111.355469 236.0625 C 122.070312 244.71875 136.695312 245.769531 148.175781 237.832031 C 149.976562 236.589844 155.195312 231.082031 156.246094 230.910156 C 159.394531 230.394531 171.820312 236.015625 175.003906 237.917969 C 191.167969 247.597656 192.179688 261.265625 192.601562 278.605469 C 192.703125 282.609375 193.203125 287 189.742188 289.71875 C 184.964844 293.46875 166.78125 296.511719 160.269531 297.382812 C 140.449219 300.035156 89.347656 301.1875 72.4375 290.964844 C 68.824219 288.785156 67.066406 285.988281 66.699219 281.742188 C 66.277344 276.832031 66.824219 268.242188 67.242188 263.164062 C 68.542969 247.300781 78.578125 240.007812 92.382812 234.660156 C 95.164062 233.582031 101.007812 231.367188 103.742188 231.042969 Z M 103.746094 231.042969 " fill-opacity="1" fill-rule="nonzero"/><path fill="#100249" d="M 262.210938 76.179688 C 262.335938 77.074219 261.035156 76.664062 260.417969 76.6875 C 247.414062 77.152344 229.25 77.773438 216.546875 76.710938 C 212.507812 76.371094 207.804688 74.796875 203.585938 74.199219 C 144.625 65.847656 84.304688 103.597656 75.578125 164.207031 C 72.367188 186.5 75.65625 210.238281 87.347656 229.632812 C 83.515625 232.015625 79.375 233.867188 75.761719 236.605469 C 74.84375 237.300781 71.847656 241.09375 70.84375 240.492188 C 43.613281 197.863281 49.105469 142.476562 80.664062 103.785156 C 124.1875 50.417969 204.378906 39.308594 262.210938 76.183594 Z M 262.210938 76.179688 " fill-opacity="1" fill-rule="nonzero"/><path fill="#100249" d="M 231.785156 152.511719 L 231.785156 134.976562 L 213.988281 134.976562 C 213.839844 134.976562 211.796875 133.714844 211.410156 133.429688 C 209.195312 131.765625 208.277344 129.75 208.035156 127 C 207.027344 115.539062 208.785156 102.558594 208.113281 90.929688 C 208.644531 86.722656 212.167969 82.949219 216.546875 82.859375 L 314.082031 83.367188 C 317.332031 84.214844 319.347656 87.191406 319.996094 90.347656 C 319.144531 102.132812 321.097656 115.394531 320.007812 127 C 319.683594 130.492188 317.636719 133.578125 314.21875 134.625 L 250.71875 135.082031 C 247.96875 135.703125 236.863281 149.042969 233.335938 151.746094 C 232.816406 152.140625 232.6875 152.738281 231.785156 152.511719 Z M 227.65625 91.648438 L 220.4375 91.648438 L 220.4375 122.855469 C 220.4375 123.371094 220.726562 124.335938 221.210938 124.660156 L 237.972656 124.660156 C 237.695312 122.453125 239.578125 119.757812 237.714844 117.953125 L 227.65625 117.953125 Z M 250.351562 91.648438 L 243.132812 91.648438 L 243.132812 124.660156 L 250.351562 124.660156 Z M 268.410156 113.828125 L 261.964844 92.160156 L 254.480469 91.652344 L 264.316406 123.847656 C 265.359375 125.351562 270.6875 124.613281 272.554688 124.425781 L 282.328125 91.652344 C 280.429688 91.96875 276.277344 90.84375 275.148438 92.460938 L 269.457031 112.5625 L 268.40625 113.828125 Z M 307.089844 91.648438 L 286.460938 91.648438 L 286.460938 124.660156 L 307.089844 124.660156 C 306.792969 122.519531 307.867188 119.59375 306.316406 117.953125 L 293.679688 117.953125 L 293.679688 110.214844 L 306.058594 110.214844 C 305.871094 109.167969 307.410156 104.027344 305.800781 104.027344 L 293.679688 104.027344 L 293.679688 97.320312 L 305.800781 97.320312 C 305.945312 97.320312 307.003906 96.789062 307.113281 96.449219 Z M 307.089844 91.648438 " fill-opacity="1" fill-rule="nonzero"/><path fill="#100249" d="M 293.773438 145.96875 L 293.773438 257.339844 C 293.773438 260.71875 287.820312 265.175781 284.613281 264.953125 L 196.585938 264.964844 C 196.550781 259.957031 195.191406 255.230469 193.300781 250.703125 L 284.855469 250.703125 L 284.417969 246.492188 L 191.828125 246.519531 L 184.851562 239.636719 C 184.773438 238.023438 185.804688 239.398438 186.023438 239.398438 L 284.386719 239.398438 L 283.917969 151.382812 L 243.539062 151.382812 C 245.015625 149.757812 246.324219 146.34375 248.496094 146.019531 L 293.777344 145.972656 Z M 293.773438 145.96875 " fill-opacity="1" fill-rule="nonzero"/><path fill="#100249" d="M 125.929688 164.519531 C 175.496094 158.566406 170.769531 236.207031 128.890625 232.453125 C 94.59375 229.378906 89.679688 168.867188 125.929688 164.519531 Z M 125.929688 164.519531 " fill-opacity="1" fill-rule="nonzero"/><path fill="#100249" d="M 272.53125 307.769531 C 272.769531 308.769531 272.167969 308.761719 271.667969 309.226562 C 258.378906 321.363281 233.335938 331.140625 215.816406 334.871094 C 174.660156 343.625 127.605469 334.984375 95.101562 307.777344 L 131.464844 307.777344 C 134.199219 307.777344 145.753906 311.851562 149.769531 312.679688 C 173.085938 317.507812 199.640625 317.648438 222.933594 312.589844 C 226.363281 311.84375 237.296875 307.777344 239.269531 307.777344 L 272.539062 307.777344 Z M 272.53125 307.769531 " fill-opacity="1" fill-rule="nonzero"/><path fill="#100249" d="M 311.21875 140.132812 L 317.382812 140.148438 C 327.300781 170.113281 327.972656 204.558594 315.4375 233.84375 L 311.21875 242.261719 Z M 311.21875 140.132812 " fill-opacity="1" fill-rule="nonzero"/><path fill="#100249" d="M 105.925781 145.550781 C 106.835938 140.097656 114.808594 135.371094 120.089844 135.46875 L 206.148438 135.976562 C 210.039062 142.738281 218.542969 139.277344 225.007812 140.199219 L 226.109375 143.738281 L 118.566406 143.738281 C 118.203125 143.738281 115.65625 145.183594 115.253906 145.585938 C 112.019531 148.769531 114.617188 157.5 113.402344 161.785156 L 106.179688 167.460938 C 104.601562 167.59375 105.925781 166.902344 105.925781 166.691406 C 105.925781 160.898438 105.066406 150.722656 105.925781 145.542969 Z M 105.925781 145.550781 " fill-opacity="1" fill-rule="nonzero"/><path fill="#100249" d="M 176.078125 300.550781 C 175.957031 299.800781 176.980469 299.828125 177.519531 299.675781 C 185.953125 297.308594 194.734375 295.8125 199.296875 287.363281 L 257.609375 287.363281 C 263.871094 288.855469 262.316406 300.550781 257.316406 300.550781 Z M 176.078125 300.550781 " fill-opacity="1" fill-rule="nonzero"/><path fill="#100249" d="M 215.285156 182.945312 C 216.207031 183.144531 216.300781 182.671875 216.742188 182.089844 C 218.265625 180.085938 220.519531 172.90625 222.867188 172.222656 C 224.097656 171.859375 233.109375 171.914062 234.511719 172.222656 C 237.40625 172.867188 238.320312 176.511719 236.675781 178.804688 C 234.699219 181.550781 229.648438 179.867188 226.707031 180.449219 L 218.601562 195.289062 C 216.882812 197.578125 214.449219 199.023438 211.921875 196.878906 C 207.609375 189.332031 205.652344 180.230469 202.378906 172.113281 C 201.035156 171.867188 201.582031 172.316406 201.308594 172.847656 C 200.164062 175.0625 199.535156 177.636719 198.464844 179.882812 L 169.605469 179.367188 C 167.667969 178.210938 167.699219 173.46875 169.921875 172.402344 C 172.320312 171.246094 174.082031 172.160156 176.320312 172.140625 C 181.570312 172.09375 186.847656 172.328125 192.082031 171.859375 C 193.058594 171.375 198.210938 157.898438 200.085938 155.621094 C 201.566406 153.832031 203.449219 153.507812 205.242188 155.078125 L 215.289062 182.941406 Z M 215.285156 182.945312 " fill-opacity="1" fill-rule="nonzero"/><path fill="#100249" d="M 196.558594 206.785156 L 283.632812 206.660156 C 288.304688 206.707031 288.640625 213.863281 284.164062 214.433594 L 197.472656 214.417969 C 193.304688 214.5625 192.816406 207.640625 196.558594 206.785156 Z M 196.558594 206.785156 " fill-opacity="1" fill-rule="nonzero"/><path fill="#100249" d="M 198.660156 220.203125 C 200.558594 220.007812 201.589844 220.636719 203.136719 220.621094 C 213.441406 220.523438 223.257812 220.5 233.570312 220.621094 C 240.644531 220.703125 250.746094 219.703125 257.34375 220.574219 C 261.710938 221.152344 261.714844 227.792969 257.34375 228.363281 L 195.382812 227.855469 C 192.695312 224.15625 193.984375 220.679688 198.664062 220.203125 Z M 198.660156 220.203125 " fill-opacity="1" fill-rule="nonzero"/><path fill="#100249" d="M 199.289062 270.632812 L 235.652344 270.632812 C 235.777344 270.632812 236.066406 270.089844 236.421875 270.109375 C 236.53125 270.902344 236.875 271.621094 236.949219 272.433594 C 237.117188 274.339844 237.660156 280.222656 237.5 281.734375 C 237.417969 282.492188 237.40625 283.074219 236.683594 283.527344 L 199.546875 283.527344 C 197.441406 279.746094 199.835938 274.792969 199.289062 270.632812 Z M 199.289062 270.632812 " fill-opacity="1" fill-rule="nonzero"/><path fill="#100249" d="M 286.324219 168.121094 C 289.179688 170.796875 287.394531 175.238281 283.101562 175.722656 C 271.445312 177.039062 257.394531 174.765625 245.480469 175.691406 C 241.113281 174.652344 239.964844 169.359375 244.433594 167.480469 C 257.105469 168.277344 271.136719 166.378906 283.644531 167.445312 C 284.496094 167.515625 285.6875 167.511719 286.324219 168.117188 Z M 286.324219 168.121094 " fill-opacity="1" fill-rule="nonzero"/><path fill="#100249" d="M 244.019531 182.542969 L 277.472656 182.910156 C 279.671875 185.613281 279.394531 189.707031 275.378906 190.175781 C 266.011719 191.269531 254.566406 189.367188 244.96875 190.136719 C 240.703125 189.46875 240.5625 183.304688 244.019531 182.542969 Z M 244.019531 182.542969 " fill-opacity="1" fill-rule="nonzero"/><g clip-path="url(#e60e60191c)"><path fill="#100249" d="M 182.34375 7.144531 L 193.046875 6.96875 C 333.5 11.378906 433.332031 159.636719 358.238281 286.710938 C 296.328125 391.480469 153.222656 405.085938 63.289062 327.566406 C -65.324219 216.703125 16.28125 12.816406 182.34375 7.144531 Z M 178.21875 11.269531 C 34.28125 18.542969 -50.421875 185.828125 43.195312 300.730469 C 126.664062 403.167969 296.1875 396.296875 359.460938 276.074219 C 427.539062 146.710938 317.203125 4.238281 178.21875 11.269531 Z M 178.21875 11.269531 " fill-opacity="1" fill-rule="nonzero"/></g></svg>