<svg xmlns="http://www.w3.org/2000/svg" xmlns:xlink="http://www.w3.org/1999/xlink" width="512" zoomAndPan="magnify" viewBox="0 0 384 383.999986" height="512" preserveAspectRatio="xMidYMid meet" version="1.0"><defs><clipPath id="ea2f55d005"><path d="M 4.496094 9.679688 L 379.496094 9.679688 L 379.496094 374.179688 L 4.496094 374.179688 Z M 4.496094 9.679688 " clip-rule="nonzero"/></clipPath></defs><rect x="-38.4" width="460.8" fill="#ffffff" y="-38.399999" height="460.799983" fill-opacity="1"/><rect x="-38.4" width="460.8" fill="#ffffff" y="-38.399999" height="460.799983" fill-opacity="1"/><g clip-path="url(#ea2f55d005)"><path fill="#100249" d="M 178.640625 9.972656 C 259.257812 5.628906 334.320312 50.066406 365.785156 124.511719 C 397.21875 198.871094 373.070312 287.253906 308.941406 335.375 C 215.621094 405.398438 82.011719 378.316406 26.441406 275.5 C -37.746094 156.738281 46.660156 17.082031 178.640625 9.972656 Z M 189.015625 13.605469 C 43.53125 13.527344 -45.300781 174.894531 43.628906 295.667969 C 120.945312 400.660156 284.707031 393.472656 351.433594 281.359375 C 419.867188 166.359375 337.03125 24.460938 207.539062 13.976562 Z M 189.015625 13.605469 " fill-opacity="1" fill-rule="nonzero"/></g><path fill="#100249" d="M 123.222656 244.875 C 125.464844 217.230469 132.4375 181.414062 160.394531 168.671875 C 163.835938 167.105469 167.523438 166.273438 170.953125 164.703125 C 160.914062 157.988281 155.097656 146.070312 154.328125 134.113281 C 153.15625 115.761719 155.714844 99.605469 172.550781 89.511719 C 198.570312 73.914062 230.644531 91.214844 233.214844 121.128906 C 234.40625 135.070312 233.550781 148.554688 223.863281 159.503906 C 223.128906 160.339844 218 164.351562 218.691406 164.96875 C 227.65625 165.796875 237.535156 169.914062 244.058594 176.179688 C 245.386719 177.457031 249.101562 182.945312 250.078125 183.132812 L 323.371094 183.523438 L 325.542969 186.539062 L 316.234375 245.398438 L 338.808594 245.398438 C 340.082031 245.398438 342.429688 247.796875 342.667969 249.320312 C 343.09375 252.066406 343.078125 266.351562 342.449219 268.765625 C 342.113281 270.050781 340.007812 272.382812 338.800781 272.382812 L 325.570312 272.382812 L 325.570312 302.734375 C 325.570312 304.347656 319.691406 311.21875 318.304688 312.855469 L 318.304688 273.160156 L 317.527344 272.382812 L 58.878906 272.382812 L 58.355469 303.515625 L 51.1875 292.746094 C 51.386719 287.082031 52.300781 279.75 51.640625 274.171875 C 51.554688 273.414062 51.578125 272.835938 50.839844 272.382812 L 38.386719 272.382812 C 38.074219 272.382812 35.636719 270.789062 35.277344 270.300781 C 33.117188 267.335938 34.597656 263.464844 34.515625 260.167969 C 34.34375 252.945312 31.59375 244.074219 42.789062 245.40625 L 42.789062 227.503906 C 42.789062 226.984375 44.605469 225.167969 45.125 225.167969 L 52.648438 225.167969 L 52.648438 210.640625 L 45.125 210.640625 C 44.636719 210.640625 42.195312 208.671875 42.285156 207.769531 L 42.378906 185.058594 C 44.378906 181.425781 48.675781 182.875 52.128906 182.613281 L 52.128906 168.085938 C 49.886719 168.191406 43.117188 168.148438 42.371094 165.652344 C 42.789062 158.667969 41.457031 150.234375 42.261719 143.433594 C 42.578125 140.746094 43.609375 140.277344 46.136719 140.046875 C 64.898438 138.324219 86.28125 141.394531 105.320312 140.0625 C 106.453125 139.8125 108.683594 141.441406 108.683594 142.40625 L 108.683594 161.34375 C 112.632812 162.824219 117.367188 159.40625 119.871094 163.910156 L 120.089844 186.5 C 120.132812 187.207031 117.949219 189.363281 117.761719 189.363281 L 108.683594 189.363281 L 109.203125 203.894531 L 118.28125 203.894531 C 120.367188 203.894531 121.042969 208.261719 121.15625 209.839844 C 121.480469 214.234375 121.675781 223.808594 121.089844 227.976562 C 120.90625 229.28125 119.71875 231.914062 118.28125 231.914062 L 109.203125 231.914062 C 109.890625 235.359375 109.144531 240.449219 109.722656 243.589844 C 109.828125 244.167969 109.984375 244.558594 110.5 244.886719 L 123.210938 244.886719 Z M 187.957031 91.941406 C 147.898438 97.378906 154.925781 172.273438 200.140625 163.792969 C 223.074219 159.492188 228.34375 138.628906 224.789062 118.136719 C 221.691406 100.273438 205.800781 89.515625 187.953125 91.933594 Z M 101.429688 146.804688 L 49.539062 146.804688 L 49.539062 160.816406 L 101.429688 161.335938 Z M 112.84375 168.597656 C 109.617188 169.054688 106.3125 168.179688 103.265625 168.058594 C 93.890625 167.691406 84.558594 168.6875 75.199219 168.625 C 70.808594 168.59375 65.742188 167.519531 61.191406 168.054688 C 60.433594 168.144531 59.855469 168.117188 59.398438 168.859375 L 59.398438 181.832031 L 60.179688 182.609375 L 112.84375 182.609375 Z M 238.933594 183.128906 C 238.527344 181.390625 235.710938 179.214844 234.226562 178.234375 C 221.53125 169.820312 205.621094 172.355469 191.429688 172.257812 C 180.179688 172.179688 172.277344 171.210938 161.789062 176.8125 C 138.304688 189.367188 133.992188 221.058594 131.003906 244.875 L 205.464844 244.875 C 206.253906 244.230469 206.394531 243.308594 206.617188 242.394531 C 210.902344 225.003906 211.789062 205.257812 215.816406 187.773438 C 216.121094 186.433594 217.421875 183.128906 218.957031 183.128906 Z M 101.429688 189.875 L 49.539062 189.875 L 49.539062 203.882812 L 101.429688 203.882812 Z M 317.285156 190.910156 L 223.625 190.910156 L 222.945312 191.789062 L 214.050781 243.136719 C 213.8125 243.6875 214.410156 244.875 214.804688 244.875 L 308.464844 244.875 Z M 113.363281 210.628906 L 60.4375 210.628906 L 60.4375 225.15625 L 113.363281 225.15625 Z M 101.949219 231.902344 L 50.058594 231.902344 L 50.058594 244.875 L 101.949219 244.875 Z M 335.445312 252.660156 L 41.757812 252.140625 L 41.757812 265.113281 L 335.445312 265.113281 Z M 335.445312 252.660156 " fill-opacity="1" fill-rule="nonzero"/><path fill="#100249" d="M 274.621094 68.078125 C 301.632812 65.210938 324.214844 87.296875 318.082031 114.652344 C 311.804688 142.648438 275.648438 152.628906 254.230469 134.363281 C 228.785156 112.667969 241.96875 71.539062 274.621094 68.078125 Z M 278.789062 75.347656 C 264.125 75.839844 250.136719 87.46875 248.800781 102.449219 C 246.367188 129.773438 277.621094 145.804688 299.082031 129.894531 C 323.195312 112.015625 308.800781 74.339844 278.789062 75.347656 Z M 278.789062 75.347656 " fill-opacity="1" fill-rule="nonzero"/><path fill="#100249" d="M 286.671875 337.753906 C 283.441406 341.175781 278.898438 344.675781 273.976562 345.039062 L 107.890625 345.050781 C 103.679688 344.628906 98.222656 340.542969 95.203125 337.761719 L 286.671875 337.761719 Z M 286.671875 337.753906 " fill-opacity="1" fill-rule="nonzero"/><path fill="#100249" d="M 152.804688 51.328125 C 155.246094 50.570312 156.621094 47.601562 159.320312 47.195312 C 161.214844 46.910156 163.101562 47.359375 164.144531 49.066406 L 170.28125 72.949219 C 170.378906 76.90625 164.515625 79 162.429688 75.6875 C 161.0625 73.519531 158.722656 60.71875 157.988281 60.148438 C 154.757812 61.765625 149.28125 69.003906 146.128906 63.449219 C 144.957031 61.378906 143.625 52.316406 143.105469 49.351562 C 142.730469 47.21875 140.746094 36.96875 141.234375 35.910156 C 142.0625 34.109375 148.980469 31.683594 150.261719 33.378906 C 151.542969 35.074219 151.875 50.324219 152.808594 51.328125 Z M 152.804688 51.328125 " fill-opacity="1" fill-rule="nonzero"/><path fill="#100249" d="M 229.078125 51.847656 C 235.421875 53.082031 242.882812 53.460938 236.847656 61.433594 C 234.191406 64.949219 226.027344 74.367188 222.851562 77.015625 C 218.78125 80.421875 213.210938 78.609375 214.773438 73.625 C 215.703125 70.65625 225.410156 62.382812 225.445312 60.417969 C 220.867188 58.535156 213.480469 59.988281 215.984375 52.511719 C 216.695312 50.382812 225.710938 39.523438 227.773438 37.316406 C 230.167969 34.753906 231.007812 33.507812 234.925781 34.332031 C 245.285156 36.507812 231.96875 47.125 229.585938 50.546875 C 229.28125 50.988281 228.867188 51.0625 229.078125 51.851562 Z M 229.078125 51.847656 " fill-opacity="1" fill-rule="nonzero"/><path fill="#100249" d="M 182.632812 56.519531 C 179.363281 55.949219 179.464844 52.210938 179.828125 49.558594 C 180.144531 47.242188 185.992188 33.1875 187.585938 31.894531 C 189.175781 30.601562 194.246094 29.207031 195.742188 30.703125 C 198.402344 33.359375 192.238281 43.207031 192.226562 46.664062 C 196.238281 47.601562 203.191406 45.816406 202.585938 52.054688 C 202.402344 53.933594 194.328125 70.265625 192.855469 72.457031 C 191.382812 74.644531 189.261719 75.515625 186.84375 74.109375 C 181.96875 71.277344 190.117188 60.792969 190.15625 56.527344 C 187.859375 56.25 184.8125 56.910156 182.632812 56.527344 Z M 182.632812 56.519531 " fill-opacity="1" fill-rule="nonzero"/><path fill="#100249" d="M 279.269531 82.039062 C 286.539062 80.566406 284.371094 93.222656 284.574219 97.273438 C 284.699219 99.726562 285.316406 102.296875 285.367188 104.78125 C 287.503906 106.644531 294.085938 108.875 295.023438 111.246094 C 296.085938 113.933594 293.539062 117.011719 290.695312 116.625 C 289.851562 116.507812 279.835938 110.976562 278.902344 110.210938 C 275.554688 107.445312 276.898438 94.605469 276.832031 89.972656 C 276.796875 87.472656 275.125 82.886719 279.269531 82.042969 Z M 279.269531 82.039062 " fill-opacity="1" fill-rule="nonzero"/></svg>