<svg xmlns="http://www.w3.org/2000/svg" xmlns:xlink="http://www.w3.org/1999/xlink" width="512" zoomAndPan="magnify" viewBox="0 0 384 383.999986" height="512" preserveAspectRatio="xMidYMid meet" version="1.0"><defs><clipPath id="36a21651cf"><path d="M 6.804688 37 L 377.304688 37 L 377.304688 379.378906 L 6.804688 379.378906 Z M 6.804688 37 " clip-rule="nonzero"/></clipPath><clipPath id="61af62fbee"><path d="M 188 4.378906 L 196 4.378906 L 196 26 L 188 26 Z M 188 4.378906 " clip-rule="nonzero"/></clipPath></defs><rect x="-38.4" width="460.8" fill="#ffffff" y="-38.399999" height="460.799983" fill-opacity="1"/><rect x="-38.4" width="460.8" fill="#ffffff" y="-38.399999" height="460.799983" fill-opacity="1"/><path fill="#100249" d="M 187.664062 244.074219 C 213.570312 242.074219 239.429688 257.324219 246.675781 282.855469 C 249.464844 292.671875 249.65625 314.101562 248.683594 324.5 C 247.949219 332.339844 243.566406 334.546875 236.703125 336.78125 C 213.5 344.339844 175.800781 343.792969 152.183594 337.996094 C 144.921875 336.210938 136.746094 334.378906 135.996094 325.605469 C 135.027344 314.300781 135.113281 291.183594 138.558594 280.6875 C 145.484375 259.578125 165.886719 245.753906 187.664062 244.078125 Z M 187.664062 244.074219 " fill-opacity="1" fill-rule="nonzero"/><path fill="#100249" d="M 188.746094 154.585938 C 216.703125 152.171875 237.695312 177.929688 229.964844 204.972656 C 221.277344 235.34375 181.289062 242.621094 161.375 218.292969 C 141.355469 193.832031 157.878906 157.25 188.746094 154.585938 Z M 188.746094 154.585938 " fill-opacity="1" fill-rule="nonzero"/><g clip-path="url(#36a21651cf)"><path fill="#100249" d="M 270.316406 38.019531 C 271.363281 37.253906 279.75 41.871094 281.40625 42.730469 C 381.070312 94.691406 409.191406 225.609375 336.015625 312.628906 C 260.042969 402.992188 119.183594 401.761719 45.464844 309.394531 C -23.449219 223.050781 3.363281 99.972656 97.382812 45.425781 C 99.828125 44.003906 109.601562 38.425781 111.621094 38.070312 C 113.882812 37.667969 114.742188 39.136719 113.128906 40.6875 C 60.253906 66.222656 21.378906 116.574219 13.171875 175.246094 C 0.363281 266.839844 63.351562 350.324219 152.089844 369.894531 C 280.328125 398.175781 401.695312 284.601562 366.714844 154.191406 C 353.300781 104.183594 316.609375 62.609375 270.234375 40.390625 L 270.3125 38.019531 Z M 270.316406 38.019531 " fill-opacity="1" fill-rule="nonzero"/></g><path fill="#100249" d="M 305.109375 232.941406 C 268.714844 266.535156 217.855469 210.265625 255.695312 178.402344 C 292.171875 147.691406 339.96875 200.761719 305.109375 232.941406 Z M 274.980469 178.820312 C 267.433594 179.835938 259.324219 185.785156 255.609375 192.335938 C 242.589844 215.316406 265.378906 241.132812 289.804688 231.921875 C 320.875 220.199219 309.09375 174.203125 274.980469 178.820312 Z M 274.980469 178.820312 " fill-opacity="1" fill-rule="nonzero"/><path fill="#100249" d="M 101.949219 169.679688 C 127.125 167.734375 146.445312 190.636719 140.484375 215.226562 C 133.082031 245.753906 91.597656 252.546875 74.121094 226.832031 C 57.988281 203.09375 73.742188 171.859375 101.941406 169.679688 Z M 104.121094 178.269531 C 90.609375 178.597656 77.945312 189.59375 76.726562 203.21875 C 74.1875 231.617188 110.089844 244.75 127.382812 222.605469 C 141.539062 204.476562 126.476562 177.730469 104.121094 178.269531 Z M 104.121094 178.269531 " fill-opacity="1" fill-rule="nonzero"/><path fill="#100249" d="M 173.886719 116.019531 C 173.359375 115.5 172.664062 108.320312 171.992188 106.320312 C 169.605469 99.128906 164.128906 95.816406 160.386719 89.894531 C 142.632812 61.8125 168.28125 28.21875 199.980469 35.207031 C 225.054688 40.730469 237.507812 69.265625 222.507812 90.773438 C 217.972656 97.273438 212.878906 99.320312 210.773438 108.148438 C 209.886719 111.839844 211.050781 116.875 206.304688 117.203125 C 199.042969 117.707031 202.632812 104.355469 204.214844 100.519531 C 208.140625 91.007812 218.105469 87.632812 219.871094 76.28125 C 227.011719 30.453125 155.039062 33.792969 163.671875 76.363281 C 166.625 90.933594 181.25 94.066406 181.246094 111.621094 C 181.246094 115.921875 176.894531 118.996094 173.882812 116.019531 Z M 173.886719 116.019531 " fill-opacity="1" fill-rule="nonzero"/><path fill="#100249" d="M 100.871094 250.542969 C 106.859375 250.078125 113.46875 250.871094 119.308594 252.265625 C 123.367188 253.238281 134.328125 256.007812 129.023438 261.988281 C 126.449219 264.882812 122.445312 262.039062 119.421875 261.320312 C 98.480469 256.335938 72.863281 262.316406 64.609375 284.371094 C 61.5625 292.511719 62.34375 293.078125 68.996094 297.722656 C 83.445312 307.816406 100.71875 314.421875 117.34375 320 C 121.425781 326.433594 116.535156 328.171875 110.566406 326.777344 C 96.886719 323.578125 65.777344 308.769531 56.492188 298.371094 C 52.101562 293.460938 54.324219 286.046875 56.511719 280.582031 C 63.53125 263.023438 82.460938 251.96875 100.871094 250.542969 Z M 100.871094 250.542969 " fill-opacity="1" fill-rule="nonzero"/><path fill="#100249" d="M 275.539062 250.542969 C 297.660156 248.84375 322.980469 262.277344 329.160156 284.472656 C 332.121094 295.105469 329.929688 297.40625 321.648438 303.660156 C 310.222656 312.292969 291.410156 321.347656 277.679688 325.460938 C 275.625 326.074219 271.320312 327.6875 269.441406 327.519531 C 265.75 327.191406 264.425781 321.699219 267.589844 319.675781 C 283.957031 314.242188 301.039062 307.761719 315.175781 297.71875 C 320.25 294.117188 322.371094 294.132812 320.664062 287.582031 C 314.609375 264.386719 288.402344 256.035156 266.929688 260.796875 C 264.175781 261.40625 259.027344 263.792969 256.761719 263.085938 C 254.265625 262.316406 253.042969 259.117188 254.386719 256.875 C 256.371094 253.5625 271.511719 250.847656 275.546875 250.542969 Z M 275.539062 250.542969 " fill-opacity="1" fill-rule="nonzero"/><path fill="#100249" d="M 208.109375 130.546875 C 207.511719 131.144531 205.660156 131.691406 204.765625 131.792969 C 199.675781 132.359375 182.648438 132.507812 177.828125 131.75 C 173.007812 130.988281 172.710938 123.726562 177.238281 123.414062 C 186.28125 122.789062 196.691406 124.871094 205.808594 123.175781 C 209.332031 123.613281 210.433594 128.222656 208.109375 130.550781 Z M 208.109375 130.546875 " fill-opacity="1" fill-rule="nonzero"/><path fill="#100249" d="M 203.222656 60.195312 C 205.449219 59.988281 208.253906 63.230469 206.910156 65.460938 C 203.242188 67.816406 193.746094 81.128906 190.632812 82.070312 C 189.589844 82.390625 188.253906 82.335938 187.246094 81.898438 C 185.984375 79.683594 177.542969 73.585938 177.097656 72.09375 C 176.328125 69.515625 178.046875 66.734375 180.925781 67.1875 C 183.019531 67.515625 188.511719 74.640625 189.125 74.625 C 191.351562 72.464844 201.105469 60.386719 203.222656 60.195312 Z M 203.222656 60.195312 " fill-opacity="1" fill-rule="nonzero"/><path fill="#100249" d="M 182.222656 136.734375 C 183.492188 136.351562 198.78125 136.332031 200.433594 136.644531 C 204.140625 137.34375 204.539062 143.421875 199.875 144.148438 C 197.09375 144.582031 186.613281 144.542969 183.867188 144.050781 C 179.394531 143.25 179.257812 137.625 182.222656 136.734375 Z M 182.222656 136.734375 " fill-opacity="1" fill-rule="nonzero"/><g clip-path="url(#61af62fbee)"><path fill="#100249" d="M 190.308594 4.65625 C 192.285156 4.046875 194.890625 4.726562 195.308594 6.988281 C 195.730469 9.253906 195.660156 20.21875 195.289062 22.574219 C 194.652344 26.632812 188.988281 26.640625 188.351562 22.574219 C 187.953125 20.035156 187.933594 10.050781 188.351562 7.542969 C 188.523438 6.484375 189.230469 4.984375 190.308594 4.65625 Z M 190.308594 4.65625 " fill-opacity="1" fill-rule="nonzero"/></g><path fill="#100249" d="M 127.242188 67.742188 C 128.859375 67.371094 142.304688 67.332031 143.722656 67.742188 C 146.789062 68.625 147.140625 74.023438 141.679688 74.636719 C 139.082031 74.925781 126.96875 75.058594 125.519531 73.554688 C 123.804688 71.773438 124.714844 68.324219 127.242188 67.746094 Z M 127.242188 67.742188 " fill-opacity="1" fill-rule="nonzero"/><path fill="#100249" d="M 258.257812 73.417969 C 257.738281 73.96875 255.746094 74.554688 254.910156 74.648438 C 252.101562 74.960938 243.570312 75.035156 240.914062 74.597656 C 236.671875 73.902344 236.6875 68.34375 240.914062 67.65625 C 243.414062 67.246094 253.421875 67.257812 255.945312 67.65625 C 258.703125 68.089844 260.023438 71.53125 258.261719 73.414062 Z M 258.257812 73.417969 " fill-opacity="1" fill-rule="nonzero"/><path fill="#100249" d="M 156.910156 13.796875 C 158.175781 13.570312 159.070312 13.964844 160.027344 14.785156 C 160.59375 15.273438 168.871094 25.976562 169.160156 26.671875 C 170.777344 30.65625 167.113281 33.644531 163.777344 30.972656 C 162.894531 30.269531 154.984375 20.371094 154.425781 19.308594 C 153.226562 17.039062 154.398438 14.246094 156.910156 13.796875 Z M 156.910156 13.796875 " fill-opacity="1" fill-rule="nonzero"/><path fill="#100249" d="M 224.832031 13.796875 C 228.191406 13.183594 230.117188 16.015625 228.992188 19.082031 C 228.742188 19.765625 220.917969 30.035156 220.148438 30.722656 C 216.625 33.847656 212.914062 30.53125 214.488281 26.675781 C 214.761719 26 222.539062 15.398438 223.128906 14.839844 C 223.636719 14.351562 224.121094 13.933594 224.835938 13.804688 Z M 224.832031 13.796875 " fill-opacity="1" fill-rule="nonzero"/><path fill="#100249" d="M 134.800781 36.992188 C 135.597656 36.824219 136.359375 36.800781 137.121094 37.128906 C 139.46875 39.53125 150.769531 42.757812 151.546875 45.367188 C 152.570312 48.8125 149.777344 50.375 146.65625 49.714844 C 145.703125 49.507812 134.511719 43.960938 133.667969 43.292969 C 131.363281 41.449219 131.902344 37.59375 134.800781 36.996094 Z M 134.800781 36.992188 " fill-opacity="1" fill-rule="nonzero"/><path fill="#100249" d="M 232.648438 49.167969 C 231.171875 47.6875 231.894531 45.097656 233.414062 43.988281 C 234.519531 43.179688 245.605469 37.152344 246.402344 36.996094 C 250.460938 36.203125 252.589844 40.726562 249.75 43.078125 C 248.417969 44.175781 238.953125 49.179688 237.386719 49.578125 C 236.125 49.902344 233.597656 50.125 232.648438 49.167969 Z M 232.648438 49.167969 " fill-opacity="1" fill-rule="nonzero"/><path fill="#100249" d="M 233.996094 91.980469 C 237.722656 91.207031 244.984375 98.011719 248.972656 98.886719 C 252.117188 101.285156 249.777344 106.503906 245.4375 105.128906 C 244.375 104.792969 233.59375 98.589844 232.777344 97.828125 C 230.707031 95.894531 231.160156 92.566406 233.996094 91.980469 Z M 233.996094 91.980469 " fill-opacity="1" fill-rule="nonzero"/><path fill="#100249" d="M 150.992188 92.550781 C 152.382812 93.953125 152.148438 96.789062 150.539062 98.050781 C 149.621094 98.765625 137.976562 105.148438 137.234375 105.273438 C 133.40625 105.921875 131.039062 101.472656 135.300781 98.445312 C 136.40625 97.65625 145.890625 92.378906 146.785156 92.136719 C 147.949219 91.824219 150.101562 91.65625 150.984375 92.550781 Z M 150.992188 92.550781 " fill-opacity="1" fill-rule="nonzero"/></svg>