<svg xmlns="http://www.w3.org/2000/svg" xmlns:xlink="http://www.w3.org/1999/xlink" width="512" zoomAndPan="magnify" viewBox="0 0 384 383.999986" height="512" preserveAspectRatio="xMidYMid meet" version="1.0"><defs><clipPath id="48050949f5"><path d="M 3.457031 11.332031 L 380.707031 11.332031 L 380.707031 372.832031 L 3.457031 372.832031 Z M 3.457031 11.332031 " clip-rule="nonzero"/></clipPath></defs><rect x="-38.4" width="460.8" fill="#ffffff" y="-38.399999" height="460.799983" fill-opacity="1"/><rect x="-38.4" width="460.8" fill="#ffffff" y="-38.399999" height="460.799983" fill-opacity="1"/><g clip-path="url(#48050949f5)"><path fill="#100249" d="M 177.503906 11.632812 C 319.671875 3.816406 431.574219 149.90625 356.300781 280.335938 C 282.996094 407.359375 90.949219 401.90625 23.429688 272.574219 C -37.628906 155.617188 49.660156 18.664062 177.503906 11.632812 Z M 181.058594 15.695312 C 38.019531 22.390625 -46.265625 183.898438 46.066406 299.222656 C 129.144531 402.996094 299.53125 387.617188 358.367188 267.167969 C 419.402344 142.195312 313.273438 9.507812 181.058594 15.695312 Z M 181.058594 15.695312 " fill-opacity="1" fill-rule="nonzero"/></g><path fill="#100249" d="M 71.703125 272.570312 C 64.488281 271.808594 57.914062 265.972656 57.230469 258.597656 L 57.210938 110.769531 C 57.824219 103.636719 62.878906 100.207031 69.65625 99.847656 C 105.214844 101.675781 143.105469 97.480469 178.394531 99.847656 C 179.808594 99.945312 181.183594 100.390625 182.601562 100.460938 C 183.738281 102.738281 183.449219 105.515625 180.417969 105.457031 L 68.636719 105.4375 C 63.203125 105.625 62.574219 109.820312 62.285156 114.320312 C 61.972656 119.160156 62.289062 124.300781 62.285156 129.054688 C 62.253906 153.824219 62.238281 178.90625 62.285156 203.722656 C 62.300781 211.941406 61.375 223.441406 62.285156 231.199219 C 62.371094 231.941406 62.34375 232.503906 63.070312 232.949219 L 204.535156 232.949219 C 205.386719 227.121094 208.894531 222.253906 213.679688 218.984375 C 210.6875 217.332031 208.945312 214.421875 207.480469 211.46875 C 207.121094 210.742188 207.207031 209.621094 206.816406 209.085938 C 206.214844 208.265625 203.464844 208.101562 203.019531 205.769531 C 202.757812 204.378906 202.808594 198.125 203.117188 196.746094 C 203.617188 194.515625 205.789062 194.21875 206.3125 193.335938 C 206.804688 192.503906 206.480469 190.90625 206.796875 189.753906 C 209.167969 181.023438 216.847656 176.828125 225.609375 177.601562 C 229.261719 177.921875 232.628906 179.867188 236.539062 179.117188 L 236.453125 176.148438 C 225.050781 172.375 229.429688 156.902344 241.246094 158.921875 C 247.96875 160.070312 250.28125 169.289062 245.425781 174.035156 C 243.34375 176.066406 240.699219 175.183594 241.621094 179.117188 L 256.605469 179.117188 C 260.933594 179.117188 267.652344 184.304688 269.304688 188.261719 C 269.878906 189.636719 270.222656 193.144531 270.699219 193.722656 C 271.355469 194.515625 273.464844 194.25 274.023438 196.75 C 274.398438 198.425781 274.347656 204.917969 273.742188 206.414062 C 272.964844 208.355469 271.199219 208.199219 270.328125 209.097656 C 269.625 209.824219 268.53125 213.460938 267.230469 215.140625 C 266.039062 216.6875 264.519531 217.851562 262.964844 218.996094 C 267.210938 222.726562 270.511719 227.140625 271.082031 232.964844 L 282.511719 232.964844 L 283.273438 232.203125 L 283.273438 146.359375 C 284.421875 145.175781 285.972656 145.046875 287.457031 145.59375 L 288.351562 147.878906 L 288.351562 258.613281 C 288.3125 264.820312 280.371094 272.585938 274.382812 272.585938 L 201.492188 272.585938 L 206.128906 289.28125 L 229.0625 289.457031 C 232.664062 290.289062 231.757812 295.207031 228.183594 294.960938 L 116.007812 294.824219 C 112.9375 294.109375 112.9375 290.167969 116.007812 289.457031 L 138.945312 289.273438 L 144.09375 272.582031 L 71.710938 272.582031 Z M 238.894531 164.015625 C 233.722656 164.296875 234.230469 171.921875 239.808594 170.988281 C 243.765625 170.320312 243.566406 163.761719 238.894531 164.015625 Z M 221.683594 182.792969 C 210.613281 184.140625 210.957031 196.246094 211.621094 204.78125 C 212.066406 210.496094 214.824219 214.300781 220.515625 215.695312 C 231.84375 214.914062 244.429688 216.691406 255.597656 215.707031 C 259.140625 215.390625 262.878906 212.921875 264.207031 209.585938 C 265.339844 206.75 265.355469 196.425781 264.976562 193.078125 C 264.707031 190.730469 263.28125 188.410156 261.382812 187.015625 C 255.460938 182.660156 239.949219 185.472656 232.21875 184.691406 C 228.585938 184.324219 225.636719 182.308594 221.683594 182.792969 Z M 210.625 232.949219 L 264.722656 232.949219 C 265.808594 232.328125 264.972656 230.539062 264.570312 229.542969 C 263.382812 226.597656 260.832031 224.082031 257.773438 223.136719 C 252.382812 221.464844 228.53125 221.707031 222.039062 222.265625 C 216.238281 222.765625 210.710938 226.820312 210.628906 232.949219 Z M 283.261719 238.03125 L 63.066406 238.03125 L 62.304688 238.792969 L 62.304688 246.917969 L 63.066406 247.679688 L 282.5 247.679688 L 283.261719 246.917969 Z M 62.300781 253.269531 C 61.804688 260.605469 64.898438 266.332031 72.695312 267.003906 L 273.863281 266.988281 C 280.507812 266.242188 284.257812 259.496094 283.039062 253.238281 L 281.507812 252.742188 L 191.558594 252.742188 C 151.082031 254.660156 108.003906 250.292969 67.613281 252.742188 C 65.820312 252.847656 64.113281 253.410156 62.300781 253.273438 Z M 144.59375 289.332031 L 200.464844 289.332031 L 195.585938 272.539062 L 149.183594 272.597656 L 144.59375 289.339844 Z M 144.59375 289.332031 " fill-opacity="1" fill-rule="nonzero"/><path fill="#100249" d="M 208.59375 140.503906 L 200.210938 140.503906 C 195.707031 140.503906 188.671875 133.75 188.320312 129.03125 L 188.523438 64.816406 C 193.074219 53.027344 202.050781 54.84375 212.421875 54.679688 C 236.882812 54.304688 261.984375 53.84375 286.539062 54.136719 C 295.617188 54.246094 300.921875 60.472656 301.570312 69.117188 C 302.941406 87.472656 300.488281 107.507812 301.570312 126.042969 C 300.984375 133.488281 297.046875 138.933594 289.570312 140.457031 L 234.859375 140.605469 C 227.667969 146.375 221.238281 153.125 214.191406 159.050781 C 212.25 160.679688 208.1875 164.734375 207.558594 160.082031 C 206.71875 153.867188 209.269531 146.824219 208.597656 140.5 Z M 201.226562 134.410156 C 204.417969 134.9375 210.367188 134.410156 213.925781 134.410156 C 216.492188 134.410156 214.304688 145.015625 214.1875 146.859375 C 214.113281 148.015625 213.988281 149.601562 214.433594 150.664062 C 220.84375 145.511719 226.367188 138.773438 233.347656 134.527344 L 287.578125 134.410156 C 292.632812 133.804688 295.054688 129.800781 295.46875 125.027344 C 297.011719 107.070312 294.324219 86.875 295.390625 68.6875 C 294.539062 62.71875 290.722656 60.632812 285.054688 60.226562 C 258.609375 58.324219 229.917969 61.714844 203.234375 60.226562 C 198.90625 60.511719 194.75 63.601562 194.367188 68.121094 C 195.890625 86.625 192.335938 108.425781 194.367188 126.539062 C 194.738281 129.835938 197.945312 133.871094 201.222656 134.414062 Z M 201.226562 134.410156 " fill-opacity="1" fill-rule="nonzero"/><path fill="#100249" d="M 117.671875 175.300781 C 117.910156 173.890625 120.199219 173.140625 121.46875 172.996094 C 125.691406 172.53125 136.597656 172.515625 140.792969 172.996094 C 143.042969 173.257812 144.433594 174.511719 144.601562 176.808594 L 144.585938 208.0625 C 149.886719 206.921875 152.238281 213.105469 145.882812 213.667969 C 137.667969 214.402344 129.105469 213.058594 120.96875 213.089844 C 107.863281 213.136719 91.113281 215.085938 78.300781 213.644531 C 72.515625 212.992188 74.449219 208.054688 76.269531 208.054688 L 83.886719 208.054688 C 85.800781 205.863281 84.101562 201.996094 84.121094 199.648438 C 84.132812 198.429688 84.648438 197.347656 84.667969 196.140625 C 84.714844 193.59375 84.152344 185.878906 84.90625 184.1875 C 85.425781 183.035156 87.210938 182.28125 88.445312 182.136719 C 92.308594 181.683594 102.347656 181.710938 106.230469 182.144531 C 107.796875 182.324219 111.058594 183.734375 111.058594 185.449219 L 111.058594 208.050781 L 117.660156 208.050781 L 117.660156 175.289062 Z M 139.003906 208.0625 L 139.003906 178.855469 L 138.242188 178.09375 L 123.511719 178.09375 L 122.75 178.855469 L 122.75 208.0625 Z M 105.480469 187.742188 C 100.335938 186.875 95.019531 188.242188 89.734375 187.742188 L 89.734375 208.0625 L 105.480469 208.0625 Z M 105.480469 187.742188 " fill-opacity="1" fill-rule="nonzero"/><path fill="#100249" d="M 171.332031 124.433594 C 177.3125 130.578125 172.027344 140.660156 163.648438 140.011719 C 162.152344 139.894531 160.5 138.695312 159.179688 139.050781 C 158.765625 139.164062 153.585938 144.003906 152.710938 144.8125 C 149.1875 148.0625 146.195312 151.886719 142.28125 154.726562 C 141.542969 156.21875 143.054688 158.382812 143.0625 160.054688 C 143.105469 167.886719 133 171.855469 127.210938 166.40625 C 124.355469 163.71875 125.011719 161.230469 124.476562 157.71875 C 122.628906 156.632812 121.394531 158.222656 119.726562 158.5625 C 116.660156 159.191406 114.339844 158.597656 111.421875 157.855469 L 84.324219 179.539062 C 81.582031 181.339844 77.996094 178.949219 80.363281 176.085938 L 108.066406 153.472656 C 108.175781 149.996094 107.304688 147.875 109.539062 144.820312 C 113.402344 139.542969 121.339844 139.519531 124.875 145.226562 C 126.761719 148.28125 125.65625 149.648438 126.378906 151.847656 C 127.230469 154.441406 130.015625 151.464844 131.664062 151.203125 C 136.285156 150.460938 136.347656 152.933594 140.527344 149.398438 C 145.59375 145.117188 150.320312 139.238281 155.507812 134.902344 C 156.222656 133.488281 155.21875 132.125 155.234375 130.621094 C 155.335938 122.578125 165.886719 118.839844 171.324219 124.429688 Z M 167.289062 127.96875 C 163.695312 124.675781 158.179688 129.734375 161.566406 133.433594 C 165.328125 137.539062 171.230469 131.578125 167.289062 127.96875 Z M 120.046875 147.265625 C 115.480469 142.277344 109.242188 152.121094 116.003906 153.609375 C 120.054688 154.503906 122.675781 150.136719 120.046875 147.265625 Z M 136.820312 157.414062 C 134.277344 154.257812 128.175781 157.566406 130.125 161.832031 C 132.390625 166.800781 140.375 161.824219 136.820312 157.414062 Z M 136.820312 157.414062 " fill-opacity="1" fill-rule="nonzero"/><path fill="#100249" d="M 172.945312 173.128906 C 203.824219 172.601562 205.570312 219.484375 174.835938 221.285156 C 141.972656 223.207031 139.832031 173.699219 172.945312 173.128906 Z M 186.757812 209.585938 C 194.542969 201.769531 193.183594 189.730469 184.726562 182.914062 C 169.347656 170.519531 147.460938 187.449219 156.03125 205.003906 C 156.449219 205.855469 157.589844 207.851562 158.292969 208.332031 C 159.5625 209.195312 159.242188 207.839844 159.839844 207.335938 C 162.933594 204.738281 165.265625 209.855469 161.359375 210.613281 C 160.464844 211.886719 166.027344 214.503906 167.046875 214.816406 C 173.414062 216.789062 181.101562 215.394531 185.742188 210.605469 C 180.996094 210.972656 182.183594 205.035156 186.257812 207.285156 L 186.761719 209.585938 Z M 186.757812 209.585938 " fill-opacity="1" fill-rule="nonzero"/><path fill="#100249" d="M 173.039062 154.21875 L 156.273438 154.21875 L 156.273438 175.300781 L 151.195312 179.109375 L 151.195312 150.917969 C 151.195312 150.128906 153.636719 149.230469 154.488281 149.128906 C 158.488281 148.65625 170.917969 148.589844 174.839844 149.113281 C 175.621094 149.222656 178.117188 150.71875 178.117188 151.425781 L 178.117188 169.203125 C 178.117188 170.839844 173.863281 170.472656 173.039062 169.203125 Z M 173.039062 154.21875 " fill-opacity="1" fill-rule="nonzero"/><path fill="#100249" d="M 249.609375 191.40625 C 259.171875 189.820312 259.679688 204.09375 250.925781 204.328125 C 242.808594 204.546875 241.625 192.726562 249.609375 191.40625 Z M 249.609375 191.40625 " fill-opacity="1" fill-rule="nonzero"/><path fill="#100249" d="M 225.21875 191.417969 C 235.007812 189.71875 235.859375 205.289062 225.085938 204.007812 C 218.476562 203.226562 217.925781 192.679688 225.21875 191.417969 Z M 225.21875 191.417969 " fill-opacity="1" fill-rule="nonzero"/><path fill="#100249" d="M 239.984375 64.972656 C 257.535156 63.3125 274.480469 73.007812 278.359375 90.800781 C 285.335938 122.792969 245.382812 142.839844 221.289062 122.476562 C 198.683594 103.375 211.117188 67.699219 239.984375 64.972656 Z M 242.523438 70.558594 C 220.351562 71.957031 207.257812 96.867188 222.050781 114.605469 C 236.941406 132.464844 268.085938 125.675781 272.457031 102.519531 C 275.820312 84.707031 260.054688 69.453125 242.523438 70.554688 Z M 242.523438 70.558594 " fill-opacity="1" fill-rule="nonzero"/><path fill="#100249" d="M 178.996094 188.339844 C 179.878906 188.148438 180.710938 188.105469 181.464844 188.707031 C 183.761719 190.546875 179.859375 194.269531 178.375 195.875 C 176.382812 198.023438 174.261719 201.058594 171.011719 199.664062 C 170.609375 199.492188 165.277344 194.3125 165.128906 193.859375 C 164.59375 192.207031 165.011719 190.429688 166.878906 190.019531 C 168.636719 189.632812 171.367188 192.796875 172.777344 193.8125 C 173.300781 193.8125 177.039062 188.75 178.992188 188.339844 Z M 178.996094 188.339844 " fill-opacity="1" fill-rule="nonzero"/><path fill="#100249" d="M 172.875 210.175781 C 175.039062 210 176.292969 214.917969 173.261719 215.191406 C 170.34375 215.457031 170.054688 210.398438 172.875 210.175781 Z M 172.875 210.175781 " fill-opacity="1" fill-rule="nonzero"/><path fill="#100249" d="M 174.484375 179.691406 C 175.414062 180.28125 175.394531 184.359375 172.871094 184.054688 C 169.15625 183.609375 171.183594 177.605469 174.484375 179.691406 Z M 174.484375 179.691406 " fill-opacity="1" fill-rule="nonzero"/><path fill="#100249" d="M 186.878906 195.996094 C 188.332031 194.582031 191.835938 195.90625 190.570312 198.410156 C 189.144531 201.238281 184.675781 198.144531 186.878906 195.996094 Z M 186.878906 195.996094 " fill-opacity="1" fill-rule="nonzero"/><path fill="#100249" d="M 184.066406 184.765625 C 185.960938 184.234375 187.574219 185.960938 186.019531 187.773438 C 183.410156 190.828125 181.128906 185.589844 184.066406 184.765625 Z M 184.066406 184.765625 " fill-opacity="1" fill-rule="nonzero"/><path fill="#100249" d="M 162.808594 188.1875 C 160.75 189.496094 157.203125 185.554688 160.195312 184.765625 C 162.53125 184.152344 164.132812 187.34375 162.808594 188.1875 Z M 162.808594 188.1875 " fill-opacity="1" fill-rule="nonzero"/><path fill="#100249" d="M 244.011719 75.566406 C 245.339844 75.363281 246.933594 76.457031 247.1875 77.78125 C 248.21875 83.171875 246.257812 91.164062 247.425781 96.847656 L 259.933594 108.210938 C 261.5 111.226562 259.835938 113.929688 256.359375 112.804688 L 241.710938 100.015625 C 242.230469 93.417969 240.640625 84.636719 241.640625 78.3125 C 241.839844 77.046875 242.640625 75.777344 244.007812 75.566406 Z M 244.011719 75.566406 " fill-opacity="1" fill-rule="nonzero"/></svg>