<svg xmlns="http://www.w3.org/2000/svg" xmlns:xlink="http://www.w3.org/1999/xlink" width="512" zoomAndPan="magnify" viewBox="0 0 384 383.999986" height="512" preserveAspectRatio="xMidYMid meet" version="1.0"><defs><clipPath id="62b76a54f9"><path d="M 3 9.863281 L 381 9.863281 L 381 374.363281 L 3 374.363281 Z M 3 9.863281 " clip-rule="nonzero"/></clipPath></defs><rect x="-38.4" width="460.8" fill="#ffffff" y="-38.399999" height="460.799983" fill-opacity="1"/><rect x="-38.4" width="460.8" fill="#ffffff" y="-38.399999" height="460.799983" fill-opacity="1"/><g clip-path="url(#62b76a54f9)"><path fill="#100249" d="M 181.0625 10.136719 C 310.144531 3.992188 415.210938 130.375 370.550781 255.585938 C 323.710938 386.914062 146.042969 413.390625 53.40625 313.273438 C -56.152344 194.855469 24.902344 17.574219 181.0625 10.136719 Z M 177.894531 15.945312 C 59.078125 22.441406 -26.949219 143.390625 22.707031 256.335938 C 57.539062 335.574219 141.960938 380.71875 227.730469 365.621094 C 346.855469 344.65625 411.214844 221.878906 353.53125 112.90625 C 319.621094 48.832031 250.1875 11.988281 177.894531 15.945312 Z M 177.894531 15.945312 " fill-opacity="1" fill-rule="nonzero"/></g><path fill="#100249" d="M 81.394531 241.457031 C 81.957031 244.820312 86.179688 249.070312 89.609375 249.609375 C 115.640625 249.457031 141.738281 249.742188 167.707031 250.0625 C 171.179688 250.105469 175.085938 249.351562 178.8125 249.621094 C 180.484375 249.742188 182.164062 250.207031 183.835938 250.402344 C 185.464844 253.707031 183.558594 256.972656 179.847656 257.03125 L 92.195312 257.050781 C 83.183594 256.339844 75.476562 250.871094 74.511719 241.480469 L 74.511719 97.855469 C 75.167969 90.296875 81.285156 83.144531 89.042969 82.300781 C 98.273438 81.296875 109.125 83.117188 118.539062 82.230469 C 119.984375 81.757812 119.246094 76.730469 119.636719 74.882812 C 120.523438 70.695312 125.480469 66.332031 129.671875 65.914062 C 140.582031 64.820312 144.5625 72.613281 144.769531 82.277344 L 191.203125 82.308594 C 191.097656 76.570312 192.148438 70.265625 197.59375 67.324219 C 205.453125 63.078125 215.078125 67.398438 216.398438 76.371094 C 216.6875 78.339844 216.09375 80.441406 217.03125 82.074219 C 218.445312 83.054688 242 81.734375 246.65625 82.539062 C 266.960938 86.039062 258.683594 119.082031 260.324219 133.214844 C 259.90625 135.800781 254.839844 140.457031 252.964844 142.484375 L 252.964844 119.257812 L 81.394531 119.257812 L 81.394531 241.464844 Z M 137.878906 82.300781 C 139.722656 68.246094 123.816406 68.226562 125.738281 82.300781 Z M 210.199219 82.300781 C 211.828125 68.289062 196.117188 68.457031 197.53125 82.300781 Z M 81.394531 97.34375 C 80.703125 101.761719 81.90625 107.78125 81.394531 112.390625 L 252.960938 112.390625 L 252.960938 96.816406 C 252.960938 94.875 247.269531 89.164062 245.304688 89.164062 L 197.53125 89.164062 C 198.207031 93.074219 198.359375 95.917969 202.003906 98.152344 C 204.121094 99.449219 208.980469 100.257812 206.449219 104.152344 C 204.726562 106.800781 201.171875 104.804688 199.105469 103.691406 C 193.507812 100.6875 191.613281 95.25 191.195312 89.164062 L 125.738281 89.164062 C 125.449219 92.785156 126.894531 96.378906 129.984375 98.378906 C 131.5625 99.398438 133.808594 99.246094 134.480469 101.277344 C 135.566406 104.5625 132.964844 105.875 130.0625 105.179688 C 123.621094 103.625 118.320312 95.835938 119.402344 89.164062 L 88.636719 89.285156 C 85.1875 90.386719 81.960938 93.722656 81.390625 97.34375 Z M 81.394531 97.34375 " fill-opacity="1" fill-rule="nonzero"/><path fill="#100249" d="M 250.394531 202.0625 C 266.105469 206.90625 276.683594 220.082031 280.152344 235.914062 C 284.585938 256.164062 283.765625 279.882812 300.738281 295.566406 C 302.207031 296.921875 305.910156 298.664062 306.746094 300.117188 C 308.714844 303.542969 305.960938 307.097656 302.316406 307.183594 L 266.160156 307.183594 C 262.355469 338.347656 215.574219 338.347656 211.207031 307.238281 L 174.546875 307.210938 C 170.761719 307.332031 168.34375 303.855469 169.839844 300.332031 C 170.355469 299.113281 174.367188 296.777344 175.644531 295.585938 C 191.03125 281.214844 192.601562 259.824219 194.964844 240.476562 C 197.082031 223.175781 206.519531 207.699219 223.867188 202.605469 C 222.464844 180.011719 251.082031 179.585938 250.394531 202.0625 Z M 230.789062 200.546875 L 243.457031 200.546875 C 244.105469 188.945312 229.710938 188.773438 230.789062 200.546875 Z M 294.136719 299.785156 C 284.574219 288.953125 278.753906 275.378906 275.902344 261.273438 C 273.46875 249.222656 274.058594 236.523438 267.832031 225.53125 C 257.324219 207.007812 232.050781 201.777344 215.472656 215.585938 C 200.976562 227.660156 203.660156 247.296875 200.007812 263.992188 C 197.15625 277.027344 191.457031 289.703125 182.75 299.785156 Z M 258.238281 307.179688 L 219.175781 307.179688 C 223.625 327.996094 253.960938 327.65625 258.238281 307.179688 Z M 258.238281 307.179688 " fill-opacity="1" fill-rule="nonzero"/><path fill="#100249" d="M 293.5 124.6875 C 329.140625 122.683594 354.46875 161.558594 335.003906 192.585938 C 315.117188 224.285156 263.703125 218.714844 253.230469 182.070312 C 245.183594 153.921875 264.167969 126.339844 293.5 124.6875 Z M 294.023438 132.078125 C 266.976562 133.457031 250.082031 162.859375 263.242188 186.832031 C 276.863281 211.644531 313.042969 212.824219 328.347656 189.097656 C 345.003906 163.265625 323.707031 130.570312 294.023438 132.078125 Z M 294.023438 132.078125 " fill-opacity="1" fill-rule="nonzero"/><path fill="#100249" d="M 94.449219 208.585938 C 97.761719 207.910156 111.769531 208.046875 115.445312 208.464844 C 119.5625 208.933594 120.675781 211.179688 121.007812 215.042969 C 121.394531 219.578125 121.496094 229.109375 120.988281 233.535156 C 120.660156 236.402344 118.992188 238.734375 115.984375 239.085938 C 111.753906 239.589844 98.429688 239.664062 94.300781 239.097656 C 91.964844 238.777344 90.105469 236.988281 89.824219 234.601562 C 89.351562 230.53125 89.257812 216.851562 89.867188 212.976562 C 90.191406 210.925781 92.507812 208.976562 94.445312 208.582031 Z M 114.125 215.328125 L 96.703125 215.328125 L 96.703125 232.746094 C 98.730469 231.519531 100.636719 232.835938 102.773438 232.796875 C 106.371094 232.722656 110.339844 231.699219 114.125 232.21875 Z M 114.125 215.328125 " fill-opacity="1" fill-rule="nonzero"/><path fill="#100249" d="M 170.457031 168.984375 C 177.882812 169.433594 186.875 168.007812 194.117188 168.863281 C 197.03125 169.207031 198.269531 171.0625 198.59375 173.886719 C 198.988281 177.371094 199.097656 192.363281 198.34375 195.285156 C 197.558594 198.328125 194.832031 199.199219 191.988281 199.484375 C 188.386719 199.84375 173.253906 199.933594 170.492188 198.824219 C 168.878906 198.175781 167.640625 196.222656 167.4375 194.492188 C 166.914062 190.066406 166.941406 178.339844 167.445312 173.894531 C 167.695312 171.714844 168.507812 170.09375 170.460938 168.988281 Z M 191.722656 175.207031 L 174.304688 175.207031 L 174.304688 192.628906 L 191.722656 192.628906 Z M 191.722656 175.207031 " fill-opacity="1" fill-rule="nonzero"/><path fill="#100249" d="M 170.988281 127.8125 C 174.015625 127.136719 190.078125 127.277344 193.589844 127.6875 C 196.121094 127.988281 198.296875 130.121094 198.601562 132.703125 C 199.003906 136.105469 199.082031 151.800781 198.339844 154.636719 C 197.730469 156.949219 195.847656 158.113281 193.609375 158.351562 C 188.828125 158.855469 176.660156 158.878906 171.917969 158.332031 C 169.164062 158.007812 167.746094 155.945312 167.429688 153.316406 C 166.917969 149.054688 166.917969 136.960938 167.429688 132.703125 C 167.667969 130.742188 168.898438 128.277344 170.988281 127.8125 Z M 191.722656 134.03125 L 174.566406 134.03125 C 173.371094 134.765625 174.304688 135.167969 174.304688 135.351562 L 174.304688 151.980469 L 191.722656 151.980469 Z M 191.722656 134.03125 " fill-opacity="1" fill-rule="nonzero"/><path fill="#100249" d="M 132.992188 208.589844 C 136.917969 207.9375 149.339844 208 153.453125 208.464844 C 156.296875 208.78125 158.640625 209.820312 159.007812 212.941406 C 159.539062 217.523438 159.542969 230.039062 159.007812 234.605469 C 158.710938 237.085938 157.058594 238.796875 154.519531 239.09375 C 151.03125 239.5 134.964844 239.585938 132.058594 238.828125 C 129.824219 238.25 128.625 236.296875 128.363281 234.078125 C 127.925781 230.421875 127.792969 215.796875 128.398438 212.449219 C 128.792969 210.277344 130.949219 208.929688 132.984375 208.589844 Z M 152.660156 215.328125 L 135.242188 215.328125 L 135.242188 232.21875 C 135.757812 232.050781 136.386719 232.746094 136.558594 232.746094 L 151.867188 232.746094 L 152.660156 231.957031 Z M 152.660156 215.328125 " fill-opacity="1" fill-rule="nonzero"/><path fill="#100249" d="M 131.921875 168.988281 C 134.738281 168.355469 151.828125 168.417969 155.0625 168.851562 C 157.195312 169.136719 158.757812 171.234375 159.007812 173.355469 C 159.542969 177.941406 159.519531 189.878906 159.027344 194.519531 C 158.636719 198.230469 156.386719 199.148438 152.914062 199.492188 C 149.140625 199.867188 134.484375 199.957031 131.539062 198.703125 C 129.359375 197.773438 128.632812 196.25 128.371094 193.953125 C 127.867188 189.472656 127.839844 177.8125 128.363281 173.355469 C 128.589844 171.4375 129.957031 169.433594 131.914062 168.988281 Z M 152.660156 175.207031 L 135.242188 175.207031 L 135.242188 192.628906 L 152.660156 192.628906 Z M 152.660156 175.207031 " fill-opacity="1" fill-rule="nonzero"/><path fill="#100249" d="M 209.328125 157.082031 C 208.523438 156.25 207.804688 154.371094 207.746094 153.226562 C 207.402344 146.460938 208.734375 138.578125 208.0625 131.636719 C 208.394531 129.097656 210.769531 127.894531 213.082031 127.683594 C 217.867188 127.238281 229.039062 127.136719 233.707031 127.691406 C 236.660156 128.042969 238.46875 130.351562 238.734375 133.226562 C 239.164062 137.886719 239.261719 148.777344 238.722656 153.320312 C 238.367188 156.300781 236.652344 158.050781 233.730469 158.359375 C 229.074219 158.847656 216.609375 158.90625 212.03125 158.347656 C 211.054688 158.226562 210.011719 157.777344 209.335938 157.085938 Z M 231.84375 134.03125 L 214.421875 134.03125 L 214.421875 151.980469 L 231.84375 151.980469 Z M 231.84375 134.03125 " fill-opacity="1" fill-rule="nonzero"/><path fill="#100249" d="M 112.726562 161.296875 C 111.105469 159.714844 102.140625 150.480469 101.726562 149.308594 C 100.664062 146.316406 104.296875 143.195312 107.03125 145.09375 L 122.238281 159.863281 L 152.6875 130.101562 C 156.085938 128.929688 158.457031 130.617188 157.917969 134.261719 C 157.558594 136.691406 155.882812 136.839844 154.496094 138.238281 C 144.457031 148.429688 134.246094 158.457031 124.148438 168.59375 C 123.019531 169.078125 121.601562 169.078125 120.46875 168.59375 C 119.980469 168.382812 113.765625 162.3125 112.726562 161.292969 Z M 112.726562 161.296875 " fill-opacity="1" fill-rule="nonzero"/><path fill="#100249" d="M 294.847656 173.441406 C 294.191406 172.667969 293.648438 171.796875 293.582031 170.742188 C 294.394531 161.703125 292.574219 151.027344 293.589844 142.203125 C 293.726562 141.023438 294.011719 140.125 294.882812 139.273438 C 296.886719 137.855469 300.273438 139.148438 300.433594 141.71875 L 300.554688 168.519531 C 304.375 172.621094 309.402344 175.582031 313.414062 179.414062 C 317.878906 183.679688 318.519531 188.21875 311.042969 187.585938 C 306.535156 182.777344 298.949219 178.273438 294.847656 173.433594 Z M 294.847656 173.441406 " fill-opacity="1" fill-rule="nonzero"/></svg>