<svg id="Layer_1" data-name="Layer 1" xmlns="http://www.w3.org/2000/svg" viewBox="0 0 1283.40373 254.60988"><path d="M782.87044,243.73652h-53.7312l-53.6859-77.94862v77.94862H631.77115V103.18438h74.418A20.53552,20.53552,0,0,0,726.74,82.63353V79.827a20.56474,20.56474,0,0,0-20.55085-20.55112h-74.418V13.82853h66.17947a67.76213,67.76213,0,0,1,16.43172,133.53591Z" fill="#fa4238"/><polygon points="466.444 13.842 419.326 13.842 476.204 146.223 476.189 243.718 518.124 243.718 518.124 146.223 518.124 134.988 466.444 13.842" fill="#fa4238"/><polygon points="582.112 13.842 534.67 13.842 515.559 59.295 538.994 114.333 582.112 13.842" fill="#fa4238"/><path d="M1264.27431,127.40517c-8.53125-8.52127-21.89072-16.71531-40.80714-24.98378l-14.74247-6.49881c-12.17466-5.428-18.0042-9.1409-20.7059-11.26758-6.95477-5.57177-7.74293-10.50408-7.74293-13.73117,0-7.00439,2.2704-12.34318,7.22737-16.78974a21.18948,21.18948,0,0,1,2.12668-1.29888V4.419a71.95331,71.95331,0,0,0-33.06406,15.98674c-15.08935,12.725-22.74817,29.43048-22.74817,49.61084,0,17.47881,5.96343,32.2709,17.66216,43.96978,7.92159,7.92144,20.09625,15.42655,37.49579,23.01578l13.48821,5.60157c15.13913,6.61772,22.22278,11.40147,25.53413,14.29136,6.12712,5.29432,8.96255,11.72369,8.96255,20.2746a29.85963,29.85963,0,0,1-10.09775,23.1598c-13.60727,12.43728-34.62541,13.11652-47.40987.78817a37.9652,37.9652,0,0,1-11.40132-23.16964l-1.65076-12.32835-45.883,12.85375,1.99765,9.84495c4.00043,19.93256,13.35947,36.11264,27.74507,48.10879,14.44491,12.05575,32.023,18.18271,52.28758,18.18271,22.53517,0,41.8431-7.69346,57.37872-22.882,15.56528-15.258,23.47689-34.3628,23.47689-56.80357,0-19.0453-6.474-35.08167-19.12942-47.51909" fill="#fa4238"/><path d="M1235.43034,65.96474l5.651,9.85978,37.808-24.25522-4.744-8.8335c-11.3172-20.95868-27.71043-33.65888-48.80285-38.22434V53.96859a42.12992,42.12992,0,0,1,10.08776,11.99615" fill="#fa4238"/><polygon points="69.334 125.236 69.307 125.262 43.883 150.699 43.676 150.906 43.65 150.88 18.008 125.236 43.676 99.565 69.334 125.236" fill="#fa4238"/><polygon points="182.442 12.005 101.326 93.209 75.989 67.216 131.156 12.005 182.442 12.005" fill="#fa4238"/><polygon points="43.655 12.005 0 12.005 0 124.922 0 241.748 43.655 241.748 43.655 163.447 5.15 125.235 43.655 86.714 43.655 12.005" fill="#fa4238"/><polygon points="180.526 241.748 120.589 241.748 47.522 159.925 78.217 129.229 180.526 241.748" fill="#fa4238"/><polygon points="314.589 0 270.318 103.178 313.665 103.178 329.658 140.589 254.209 140.589 210.097 243.389 254.981 243.389 278.855 187.958 350.041 187.958 374.132 244.106 419.326 244.106 314.589 0" fill="#fa4238"/><line x1="419.32593" y1="244.10605" x2="315.96462" y2="3.2072" fill="#fa4238"/><path d="M1070.55173,128.75844a124.42551,124.42551,0,0,1-1.598,20.04691,125.83355,125.83355,0,0,1-248.45862,0h46.97041a79.77551,79.77551,0,0,0,154.46962,0,78.18084,78.18084,0,0,0,2.56627-20.04691A79.81724,79.81724,0,0,0,867.417,108.7597H820.49507a125.83355,125.83355,0,0,1,248.45862,0A123.38451,123.38451,0,0,1,1070.55173,128.75844Z" fill="#fa4238"/><polygon points="908.806 88.523 1002.619 128.783 908.806 169.042 908.806 88.523" fill="#fa4238"/></svg>