<svg id="Layer_1" data-name="Layer 1" xmlns="http://www.w3.org/2000/svg" viewBox="0 0 1618.89697 477.87198"><rect x="1495.69763" y="346.93687" width="123.27795" height="129.862" fill="#ff4438"/><path d="M1510.47705,477.872H0V0H1618.897V369.452a108.41962,108.41962,0,0,1-108.41992,108.42" fill="#e6e7e8"/><path d="M950.61707,294.69574H896.88586L843.2,216.74712v77.94862h-43.6822V154.1436h74.418a20.53552,20.53552,0,0,0,20.55085-20.55085v-2.80649a20.56475,20.56475,0,0,0-20.55085-20.55113h-74.418V64.78776h66.17947A67.76213,67.76213,0,0,1,882.129,198.32366Z" fill="#100249"/><polygon points="634.19 64.801 587.073 64.801 643.95 197.183 643.936 294.677 685.871 294.677 685.871 197.183 685.871 185.948 634.19 64.801" fill="#100249"/><polygon points="749.858 64.801 702.417 64.801 683.305 110.254 706.741 165.292 749.858 64.801" fill="#100249"/><path d="M1432.02093,178.36439c-8.53124-8.52126-21.89072-16.71531-40.80714-24.98378l-14.74247-6.49881c-12.17465-5.428-18.0042-9.1409-20.7059-11.26758-6.95476-5.57177-7.74293-10.50408-7.74293-13.73117,0-7.00438,2.2704-12.34318,7.22737-16.78973a21.18972,21.18972,0,0,1,2.12669-1.29889V55.37825A71.95322,71.95322,0,0,0,1324.31249,71.365c-15.08936,12.725-22.74817,29.43048-22.74817,49.61084,0,17.47881,5.96343,32.2709,17.66216,43.96978,7.92159,7.92144,20.09624,15.42656,37.49578,23.01578l13.48822,5.60157c15.13912,6.61772,22.22278,11.40147,25.53413,14.29136,6.12711,5.29432,8.96254,11.72369,8.96254,20.2746a29.85966,29.85966,0,0,1-10.09774,23.15981c-13.60727,12.43727-34.62541,13.11652-47.40988.78816a37.96525,37.96525,0,0,1-11.40131-23.16963l-1.65076-12.32836-45.883,12.85375,1.99764,9.845c4.00043,19.93256,13.35947,36.11264,27.74508,48.10879,14.4449,12.05575,32.02295,18.18271,52.28757,18.18271,22.53517,0,41.8431-7.69346,57.37873-22.882,15.56527-15.258,23.47688-34.36279,23.47688-56.80357,0-19.0453-6.474-35.08167-19.12942-47.51909" fill="#100249"/><path d="M1403.177,116.924l5.651,9.85978,37.808-24.25521-4.744-8.8335c-11.31721-20.95869-27.71044-33.65889-48.80286-38.22435v49.45714A42.12957,42.12957,0,0,1,1403.177,116.924" fill="#100249"/><polygon points="237.08 176.195 237.054 176.221 211.629 201.659 211.423 201.865 211.397 201.839 185.755 176.195 211.423 150.524 237.08 176.195" fill="#fa4238"/><polygon points="350.189 62.964 269.072 144.168 243.735 118.175 298.903 62.964 350.189 62.964" fill="#100249"/><polygon points="211.401 62.964 167.747 62.964 167.747 175.881 167.747 292.708 211.401 292.708 211.401 214.406 172.897 176.195 211.401 137.673 211.401 62.964" fill="#100249"/><polygon points="348.273 292.707 288.335 292.707 215.268 210.884 245.964 180.188 348.273 292.707" fill="#100249"/><polygon points="482.335 50.959 438.065 154.137 481.411 154.137 497.405 191.548 421.955 191.548 377.843 294.348 422.728 294.348 446.602 238.917 517.787 238.917 541.879 295.065 587.073 295.065 482.335 50.959" fill="#100249"/><line x1="587.07256" y1="295.06527" x2="483.71124" y2="54.16642" fill="#100249"/><path d="M1238.29835,179.71766a124.42573,124.42573,0,0,1-1.598,20.04692,125.83356,125.83356,0,0,1-248.45862,0h46.97041a79.77551,79.77551,0,0,0,154.46962,0,78.181,78.181,0,0,0,2.56627-20.04692,79.81724,79.81724,0,0,0-157.08436-19.99874H988.24169a125.83356,125.83356,0,0,1,248.45862,0A123.3846,123.3846,0,0,1,1238.29835,179.71766Z" fill="#100249"/><polygon points="1076.552 139.482 1170.366 179.742 1076.552 220.002 1076.552 139.482" fill="#fa4238"/><path d="M246.417,424.467H226.84652l-5.67045-17.736H192.82114l-5.61543,17.736H167.74662l29.02189-79.72716h21.29354Zm-29.35536-31.524-8.56237-26.79826a34.85269,34.85269,0,0,1-1.33391-7.17211h-.44486a30.43621,30.43621,0,0,1-1.39027,6.95l-8.67308,27.02036Z" fill="#100249"/><path d="M297.10011,424.467H279.142V344.73988h17.9581Z" fill="#100249"/><path d="M420.61875,354.302H396.73187v71.27617h-9.69364V354.302H363.20906v-8.451h57.40969Z" fill="#ff4438"/><path d="M501.08533,425.57818H457.23412V345.851h42.00467v8.451h-32.311v26.51981h29.88812v8.3953H466.92776v27.91007h34.15757Z" fill="#ff4438"/><path d="M596.95692,422.24207q-9.174,4.671-22.8482,4.67069-17.6565,0-28.2724-10.95308-10.61725-10.9524-10.61691-28.7441,0-19.12493,11.94344-30.912,11.94376-11.78677,30.292-11.7871,11.77065,0,19.502,3.28042v9.952a40.73852,40.73852,0,0,0-19.61743-4.7814q-14.2516,0-23.10854,9.17363-8.85694,9.174-8.85626,24.51894,0,14.56664,8.27988,23.21187,8.27821,8.64558,21.723,8.64558,12.46312,0,21.57938-5.33765Z" fill="#ff4438"/><path d="M699.63762,425.57818h-9.693V389.21712H647.13212v36.36106h-9.69365V345.851h9.69365v34.9708h42.81253V345.851h9.693Z" fill="#ff4438"/><path d="M811.66574,425.57818H799.77933l-42.581-63.54849a26.135,26.135,0,0,1-2.6544-5.0035h-.34622a79.1879,79.1879,0,0,1,.46163,10.9524v57.59959h-9.69364V345.851h12.57885l41.42763,62.54739q2.59569,3.892,3.34618,5.33765h.23082a81.23677,81.23677,0,0,1-.577-11.73141V345.851h9.69365Z" fill="#ff4438"/><path d="M890.34348,426.91276q-17.59912,0-28.18585-11.17517Q851.56858,404.56175,851.56957,386.66q0-19.23665,10.79-30.68994,10.78834-11.45363,29.36811-11.45362,17.13716,0,27.6088,11.11947,10.47232,11.12049,10.47266,29.07758,0,19.51545-10.73233,30.857Q908.34487,426.91243,890.34348,426.91276Zm.69178-73.94532q-13.03981,0-21.17478,9.06225-8.1363,9.06325-8.13563,23.79629,0,14.73372,7.93367,23.71243,7.932,8.97872,20.685,8.97905,13.61551,0,21.4633-8.56237,7.84644-8.561,7.84711-23.9627,0-15.78949-7.61629-24.40756Q904.42163,352.96844,891.03526,352.96744Z" fill="#ff4438"/><path d="M1012.64094,425.57818H969.713V345.851h9.69365v71.27617h33.23429Z" fill="#ff4438"/><path d="M1082.31816,426.91276q-17.59913,0-28.18584-11.17517-10.58907-11.17584-10.58806-29.07758,0-19.23665,10.79-30.68994,10.78834-11.45363,29.36811-11.45362,17.13716,0,27.6088,11.11947,10.47233,11.12049,10.47266,29.07758,0,19.51545-10.73232,30.857Q1100.31954,426.91243,1082.31816,426.91276Zm.69178-73.94532q-13.03981,0-21.17478,9.06225-8.1363,9.06325-8.13563,23.79629,0,14.73372,7.93367,23.71243,7.932,8.97872,20.685,8.97905,13.61551,0,21.4633-8.56237,7.84644-8.561,7.84711-23.9627,0-15.78949-7.61629-24.40756Q1096.39632,352.96844,1083.00994,352.96744Z" fill="#ff4438"/><path d="M1223.54061,420.12982a56.9738,56.9738,0,0,1-27.69536,6.78294q-17.71388,0-28.64681-11.00877-10.9353-11.00775-10.93429-29.13327,0-18.514,12.14541-30.384,12.14507-11.8693,30.78253-11.8703,13.5018,0,22.67576,4.22583v10.34114q-10.03953-6.11532-23.77214-6.116-13.90538,0-22.79117,9.22932-8.8851,9.22934-8.88511,23.907,0,15.12321,8.251,23.76811,8.25,8.64558,22.38657,8.64558a35.65558,35.65558,0,0,0,16.79059-3.72528V392.44184h-18.11779v-8.451h27.81077Z" fill="#ff4438"/><path d="M1276.081,425.57818h-9.69364V345.851h9.69364Z" fill="#ff4438"/><path d="M1365.318,425.57818h-43.85121V345.851h42.00468v8.451h-32.311v26.51981h29.88812v8.3953h-29.88812v27.91007H1365.318Z" fill="#ff4438"/><path d="M1401.01005,422.35345V411.34536a22.26123,22.26123,0,0,0,4.70222,3.002,38.87626,38.87626,0,0,0,5.76976,2.25181,47.39133,47.39133,0,0,0,6.0878,1.41778,35.18879,35.18879,0,0,0,5.65434.50055q8.94249,0,13.3572-3.19722a10.66675,10.66675,0,0,0,4.4137-9.20114,10.49962,10.49962,0,0,0-1.47146-5.61543,16.19776,16.19776,0,0,0-4.06748-4.36473,40.70744,40.70744,0,0,0-6.14483-3.7803q-3.54881-1.80662-7.64514-3.80848-4.32781-2.11257-8.07793-4.28085a34.88765,34.88765,0,0,1-6.51991-4.7814,19.95537,19.95537,0,0,1-4.356-5.9214,19.52354,19.52354,0,0,1,.89442-17.23545,20.84217,20.84217,0,0,1,6.51991-6.644,30.13314,30.13314,0,0,1,9.20249-3.89169,43.66076,43.66076,0,0,1,10.53035-1.27888q12.23163,0,17.8286,2.83556v10.50821q-7.3281-4.89144-18.80957-4.89278a32.11419,32.11419,0,0,0-6.3468.63944,18.34452,18.34452,0,0,0-5.65434,2.08473,12.33826,12.33826,0,0,0-4.0393,3.72528,9.61949,9.61949,0,0,0-1.558,5.55974,11.09914,11.09914,0,0,0,1.18294,5.28195,13.0529,13.0529,0,0,0,3.49111,4.05876,34.88277,34.88277,0,0,0,5.62549,3.55821q3.31732,1.72307,7.64515,3.7803,4.44255,2.11358,8.42415,4.44792a38.41322,38.41322,0,0,1,6.98154,5.17057,23.063,23.063,0,0,1,4.75993,6.28238,17.13067,17.13067,0,0,1,1.76,7.89475,19.43926,19.43926,0,0,1-2.39473,9.98015,19.23974,19.23974,0,0,1-6.4622,6.644,28.82335,28.82335,0,0,1-9.37627,3.6971,53.23594,53.23594,0,0,1-11.19329,1.14,47.46148,47.46148,0,0,1-4.84648-.306q-2.88656-.306-5.88517-.88972a49.36122,49.36122,0,0,1-5.68387-1.44529A17.97069,17.97069,0,0,1,1401.01005,422.35345Z" fill="#ff4438"/></svg>