<svg id="Layer_1" data-name="Layer 1" xmlns="http://www.w3.org/2000/svg" viewBox="0 0 1618.97559 367.6547"><rect x="1495.69763" y="236.71067" width="123.27795" height="129.862" fill="#ff4438"/><path d="M1510.5504,367.6547H0V0H1618.97559V284.24089c0,46.0684-48.54338,83.41381-108.42519,83.41381" fill="#e6e7e8"/><path d="M950.61707,300.25893H896.88586L843.2,222.31031v77.94862h-43.6822V159.70679h74.418a20.53552,20.53552,0,0,0,20.55085-20.55085v-2.8065a20.56474,20.56474,0,0,0-20.55085-20.55112h-74.418V70.35094h66.17947A67.76213,67.76213,0,0,1,882.129,203.88685Z" fill="#100249"/><polygon points="634.19 70.364 587.073 70.364 643.95 202.746 643.936 300.241 685.871 300.241 685.871 202.746 685.871 191.511 634.19 70.364" fill="#100249"/><polygon points="749.858 70.364 702.417 70.364 683.305 115.817 706.741 170.855 749.858 70.364" fill="#100249"/><path d="M1432.02093,183.92758c-8.53124-8.52126-21.89072-16.71531-40.80714-24.98378l-14.74247-6.49881c-12.17465-5.428-18.0042-9.1409-20.7059-11.26758-6.95476-5.57177-7.74293-10.50408-7.74293-13.73117,0-7.00438,2.2704-12.34318,7.22737-16.78973a21.18972,21.18972,0,0,1,2.12669-1.29889V60.94144a71.95322,71.95322,0,0,0-33.06406,15.98674c-15.08936,12.725-22.74817,29.43048-22.74817,49.61084,0,17.47881,5.96343,32.2709,17.66216,43.96978,7.92159,7.92144,20.09624,15.42656,37.49578,23.01578l13.48822,5.60157c15.13912,6.61772,22.22278,11.40147,25.53413,14.29136,6.12711,5.29432,8.96254,11.72369,8.96254,20.2746a29.85966,29.85966,0,0,1-10.09774,23.15981c-13.60727,12.43727-34.62541,13.11652-47.40988.78816a37.96525,37.96525,0,0,1-11.40131-23.16963l-1.65076-12.32836-45.883,12.85375,1.99764,9.845c4.00043,19.93256,13.35947,36.11264,27.74508,48.10879,14.4449,12.05575,32.02295,18.18271,52.28757,18.18271,22.53517,0,41.8431-7.69346,57.37873-22.882,15.56527-15.258,23.47688-34.36279,23.47688-56.80357,0-19.0453-6.474-35.08167-19.12942-47.51909" fill="#100249"/><path d="M1403.177,122.48715l5.651,9.85978,37.808-24.25521-4.744-8.83351c-11.31721-20.95868-27.71044-33.65888-48.80286-38.22434V110.491a42.12957,42.12957,0,0,1,10.08776,11.99614" fill="#100249"/><polygon points="237.08 181.758 237.054 181.784 211.629 207.222 211.423 207.428 211.397 207.402 185.755 181.758 211.423 156.088 237.08 181.758" fill="#fa4238"/><polygon points="350.189 68.527 269.072 149.731 243.735 123.738 298.903 68.527 350.189 68.527" fill="#100249"/><polygon points="211.401 68.527 167.747 68.527 167.747 181.444 167.747 298.271 211.401 298.271 211.401 219.97 172.897 181.758 211.401 143.236 211.401 68.527" fill="#100249"/><polygon points="348.273 298.27 288.335 298.27 215.268 216.447 245.964 185.752 348.273 298.27" fill="#100249"/><polygon points="482.335 56.522 438.065 159.701 481.411 159.701 497.405 197.111 421.955 197.111 377.843 299.911 422.728 299.911 446.602 244.48 517.787 244.48 541.879 300.628 587.073 300.628 482.335 56.522" fill="#100249"/><line x1="587.07256" y1="300.62846" x2="483.71124" y2="59.72961" fill="#100249"/><path d="M1238.29835,185.28085a124.42573,124.42573,0,0,1-1.598,20.04692,125.83356,125.83356,0,0,1-248.45862,0h46.97041a79.77551,79.77551,0,0,0,154.46962,0,78.181,78.181,0,0,0,2.56627-20.04692,79.81724,79.81724,0,0,0-157.08436-19.99874H988.24169a125.83355,125.83355,0,0,1,248.45862,0A123.3846,123.3846,0,0,1,1238.29835,185.28085Z" fill="#100249"/><polygon points="1076.552 145.045 1170.366 185.305 1076.552 225.565 1076.552 145.045" fill="#fa4238"/></svg>