<svg data-name="Layer 1" xmlns="http://www.w3.org/2000/svg" viewBox="0 0 1283.404 254.61"><path d="M782.87 243.737h-53.73l-53.687-77.95v77.95h-43.682V103.184h74.418a20.536 20.536 0 0 0 20.551-20.55v-2.807a20.565 20.565 0 0 0-20.55-20.551h-74.42V13.829h66.18a67.762 67.762 0 0 1 16.431 133.535ZM466.444 13.842h-47.118l56.878 132.381-.015 97.495h41.935v-108.73zm115.668 0H534.67l-19.111 45.453 23.435 55.038zm682.162 113.563c-8.53-8.521-21.89-16.715-40.807-24.984l-14.742-6.498c-12.175-5.428-18.004-9.141-20.706-11.268-6.955-5.572-7.743-10.504-7.743-13.731 0-7.005 2.27-12.343 7.227-16.79a21 21 0 0 1 2.127-1.299V4.42a71.95 71.95 0 0 0-33.064 15.987c-15.09 12.725-22.748 29.43-22.748 49.61 0 17.48 5.963 32.271 17.662 43.97 7.921 7.922 20.096 15.427 37.496 23.016l13.488 5.602c15.139 6.617 22.223 11.401 25.534 14.291 6.127 5.294 8.963 11.724 8.963 20.275a29.86 29.86 0 0 1-10.098 23.16c-13.607 12.437-34.626 13.116-47.41.788a37.97 37.97 0 0 1-11.401-23.17l-1.651-12.328-45.883 12.853 1.997 9.845c4 19.933 13.36 36.113 27.746 48.11 14.444 12.055 32.023 18.182 52.287 18.182 22.535 0 41.843-7.694 57.379-22.882 15.565-15.258 23.477-34.363 23.477-56.804 0-19.045-6.474-35.081-19.13-47.519m-28.844-61.441 5.651 9.86 37.808-24.256-4.744-8.833c-11.317-20.959-27.71-33.66-48.803-38.225V53.97a42.1 42.1 0 0 1 10.088 11.996" fill="#100249"/><path fill="#fa4238" d="m69.334 125.236-.027.026-25.424 25.437-.207.207-.026-.026-25.642-25.644 25.668-25.671z"/><path fill="#100249" d="m182.442 12.005-81.116 81.204-25.337-25.993 55.167-55.211zm-138.787 0H0v229.743h43.655v-78.301L5.15 125.235l38.505-38.521zm136.871 229.743h-59.937l-73.067-81.823 30.695-30.696zM314.589 0l-44.271 103.178h43.347l15.993 37.411h-75.449l-44.112 102.8h44.884l23.874-55.431h71.186l24.091 56.148h45.194zm104.737 244.106L315.965 3.207m754.587 125.551a124.4 124.4 0 0 1-1.598 20.047 125.834 125.834 0 0 1-248.459 0h46.97a79.776 79.776 0 0 0 154.47 0 78.2 78.2 0 0 0 2.566-20.047 79.817 79.817 0 0 0-157.084-19.998h-46.922a125.834 125.834 0 0 1 248.459 0 123.4 123.4 0 0 1 1.598 19.998"/><path fill="#fa4238" d="m908.806 88.523 93.813 40.26-93.813 40.259z"/></svg>