<svg id="Layer_1" data-name="Layer 1" xmlns="http://www.w3.org/2000/svg" viewBox="0 0 1283.40373 375.95354"><path d="M782.87044,243.73652h-53.7312l-53.6859-77.94862v77.94862H631.77115V103.18438h74.418A20.53552,20.53552,0,0,0,726.74,82.63353V79.827a20.56474,20.56474,0,0,0-20.55085-20.55112h-74.418V13.82853h66.17947a67.76213,67.76213,0,0,1,16.43172,133.53591Z" fill="#100249"/><polygon points="466.444 13.842 419.326 13.842 476.204 146.223 476.189 243.718 518.124 243.718 518.124 146.223 518.124 134.988 466.444 13.842" fill="#100249"/><polygon points="582.112 13.842 534.67 13.842 515.559 59.295 538.994 114.333 582.112 13.842" fill="#100249"/><path d="M1264.27431,127.40517c-8.53125-8.52127-21.89072-16.71531-40.80714-24.98378l-14.74247-6.49881c-12.17466-5.428-18.0042-9.1409-20.7059-11.26758-6.95477-5.57177-7.74293-10.50408-7.74293-13.73117,0-7.00439,2.2704-12.34318,7.22737-16.78974a21.18948,21.18948,0,0,1,2.12668-1.29888V4.419a71.95331,71.95331,0,0,0-33.06406,15.98674c-15.08935,12.725-22.74817,29.43048-22.74817,49.61084,0,17.47881,5.96343,32.2709,17.66216,43.96978,7.92159,7.92144,20.09625,15.42655,37.49579,23.01578l13.48821,5.60157c15.13913,6.61772,22.22278,11.40147,25.53413,14.29136,6.12712,5.29432,8.96255,11.72369,8.96255,20.2746a29.85963,29.85963,0,0,1-10.09775,23.1598c-13.60727,12.43728-34.62541,13.11652-47.40987.78817a37.9652,37.9652,0,0,1-11.40132-23.16964l-1.65076-12.32835-45.883,12.85375,1.99765,9.84495c4.00043,19.93256,13.35947,36.11264,27.74507,48.10879,14.44491,12.05575,32.023,18.18271,52.28758,18.18271,22.53517,0,41.8431-7.69346,57.37872-22.882,15.56528-15.258,23.47689-34.3628,23.47689-56.80357,0-19.0453-6.474-35.08167-19.12942-47.51909" fill="#100249"/><path d="M1235.43034,65.96474l5.651,9.85978,37.808-24.25522-4.744-8.8335c-11.3172-20.95868-27.71043-33.65888-48.80285-38.22434V53.96859a42.12992,42.12992,0,0,1,10.08776,11.99615" fill="#100249"/><polygon points="69.334 125.236 69.307 125.262 43.883 150.699 43.676 150.906 43.65 150.88 18.008 125.236 43.676 99.565 69.334 125.236" fill="#100249"/><polygon points="182.442 12.005 101.326 93.209 75.989 67.216 131.156 12.005 182.442 12.005" fill="#100249"/><polygon points="43.655 12.005 0 12.005 0 124.922 0 241.748 43.655 241.748 43.655 163.447 5.15 125.235 43.655 86.714 43.655 12.005" fill="#100249"/><polygon points="180.526 241.748 120.589 241.748 47.522 159.925 78.217 129.229 180.526 241.748" fill="#100249"/><polygon points="314.589 0 270.318 103.178 313.665 103.178 329.658 140.589 254.209 140.589 210.097 243.389 254.981 243.389 278.855 187.958 350.041 187.958 374.132 244.106 419.326 244.106 314.589 0" fill="#100249"/><line x1="419.32593" y1="244.10605" x2="315.96462" y2="3.2072" fill="#100249"/><path d="M1070.55173,128.75844a124.42551,124.42551,0,0,1-1.598,20.04691,125.83355,125.83355,0,0,1-248.45862,0h46.97041a79.77551,79.77551,0,0,0,154.46962,0,78.18084,78.18084,0,0,0,2.56627-20.04691A79.81724,79.81724,0,0,0,867.417,108.7597H820.49507a125.83355,125.83355,0,0,1,248.45862,0A123.38451,123.38451,0,0,1,1070.55173,128.75844Z" fill="#100249"/><polygon points="908.806 88.523 1002.619 128.783 908.806 169.042 908.806 88.523" fill="#100249"/><path d="M78.67036,373.50781H59.09989l-5.67045-17.736H25.07451l-5.61543,17.736H0l29.02189-79.72715H50.31543ZM49.315,341.98384l-8.56238-26.79826a34.8525,34.8525,0,0,1-1.3339-7.1721h-.44486a30.43621,30.43621,0,0,1-1.39027,6.95L28.9105,341.98384Z" fill="#100249"/><path d="M129.35348,373.50781h-17.9581V293.78066h17.9581Z" fill="#100249"/><path d="M252.87213,303.34279H228.98525V374.619h-9.69364V303.34279H195.46243v-8.451h57.4097Z" fill="#100249"/><path d="M333.3387,374.619H289.48749V294.8918h42.00468v8.451h-32.311V329.8626h29.88812v8.39529H299.18114V366.168H333.3387Z" fill="#100249"/><path d="M429.2103,371.28285q-9.174,4.671-22.8482,4.67069-17.6565,0-28.2724-10.95308-10.61725-10.9524-10.61692-28.7441,0-19.12494,11.94344-30.912,11.94378-11.78678,30.29205-11.78711,11.77066,0,19.502,3.28042v9.952a40.73856,40.73856,0,0,0-19.61743-4.78141q-14.25162,0-23.10855,9.17364-8.85693,9.174-8.85626,24.51894,0,14.56664,8.27989,23.21187,8.27821,8.64558,21.723,8.64558,12.46311,0,21.57938-5.33765Z" fill="#100249"/><path d="M531.891,374.619h-9.693V338.25789H479.38549V374.619h-9.69364V294.8918h9.69364v34.9708H522.198V294.8918h9.693Z" fill="#100249"/><path d="M643.91912,374.619H632.03271l-42.581-63.54849a26.13531,26.13531,0,0,1-2.6544-5.0035H586.451a79.18731,79.18731,0,0,1,.46164,10.9524V374.619H577.219V294.8918h12.57886l41.42763,62.54739q2.59569,3.892,3.34618,5.33765h.23081a81.23866,81.23866,0,0,1-.577-11.73141V294.8918h9.69365Z" fill="#100249"/><path d="M722.59686,375.95354q-17.59913,0-28.18585-11.17517-10.58907-11.17584-10.58806-29.07758,0-19.23666,10.79-30.68994,10.78835-11.45363,29.36811-11.45363,17.13715,0,27.6088,11.11948,10.47231,11.12049,10.47265,29.07758,0,19.51544-10.73232,30.857Q740.59823,375.95319,722.59686,375.95354Zm.69178-73.94533q-13.03983,0-21.17478,9.06226-8.1363,9.06326-8.13563,23.79629,0,14.7337,7.93366,23.71243,7.932,8.97872,20.685,8.97905,13.61551,0,21.4633-8.56238,7.84642-8.561,7.8471-23.96269,0-15.78949-7.61629-24.40756Q736.675,302.00922,723.28864,302.00821Z" fill="#100249"/><path d="M844.89432,374.619H801.96638V294.8918H811.66V366.168h33.2343Z" fill="#100249"/><path d="M914.57154,375.95354q-17.59913,0-28.18585-11.17517-10.58907-11.17584-10.58806-29.07758,0-19.23666,10.79-30.68994,10.78835-11.45363,29.36811-11.45363,17.13715,0,27.6088,11.11948,10.47232,11.12049,10.47265,29.07758,0,19.51544-10.73232,30.857Q932.57293,375.95319,914.57154,375.95354Zm.69178-73.94533q-13.03983,0-21.17478,9.06226-8.1363,9.06326-8.13563,23.79629,0,14.7337,7.93366,23.71243,7.932,8.97872,20.685,8.97905,13.61551,0,21.4633-8.56238,7.84644-8.561,7.84711-23.96269,0-15.78949-7.6163-24.40756Q928.6497,302.00922,915.26332,302.00821Z" fill="#100249"/><path d="M1055.794,369.1706a56.97391,56.97391,0,0,1-27.69536,6.78294q-17.71386,0-28.6468-11.00877-10.9353-11.00775-10.93429-29.13327,0-18.514,12.1454-30.384,12.14508-11.8693,30.78254-11.87031,13.50179,0,22.67576,4.22583v10.34114q-10.03953-6.1153-23.77214-6.116-13.90539,0-22.79117,9.22933-8.88512,9.22932-8.88511,23.907,0,15.12321,8.251,23.76811,8.25,8.64558,22.38656,8.64558a35.65572,35.65572,0,0,0,16.7906-3.72528V341.48262h-18.11779v-8.451H1055.794Z" fill="#100249"/><path d="M1108.33438,374.619h-9.69364V294.8918h9.69364Z" fill="#100249"/><path d="M1197.57133,374.619h-43.85121V294.8918h42.00467v8.451h-32.311V329.8626h29.88812v8.39529h-29.88812V366.168h34.15757Z" fill="#100249"/><path d="M1233.26342,371.39423v-11.0081a22.26068,22.26068,0,0,0,4.70223,3.002,38.87626,38.87626,0,0,0,5.76976,2.25181,47.39118,47.39118,0,0,0,6.08779,1.41778,35.18891,35.18891,0,0,0,5.65435.50055q8.94249,0,13.35719-3.19722a10.66674,10.66674,0,0,0,4.41371-9.20115,10.49976,10.49976,0,0,0-1.47146-5.61543,16.19788,16.19788,0,0,0-4.06748-4.36472,40.70844,40.70844,0,0,0-6.14483-3.7803q-3.54882-1.80662-7.64514-3.80848-4.32783-2.11259-8.07793-4.28085a34.88765,34.88765,0,0,1-6.51991-4.7814,19.95515,19.95515,0,0,1-4.356-5.9214,19.52345,19.52345,0,0,1,.89442-17.23545,20.8422,20.8422,0,0,1,6.51991-6.644,30.13341,30.13341,0,0,1,9.20248-3.89168,43.66091,43.66091,0,0,1,10.53036-1.27889q12.23163,0,17.8286,2.83556V306.901q-7.3281-4.89144-18.80957-4.89279a32.1142,32.1142,0,0,0-6.3468.63945,18.34442,18.34442,0,0,0-5.65435,2.08473,12.33832,12.33832,0,0,0-4.03929,3.72528,9.61949,9.61949,0,0,0-1.558,5.55974,11.09914,11.09914,0,0,0,1.18294,5.28195,13.0529,13.0529,0,0,0,3.49111,4.05876,34.88207,34.88207,0,0,0,5.62549,3.5582q3.31732,1.72308,7.64514,3.7803,4.44257,2.11359,8.42415,4.44793a38.413,38.413,0,0,1,6.98155,5.17057,23.0632,23.0632,0,0,1,4.75993,6.28238,17.13067,17.13067,0,0,1,1.76,7.89475,19.43928,19.43928,0,0,1-2.39473,9.98015,19.23985,19.23985,0,0,1-6.46221,6.644,28.82326,28.82326,0,0,1-9.37627,3.6971,53.23578,53.23578,0,0,1-11.19328,1.14,47.46182,47.46182,0,0,1-4.84649-.306q-2.88655-.306-5.88516-.88972a49.3607,49.3607,0,0,1-5.68387-1.44529A17.971,17.971,0,0,1,1233.26342,371.39423Z" fill="#100249"/></svg>