<svg id="Layer_1" data-name="Layer 1" xmlns="http://www.w3.org/2000/svg" viewBox="0 0 1618.89697 367.63685"><rect x="1495.69763" y="236.70175" width="123.27795" height="129.862" fill="#ff4438"/><path d="M1510.47705,367.63685H0V0H1618.897V284.22709c0,46.06616-48.541,83.40976-108.41992,83.40976" fill="#070034"/><path d="M950.61707,300.25H896.88586L843.2,222.30138V300.25h-43.6822V159.69786h74.418A20.53551,20.53551,0,0,0,894.48661,139.147v-2.80649a20.56475,20.56475,0,0,0-20.55085-20.55113h-74.418V70.342h66.17947A67.76213,67.76213,0,0,1,882.129,203.87792Z" fill="#fff"/><polygon points="634.19 70.355 587.073 70.355 643.95 202.737 643.936 300.232 685.871 300.232 685.871 202.737 685.871 191.502 634.19 70.355" fill="#fff"/><polygon points="749.858 70.355 702.417 70.355 683.305 115.808 706.741 170.846 749.858 70.355" fill="#fff"/><path d="M1432.02093,183.91865c-8.53124-8.52126-21.89072-16.7153-40.80714-24.98378l-14.74247-6.4988c-12.17465-5.42806-18.0042-9.1409-20.7059-11.26759-6.95476-5.57177-7.74293-10.50408-7.74293-13.73117,0-7.00438,2.2704-12.34318,7.22737-16.78973a21.18972,21.18972,0,0,1,2.12669-1.29889V60.93251a71.95342,71.95342,0,0,0-33.06406,15.98674c-15.08936,12.725-22.74817,29.43048-22.74817,49.61084,0,17.47881,5.96343,32.2709,17.66216,43.96978,7.92159,7.92144,20.09624,15.42656,37.49578,23.01579l13.48822,5.60157c15.13912,6.61771,22.22278,11.40146,25.53413,14.29135,6.12711,5.29433,8.96254,11.7237,8.96254,20.27461a29.85962,29.85962,0,0,1-10.09774,23.1598c-13.60727,12.43728-34.62541,13.11652-47.40988.78816a37.96525,37.96525,0,0,1-11.40131-23.16963l-1.65076-12.32836-45.883,12.85375,1.99764,9.845c4.00043,19.93256,13.35947,36.11264,27.74508,48.10878,14.4449,12.05575,32.02295,18.18271,52.28757,18.18271,22.53517,0,41.8431-7.69346,57.37873-22.882,15.56527-15.258,23.47688-34.36279,23.47688-56.80356,0-19.04531-6.474-35.08167-19.12942-47.5191" fill="#fff"/><path d="M1403.177,122.47823l5.651,9.85978,37.808-24.25522-4.744-8.8335c-11.31721-20.95869-27.71044-33.65889-48.80286-38.22435v49.45714a42.12962,42.12962,0,0,1,10.08776,11.99615" fill="#fff"/><polygon points="237.08 181.749 237.054 181.775 211.629 207.213 211.423 207.419 211.397 207.393 185.755 181.749 211.423 156.079 237.08 181.749" fill="#fa4238"/><polygon points="350.189 68.518 269.072 149.722 243.735 123.729 298.903 68.518 350.189 68.518" fill="#fff"/><polygon points="211.401 68.518 167.747 68.518 167.747 181.435 167.747 298.262 211.401 298.262 211.401 219.961 172.897 181.749 211.401 143.227 211.401 68.518" fill="#fff"/><polygon points="348.273 298.262 288.335 298.262 215.268 216.438 245.964 185.743 348.273 298.262" fill="#fff"/><polygon points="482.335 56.513 438.065 159.692 481.411 159.692 497.405 197.102 421.955 197.102 377.843 299.902 422.728 299.902 446.602 244.471 517.787 244.471 541.879 300.62 587.073 300.62 482.335 56.513" fill="#fff"/><line x1="587.07256" y1="300.61953" x2="483.71124" y2="59.72069" fill="#fff"/><path d="M1238.29835,185.27192a124.42564,124.42564,0,0,1-1.598,20.04692,125.83356,125.83356,0,0,1-248.45862,0h46.97041a79.77551,79.77551,0,0,0,154.46962,0,78.18092,78.18092,0,0,0,2.56627-20.04692,79.81724,79.81724,0,0,0-157.08436-19.99874H988.24169a125.83356,125.83356,0,0,1,248.45862,0A123.38469,123.38469,0,0,1,1238.29835,185.27192Z" fill="#fff"/><polygon points="1076.552 145.036 1170.366 185.296 1076.552 225.556 1076.552 145.036" fill="#fa4238"/></svg>