<svg id="Layer_1" data-name="Layer 1" xmlns="http://www.w3.org/2000/svg" viewBox="0 0 929.61239 929.61181"><polygon points="395.483 464.806 395.4 464.889 314.874 545.456 314.22 546.11 314.137 546.027 232.922 464.806 314.22 383.502 395.483 464.806" fill="#fa4238"/><path d="M464.80611,0C208.10033,0,0,208.10033,0,464.80586c0,256.70578,208.10033,464.806,464.80611,464.806S929.61239,721.51164,929.61239,464.80586C929.61239,208.10033,721.51189,0,464.80611,0ZM175.88637,458.61493V706.39758a376.62386,376.62386,0,0,1,0-483.18327Zm514.914,307.4874L423.619,472.25759l-97.2202,97.22019,231.42144,259.1544H562.463A378.31666,378.31666,0,0,1,314.1519,810.07965V580.6341L192.19922,459.6081l121.95268-122.007V119.53249a378.07382,378.07382,0,0,1,270.46762-11.87855L416.561,275.846l80.24811,82.32654L691.06336,163.70887c91.31068,68.72377,150.359,178.0135,150.359,301.097C841.42237,588.00787,782.26067,697.39035,690.8004,766.10233Z" fill="#fff"/></svg>