<svg id="Layer_1" data-name="Layer 1" xmlns="http://www.w3.org/2000/svg" viewBox="0 0 929.61222 929.61181"><polygon points="395.483 464.806 395.4 464.889 314.874 545.456 314.22 546.11 314.137 546.027 232.922 464.806 314.22 383.502 395.483 464.806" fill="#fff"/><path d="M464.80628,0C208.1005,0,0,208.10033,0,464.80586c0,256.70578,208.1005,464.806,464.80628,464.806,256.70544,0,464.80594-208.10017,464.80594-464.80595C929.61222,208.10033,721.51172,0,464.80628,0ZM175.88637,458.61493V706.39758a376.62439,376.62439,0,0,1,0-483.18327Zm514.91386,307.4874L423.61915,472.25759,326.399,569.47778l231.42143,259.1544H562.463a378.31618,378.31618,0,0,1-248.31091-18.55253V580.6341L192.19938,459.6081l121.95268-122.007V119.53249A378.07317,378.07317,0,0,1,584.61968,107.654L416.561,275.846l80.24827,82.32654L691.06353,163.70895C782.37387,232.43281,841.4222,341.72237,841.4222,464.80586,841.4222,588.00787,782.26084,697.39035,690.80023,766.10233Z" fill="#fff"/></svg>