<svg id="Layer_1" data-name="Layer 1" xmlns="http://www.w3.org/2000/svg" viewBox="0 0 929.61239 929.61239"><circle cx="464.8062" cy="464.8062" r="464.8062" fill="#fff"/><polygon points="403.963 460.245 403.89 460.318 333.215 531.029 332.641 531.603 332.568 531.53 261.288 460.245 332.641 388.886 403.963 460.245" fill="#fa4238"/><path d="M464.80612,56.86009c-225.3029,0-407.94628,182.64338-407.94628,407.94607,0,225.3029,182.64338,407.94614,407.94628,407.94614S872.75255,690.10906,872.75255,464.80616C872.75255,239.50347,690.109,56.86009,464.80612,56.86009ZM211.23,459.37256V676.84391a330.55138,330.55138,0,0,1,0-424.07536ZM663.15448,729.245,428.65743,471.34631,343.3302,556.67354l203.1116,227.452h4.0748a332.037,332.037,0,0,1-217.93513-16.283V566.4651L225.54728,460.24424,332.58147,353.16235V161.77015a331.82393,331.82393,0,0,1,237.38126-10.42544L422.46288,298.96178l70.43134,72.25552L663.38528,200.54242C743.5259,260.8592,795.35083,356.7795,795.35083,464.80616,795.35083,572.93684,743.4264,668.93854,663.15448,729.245Z" fill="#100249"/></svg>