<svg id="Layer_1" data-name="Layer 1" xmlns="http://www.w3.org/2000/svg" viewBox="0 0 1220.17853 462.26004"><path d="M73.96384,461.39165H61.23069l-3.68945-11.53931H39.09242L35.439,461.39165H22.77778l18.883-51.87294H55.515Zm-19.09972-20.511-5.57095-17.43493a22.6885,22.6885,0,0,1-.8676-4.66736h-.28946a19.8352,19.8352,0,0,1-.90437,4.52184L41.588,440.88062Z" fill="#fff"/><path d="M97.605,461.39165h-11.684V409.51871H97.605Z" fill="#fff"/><path d="M154.84635,442.58139v18.81026h-8.57352V409.51871h15.73572q8.93494,0,13.85422,4.16041,4.91926,4.15885,4.92,11.71925a16.19188,16.19188,0,0,1-5.13675,12.37172q-5.13755,4.8113-13.891,4.8113Zm0-25.97324v18.95577h5.571q5.53418,0,8.428-2.56916a9.16511,9.16511,0,0,0,2.89383-7.23495q0-9.15087-10.63495-9.15166Z" fill="#fff"/><path d="M220.4726,461.39165h-8.13933V455.604h-.14473a12.25559,12.25559,0,0,1-11.24986,6.656q-5.46259,0-8.55552-2.96659a10.37651,10.37651,0,0,1-3.09254-7.84986q0-10.48866,12.08226-12.2262l10.99638-1.55527q0-7.92339-7.52442-7.92183a17.871,17.871,0,0,0-11.93674,4.55783v-7.34448a26.03919,26.03919,0,0,1,13.52878-3.472q14.03493,0,14.03572,13.819Zm-8.10334-18.19535-7.77711,1.08587a12.31967,12.31967,0,0,0-5.44421,1.754q-1.82712,1.28379-1.82673,4.50307a4.92855,4.92855,0,0,0,1.682,3.85218,6.51046,6.51046,0,0,0,4.50385,1.50206,8.30854,8.30854,0,0,0,6.34858-2.69589,9.55112,9.55112,0,0,0,2.51362-6.78121Z" fill="#fff"/><path d="M255.80012,460.99423a14.56877,14.56877,0,0,1-6.47532,1.22982q-10.77968,0-10.77968-10.34549V430.93412h-6.18585v-6.58406h6.18585v-8.57274l8.392-2.38766v10.9604h8.863v6.58406h-8.863v18.5208q0,3.29046,1.19383,4.70178a4.957,4.957,0,0,0,3.9797,1.41132,5.7711,5.7711,0,0,0,3.68945-1.22982Z" fill="#fff"/><path d="M272.74922,416.57216a5.04583,5.04583,0,0,1-3.52672-1.33777,4.40272,4.40272,0,0,1-1.4653-3.4,4.51726,4.51726,0,0,1,1.4653-3.43754,4.974,4.974,0,0,1,3.52672-1.37376,5.13335,5.13335,0,0,1,3.61748,1.37376,4.495,4.495,0,0,1,1.48329,3.43754,4.4287,4.4287,0,0,1-1.48329,3.34523A5.08781,5.08781,0,0,1,272.74922,416.57216Zm4.15963,44.81949h-8.392V424.35006h8.392Z" fill="#fff"/><path d="M324.71449,445.149h-25.2496q.14434,5.13754,3.1653,7.9234,3.02056,2.78588,8.302,2.78509a18.304,18.304,0,0,0,10.88842-3.54551v6.764q-5.06478,3.18485-13.384,3.18407-8.1757,0-12.8239-5.046t-4.64859-14.19923q0-8.64391,5.11877-14.0897a16.74682,16.74682,0,0,1,12.71515-5.44343q7.596,0,11.756,4.88329,4.16,4.88406,4.16042,13.56554Zm-8.10334-5.9316a10.81693,10.81693,0,0,0-2.13419-7.03625,7.13255,7.13255,0,0,0-5.78765-2.51439,8.144,8.144,0,0,0-6.1311,2.64113,12.05925,12.05925,0,0,0-3.09332,6.90951Z" fill="#fff"/><path d="M371.18156,461.39165h-8.3928V440.51918q0-10.38069-7.34292-10.38147a8.0187,8.0187,0,0,0-6.33059,2.87583,10.66724,10.66724,0,0,0-2.49562,7.25217v21.12594h-8.42879V424.35006h8.42879v6.14908h.14473q4.15885-7.01747,12.0095-7.01747,6.03994,0,9.22441,3.92415,3.1825,3.9265,3.18329,11.34061Z" fill="#fff"/><path d="M406.43476,460.99423a14.56877,14.56877,0,0,1-6.47532,1.22982q-10.77967,0-10.77968-10.34549V430.93412H382.9939v-6.58406h6.18586v-8.57274l8.392-2.38766v10.9604h8.863v6.58406h-8.863v18.5208q0,3.29046,1.19383,4.70178a4.957,4.957,0,0,0,3.97969,1.41132,5.77113,5.77113,0,0,0,3.68946-1.22982Z" fill="#fff"/><path d="M454.83965,461.39165h-8.8622V409.51871h8.8622Z" fill="#fff"/><path d="M505.216,461.39165h-8.39279V440.51918q0-10.38069-7.34292-10.38147a8.01868,8.01868,0,0,0-6.33059,2.87583,10.66724,10.66724,0,0,0-2.49562,7.25217v21.12594h-8.42879V424.35006h8.42879v6.14908h.14473q4.15884-7.01747,12.00949-7.01747,6.04,0,9.22442,3.92415,3.1825,3.9265,3.18328,11.34061Z" fill="#fff"/><path d="M540.46921,460.99423a14.56877,14.56877,0,0,1-6.47532,1.22982q-10.77967,0-10.77968-10.34549V430.93412h-6.18586v-6.58406h6.18586v-8.57274l8.392-2.38766v10.9604h8.863v6.58406h-8.863v18.5208q0,3.29046,1.19383,4.70178a4.957,4.957,0,0,0,3.97969,1.41132,5.77113,5.77113,0,0,0,3.68946-1.22982Z" fill="#fff"/><path d="M584.17779,445.149H558.9282q.14435,5.13754,3.16529,7.9234,3.02057,2.78588,8.30205,2.78509A18.304,18.304,0,0,0,581.284,452.312v6.764q-5.0648,3.18485-13.38405,3.18407-8.1757,0-12.8239-5.046t-4.64858-14.19923q0-8.64391,5.11876-14.0897a16.74684,16.74684,0,0,1,12.71516-5.44343q7.596,0,11.756,4.88329,4.16,4.88406,4.16041,13.56554Zm-8.10334-5.9316a10.81687,10.81687,0,0,0-2.13418-7.03625,7.13256,7.13256,0,0,0-5.78766-2.51439,8.144,8.144,0,0,0-6.13109,2.64113,12.05919,12.05919,0,0,0-3.09332,6.90951Z" fill="#fff"/><path d="M619.14231,432.34387A6.96373,6.96373,0,0,0,614.7652,431.15a7.4939,7.4939,0,0,0-6.22185,3.364q-2.496,3.36558-2.4964,9.15322v17.72439h-8.392V424.35006h8.392v7.63237h.14473a12.90778,12.90778,0,0,1,3.7802-6.09589,8.53426,8.53426,0,0,1,5.69769-2.18738,7.07038,7.07038,0,0,1,3.47274.68688Z" fill="#fff"/><path d="M658.98934,461.39165H650.85V455.604h-.14551a12.25316,12.25316,0,0,1-11.24986,6.656q-5.46143,0-8.554-2.96659a10.37418,10.37418,0,0,1-3.09332-7.84986q0-10.48866,12.08225-12.2262l10.99639-1.55527q0-7.92339-7.52442-7.92183a17.87389,17.87389,0,0,0-11.93674,4.55783v-7.34448a26.04028,26.04028,0,0,1,13.528-3.472q14.03494,0,14.03651,13.819ZM650.886,443.1963l-7.77789,1.08587a12.31948,12.31948,0,0,0-5.44343,1.754q-1.8283,1.28379-1.82752,4.50307a4.93109,4.93109,0,0,0,1.682,3.85218,6.51522,6.51522,0,0,0,4.50463,1.50206,8.30687,8.30687,0,0,0,6.3478-2.69589,9.55173,9.55173,0,0,0,2.5144-6.78121Z" fill="#fff"/><path d="M701.29756,459.69088A20.67981,20.67981,0,0,1,690.77214,462.26q-8.2473,0-13.31207-5.15554-5.06478-5.154-5.06479-13.36526,0-9.15089,5.445-14.70461,5.44264-5.553,14.5591-5.553a21.26647,21.26647,0,0,1,8.93573,1.77275v7.81388a13.53963,13.53963,0,0,0-8.24885-2.89461,11.46187,11.46187,0,0,0-8.71668,3.59871,13.16408,13.16408,0,0,0-3.40156,9.4239q0,5.75245,3.20128,9.07969a11.37015,11.37015,0,0,0,8.59151,3.328,13.42024,13.42024,0,0,0,8.53675-3.22Z" fill="#fff"/><path d="M734.63249,460.99423a14.56274,14.56274,0,0,1-6.47453,1.22982q-10.77967,0-10.7789-10.34549V430.93412h-6.18664v-6.58406h6.18664v-8.57274l8.39124-2.38766v10.9604h8.86219v6.58406H725.7703v18.5208q0,3.29046,1.19383,4.70178A4.95622,4.95622,0,0,0,730.943,455.568a5.765,5.765,0,0,0,3.68945-1.22982Z" fill="#fff"/><path d="M751.58238,416.57216a5.04451,5.04451,0,0,1-3.52673-1.33777,4.40471,4.40471,0,0,1-1.46451-3.4,4.51934,4.51934,0,0,1,1.46451-3.43754,4.97276,4.97276,0,0,1,3.52673-1.37376,5.132,5.132,0,0,1,3.61748,1.37376,4.49235,4.49235,0,0,1,1.48329,3.43754,4.426,4.426,0,0,1-1.48329,3.34523A5.0865,5.0865,0,0,1,751.58238,416.57216Zm4.16041,44.81949H747.35V424.35006h8.3928Z" fill="#fff"/><path d="M788.60833,462.26q-8.57351,0-13.69071-5.19152-5.12111-5.18918-5.11955-13.76426,0-9.33159,5.33547-14.57787,5.337-5.24314,14.37916-5.24472,8.68149,0,13.52956,5.10077,4.84651,5.1,4.84729,14.1429,0,8.86455-5.2275,14.19923Q797.43533,462.25926,788.60833,462.26Zm.39743-32.08635a9.57784,9.57784,0,0,0-7.77633,3.436q-2.85862,3.43833-2.85862,9.47867,0,5.82286,2.89461,9.16887a9.71757,9.71757,0,0,0,7.74034,3.34679,9.22087,9.22087,0,0,0,7.61516-3.292q2.65913-3.29046,2.65835-9.36914,0-6.11154-2.65835-9.44112A9.17877,9.17877,0,0,0,789.00576,430.17369Z" fill="#fff"/><path d="M854.89956,461.39165h-8.3928V440.51918q0-10.38069-7.34292-10.38147a8.01978,8.01978,0,0,0-6.33058,2.87583,10.6711,10.6711,0,0,0-2.49563,7.25217v21.12594h-8.42878V424.35006h8.42878v6.14908h.144q4.1612-7.01747,12.01028-7.01747,6.04113,0,9.22363,3.92415,3.1825,3.9265,3.18407,11.34061Z" fill="#fff"/><path d="M906.05277,442.58139v18.81026H897.48V409.51871h15.73572q8.93495,0,13.855,4.16041Q931.99,417.838,931.99,425.39837a16.19459,16.19459,0,0,1-5.13676,12.37172q-5.13753,4.8113-13.891,4.8113Zm0-25.97324v18.95577h5.57173q5.53417,0,8.42878-2.56916a9.16982,9.16982,0,0,0,2.89305-7.23495q0-9.15087-10.635-9.15166Z" fill="#fff"/><path d="M953.75122,461.39165h-8.42879V406.55213h8.42879Z" fill="#fff"/><path d="M998.58948,461.39165h-8.13932V455.604h-.14552a12.25314,12.25314,0,0,1-11.24985,6.656q-5.46142,0-8.554-2.96659a10.37418,10.37418,0,0,1-3.09332-7.84986q0-10.48866,12.08225-12.2262l10.99638-1.55527q0-7.92339-7.52441-7.92183a17.87387,17.87387,0,0,0-11.93674,4.55783v-7.34448a26.04028,26.04028,0,0,1,13.528-3.472q14.03494,0,14.0365,13.819Zm-8.10334-18.19535-7.77789,1.08587a12.31943,12.31943,0,0,0-5.44342,1.754q-1.8283,1.28379-1.82752,4.50307a4.93111,4.93111,0,0,0,1.682,3.85218,6.51526,6.51526,0,0,0,4.50464,1.50206,8.30689,8.30689,0,0,0,6.3478-2.69589,9.55172,9.55172,0,0,0,2.51439-6.78121Z" fill="#fff"/><path d="M1033.91622,460.99423a14.56274,14.56274,0,0,1-6.47453,1.22982q-10.77968,0-10.7789-10.34549V430.93412h-6.18664v-6.58406h6.18664v-8.57274l8.39124-2.38766v10.9604h8.86219v6.58406H1025.054v18.5208q0,3.29046,1.19383,4.70178a4.95622,4.95622,0,0,0,3.97891,1.41132,5.765,5.765,0,0,0,3.68945-1.22982Z" fill="#fff"/><path d="M1067.57817,413.38966a7.63533,7.63533,0,0,0-3.87095-.97791q-6.11388,0-6.1131,6.90951v5.0288h8.61029v6.58406h-8.5743v30.45753h-8.39124V430.93412h-6.33059v-6.58406h6.33059v-6.00514a11.68882,11.68882,0,0,1,3.8334-9.24241,13.96543,13.96543,0,0,1,9.58663-3.38278,14.22851,14.22851,0,0,1,4.91927.68845Z" fill="#fff"/><path d="M1094.15068,462.26q-8.57352,0-13.69072-5.19152-5.1211-5.18918-5.11954-13.76426,0-9.33159,5.33546-14.57787,5.337-5.24314,14.37917-5.24472,8.68147,0,13.52955,5.10077,4.84652,5.1,4.8473,14.1429,0,8.86455-5.22751,14.19923Q1102.97767,462.25926,1094.15068,462.26Zm.39742-32.08635a9.57784,9.57784,0,0,0-7.77633,3.436q-2.85863,3.43833-2.85862,9.47867,0,5.82286,2.89461,9.16887a9.71758,9.71758,0,0,0,7.74034,3.34679,9.22085,9.22085,0,0,0,7.61516-3.292q2.65914-3.29046,2.65835-9.36914,0-6.11154-2.65835-9.44112A9.17875,9.17875,0,0,0,1094.5481,430.17369Z" fill="#fff"/><path d="M1148.93857,432.34387a6.96315,6.96315,0,0,0-4.3779-1.19383,7.49257,7.49257,0,0,0-6.22106,3.364q-2.49719,3.36558-2.49562,9.15322v17.72439h-8.3928V424.35006h8.3928v7.63237h.14395a12.91381,12.91381,0,0,1,3.7802-6.09589,8.53668,8.53668,0,0,1,5.6969-2.18738,7.07583,7.07583,0,0,1,3.47353.68688Z" fill="#fff"/><path d="M1215.73518,461.39165h-8.3928V441.20606q0-5.82285-1.646-8.42722-1.64524-2.60514-5.553-2.60515-3.29046,0-5.58894,3.292a13.43109,13.43109,0,0,0-2.29691,7.88586v20.04007h-8.42879V440.51918q0-10.34549-7.30693-10.34549a6.59357,6.59357,0,0,0-5.58894,3.11054,13.72469,13.72469,0,0,0-2.18738,8.06735v20.04007h-8.3928V424.35006h8.3928v5.85962h.14394a12.83156,12.83156,0,0,1,11.68483-6.728,11.02064,11.02064,0,0,1,6.70924,2.11541,10.53912,10.53912,0,0,1,3.92571,5.553q4.12365-7.66758,12.29818-7.66837,12.22776,0,12.22776,15.08482Z" fill="#fff"/><path d="M245.1704,375.95354H175.45275V206.27719q0-23.34721-27.88546-23.3488-37.18569,0-57.4002,18.18512-20.45346,18.18755-20.451,47.15142,0,29.41852,20.68357,46.92854,21.37715,17.96621,57.16768,17.9622v62.86856q-62.74589,0-102.48456-32.55682Q-.00482,306.64735,0,247.81751q0-58.825,42.64362-93.29414,42.64122-34.46273,104.92367-34.46515,97.60308,0,97.60311,81.28141Z" fill="#fff"/><path d="M367.868,376.02439q-63.21256,0-103.18054-47.63571l49.0341-41.86105q20.44623,26.6282,56.70261,26.62821,25.32685,0,34.858-6.50752,9.52558-6.30465,9.52877-14.64432,0-13.824-26.006-21.35229l-24.92357-8.02613q-69.48834-20.93454-69.48513-67.63294,0-33.3851,27.65455-56.2007,22.7723-18.73358,59.38549-18.73357,53.61723,0,87.78569,46.28548l-48.58026,41.13141q-10.774-24.54508-39.77474-24.54672-21.84619,0-21.84458,10.3867,0,7.6517,26.72442,14.577l32.20081,10.37067q63.51806,20.45586,66.57937,70.34467,0,34.46033-32.06612,61.28417-31.57859,26.1327-84.59287,26.13269" fill="#fff"/><path d="M580.96462,376.02439q-63.21261,0-103.18054-47.63571l49.03407-41.86105q20.44623,26.6282,56.70264,26.62821,25.32684,0,34.858-6.50752,9.52552-6.30465,9.52873-14.64432,0-13.824-26.006-21.35229l-24.9236-8.02613q-69.48833-20.93454-69.4851-67.63294,0-33.3851,27.65453-56.2007,22.77231-18.73358,59.38551-18.73357,53.61718,0,87.78728,46.28548l-48.58027,41.13141q-10.77632-24.54508-39.77632-24.54672-21.84619,0-21.84461,10.3867,0,7.6517,26.72444,14.577l32.2008,10.37067q63.518,20.45586,66.57936,70.34467,0,34.46033-32.06768,61.28417-31.57866,26.1327-84.59128,26.13269" fill="#fff"/><path d="M758.85455,23.50933q19.051,0,31.14083,12.125Q802.0755,47.75772,802.07871,66.1706q0,18.63972-12.5484,30.76077-13.0182,12.578-31.60589,12.574-18.594,0-31.02215-12.91081a42.80587,42.80587,0,0,1-12.43452-30.76072,39.85075,39.85075,0,0,1,12.898-30.08728q12.898-12.2364,31.48883-12.23724" fill="#fff"/><rect x="723.41521" y="120.05837" width="69.71605" height="255.89517" fill="#fff"/><path d="M918.15288,376.02439q-63.215,0-103.18059-47.63571l49.03413-41.86105q20.44623,26.6282,56.70263,26.62821,25.32685,0,34.858-6.50752,9.52544-6.30465,9.52867-14.64432,0-13.824-26.006-21.35229l-24.92355-8.02613q-69.48834-20.93454-69.48515-67.63294,0-33.3851,27.65452-56.2007,22.77474-18.73358,59.38556-18.73357,53.61954,0,87.78562,46.28548l-48.58017,41.13141q-10.77162-24.54508-39.7748-24.54672-21.84613,0-21.84462,10.3867,0,7.6517,26.7245,14.577l32.20074,10.37067q63.51806,20.45586,66.57937,70.34467,0,34.46033-32.06607,61.28417-31.57858,26.1327-84.59285,26.13269" fill="#fff"/><path d="M161.42679,248.28A34.08508,34.08508,0,1,1,127.34171,214.195,34.08469,34.08469,0,0,1,161.42679,248.28" fill="#fff"/><path d="M1153.796,296.69911q0,14.11515,5.61425,21.17428,5.61192,7.06238,20.16719,7.056a74.50552,74.50552,0,0,0,10.60318-.80341c3.74283-.534,17.06583-1.33743,19.55946-2.41025l.83225,48.213c-4.71623,1.60684-20.87924,3.01322-28.0843,4.21754a130.859,130.859,0,0,1-21.62165,1.8073q-20.79992,0-34.93026-5.03379-14.144-5.02979-22.664-14.50159a56.26692,56.26692,0,0,1-12.26612-22.55661,106.10533,106.10533,0,0,1-3.74284-29.202V184.40275h-41.61089V120.20959h41.1955V67.577H1153.796Z" fill="#fff"/><rect x="1165.55423" y="120.09202" width="54.6243" height="64.31073" fill="#fff"/><path d="M299.94856,86.3471h-19.035l-19.019-27.6144V86.3471h-15.475V36.55452h26.36362a7.275,7.275,0,0,0,7.28043-7.28043v-.99424a7.28535,7.28535,0,0,0-7.28043-7.28052H246.4195V4.899h23.445a24.00569,24.00569,0,0,1,5.82117,47.307Z" fill="#fff"/><polygon points="187.85 4.904 171.158 4.904 191.308 51.802 191.303 86.341 206.159 86.341 206.159 51.802 206.159 47.822 187.85 4.904" fill="#fff"/><polygon points="228.827 4.904 212.02 4.904 205.25 21.006 213.552 40.504 228.827 4.904" fill="#fff"/><path d="M470.49266,45.13508c-3.02231-3.01878-7.7551-5.92164-14.4565-8.85086l-5.22273-2.30229a36.44024,36.44024,0,0,1-7.33536-3.9917c-2.46382-1.97388-2.743-3.72122-2.743-4.86446a7.4589,7.4589,0,0,1,2.5604-5.948,7.50368,7.50368,0,0,1,.75341-.46015V1.5655A25.49053,25.49053,0,0,0,432.33543,7.229a22.02481,22.02481,0,0,0-8.05886,17.57534,21.23922,21.23922,0,0,0,6.25707,15.57691c2.80633,2.80629,7.11937,5.46508,13.28341,8.15367l4.77839,1.98444c5.36325,2.34441,7.87273,4.03913,9.04582,5.06291a8.84211,8.84211,0,0,1,3.17511,7.18256,10.57819,10.57819,0,0,1-3.57727,8.20469c-4.82057,4.40608-12.26654,4.64671-16.79561.27922a13.44969,13.44969,0,0,1-4.03908-8.20817l-.58481-4.3675-16.2547,4.55363.70769,3.48771a28.94743,28.94743,0,0,0,9.82909,17.04322,29.68626,29.68626,0,0,0,38.85083-1.66481,27.181,27.181,0,0,0,8.317-20.12346,22.74509,22.74509,0,0,0-6.77687-16.83431" fill="#fff"/><path d="M460.27428,23.36894l2.002,3.493,13.394-8.59275-1.68061-3.12939c-4.00928-7.42491-9.81682-11.92413-17.2891-13.54151V19.11914a14.925,14.925,0,0,1,3.57373,4.2498" fill="#fff"/><polygon points="47.34 44.948 47.331 44.957 38.324 53.969 38.251 54.042 38.241 54.033 29.157 44.948 38.251 35.854 47.34 44.948" fill="#fff"/><polygon points="87.411 4.834 58.674 33.602 49.698 24.393 69.242 4.834 87.411 4.834" fill="#fff"/><polygon points="38.243 4.834 22.778 4.834 22.778 44.837 22.778 86.224 38.243 86.224 38.243 58.485 24.602 44.948 38.243 31.301 38.243 4.834" fill="#fff"/><polygon points="86.732 86.224 65.498 86.224 39.613 57.237 50.487 46.363 86.732 86.224" fill="#fff"/><polygon points="134.053 0 118.37 36.552 133.726 36.552 139.392 49.806 112.663 49.806 97.035 86.224 112.936 86.224 121.394 66.587 146.612 66.587 155.147 86.478 171.158 86.478 134.053 0" fill="#fff"/><line x1="171.15779" y1="86.47801" x2="134.54059" y2="1.1362" fill="#fff"/><path d="M401.86371,45.61449a44.07992,44.07992,0,0,1-.56613,7.1019,44.57831,44.57831,0,0,1-88.02,0h16.63993a28.2616,28.2616,0,0,0,54.723,0,27.69651,27.69651,0,0,0,.90914-7.1019,28.27638,28.27638,0,0,0-55.64935-7.08483H313.27761a44.57831,44.57831,0,0,1,88.02,0A43.71112,43.71112,0,0,1,401.86371,45.61449Z" fill="#fff"/><polygon points="344.563 31.36 377.798 45.623 344.563 59.886 344.563 31.36" fill="#fff"/></svg>