<svg id="Layer_1" data-name="Layer 1" xmlns="http://www.w3.org/2000/svg" viewBox="0 0 1220.17853 376.02439"><path d="M245.1704,375.95354H175.45275V206.27719q0-23.34721-27.88546-23.3488-37.18569,0-57.4002,18.18512-20.45346,18.18755-20.451,47.15142,0,29.41852,20.68357,46.92854,21.37715,17.96621,57.16768,17.9622v62.86856q-62.74589,0-102.48456-32.55682Q-.00482,306.64735,0,247.81751q0-58.825,42.64362-93.29414,42.64122-34.46273,104.92367-34.46515,97.60308,0,97.60311,81.28141Z" fill="#100249"/><path d="M367.868,376.02439q-63.21256,0-103.18054-47.63571l49.0341-41.86105q20.44623,26.6282,56.70261,26.62821,25.32685,0,34.858-6.50752,9.52558-6.30465,9.52877-14.64432,0-13.824-26.006-21.35229l-24.92357-8.02613q-69.48834-20.93454-69.48513-67.63294,0-33.3851,27.65455-56.2007,22.7723-18.73358,59.38549-18.73357,53.61723,0,87.78569,46.28548l-48.58026,41.13141q-10.774-24.54508-39.77474-24.54672-21.84619,0-21.84458,10.3867,0,7.6517,26.72442,14.577l32.20081,10.37067q63.51806,20.45586,66.57937,70.34467,0,34.46033-32.06612,61.28417-31.57859,26.1327-84.59287,26.13269" fill="#100249"/><path d="M580.96462,376.02439q-63.21261,0-103.18054-47.63571l49.03407-41.86105q20.44623,26.6282,56.70264,26.62821,25.32684,0,34.858-6.50752,9.52552-6.30465,9.52873-14.64432,0-13.824-26.006-21.35229l-24.9236-8.02613q-69.48833-20.93454-69.4851-67.63294,0-33.3851,27.65453-56.2007,22.77231-18.73358,59.38551-18.73357,53.61718,0,87.78728,46.28548l-48.58027,41.13141q-10.77632-24.54508-39.77632-24.54672-21.84619,0-21.84461,10.3867,0,7.6517,26.72444,14.577l32.2008,10.37067q63.518,20.45586,66.57936,70.34467,0,34.46033-32.06768,61.28417-31.57866,26.1327-84.59128,26.13269" fill="#100249"/><path d="M758.85455,23.50933q19.051,0,31.14083,12.125Q802.0755,47.75772,802.07871,66.1706q0,18.63972-12.5484,30.76077-13.0182,12.578-31.60589,12.574-18.594,0-31.02215-12.91081a42.80587,42.80587,0,0,1-12.43452-30.76072,39.85075,39.85075,0,0,1,12.898-30.08728q12.898-12.2364,31.48883-12.23724" fill="#100249"/><rect x="723.41521" y="120.05837" width="69.71605" height="255.89517" fill="#100249"/><path d="M918.15288,376.02439q-63.215,0-103.18059-47.63571l49.03413-41.86105q20.44623,26.6282,56.70263,26.62821,25.32685,0,34.858-6.50752,9.52544-6.30465,9.52867-14.64432,0-13.824-26.006-21.35229l-24.92355-8.02613q-69.48834-20.93454-69.48515-67.63294,0-33.3851,27.65452-56.2007,22.77474-18.73358,59.38556-18.73357,53.61954,0,87.78562,46.28548l-48.58017,41.13141q-10.77162-24.54508-39.7748-24.54672-21.84613,0-21.84462,10.3867,0,7.6517,26.7245,14.577l32.20074,10.37067q63.51806,20.45586,66.57937,70.34467,0,34.46033-32.06607,61.28417-31.57858,26.1327-84.59285,26.13269" fill="#100249"/><path d="M161.42679,248.28A34.08508,34.08508,0,1,1,127.34171,214.195,34.08469,34.08469,0,0,1,161.42679,248.28" fill="#100249"/><path d="M1153.796,296.69911q0,14.11515,5.61425,21.17428,5.61192,7.06238,20.16719,7.056a74.50552,74.50552,0,0,0,10.60318-.80341c3.74283-.534,17.06583-1.33743,19.55946-2.41025l.83225,48.213c-4.71623,1.60684-20.87924,3.01322-28.0843,4.21754a130.859,130.859,0,0,1-21.62165,1.8073q-20.79992,0-34.93026-5.03379-14.144-5.02979-22.664-14.50159a56.26692,56.26692,0,0,1-12.26612-22.55661,106.10533,106.10533,0,0,1-3.74284-29.202V184.40275h-41.61089V120.20959h41.1955V67.577H1153.796Z" fill="#100249"/><rect x="1165.55423" y="120.09202" width="54.6243" height="64.31073" fill="#100249"/><path d="M299.94856,86.3471h-19.035l-19.019-27.6144V86.3471h-15.475V36.55452h26.36362a7.275,7.275,0,0,0,7.28043-7.28043v-.99424a7.28535,7.28535,0,0,0-7.28043-7.28052H246.4195V4.899h23.445a24.00569,24.00569,0,0,1,5.82117,47.307Z" fill="#100249"/><polygon points="187.85 4.904 171.158 4.904 191.308 51.802 191.303 86.341 206.159 86.341 206.159 51.802 206.159 47.822 187.85 4.904" fill="#100249"/><polygon points="228.827 4.904 212.02 4.904 205.25 21.006 213.552 40.504 228.827 4.904" fill="#100249"/><path d="M470.49266,45.13508c-3.02231-3.01878-7.7551-5.92164-14.4565-8.85086l-5.22273-2.30229a36.44024,36.44024,0,0,1-7.33536-3.9917c-2.46382-1.97388-2.743-3.72122-2.743-4.86446a7.4589,7.4589,0,0,1,2.5604-5.948,7.50368,7.50368,0,0,1,.75341-.46015V1.5655A25.49053,25.49053,0,0,0,432.33543,7.229a22.02481,22.02481,0,0,0-8.05886,17.57534,21.23922,21.23922,0,0,0,6.25707,15.57691c2.80633,2.80629,7.11937,5.46508,13.28341,8.15367l4.77839,1.98444c5.36325,2.34441,7.87273,4.03913,9.04582,5.06291a8.84211,8.84211,0,0,1,3.17511,7.18256,10.57819,10.57819,0,0,1-3.57727,8.20469c-4.82057,4.40608-12.26654,4.64671-16.79561.27922a13.44969,13.44969,0,0,1-4.03908-8.20817l-.58481-4.3675-16.2547,4.55363.70769,3.48771a28.94743,28.94743,0,0,0,9.82909,17.04322,29.68626,29.68626,0,0,0,38.85083-1.66481,27.181,27.181,0,0,0,8.317-20.12346,22.74509,22.74509,0,0,0-6.77687-16.83431" fill="#100249"/><path d="M460.27428,23.36894l2.002,3.493,13.394-8.59275-1.68061-3.12939c-4.00928-7.42491-9.81682-11.92413-17.2891-13.54151V19.11914a14.925,14.925,0,0,1,3.57373,4.2498" fill="#100249"/><polygon points="47.34 44.948 47.331 44.957 38.324 53.969 38.251 54.042 38.241 54.033 29.157 44.948 38.251 35.854 47.34 44.948" fill="#100249"/><polygon points="87.411 4.834 58.674 33.602 49.698 24.393 69.242 4.834 87.411 4.834" fill="#100249"/><polygon points="38.243 4.834 22.778 4.834 22.778 44.837 22.778 86.224 38.243 86.224 38.243 58.485 24.602 44.948 38.243 31.301 38.243 4.834" fill="#100249"/><polygon points="86.732 86.224 65.498 86.224 39.613 57.237 50.487 46.363 86.732 86.224" fill="#100249"/><polygon points="134.053 0 118.37 36.552 133.726 36.552 139.392 49.806 112.663 49.806 97.035 86.224 112.936 86.224 121.394 66.587 146.612 66.587 155.147 86.478 171.158 86.478 134.053 0" fill="#100249"/><line x1="171.15779" y1="86.47801" x2="134.54059" y2="1.1362" fill="#100249"/><path d="M401.86371,45.61449a44.07992,44.07992,0,0,1-.56613,7.1019,44.57831,44.57831,0,0,1-88.02,0h16.63993a28.2616,28.2616,0,0,0,54.723,0,27.69651,27.69651,0,0,0,.90914-7.1019,28.27638,28.27638,0,0,0-55.64935-7.08483H313.27761a44.57831,44.57831,0,0,1,88.02,0A43.71112,43.71112,0,0,1,401.86371,45.61449Z" fill="#100249"/><polygon points="344.563 31.36 377.798 45.623 344.563 59.886 344.563 31.36" fill="#100249"/></svg>